<svg xmlns="http://www.w3.org/2000/svg" id="Layer_1" data-name="Layer 1" viewBox="0 0 112.67 36.42"><defs><style>.cls-4{stroke-miterlimit:10}.cls-4,.cls-6{fill:none}.cls-4{stroke:#fff;stroke-width:.19px}</style></defs><g id="_Group_" data-name="&lt;Group&gt;"><g id="_Group_2" data-name="&lt;Group&gt;"><path id="_Compound_Path_" fill="#cbc46e" stroke="#cbc46e" stroke-miterlimit="10" stroke-width="1.04" d="M18.24 30.09a11.83 11.83 0 1 1 11.83-11.84 11.85 11.85 0 0 1-11.83 11.84zm0-23.22a11.39 11.39 0 1 0 11.38 11.38A11.4 11.4 0 0 0 18.24 6.87z" data-name="&lt;Compound Path&gt;"/><path id="_Path_" fill="#004c23" stroke="#004c23" stroke-miterlimit="10" stroke-width=".47" d="M18.24 6.65a11.61 11.61 0 1 0 11.6 11.6 11.62 11.62 0 0 0-11.6-11.6z" data-name="&lt;Path&gt;"/><path id="_Compound_Path_2" fill="#fff" d="M18.24 7.06a11.2 11.2 0 1 0 11.19 11.2 11.22 11.22 0 0 0-11.19-11.2zm7 19a1.26 1.26 0 0 1-1 0 .88.88 0 0 1-.5-.69 2.23 2.23 0 0 1 .39-1.37 7.4 7.4 0 0 1 1.78-2c1.12-.83 1.9-1.07 1.61-1.26s-1.26.45-1.47.56A6.56 6.56 0 0 0 23 25.07a1.48 1.48 0 0 0 1.86 1.51A10.31 10.31 0 0 1 18.24 29a10.3 10.3 0 0 1-6.63-2.37 1.48 1.48 0 0 0 1.86-1.51 6.59 6.59 0 0 0-3-3.72c-.21-.11-1.28-.69-1.48-.56s.49.43 1.61 1.26a7.23 7.23 0 0 1 1.78 2 2.23 2.23 0 0 1 .41 1.33.91.91 0 0 1-.5.69 1.28 1.28 0 0 1-1.05 0 3 3 0 0 1-1.37-1.22 11.1 11.1 0 0 1-1.74-3.21c.3.66 2.19 3.44 3 3.48s-.84-2.26-2-3.22a1.54 1.54 0 0 1-.65-.95.42.42 0 0 1 .42-.54 7.41 7.41 0 0 1 1.7.59c-2.11-3.8 1.13-5.72-.21-6.55-.47-.3-1.47 0-2 .08 5-2.95 5.86 0 7.37 1.34.23.22 1.29 0 1.49-.25a2 2 0 0 0 .2-2.23c-.88-1.1-4.5-4.36-7.8-1.48a10.58 10.58 0 0 1 17.19 0c-3.31-2.88-6.92.38-7.8 1.48a2 2 0 0 0 .19 2.23c.21.25 1.27.47 1.51.25 1.5-1.35 2.37-4.29 7.36-1.34-.54-.08-1.54-.38-2-.08-1.35.83 1.89 2.75-.22 6.55a7.41 7.41 0 0 1 1.7-.59.42.42 0 0 1 .42.54 1.54 1.54 0 0 1-.67.93c-1.17 1-2.88 3.27-2 3.22s2.74-2.82 3-3.48a11.1 11.1 0 0 1-1.73 3.23 3 3 0 0 1-1.34 1.1zm-5.79-1.26c-.41 0-.85.13-1.21.13s-.81-.09-1.21-.13a.15.15 0 0 0-.12 0c-.23.5 1.13.78 1.32.78s1.57-.28 1.33-.78a.14.14 0 0 0-.09-.05zm-1.21-4.43c-.39 0-.59.33-.95.7-.62.67-1.88 2.34-1 3.14a1.66 1.66 0 0 0 1.68.36c.19-.12.08-.5 0-.67-.35-.45-.89-.27-1-.49a.39.39 0 0 1 0-.5c.13-.16.34-.12.51-.07a1.43 1.43 0 0 1 .73.39 1.4 1.4 0 0 1 .72-.39c.17-.05.39-.09.51.07a.39.39 0 0 1 0 .5c-.16.22-.68 0-1 .49-.09.17-.21.55 0 .67a1.66 1.66 0 0 0 1.68-.36c.93-.8-.34-2.47-1-3.14-.27-.42-.49-.75-.86-.75zm7.86-2.75c-.06-.46-.46-.61-.82-.72a2.51 2.51 0 0 0-1.79.11c.33-.37.25-1-.18-1.07-.81-.13-.59.74-.39 1.15s.28.68.68.65.42-.44 1.12-.5c0 0 .88.07.87.35s-.49.57-.79.67-.94-.07-1.3.34a.54.54 0 0 0-.16.45c0 .15.06.09.54.13a2.28 2.28 0 0 0-.44 1.3c0 1.21-.32 2.14-.2 2.56a4.89 4.89 0 0 0 .68-2.62 3 3 0 0 1 .43-1.25c.25-.37.72-.39 1-.62s.81-.64.77-.98zm-12.85-1.73c-.42.07-.5.7-.18 1.07a2.47 2.47 0 0 0-1.78-.11c-.36.11-.77.26-.82.72s.42.71.72.93.78.25 1 .62a3.25 3.25 0 0 1 .43 1.25 4.88 4.88 0 0 0 .7 2.63c.11-.42-.19-1.35-.2-2.56a2.28 2.28 0 0 0-.44-1.3c.49 0 .5 0 .54-.13a.51.51 0 0 0-.16-.45c-.35-.41-.86-.2-1.31-.34-.29-.1-.75-.26-.77-.67s.86-.35.86-.35c.71.06.63.46 1.11.5s.57-.39.7-.65.42-1.29-.4-1.16zM16.37 21a3 3 0 0 0 .47-2 2.08 2.08 0 0 1-.93-.73c-.23-.34-.37-.71-.78-.82a1 1 0 0 0-.8.08c-.36.2-.45.7-.5 1.09a6.66 6.66 0 0 0 .48 2.75 12.62 12.62 0 0 0 1.29 2.37 4.17 4.17 0 0 1 .77-2.74zm-1.06-1.78c-.15-.28-.56-.23-.76-.34a.55.55 0 0 1 0-.89c.37-.35 1.35.76 1.13 1.62-.09.07-.14.02-.37-.35zm6.82-1.75a1 1 0 0 0-.8-.08c-.4.11-.53.48-.77.82a2.1 2.1 0 0 1-.94.73 3.07 3.07 0 0 0 .47 2.06 4.09 4.09 0 0 1 .79 2.68 11.93 11.93 0 0 0 1.28-2.37 6.83 6.83 0 0 0 .48-2.75 1.4 1.4 0 0 0-.51-1.05zm-.22 1.41c-.18.11-.59.06-.76.34s-.27.42-.37.39c-.21-.86.76-2 1.14-1.62a.55.55 0 0 1-.01.93z" data-name="&lt;Compound Path&gt;"/></g><g id="_Group_3" data-name="&lt;Group&gt;"><path id="_Path_2" d="M24.86 26.58A10.31 10.31 0 0 1 18.24 29a10.29 10.29 0 0 1-6.62-2.37" class="cls-4" data-name="&lt;Path&gt;"/><path id="_Path_3" d="M9.64 12a10.58 10.58 0 0 1 17.19 0" class="cls-4" data-name="&lt;Path&gt;"/></g></g><path fill="#004c23" d="M36.12 17H38c.83 0 1.29-.41 1.29-1.17v-.88h-1.24v.83c0 .07 0 .16-.2.16h-1.59c-.16 0-.19-.08-.19-.16v-3.24c0-.08 0-.16.19-.16h1.59c.18 0 .2.09.2.16v.83h1.24v-.88c0-.76-.46-1.18-1.29-1.18h-1.88c-.83 0-1.29.42-1.29 1.18v3.32c0 .76.46 1.19 1.29 1.19zm5.67 0h2c.83 0 1.29-.41 1.29-1.17v-3.34c0-.76-.46-1.18-1.29-1.18h-2c-.84 0-1.3.42-1.3 1.18v3.32c0 .76.51 1.19 1.3 1.19zm0-1.22v-3.24c0-.08 0-.16.19-.16h1.69c.19 0 .2.09.2.16v3.22c0 .07 0 .16-.2.16h-1.74c-.17 0-.19-.08-.19-.16zm8.38.13h-2.65v-4.6h-1.24v5.67h3.89v-1.07zm5.51-.1v-3.32c0-.76-.46-1.18-1.29-1.18h-2c-.84 0-1.3.42-1.3 1.18v3.32c0 .76.46 1.17 1.3 1.17h2c.83.02 1.29-.41 1.29-1.17zm-1.25-3.27v3.22c0 .07 0 .16-.2.16h-1.69c-.17 0-.19-.08-.19-.16v-3.22c0-.08 0-.16.19-.16h1.69c.19 0 .2.09.2.16zm6.03 2.3a1.06 1.06 0 0 0 .85-1.13v-1.22c0-.76-.46-1.18-1.29-1.18h-3.13V17h1.24v-2.11h1L60.21 17h1.36zm-2.33-2.47h1.75c.16 0 .19.08.19.17v1.14c0 .08 0 .16-.19.16h-1.75zm5.99 3.27h2l.41 1.36h1.36l-2.09-5.69h-1.36L62.35 17h1.31zm.35-1.07.63-1.84.62 1.84zm7.59-3.26h-3.2V17h3.2c.83 0 1.29-.41 1.29-1.17v-3.34c0-.76-.46-1.18-1.29-1.18zm-2 1.07h1.81c.17 0 .19.08.19.16v3.22c0 .08 0 .16-.19.16H70.1zM75.83 17h2c.84 0 1.3-.41 1.3-1.17v-3.34c0-.76-.46-1.18-1.3-1.18h-2c-.84 0-1.3.42-1.3 1.18v3.32c0 .76.47 1.19 1.3 1.19zm0-1.22v-3.24c0-.08 0-.16.19-.16h1.69c.19 0 .2.09.2.16v3.22c0 .08 0 .16-.2.16H76c-.2 0-.22-.08-.22-.16zm9.55-2.05-1.56-.31c-.27-.06-.3-.11-.3-.26v-.63c0-.08 0-.17.2-.17h1.45c.16 0 .19.07.19.17v.65h1.23v-.69c0-.76-.46-1.18-1.29-1.18h-1.73c-.83 0-1.29.42-1.29 1.18v.8c0 .82.62 1.06 1.3 1.2l1.56.32c.27.06.3.1.3.25v.71c0 .1 0 .17-.19.17h-1.57c-.16 0-.19-.07-.19-.17v-.71h-1.23v.75c0 .76.46 1.17 1.29 1.17h1.84c.84 0 1.29-.41 1.29-1.17v-.88c0-.82-.62-1.06-1.3-1.2zm6.71-2.42h-4.55v1.07h1.65v4.6h1.25v-4.6h1.65v-1.07zm1.91 0L91.92 17h1.31l.45-1.34h2l.41 1.34h1.37l-2.1-5.67zm1.28 3.26H94l.62-1.84zm1.99-2.19h1.65v4.6h1.24v-4.6h1.65v-1.07h-4.54v1.07zm9.52 0v-1.07h-4.1v5.67h4.1v-1.07h-2.86v-1.29h2.36v-1.06h-2.36v-1.18h2.86zm-68.67 11.8c0 .08 0 .16-.19.16h-1.66c-.17 0-.2-.08-.2-.16v-4.44h-1.24v4.49c0 .76.46 1.18 1.29 1.18h2c.83 0 1.29-.42 1.29-1.18v-4.49h-1.29zm6.06-.81-2.36-3.63h-1.24v5.67h1.18v-3.74l2.43 3.74h1.17v-5.67h-1.18v3.63zm2.39-3.63h1.24v5.67h-1.24zm4.88 4.15-1.3-4.15h-1.36l1.97 5.67h1.34l1.97-5.67h-1.32l-1.3 4.15zm3.59 1.52h4.1v-1.07h-2.86v-1.3h2.36v-1.05h-2.36v-1.18h2.86v-1.07h-4.1v5.67zm9.68-3.27v-1.22c0-.76-.45-1.18-1.29-1.18H60.3v5.67h1.25v-2.1h1l1.08 2.1H65l-1.12-2.14a1.06 1.06 0 0 0 .84-1.13zm-3.17-1.34h1.74c.17 0 .19.08.19.16v1.15c0 .08 0 .16-.19.16h-1.74zM69 22.16l-1.56-.31c-.28-.06-.3-.11-.3-.26V21c0-.08 0-.16.2-.16h1.45c.16 0 .19.06.19.16v.66h1.23v-.69c0-.76-.46-1.18-1.29-1.18h-1.75c-.84 0-1.29.42-1.29 1.18v.79c0 .83.62 1.07 1.3 1.21l1.56.32c.27.05.3.1.3.25v.71c0 .1 0 .16-.19.16h-1.57c-.16 0-.19-.06-.19-.16v-.72h-1.23v.75c0 .76.46 1.18 1.29 1.18H69c.83 0 1.29-.42 1.29-1.18v-.87c-.01-.88-.63-1.12-1.29-1.25zm2.45-2.42h1.24v5.67h-1.24zm2.1 1.06h1.66v4.61h1.24V20.8h1.65v-1.06h-4.55v1.06zm7.67 1.4-1.32-2.46h-1.37l2.06 3.68v1.99h1.24v-1.99l2.06-3.68h-1.35l-1.32 2.46z"/><path d="M106.82 11.64h5.85v5.85h-5.85z" class="cls-6"/><path d="M0 0h112.61v36.42H0z" class="cls-6"/></svg>