<svg xmlns="http://www.w3.org/2000/svg" xmlns:xlink="http://www.w3.org/1999/xlink" xml:space="preserve" id="Layer_1" x="0" y="0" enable-background="new 0 0 241 100.6" version="1.1" viewBox="0 0 241 100.6"><style>.st0{fill:#003f69}</style><g><path d="M41.8 52.3C47.7 47.6 51 40 51 30.8c0-7.1-1.9-12.7-5.9-17.4-4.4-5.1-9.4-6.9-19.2-6.9H3.6v1.7l6.4 2.7v42l-6.4 2.7v1.7h21.2c7.5 0 12.6-1.5 17-5zm-25.4 2.3V9.1H25c7.3 0 11.6 2 14.8 6.9 2.9 4.1 4.3 9.4 4.3 15.7 0 7.4-1.9 12.9-6 17.4-3.7 4-7.7 5.6-14 5.6l-7.7-.1zM144.8 45.9H143l-4.6 8.7h-20.7V32.7h17.6l2.6 7.2h1.8V23.2h-1.8l-2.6 6.9h-17.6v-21H138l3.6 8.4h1.9v-11h-38.6v1.8l6.4 2.7v42l-6.4 2.7-6.6-2.7-15-21.6c7.9-1.1 12.5-5.9 12.5-12.9 0-3.8-1.4-6.9-4.1-9.1C89 7 85.3 6.5 79.1 6.5H55.8v1.7l6.4 2.7v42l-6.4 2.7v1.7h19.3v-1.7l-6.4-2.7V32.7h7.8l17 24.6h50.3l1-11.4zM68.7 30V9.1H79c6.3 0 10 3.7 10 10.1S84.8 30 78.8 30H68.7zM207 6.5v1.7l6.1 2.7-12.5 36-.7-2.3-.7-2.1-.8-2.5-10.8-33.5h-3L170.4 47c-.7-3-1.1-4.3-2-7.2l-9.1-28.9 6.1-2.7V6.5h-18.6v1.7l5.9 2.7L167.8 58h2.4l14.3-40.3L197.6 58h2.7l17.1-47.1 5.9-2.7V6.5H207zM24 85.8c0 4.3-1.8 6.2-5.1 6.2s-5.1-2-5.1-6.2V72.9H10v13.3c0 6.1 3.6 9.2 8.9 9.2s8.9-3.1 8.9-9.2V72.8H24v13zM10 86.1zM48.8 88.2 38.2 72.8h-3.6V95h3.6V78.9L49.6 95h2.8l.1-22.2h-3.7zM60.4 72.8h3.8V95h-3.8zM79.2 90.1l-6.3-17.3H69L77.3 95h3.6l8.4-22.1h-3.8zM94.1 95h14.5v-3.3H97.8v-6.4h9.7V82h-9.7v-5.8h10.8v-3.3H94.1zM131.8 79.5c0-4.3-3-6.6-7.5-6.6h-8.6v22.2h3.8v-9h2.7l6.2 9h4.3l-6.4-9.1c3.3-.6 5.5-2.8 5.5-6.5zm-12.3 3.4v-6.8h4.7c2.5 0 3.9 1.3 3.9 3.4s-1.4 3.4-3.9 3.4h-4.7zM147.1 82.7l-3.6-1.3c-1.8-.7-2.9-1.3-2.9-2.9 0-1.8 1.7-2.7 3.9-2.7 2.6 0 4.6 1 6.5 2.4v-3.9c-1.8-1.2-4-1.8-6.5-1.8-4.1 0-7.5 2.1-7.5 6 0 3.6 2.2 5.2 5.2 6.3l3.2 1.2c2 .8 3.1 1.4 3.1 3.2 0 2-1.8 2.9-4.3 2.9-2.6 0-5-.9-7-2.6v3.9c1.6 1.1 4.1 1.9 7 1.9 4.5 0 7.9-2.2 7.9-6.3 0-3.1-1.5-5-5-6.3zM159 72.9h3.8v22.2H159zM167.9 72.9v3.3h7.4V95h3.8V76.2h7.3v-3.3H168zM197.5 82.8l-5.9-9.9h-4.1l8 13.3V95h3.7v-8.8l8.1-13.3h-4z" class="st0"/></g></svg>