<svg xmlns="http://www.w3.org/2000/svg" id="Layer_1" data-name="Layer 1" viewBox="0 0 435.37 168.43"><defs><style>.cls-1{fill:#063}</style></defs><g><path d="M196.95 115.85c0 6.69-1.28 17.93-9.83 17.93-8.03 0-9.72-9.75-9.72-17.93s1.69-17.93 9.72-17.93c8.55 0 9.83 11.23 9.83 17.93m-9.83-24.31c-14.9 0-23.8 12.36-23.8 24.31s8.9 24.31 23.8 24.31 23.91-12.36 23.91-24.31-8.94-24.31-23.91-24.31Z" class="cls-1"/><path d="M258.63 92.86h-19.94l6.37 6.37v18.28c-.7-.88-19.56-24.64-19.56-24.64h-16.18l6.36 6.37v33.26l-6.36 6.37h20.32s-6.25-6.25-6.36-6.37v-24.37l29.44 35.72.04-44.61 6.36-6.37h-.49" class="cls-1"/><path fill="#fc3" d="M120.27 20.01 131.32 0c-2.62 2.46-3.94 3.23-6.38 4.9-13.35 9.16-29.78 11.34-46.29 24.92-11.2 9.21-16.37 22.57-16.37 22.57s15.03-16.88 37.76-25.31c9.17-3.4 15.56-5.26 20.23-7.08"/><path d="M114.39 30.69c-11.97 3.82-26.22 7.45-40.82 17.3-11.37 7.67-17.98 20.77-17.98 20.77s16.04-16.04 39.35-21.51c4.69-1.1 8.63-2.02 11.93-2.79l7.52-13.77" class="cls-1"/><path d="M96.16 120.41c.2-.51 4.22-10.53 4.56-11.4.33.87 4.17 10.89 4.37 11.4h-8.93m58.17-6.15-12.06-6.48c-3.13-1.82-4.25-4.03-4.25-5.49-.04-.7.38-1.6 1.09-2.36 1.13-1.21 2.8-1.9 4.58-1.9.93 0 2.03.29 3.36.89 0 .02 6.23 6.14 6.23 6.14l.18.18 6.78-10.6-12.36-1.77c-1.64-.31-3.53-.31-4.79-.31-11.2 0-16.31 6.67-16.31 12.86 0 3.63 2.18 8.69 8.31 12.03l12.06 6.49c1.05.76 2.53 1.83 2.53 4.28 0 4.38-4 5.98-6.69 5.98-1.57 0-2.96-.4-4.14-1.18l-6.86-6.76-.2-.19-5.6 10.91-3.84-4.82-15.47-39.15-.05-.13h-7.67l-15.85 39.33-3.71 4.71-5.05-5.79V70.9c16.12-12.77 26.53-15.36 26.51-15.36-5.73.52-17.69 1.59-31.68 9.39-9.21 5.13-16.47 12.14-16.47 12.14l-.02.05h-.01c-2.73 5.12-6.52 13.65-10.23 22.81L24.19 66.24H0l7.73 7.74v56.99L0 138.71h26.46l-7.86-7.74V86.75l17.29 30.94c-2.58 7.27-4.61 13.77-5.45 17.94l5.56-6.46s4.51-21.5 22.31-42.61v45.09l-7.74 7.22h46.8s-5.94-5.95-6.13-6.13c.09-.23 2.33-5.79 2.43-6.03h13.9c.09.25 2.06 5.8 2.14 6.03-.17.18-6.13 6.13-6.13 6.13h22.92c3.21.08 11.51.3 11.52.3 1.65.27 3.44.41 5.48.41 13.09 0 17.73-7.75 17.73-14.38s-4.82-9.84-6.89-10.91Z" class="cls-1"/><path d="M117.88 84.94c-3.66.93-6.39.99-8.37.99-5.77 0-12.43-2.91-12.43-11.1s5.74-11.29 13.67-11.29c1.43 0 4.43.15 6.54.96l-.46 4.71c-1.8-1.05-3.91-1.39-5.27-1.39-4.68 0-8.53 1.95-8.53 7.01 0 4.25 3.01 6.82 7.23 6.82.78 0 1.52-.12 2.05-.37V77h-3.38v-4.09h8.96v12.03M128.76 63.92h15.26v4.09h-9.49v4.46h8.96v4.1h-8.96v4.9h9.83v4.09h-15.6V63.92M163.55 81.65c3.5 0 4.9-3.35 4.9-6.91 0-3.75-1.39-6.91-4.9-6.91s-4.9 3.16-4.9 6.91 1.39 6.91 4.9 6.91m0-18.11c7.13 0 10.85 4.25 10.85 11.19s-3.78 11.19-10.85 11.19-10.85-4.31-10.85-11.19 3.72-11.19 10.85-11.19ZM189.19 72.91h1.52c1.86 0 4.22-.06 4.22-2.51 0-2.02-2.01-2.39-4.22-2.39h-1.52v4.9m-5.77-8.99h10.3c3.85 0 6.98 1.74 6.98 5.46 0 2.88-1.36 4.81-4.15 5.46v.06c1.86.5 1.98 2.14 3.07 4.78l2.11 5.89h-6.02l-1.24-3.91c-1.18-3.72-1.92-4.65-4.06-4.65h-1.21v8.56h-5.77V63.93ZM230.18 84.94c-3.66.93-6.39.99-8.37.99-5.77 0-12.43-2.91-12.43-11.1s5.74-11.29 13.67-11.29c1.43 0 4.43.15 6.54.96l-.47 4.71c-1.8-1.05-3.91-1.39-5.27-1.39-4.68 0-8.53 1.95-8.53 7.01 0 4.25 3.01 6.82 7.22 6.82.77 0 1.52-.12 2.05-.37V77h-3.38v-4.09h8.96v12.03M240.42 63.92h15.25v4.09h-9.49v4.46h8.96v4.1h-8.96v4.9h9.83v4.09h-15.59V63.92M17.26 162.35c0 4.19-2.72 6.08-6.72 6.08s-6.72-1.89-6.72-6.08v-9.5H7.9v8.82c0 2.02.55 3.73 2.63 3.73s2.64-1.71 2.64-3.73v-8.82h4.08v9.5M33.19 152.85h5.2l5.18 10.4h.04l-.06-10.4h3.73v15.32h-5.07l-5.35-10.47h-.05l.13 10.47h-3.75v-15.32M64.84 152.85h4.08v15.32h-4.08zM85.5 152.85h4.34l3.4 12.03h.05l3.42-12.03h4.19l-5.22 15.32h-5.05l-5.13-15.32M116.12 152.85h10.79v2.9h-6.71v3.16h6.34v2.9h-6.34v3.46h6.95v2.9h-11.03v-15.32M147.37 159.21h1.08c1.32 0 2.98-.04 2.98-1.78 0-1.43-1.43-1.69-2.98-1.69h-1.08v3.47m-4.08-6.36h7.29c2.72 0 4.94 1.23 4.94 3.86 0 2.04-.97 3.4-2.94 3.86v.04c1.32.35 1.41 1.51 2.17 3.38l1.49 4.17h-4.26l-.88-2.77c-.83-2.63-1.36-3.29-2.88-3.29h-.86v6.06h-4.08v-15.32ZM171.07 164.39c1.05.57 2.52 1.01 4.21 1.01 1.29 0 2.52-.26 2.52-1.49 0-2.85-7.24-1.05-7.24-6.63 0-3.69 3.6-4.7 6.67-4.7 1.47 0 2.92.22 3.95.57l-.26 3.16c-1.05-.48-2.24-.7-3.4-.7-1.03 0-2.74.09-2.74 1.43 0 2.48 7.24.81 7.24 6.34 0 3.97-3.34 5.05-6.74 5.05-1.43 0-3.2-.22-4.57-.66l.35-3.38M197.37 152.85h4.08v15.32h-4.08zM221.23 155.88h-3.78v-3.03h11.64v3.03h-3.78v12.29h-4.08v-12.29M246.43 162.4l-5.67-9.55h4.7l3.01 6.15 2.96-6.15h4.7l-5.62 9.55v5.77h-4.08v-5.77" class="cls-1"/></g><path d="M279.33 63.92h1.94v104.25h-1.94z"/><g><path d="M306.55 100.7h4.88v18.25h.17c1.01-1.46 2.02-2.81 2.97-4.04l11.57-14.2h6.06l-13.7 16.06 14.76 21.78h-5.78l-12.46-18.59-3.59 4.16v14.43h-4.88v-37.84ZM361.97 124.73c0 10.05-6.96 14.43-13.53 14.43-7.35 0-13.02-5.39-13.02-13.98 0-9.1 5.95-14.43 13.47-14.43s13.08 5.67 13.08 13.98Zm-21.56.28c0 5.95 3.42 10.44 8.25 10.44s8.25-4.43 8.25-10.56c0-4.6-2.3-10.44-8.14-10.44s-8.37 5.39-8.37 10.56ZM368.77 119.85c0-3.2-.06-5.95-.22-8.48h4.32l.17 5.33h.22c1.23-3.65 4.21-5.95 7.52-5.95.56 0 .95.06 1.4.17v4.66c-.51-.11-1.01-.17-1.68-.17-3.48 0-5.95 2.64-6.63 6.35-.11.67-.22 1.46-.22 2.3v14.48h-4.88v-18.7ZM389.89 125.86c.11 6.68 4.38 9.43 9.32 9.43 3.54 0 5.67-.62 7.53-1.4l.84 3.54c-1.74.79-4.71 1.68-9.04 1.68-8.37 0-13.36-5.5-13.36-13.7s4.83-14.65 12.74-14.65c8.87 0 11.23 7.81 11.23 12.8 0 1.01-.11 1.8-.17 2.3h-19.09Zm14.48-3.54c.06-3.14-1.29-8.03-6.85-8.03-4.99 0-7.19 4.6-7.58 8.03h14.43ZM430.88 138.55l-.39-3.42h-.17c-1.52 2.13-4.44 4.04-8.31 4.04-5.5 0-8.31-3.88-8.31-7.81 0-6.57 5.84-10.16 16.34-10.11v-.56c0-2.24-.62-6.29-6.17-6.29-2.53 0-5.17.79-7.08 2.02l-1.12-3.26c2.25-1.46 5.5-2.41 8.93-2.41 8.31 0 10.33 5.67 10.33 11.12v10.16c0 2.36.11 4.66.45 6.51h-4.49Zm-.73-13.87c-5.39-.11-11.51.84-11.51 6.12 0 3.2 2.13 4.71 4.66 4.71 3.54 0 5.78-2.24 6.57-4.55.17-.51.28-1.07.28-1.57v-4.72Z"/></g></svg>