<svg xmlns="http://www.w3.org/2000/svg" xmlns:xlink="http://www.w3.org/1999/xlink" xml:space="preserve" id="Layer_1" x="0" y="0" enable-background="new 0 0 166 100.6" version="1.1" viewBox="0 0 166 100.6"><style>.st0{fill:#00693f}</style><g><path d="M114.9 66.1c0 3.8-.7 10.2-5.6 10.2-4.6 0-5.5-5.6-5.5-10.2 0-4.7 1-10.2 5.5-10.2 4.9-.1 5.6 6.3 5.6 10.2m-5.6-13.9c-8.5 0-13.6 7-13.6 13.9 0 6.8 5.1 13.9 13.6 13.9s13.6-7 13.6-13.9-5.1-13.9-13.6-13.9z" class="st0"/><path d="M150.1 53h-11.4l3.6 3.6V67c-.4-.5-11.2-14.1-11.2-14.1h-9.2l3.6 3.6v19l-3.6 3.6h11.6l-3.6-3.6V61.6c.4.5 16.8 20.4 16.8 20.4V56.6l3.6-3.6h-.2" class="st0"/><path fill="#fdbd10" d="M71.2 11.4 77.5 0c-1.5 1.4-2.2 1.8-3.6 2.8C66.2 8 56.8 9.3 47.4 17c-6.4 5.3-9.3 12.9-9.3 12.9s8.6-9.6 21.5-14.4c5.3-2 8.9-3.1 11.6-4.1"/><path d="M67.8 17.5c-6.8 2.2-14.9 4.2-23.3 9.9-6.5 4.3-10.2 11.8-10.2 11.8s9.1-9.1 22.4-12.3c2.7-.6 4.9-1.2 6.8-1.6l4.3-7.8" class="st0"/><path d="M57.4 68.7c.1-.3 2.4-6 2.6-6.5.2.5 2.4 6.2 2.5 6.5h-5.1m33.2-3.5-6.9-3.7c-1.8-1-2.4-2.3-2.4-3.1 0-.4.2-.9.6-1.3.6-.7 1.6-1.1 2.6-1.1.5 0 1.2.2 1.9.5l3.5 3.5.1.1 3.9-6-7-1c-.9-.2-2-.2-2.7-.2-6.4 0-9.3 3.8-9.3 7.3 0 2.1 1.2 5 4.7 6.9l6.9 3.7c.6.4 1.4 1 1.4 2.4 0 2.5-2.3 3.4-3.8 3.4-.9 0-1.7-.2-2.4-.7L77.8 72l-.1-.1-3.2 6.2-2.2-2.7L63.5 53v-.1h-4.4l-9 22.4S48.8 76.9 48 78l-2.9-3.3V40.4c9.2-7.3 15.1-8.8 15.1-8.8-3.3.4-10.1 1-18.1 5.4-5.2 2.9-9.4 6.9-9.4 6.9-1.6 2.9-3.7 7.8-5.8 13L16.4 37.8H2.6L7 42.2v32.5l-4.4 4.4h15.1l-4.5-4.4V49.5L23 67.1c-1.5 4.1-2.6 7.8-3.1 10.2l3.2-3.7s2.6-12.3 12.7-24.3V75l-4.4 4.1h26.7l-3.5-3.5c.1-.1 1.3-3.3 1.4-3.4h7.9c.1.1 1.2 3.3 1.2 3.4l-3.5 3.5h13.1c1.8 0 6.6.2 6.6.2.9.2 2 .2 3.1.2 7.5 0 10.1-4.4 10.1-8.2 0-3.7-2.7-5.5-3.9-6.1z" class="st0"/><path d="M69.8 48.4c-2.1.6-3.6.6-4.8.6-3.3 0-7.1-1.7-7.1-6.3 0-4.7 3.3-6.4 7.8-6.4.8 0 2.5.1 3.7.5l-.3 2.7c-1-.6-2.2-.8-3-.8-2.7 0-4.9 1.1-4.9 4 0 2.4 1.7 3.9 4.1 3.9.4 0 .9-.1 1.2-.2V44h-1.9v-2.3h5.1v6.7M76 36.4h8.7v2.4h-5.4v2.5h5.1v2.4h-5.1v2.8h5.6v2.3H76V36.4M95.8 46.6c2 0 2.8-1.9 2.8-3.9 0-2.1-.8-3.9-2.8-3.9S93 40.5 93 42.6c0 2.1.8 4 2.8 4m0-10.4c4.1 0 6.2 2.4 6.2 6.4 0 3.9-2.2 6.4-6.2 6.4s-6.2-2.5-6.2-6.4c.1-3.9 2.2-6.4 6.2-6.4zM110.5 41.6h.9c1.1 0 2.4 0 2.4-1.4 0-1.2-1.1-1.4-2.4-1.4h-.9v2.8m-3.3-5.2h5.9c2.2 0 4 1 4 3.1 0 1.6-.8 2.7-2.4 3.1 1.1.3 1.1 1.2 1.8 2.7l1.2 3.4h-3.4l-.7-2.2c-.7-2.1-1.1-2.7-2.3-2.7h-.7v4.9h-3.3l-.1-12.3zM133.8 48.4c-2.1.5-3.6.6-4.8.6-3.3 0-7.1-1.7-7.1-6.3 0-4.7 3.3-6.4 7.8-6.4.8 0 2.5.1 3.7.5l-.3 2.7c-1-.6-2.2-.8-3-.8-2.7 0-4.9 1.1-4.9 4 0 2.4 1.7 3.9 4.1 3.9.4 0 .9-.1 1.2-.2V44h-1.9v-2.3h5.1v6.7M139.7 36.4h8.7v2.4H143v2.5h5.1v2.4H143v2.8h5.6v2.3h-8.9V36.4M12.4 92.6c0 2.4-1.6 3.5-3.8 3.5-2.3 0-3.8-1.1-3.8-3.5v-5.4h2.3v5c0 1.2.3 2.1 1.5 2.1s1.5-1 1.5-2.1v-5h2.3v5.4M21.5 87.2h3l2.9 5.9v-5.9h2.1v8.7h-2.9l-3-6v6h-2.1v-8.7M39.6 87.2h2.3v8.7h-2.3zM51.3 87.2h2.5l1.9 6.8h.1l1.9-6.8h2.4l-3 8.7h-2.8l-3-8.7M68.8 87.2h6.1v1.6h-3.8v1.8h3.6v1.7h-3.6v1.9h4v1.7h-6.3v-8.7M86.6 90.8h.6c.8 0 1.7 0 1.7-1 0-.8-.8-1-1.7-1h-.6v2m-2.3-3.6h4.2c1.6 0 2.8.7 2.8 2.2 0 1.2-.6 1.9-1.7 2.2.8.2.8.9 1.2 1.9l.9 2.4h-2.4l-.5-1.6c-.5-1.5-.8-1.9-1.6-1.9h-.5v3.5h-2.3l-.1-8.7zM100.1 93.7c.6.3 1.4.6 2.4.6.7 0 1.4-.2 1.4-.9 0-1.6-4.1-.6-4.1-3.8 0-2.1 2.1-2.7 3.8-2.7.8 0 1.7.1 2.3.3l-.2 1.8c-.6-.3-1.3-.4-1.9-.4s-1.6 0-1.6.8c0 1.4 4.1.5 4.1 3.6 0 2.3-1.9 2.9-3.8 2.9-.8 0-1.8-.1-2.6-.4l.2-1.8M115.1 87.2h2.3v8.7h-2.3zM128.7 88.9h-2.1v-1.7h6.6v1.7h-2.1v7h-2.4v-7M143.1 92.6l-3.2-5.4h2.6l1.8 3.5 1.7-3.5h2.6l-3.2 5.4v3.3h-2.3v-3.3" class="st0"/></g></svg>