<svg xmlns="http://www.w3.org/2000/svg" viewBox="0 0 231.547 20"><defs><style>.cls-1{fill:#ed1c24}</style></defs><g id="Layer_2" data-name="Layer 2"><g id="Layer_1-2" data-name="Layer 1"><path d="M4.6 19.319H.5a.5.5 0 01-.5-.5V1.218A.481.481 0 01.5.743h4.1a.481.481 0 01.5.475v17.6a.5.5 0 01-.5.501zM23.323 19.319h-3.35a1.137 1.137 0 01-1.049-.675L14 10.269c-.1-.176-.175-.2-.25-.2s-.125.051-.125.225v8.526a.5.5 0 01-.5.5H9.373a.524.524 0 01-.525-.5V1.668a.939.939 0 01.925-.925h3.3a1.115 1.115 0 011 .726l5.075 8.624c.1.176.151.226.225.226s.125-.026.125-.226v-8.85a.5.5 0 01.5-.5h3.75a.5.5 0 01.5.5v17.15a.94.94 0 01-.925.926zM38.97 4.893h-3.725v13.926a.5.5 0 01-.5.5H30.67a.5.5 0 01-.5-.5V4.893h-3.8a.481.481 0 01-.5-.475v-3.2a.481.481 0 01.5-.475h12.6a.5.5 0 01.525.475v3.2a.5.5 0 01-.525.475zM47.818 19.544c-4.15 0-7.675-2.125-7.675-8.226V8.743c0-6.1 3.525-8.25 7.675-8.25s7.675 2.151 7.675 8.25v2.575c0 6.101-3.525 8.226-7.675 8.226zm2.525-10.8c0-2.675-.775-3.775-2.525-3.775s-2.525 1.1-2.525 3.775v2.575c0 2.676.775 3.75 2.525 3.75s2.525-1.074 2.525-3.75zM68.69 20a10 10 0 1110-10 10 10 0 01-10 10zm0-18.5a8.5 8.5 0 108.5 8.5 8.493 8.493 0 00-8.5-8.5zm.6 9.2l-3.725 4.45a1.022 1.022 0 01-1.425.125.992.992 0 01-.125-1.4l3.25-3.849-3.25-3.875a1.012 1.012 0 111.55-1.3L69.29 9.3a1 1 0 01.275.7 1.089 1.089 0 01-.275.7zm5.25 0l-3.725 4.45a1.022 1.022 0 01-1.425.125.992.992 0 01-.125-1.4l3.25-3.849-3.25-3.875a1.012 1.012 0 111.55-1.3L74.54 9.3a1 1 0 01.275.7 1.089 1.089 0 01-.275.7z" class="cls-1"/><path d="M96.038 19.319H94.85a.487.487 0 01-.485-.485V4.454c0-.048 0-.073-.025-.073s-.024 0-.048.049l-3.468 7.178a1.042 1.042 0 01-1.091.7h-1.116a1.042 1.042 0 01-1.091-.7L84.059 4.43c-.024-.049-.024-.049-.049-.049s-.024.025-.024.073v14.38a.487.487 0 01-.485.485h-1.188a.487.487 0 01-.485-.485V2.005a.7.7 0 01.7-.7h1.576c.437 0 .631.1.776.411l4 8.319c.1.217.17.266.291.266s.194-.049.291-.266l4-8.319c.146-.314.34-.411.776-.411h1.576a.7.7 0 01.7.7v16.829a.487.487 0 01-.476.485zM113.034 19.319H111.6a.441.441 0 01-.413-.364l-1.576-5.578h-6.28l-1.552 5.578a.491.491 0 01-.436.364h-1.428a.39.39 0 01-.413-.388.4.4 0 01.025-.169l4.486-15.787a2.386 2.386 0 012.473-1.843 2.354 2.354 0 012.449 1.818l4.486 15.812a.4.4 0 01.025.169.376.376 0 01-.412.388zm-6.087-15.835c-.073-.267-.218-.436-.461-.436-.266 0-.412.169-.485.436l-2.207 7.979h5.36zM128.454 19.319h-1.5a.8.8 0 01-.776-.388L118.681 4.7c-.024-.049-.048-.074-.072-.074s-.024.025-.024.074v14.158a.457.457 0 01-.437.461h-1.261c-.242 0-.437-.049-.437-.291V1.981a.684.684 0 01.7-.679h1.334c.679 0 .8.121.994.485l7.444 14.161.049.073c.024 0 .024-.049.024-.073V1.762a.455.455 0 01.436-.46h1.286a.44.44 0 01.436.46v16.854a.7.7 0 01-.699.703zM143.34 19.173a19.1 19.1 0 01-4.025.316c-2.982 0-6.4-1.6-6.4-7.493V8.625c0-5.941 3.42-7.493 6.4-7.493a26.085 26.085 0 014.074.388c.218.024.388.1.388.315v1.237c0 .145-.049.266-.291.266h-.073c-.873-.072-2.667-.218-4.074-.218-2.376 0-4.219 1.382-4.219 5.505V12c0 4.073 1.843 5.5 4.219 5.5 1.383 0 3.128-.121 4-.194h.1a.337.337 0 01.388.388v.994c-.002.291-.22.437-.487.485zM159.2 19.319h-1.236a.487.487 0 01-.485-.485v-8.051h-8.293v8.051a.487.487 0 01-.485.485h-1.237a.487.487 0 01-.485-.485V1.787a.486.486 0 01.485-.485h1.236a.487.487 0 01.485.485v7.032h8.293V1.787a.486.486 0 01.485-.485h1.237a.487.487 0 01.486.485v17.047a.488.488 0 01-.486.485zM173.769 19.367c-.922.1-3.3.122-4.729.122-3.395 0-5.165-1.285-5.165-4.511V5.643c0-3.226 1.77-4.511 5.165-4.511 1.431 0 3.71.049 4.729.146a.342.342 0 01.242.339V2.83a.261.261 0 01-.266.29h-4.681c-2.57 0-2.982.68-2.982 2.523v3.369h7.444a.487.487 0 01.485.486v.921a.487.487 0 01-.485.486h-7.444v4.073c0 1.843.412 2.522 2.982 2.522h4.681a.261.261 0 01.266.291v1.237a.342.342 0 01-.242.339zM181.89 19.489a24.178 24.178 0 01-4.025-.34c-.413-.073-.461-.17-.461-.436v-.971a.375.375 0 01.412-.387h.073c1.115.1 2.886.145 4 .145 2.91 0 3.686-1.164 3.686-2.862 0-1.212-.7-1.89-2.91-3.249l-2.352-1.43c-2.231-1.358-3.346-2.595-3.346-4.534 0-2.935 2.109-4.293 5.8-4.293a32.941 32.941 0 014.219.291c.243.049.413.17.413.412v1.043a.377.377 0 01-.413.388h-.048a68.224 68.224 0 00-4.171-.146c-2.5 0-3.565.534-3.565 2.3 0 1.139.8 1.818 2.643 2.934l2.231 1.333c2.813 1.673 3.808 3.007 3.808 4.946-.004 2.334-1.217 4.856-5.994 4.856zM202.5 3.193h-4.729v15.641a.462.462 0 01-.436.485H196a.463.463 0 01-.436-.485V3.193h-4.729c-.267 0-.485-.121-.485-.388V1.738a.462.462 0 01.485-.436H202.5a.427.427 0 01.461.436v1.067c0 .243-.194.388-.461.388zM215.351 19.367c-.923.1-3.3.122-4.729.122-3.4 0-5.166-1.285-5.166-4.511V5.643c0-3.226 1.771-4.511 5.166-4.511 1.43 0 3.709.049 4.729.146a.342.342 0 01.242.339V2.83a.261.261 0 01-.267.29h-4.68c-2.57 0-2.983.68-2.983 2.523v3.369h7.445a.487.487 0 01.485.486v.921a.487.487 0 01-.485.486h-7.445v4.073c0 1.843.413 2.522 2.983 2.522h4.68a.261.261 0 01.267.291v1.237a.342.342 0 01-.242.339zM231.231 19.319h-1.552c-.29 0-.436 0-.63-.316l-4.34-7.226h-.631c-.8 0-1.382-.024-2.667-.073v7.13a.462.462 0 01-.437.485h-1.309a.463.463 0 01-.437-.485V1.859c0-.339.146-.484.582-.533 1.043-.121 2.861-.194 4.268-.194 3.832 0 6.79 1.285 6.79 5.214v.169a4.772 4.772 0 01-3.807 4.9l4.413 7.372a.392.392 0 01.073.217.307.307 0 01-.316.315zm-2.546-12.973c0-2.425-1.576-3.226-4.607-3.226-.751 0-2.085 0-2.667.073v6.645c1.066.024 2.11.048 2.667.048 2.983 0 4.607-.752 4.607-3.371z"/></g></g></svg>