<svg xmlns="http://www.w3.org/2000/svg" data-name="Logo Artwork" viewBox="0 0 277.676 51.388"><g><path fill="#1f356a" d="M5.977 25.103H.649a.651.651 0 0 1-.649-.65V1.583C0 1.226.292.966.65.966h5.326c.358 0 .65.26.65.617v22.87c0 .357-.292.65-.65.65ZM30.307 25.103h-4.353c-.585 0-1.008-.26-1.364-.877l-6.4-10.883c-.13-.227-.228-.26-.325-.26-.098 0-.163.065-.163.292v11.078c0 .357-.292.65-.65.65H12.18c-.358 0-.682-.293-.682-.65V2.168c0-.65.552-1.202 1.201-1.202h4.288c.618 0 .975.357 1.3.942l6.595 11.208c.13.227.195.292.292.292.098 0 .163-.032.163-.292v-11.5c0-.358.292-.65.65-.65h4.872c.358 0 .65.292.65.65V23.9a1.22 1.22 0 0 1-1.202 1.202ZM50.639 6.358h-4.841v18.095c0 .357-.292.65-.65.65h-5.295a.651.651 0 0 1-.65-.65V6.358h-4.937c-.358 0-.65-.26-.65-.617V1.583c0-.357.292-.617.65-.617h16.373c.356 0 .681.26.681.617v4.158c0 .358-.325.617-.681.617ZM62.135 25.395c-5.393 0-9.973-2.76-9.973-10.688v-3.346c0-7.926 4.58-10.72 9.973-10.72s9.973 2.794 9.973 10.72v3.346c0 7.927-4.58 10.688-9.973 10.688Zm3.281-14.034c0-3.476-1.007-4.905-3.281-4.905s-3.281 1.43-3.281 4.905v3.346c0 3.477 1.007 4.873 3.28 4.873s3.282-1.397 3.282-4.873v-3.346ZM89.257 25.989c-7.18 0-12.995-5.815-12.995-12.995S82.077 0 89.257 0s12.994 5.815 12.994 12.994S96.435 25.99 89.257 25.99Zm0-24.04c-6.108 0-11.046 4.938-11.046 11.045S83.149 24.04 89.257 24.04s11.045-4.938 11.045-11.046S95.363 1.95 89.257 1.95Zm.78 11.955-4.842 5.783c-.454.552-1.298.617-1.851.162a1.288 1.288 0 0 1-.162-1.82l4.222-5.002-4.222-5.035c-.455-.552-.39-1.397.162-1.852.552-.455 1.397-.39 1.851.162l4.841 5.783c.26.292.358.584.358.91 0 .292-.098.584-.358.909Zm6.821 0-4.84 5.783c-.455.552-1.3.617-1.852.162a1.288 1.288 0 0 1-.162-1.82l4.223-5.002-4.223-5.035c-.455-.552-.39-1.397.162-1.852.553-.455 1.397-.39 1.852.162l4.84 5.783c.26.292.358.584.358.91 0 .292-.098.584-.358.909Z"/><path d="M119.184 25.04c-.82.126-3.183.284-6.145.284-3.371 0-6.712-.662-6.712-5.861V2.322c0-.347.284-.63.631-.63h1.607c.346 0 .63.283.63.63v17.14c0 2.395.536 3.278 3.875 3.278h6.082c.22 0 .346.158.346.378v1.48c0 .19-.126.41-.314.442ZM129.613 25.324c-4.947 0-8.539-2.9-8.539-9.894v-4.065c0-6.995 3.592-9.894 8.54-9.894s8.506 2.899 8.506 9.894v4.065c0 6.995-3.56 9.894-8.507 9.894Zm5.609-13.96c0-5.293-2.143-7.31-5.609-7.31-3.434 0-5.64 2.017-5.64 7.31v4.066c0 5.293 2.174 7.31 5.64 7.31 3.435 0 5.609-2.017 5.609-7.31v-4.065ZM158.602 25.103h-1.954c-.503 0-.85-.189-1.008-.504l-9.737-18.496c-.03-.063-.062-.095-.093-.095-.033 0-.033.032-.033.095v18.401c0 .315-.252.599-.566.599h-1.639c-.315 0-.567-.063-.567-.378V2.574c0-.504.41-.883.914-.883h1.732c.883 0 1.04.158 1.292.63l9.674 18.402.063.095c.032 0 .032-.063.032-.095V2.29c0-.315.252-.599.566-.599h1.67c.347 0 .568.284.568.599v21.9c0 .503-.41.913-.914.913ZM171.363 25.324c-2.394 0-4.821-.158-5.734-.316-.41-.063-.662-.315-.662-.787V2.574c0-.441.252-.725.662-.788.913-.158 3.34-.315 5.734-.315 5.83 0 9.547 2.993 9.547 9.8v4.253c0 6.743-3.718 9.8-9.547 9.8Zm6.68-14.054c0-5.703-2.898-7.341-6.68-7.341a54.01 54.01 0 0 0-3.498.094v18.78c1.01.063 2.017.063 3.498.063 3.782 0 6.68-1.67 6.68-7.342V11.27ZM193.672 25.324c-4.947 0-8.54-2.9-8.54-9.894v-4.065c0-6.995 3.593-9.894 8.54-9.894s8.508 2.899 8.508 9.894v4.065c0 6.995-3.56 9.894-8.508 9.894Zm5.608-13.96c0-5.293-2.142-7.31-5.608-7.31-3.435 0-5.64 2.017-5.64 7.31v4.066c0 5.293 2.174 7.31 5.64 7.31 3.434 0 5.608-2.017 5.608-7.31v-4.065ZM222.661 25.103h-1.954c-.504 0-.85-.189-1.008-.504l-9.736-18.496c-.031-.063-.064-.095-.095-.095s-.031.032-.031.095v18.401c0 .315-.252.599-.567.599h-1.64c-.314 0-.566-.063-.566-.378V2.574c0-.504.41-.883.914-.883h1.733c.882 0 1.04.158 1.292.63l9.673 18.402.063.095c.032 0 .032-.063.032-.095V2.29c0-.315.252-.599.567-.599h1.67c.347 0 .567.284.567.599v21.9c0 .503-.41.913-.914.913Z"/></g><g fill="#1f356a"><path d="M4.6 49.613c-1.496 0-2.574-.14-3.53-.359-.2-.04-.38-.18-.38-.399V47.42c0-.22.18-.38.38-.38h.039c.798.1 2.792.2 3.53.2 1.775 0 2.314-.638 2.314-1.795 0-.777-.38-1.177-1.696-1.954l-2.632-1.575C.77 40.818.272 39.662.272 38.266c0-2.194 1.276-3.79 4.985-3.79 1.317 0 3.151.2 3.83.36.199.04.358.18.358.378v1.476c0 .2-.14.36-.338.36h-.04c-1.317-.12-2.633-.2-3.93-.2-1.475 0-2.093.518-2.093 1.415 0 .658.339 1.058 1.635 1.776l2.394 1.336c2.193 1.216 2.772 2.493 2.772 4.068 0 2.014-1.257 4.168-5.246 4.168ZM21.73 36.949h-3.49v12.106a.4.4 0 0 1-.4.399h-1.974a.4.4 0 0 1-.399-.399V36.95h-3.49c-.219 0-.399-.139-.399-.359v-1.575c0-.22.18-.379.4-.379h9.752c.219 0 .398.16.398.38v1.574c0 .22-.18.359-.398.359ZM32.358 49.334c-.638.1-1.416.279-3.79.279-2.591 0-4.606-.697-4.606-4.088v-6.96c0-3.39 2.015-4.089 4.607-4.089 2.373 0 3.15.18 3.79.28.298.04.398.139.398.418v1.277a.4.4 0 0 1-.399.398H28.29c-1.157 0-1.576.4-1.576 1.716v2.153h5.405a.4.4 0 0 1 .399.4v1.435a.4.4 0 0 1-.4.398h-5.404v2.574c0 1.316.419 1.714 1.576 1.714h4.068a.4.4 0 0 1 .399.4v1.276c0 .28-.1.38-.399.418ZM48.252 49.454h-2.015c-.179 0-.318-.2-.318-.399v-9.274c0-.14-.02-.2-.06-.2-.02 0-.06.06-.1.12l-1.915 3.81c-.12.219-.379.338-.638.338h-2.014c-.26 0-.519-.119-.638-.339l-1.935-3.808c-.04-.06-.08-.12-.1-.12-.04 0-.06.06-.06.199v9.274c0 .2-.14.399-.318.399h-2.015c-.18 0-.339-.1-.339-.3v-13.72a.8.8 0 0 1 .798-.798h1.635c.32 0 .599.2.738.479l3.012 6.102c.1.18.14.28.219.28s.12-.1.22-.28l3.01-6.102a.839.839 0 0 1 .739-.479h1.635a.8.8 0 0 1 .798.797v13.722c0 .199-.16.299-.34.299ZM54.433 46.801l-1.736 4.188c-.1.24-.16.4-.379.4h-1.376c-.18 0-.299-.12-.299-.28 0-.04 0-.08.02-.12L51.88 46.8c.08-.239.179-.379.398-.379h1.915c.16 0 .28.1.28.24 0 .04-.02.08-.04.14ZM75.212 49.454h-2.014c-.18 0-.319-.2-.319-.399v-9.274c0-.14-.02-.2-.06-.2-.02 0-.06.06-.1.12l-1.914 3.81c-.12.219-.38.338-.639.338h-2.014c-.259 0-.518-.119-.638-.339l-1.934-3.808c-.04-.06-.08-.12-.1-.12-.04 0-.06.06-.06.199v9.274c0 .2-.14.399-.319.399h-2.014c-.18 0-.34-.1-.34-.3v-13.72a.8.8 0 0 1 .798-.798h1.636c.319 0 .598.2.737.479l3.012 6.102c.1.18.14.28.22.28.08 0 .119-.1.218-.28l3.012-6.102a.839.839 0 0 1 .738-.479h1.635a.8.8 0 0 1 .798.797v13.722c0 .199-.16.299-.339.299ZM87.276 49.334c-.638.1-1.416.279-3.79.279-2.592 0-4.606-.697-4.606-4.088v-6.96c0-3.39 2.014-4.089 4.607-4.089 2.373 0 3.15.18 3.79.28.298.04.398.139.398.418v1.277a.4.4 0 0 1-.399.398h-4.068c-1.157 0-1.576.4-1.576 1.716v2.153h5.405a.4.4 0 0 1 .399.4v1.435a.4.4 0 0 1-.4.398h-5.404v2.574c0 1.316.419 1.714 1.576 1.714h4.068a.4.4 0 0 1 .399.4v1.276c0 .28-.1.38-.399.418ZM95.152 49.613c-1.415 0-3.33-.14-3.928-.24-.34-.06-.519-.218-.519-.618V35.333c0-.398.18-.558.519-.618.598-.1 2.513-.24 3.928-.24 3.99 0 6.262 2.155 6.262 6.103v2.932c0 3.95-2.273 6.103-6.262 6.103Zm3.51-9.034c0-2.992-1.515-3.769-3.51-3.769-.738 0-1.256.04-1.675.06v10.35c.419.02.937.06 1.675.06 1.995 0 3.51-.777 3.51-3.77V40.58ZM106.719 49.454h-1.975a.4.4 0 0 1-.399-.399v-14.04c0-.22.18-.379.4-.379h1.974c.219 0 .399.16.399.38v14.04a.4.4 0 0 1-.4.398ZM118.843 49.294c-.299.08-1.615.319-3.151.319-2.393 0-5.644-1.177-5.644-6.103V40.58c0-5.006 3.25-6.103 5.644-6.103 1.536 0 2.852.24 3.15.32.26.08.44.18.44.458v1.336c0 .24-.1.42-.4.42h-.04c-.697-.061-2.053-.16-3.11-.16-1.675 0-2.891.897-2.891 3.729v2.931c0 2.773 1.216 3.73 2.891 3.73 1.057 0 2.413-.1 3.11-.16h.04c.3 0 .4.18.4.42v1.335c0 .28-.18.38-.44.46ZM124.386 49.454h-1.974a.4.4 0 0 1-.4-.399v-14.04c0-.22.18-.379.4-.379h1.974c.22 0 .4.16.4.38v14.04a.4.4 0 0 1-.4.398ZM138.525 49.454h-2.014c-.48 0-.898 0-1.217-.718l-4.427-9.713c-.06-.12-.12-.16-.18-.16s-.1.04-.1.16v10.032c0 .219-.16.399-.378.399h-1.696a.4.4 0 0 1-.399-.399V35.433a.8.8 0 0 1 .798-.797h2.154c.419 0 .638.12.877.638l4.647 10.25c.04.1.1.16.16.16.04 0 .1-.06.1-.18V35.015c0-.22.16-.379.379-.379h1.714c.22 0 .38.16.38.379v13.64a.8.8 0 0 1-.798.799ZM151.048 49.334c-.638.1-1.416.279-3.79.279-2.592 0-4.606-.697-4.606-4.088v-6.96c0-3.39 2.014-4.089 4.607-4.089 2.373 0 3.151.18 3.789.28.3.04.399.139.399.418v1.277a.4.4 0 0 1-.4.398h-4.067c-1.157 0-1.576.4-1.576 1.716v2.153h5.405a.4.4 0 0 1 .399.4v1.435a.4.4 0 0 1-.4.398h-5.404v2.574c0 1.316.419 1.714 1.576 1.714h4.068a.4.4 0 0 1 .399.4v1.276c0 .28-.1.38-.4.418ZM170.451 49.454h-2.114c-.18 0-.339-.16-.379-.34l-.917-3.788h-4.587l-.917 3.789c-.04.18-.2.339-.38.339h-2.114c-.199 0-.358-.14-.358-.34 0-.02.02-.059.02-.099l3.27-12.505c.479-1.854 1.915-2.034 2.773-2.034.857 0 2.293.18 2.772 2.034l3.27 12.505c0 .04.02.08.02.1 0 .199-.16.339-.359.339Zm-5.385-12.326c-.06-.239-.12-.318-.318-.318-.2 0-.26.08-.32.318l-1.436 5.924h3.51l-1.435-5.924ZM183.434 49.454h-2.015c-.478 0-.897 0-1.216-.718l-4.427-9.713c-.06-.12-.12-.16-.18-.16s-.1.04-.1.16v10.032c0 .219-.16.399-.379.399h-1.695a.4.4 0 0 1-.399-.399V35.433a.8.8 0 0 1 .798-.797h2.154c.419 0 .638.12.877.638l4.647 10.25c.04.1.1.16.16.16.04 0 .1-.06.1-.18V35.015c0-.22.16-.379.378-.379h1.715c.22 0 .38.16.38.379v13.64a.8.8 0 0 1-.798.799ZM192.007 49.613c-1.415 0-3.33-.14-3.928-.24-.34-.06-.519-.218-.519-.618V35.333c0-.398.18-.558.519-.618.598-.1 2.513-.24 3.928-.24 3.99 0 6.262 2.155 6.262 6.103v2.932c0 3.95-2.273 6.103-6.262 6.103Zm3.51-9.034c0-2.992-1.515-3.769-3.51-3.769-.738 0-1.256.04-1.675.06v10.35c.419.02.937.06 1.675.06 1.995 0 3.51-.777 3.51-3.77V40.58ZM217.333 49.454h-1.974a.4.4 0 0 1-.399-.399v-6.103h-5.664v6.103a.4.4 0 0 1-.399.399h-1.974a.4.4 0 0 1-.399-.399v-14.04c0-.22.18-.379.399-.379h1.974c.22 0 .4.16.4.38v5.503h5.663v-5.504c0-.22.18-.379.399-.379h1.974c.22 0 .399.16.399.38v14.04a.4.4 0 0 1-.399.398ZM229.458 49.334c-.639.1-1.416.279-3.79.279-2.592 0-4.607-.697-4.607-4.088v-6.96c0-3.39 2.015-4.089 4.607-4.089 2.374 0 3.151.18 3.79.28.299.04.398.139.398.418v1.277a.4.4 0 0 1-.398.398h-4.069c-1.157 0-1.575.4-1.575 1.716v2.153h5.404a.4.4 0 0 1 .4.4v1.435a.4.4 0 0 1-.4.398h-5.404v2.574c0 1.316.418 1.714 1.575 1.714h4.069a.4.4 0 0 1 .398.4v1.276c0 .28-.1.38-.398.418ZM243.537 49.454h-2.115c-.179 0-.339-.16-.379-.34l-.917-3.788h-4.587l-.917 3.789c-.04.18-.2.339-.379.339h-2.114c-.2 0-.36-.14-.36-.34 0-.02.02-.059.02-.099l3.271-12.505c.479-1.854 1.915-2.034 2.773-2.034.857 0 2.293.18 2.772 2.034l3.27 12.505c0 .04.02.08.02.1 0 .199-.16.339-.358.339Zm-5.385-12.326c-.06-.239-.12-.318-.319-.318-.2 0-.26.08-.32.318l-1.435 5.924h3.51l-1.436-5.924ZM253.707 49.334c-.599.14-2.333.279-3.39.279-2.593 0-4.608-.697-4.608-4.088v-10.49a.4.4 0 0 1 .4-.399h1.974a.4.4 0 0 1 .399.399v10.49c0 1.316.398 1.715 1.555 1.715h3.67a.4.4 0 0 1 .398.4v1.275c0 .28-.1.359-.398.419ZM263.738 36.949h-3.49v12.106a.4.4 0 0 1-.4.399h-1.974a.4.4 0 0 1-.398-.399V36.95h-3.49c-.22 0-.4-.139-.4-.359v-1.575c0-.22.18-.379.4-.379h9.752c.22 0 .398.16.398.38v1.574c0 .22-.179.359-.398.359ZM277.278 49.454h-1.975a.4.4 0 0 1-.399-.399v-6.103h-5.663v6.103a.4.4 0 0 1-.4.399h-1.974a.4.4 0 0 1-.399-.399v-14.04c0-.22.18-.379.4-.379h1.974c.219 0 .399.16.399.38v5.503h5.663v-5.504c0-.22.18-.379.4-.379h1.974c.219 0 .398.16.398.38v14.04a.4.4 0 0 1-.398.398Z"/></g></svg>