<svg xmlns="http://www.w3.org/2000/svg" data-name="Logo Artwork" viewBox="0 0 355.755 51.388"><g><path fill="#1f356a" d="M5.979 25.103H.65a.651.651 0 0 1-.649-.65V1.583c0-.357.292-.617.65-.617h5.326c.358 0 .65.26.65.617v22.87c0 .357-.292.65-.65.65ZM30.309 25.103h-4.353c-.585 0-1.008-.26-1.364-.877l-6.4-10.883c-.13-.227-.228-.26-.325-.26-.098 0-.163.065-.163.292v11.078c0 .357-.292.65-.65.65h-4.872c-.358 0-.682-.293-.682-.65V2.168c0-.65.552-1.202 1.201-1.202h4.288c.618 0 .975.357 1.3.942l6.595 11.208c.13.227.195.292.292.292.098 0 .163-.032.163-.292v-11.5c0-.358.292-.65.65-.65h4.872c.358 0 .65.292.65.65V23.9a1.22 1.22 0 0 1-1.202 1.202ZM50.64 6.358H45.8v18.095c0 .357-.292.65-.65.65h-5.296a.651.651 0 0 1-.649-.65V6.358h-4.937c-.358 0-.65-.26-.65-.617V1.583c0-.357.292-.617.65-.617H50.64c.356 0 .681.26.681.617v4.158c0 .358-.325.617-.681.617ZM62.137 25.395c-5.393 0-9.973-2.76-9.973-10.688v-3.346c0-7.926 4.58-10.72 9.973-10.72s9.973 2.794 9.973 10.72v3.346c0 7.927-4.58 10.688-9.973 10.688Zm3.28-14.034c0-3.476-1.006-4.905-3.28-4.905s-3.281 1.43-3.281 4.905v3.346c0 3.477 1.007 4.873 3.28 4.873s3.282-1.397 3.282-4.873v-3.346ZM89.259 25.989c-7.18 0-12.995-5.815-12.995-12.995S82.079 0 89.259 0s12.994 5.815 12.994 12.994S96.437 25.99 89.259 25.99Zm0-24.04c-6.108 0-11.046 4.938-11.046 11.045S83.15 24.04 89.259 24.04s11.045-4.938 11.045-11.046S95.365 1.95 89.259 1.95Zm.78 11.955-4.842 5.783c-.454.552-1.299.617-1.851.162a1.288 1.288 0 0 1-.162-1.82l4.222-5.002-4.222-5.035c-.455-.552-.39-1.397.162-1.852.552-.455 1.397-.39 1.851.162l4.841 5.783c.26.292.358.584.358.91 0 .292-.098.584-.358.909Zm6.821 0-4.84 5.783c-.455.552-1.3.617-1.852.162a1.288 1.288 0 0 1-.162-1.82l4.223-5.002-4.223-5.035c-.455-.552-.39-1.397.162-1.852.553-.455 1.396-.39 1.852.162l4.84 5.783c.26.292.358.584.358.91 0 .292-.098.584-.358.909Z"/><path d="M119.186 25.04c-.82.126-3.183.284-6.145.284-3.371 0-6.712-.662-6.712-5.861V2.322c0-.347.284-.63.631-.63h1.606c.347 0 .631.283.631.63v17.14c0 2.395.535 3.278 3.875 3.278h6.082c.22 0 .346.158.346.378v1.48c0 .19-.126.41-.315.442ZM129.615 25.324c-4.947 0-8.539-2.9-8.539-9.894v-4.065c0-6.995 3.592-9.894 8.54-9.894s8.506 2.899 8.506 9.894v4.065c0 6.995-3.56 9.894-8.507 9.894Zm5.609-13.96c0-5.293-2.143-7.31-5.609-7.31-3.434 0-5.64 2.017-5.64 7.31v4.066c0 5.293 2.173 7.31 5.64 7.31 3.435 0 5.609-2.017 5.609-7.31v-4.065ZM158.603 25.103h-1.953c-.504 0-.85-.189-1.008-.504l-9.737-18.496c-.03-.063-.062-.095-.094-.095s-.032.032-.032.095v18.401c0 .315-.252.599-.566.599h-1.639c-.315 0-.567-.063-.567-.378V2.574c0-.504.409-.883.914-.883h1.732c.883 0 1.04.158 1.292.63l9.674 18.402.063.095c.032 0 .032-.063.032-.095V2.29c0-.315.252-.599.566-.599h1.67c.347 0 .568.284.568.599v21.9c0 .503-.41.913-.915.913ZM171.365 25.324c-2.394 0-4.821-.158-5.734-.316-.41-.063-.662-.315-.662-.787V2.574c0-.441.252-.725.662-.788.913-.158 3.34-.315 5.734-.315 5.83 0 9.547 2.993 9.547 9.8v4.253c0 6.743-3.718 9.8-9.547 9.8Zm6.68-14.054c0-5.703-2.899-7.341-6.68-7.341a54.01 54.01 0 0 0-3.498.094v18.78c1.009.063 2.017.063 3.498.063 3.781 0 6.68-1.67 6.68-7.342V11.27ZM193.674 25.324c-4.948 0-8.54-2.9-8.54-9.894v-4.065c0-6.995 3.593-9.894 8.54-9.894s8.508 2.899 8.508 9.894v4.065c0 6.995-3.56 9.894-8.508 9.894Zm5.608-13.96c0-5.293-2.142-7.31-5.608-7.31-3.435 0-5.64 2.017-5.64 7.31v4.066c0 5.293 2.174 7.31 5.64 7.31 3.434 0 5.608-2.017 5.608-7.31v-4.065ZM222.663 25.103h-1.954c-.504 0-.85-.189-1.008-.504l-9.736-18.496c-.031-.063-.064-.095-.095-.095s-.031.032-.031.095v18.401c0 .315-.252.599-.567.599h-1.64c-.314 0-.567-.063-.567-.378V2.574c0-.504.41-.883.915-.883h1.733c.882 0 1.04.158 1.292.63l9.673 18.402.063.095c.032 0 .032-.063.032-.095V2.29c0-.315.252-.599.567-.599h1.67c.347 0 .567.284.567.599v21.9c0 .503-.41.913-.914.913Z"/></g><g fill="#1f356a"><path d="M4.408 49.613c-1.616 0-2.832-.1-3.45-.219-.659-.12-.958-.339-.958-1.077V35.752c0-.717.26-.977.897-1.077.52-.079 1.775-.199 3.331-.199 3.61 0 6.143 1.037 6.143 4.049v.398c0 1.317-.619 2.493-1.835 3.012 1.216.519 1.934 1.535 1.934 3.031v.34c0 3.17-2.353 4.307-6.062 4.307Zm3.27-10.929c0-1.395-.897-1.914-3.45-1.914-.478 0-1.037.02-1.456.04v4.048h2.533c1.855 0 2.373-.877 2.373-1.895v-.279Zm.08 6.322c0-1.096-.578-2.114-2.453-2.114H2.773v4.388c.478 0 1.216.04 1.635.04 2.553 0 3.35-.658 3.35-2.055v-.259ZM18.686 49.613c-3.211 0-5.485-1.396-5.485-5.644v-8.954c0-.22.18-.379.399-.379h1.974c.22 0 .399.16.399.38v8.953c0 2.274.559 3.35 2.712 3.35s2.713-1.076 2.713-3.35v-8.954c0-.22.179-.379.399-.379h1.974c.22 0 .399.16.399.38v8.953c0 4.248-2.274 5.644-5.485 5.644ZM31.129 49.613c-1.496 0-2.573-.14-3.53-.359-.2-.04-.379-.18-.379-.399V47.42c0-.22.18-.38.38-.38h.039c.798.1 2.792.2 3.53.2 1.775 0 2.313-.638 2.313-1.795 0-.777-.378-1.177-1.695-1.954l-2.632-1.575c-1.855-1.098-2.354-2.254-2.354-3.65 0-2.194 1.277-3.79 4.986-3.79 1.317 0 3.151.2 3.83.36.199.04.358.18.358.378v1.476c0 .2-.14.36-.339.36h-.04c-1.316-.12-2.632-.2-3.928-.2-1.476 0-2.095.518-2.095 1.415 0 .658.34 1.058 1.636 1.776l2.393 1.336c2.194 1.216 2.772 2.493 2.772 4.068 0 2.014-1.256 4.168-5.245 4.168ZM41.478 49.454h-1.974a.4.4 0 0 1-.399-.399v-14.04c0-.22.18-.379.399-.379h1.974c.22 0 .4.16.4.38v14.04a.4.4 0 0 1-.4.398ZM55.617 49.454h-2.014c-.479 0-.897 0-1.217-.718l-4.427-9.713c-.06-.12-.12-.16-.18-.16s-.1.04-.1.16v10.032c0 .219-.159.399-.378.399h-1.695a.4.4 0 0 1-.4-.399V35.433a.8.8 0 0 1 .799-.797h2.153c.42 0 .639.12.878.638l4.647 10.25c.04.1.1.16.16.16.04 0 .1-.06.1-.18V35.015c0-.22.159-.379.378-.379h1.715c.22 0 .379.16.379.379v13.64a.8.8 0 0 1-.798.799ZM68.14 49.334c-.638.1-1.416.279-3.79.279-2.592 0-4.606-.697-4.606-4.088v-6.96c0-3.39 2.014-4.089 4.606-4.089 2.374 0 3.152.18 3.79.28.299.04.399.139.399.418v1.277a.4.4 0 0 1-.4.398h-4.068c-1.156 0-1.575.4-1.575 1.716v2.153H67.9a.4.4 0 0 1 .4.4v1.435a.4.4 0 0 1-.4.398h-5.404v2.574c0 1.316.418 1.714 1.575 1.714h4.069a.4.4 0 0 1 .399.4v1.276c0 .28-.1.38-.4.418ZM75.299 49.613c-1.496 0-2.573-.14-3.53-.359-.2-.04-.379-.18-.379-.399V47.42c0-.22.18-.38.379-.38h.04c.798.1 2.792.2 3.53.2 1.775 0 2.313-.638 2.313-1.795 0-.777-.379-1.177-1.695-1.954l-2.632-1.575c-1.855-1.098-2.354-2.254-2.354-3.65 0-2.194 1.277-3.79 4.986-3.79 1.317 0 3.151.2 3.83.36.198.04.358.18.358.378v1.476c0 .2-.14.36-.339.36h-.04c-1.316-.12-2.632-.2-3.929-.2-1.476 0-2.094.518-2.094 1.415 0 .658.34 1.058 1.636 1.776l2.393 1.336c2.194 1.216 2.772 2.493 2.772 4.068 0 2.014-1.256 4.168-5.245 4.168ZM87.004 49.613c-1.495 0-2.572-.14-3.53-.359-.2-.04-.378-.18-.378-.399V47.42c0-.22.179-.38.379-.38h.04c.797.1 2.792.2 3.53.2 1.774 0 2.313-.638 2.313-1.795 0-.777-.379-1.177-1.695-1.954l-2.633-1.575c-1.855-1.098-2.353-2.254-2.353-3.65 0-2.194 1.276-3.79 4.986-3.79 1.316 0 3.15.2 3.829.36.199.04.359.18.359.378v1.476c0 .2-.14.36-.34.36h-.04c-1.316-.12-2.632-.2-3.928-.2-1.476 0-2.094.518-2.094 1.415 0 .658.34 1.058 1.635 1.776l2.394 1.336c2.193 1.216 2.772 2.493 2.772 4.068 0 2.014-1.256 4.168-5.245 4.168ZM97.494 46.801l-1.736 4.188c-.1.24-.16.4-.379.4h-1.376c-.18 0-.299-.12-.299-.28 0-.04 0-.08.02-.12l1.217-4.188c.08-.239.18-.379.398-.379h1.915c.16 0 .28.1.28.24 0 .04-.02.08-.04.14ZM116.459 49.454h-2.115c-.179 0-.339-.16-.379-.34l-.917-3.788h-4.587l-.917 3.789c-.04.18-.2.339-.379.339h-2.114c-.2 0-.36-.14-.36-.34 0-.02.02-.059.02-.099l3.271-12.505c.479-1.854 1.915-2.034 2.773-2.034.857 0 2.293.18 2.772 2.034l3.27 12.505c0 .04.02.08.02.1 0 .199-.16.339-.359.339Zm-5.385-12.326c-.06-.239-.12-.318-.32-.318-.199 0-.258.08-.318.318L109 43.052h3.51l-1.436-5.924ZM129.56 49.454h-2.433c-.22 0-.3-.2-.399-.399l-2.872-5.325h-.279c-.518 0-1.316-.06-1.775-.08v5.405c0 .219-.16.399-.379.399h-1.994a.4.4 0 0 1-.4-.399V35.333c0-.398.24-.538.64-.597 1.036-.16 2.452-.26 3.908-.26 3.072 0 5.744 1.097 5.744 4.508v.179c0 2.114-1.057 3.43-2.692 4.068l3.13 5.824c.04.06.04.12.04.16 0 .139-.08.239-.239.239Zm-2.992-10.47c0-1.496-.997-2.135-2.99-2.135-.42 0-1.417.04-1.776.08v4.488c.32.019 1.436.06 1.775.06 2.054 0 2.991-.56 2.991-2.314v-.18ZM140.827 36.949h-3.49v12.106a.4.4 0 0 1-.399.399h-1.974a.4.4 0 0 1-.399-.399V36.95h-3.49c-.22 0-.4-.139-.4-.359v-1.575c0-.22.18-.379.4-.379h9.752c.22 0 .399.16.399.38v1.574c0 .22-.18.359-.399.359ZM159.532 49.454h-2.114c-.18 0-.339-.16-.379-.34l-.917-3.788h-4.587l-.917 3.789c-.04.18-.2.339-.38.339h-2.114c-.199 0-.358-.14-.358-.34 0-.02.02-.059.02-.099l3.27-12.505c.479-1.854 1.915-2.034 2.773-2.034.857 0 2.293.18 2.772 2.034l3.27 12.505c0 .04.02.08.02.1 0 .199-.16.339-.359.339Zm-5.385-12.326c-.06-.239-.12-.318-.318-.318-.2 0-.26.08-.32.318l-1.436 5.924h3.51l-1.435-5.924ZM172.514 49.454H170.5c-.479 0-.897 0-1.217-.718l-4.427-9.713c-.06-.12-.12-.16-.18-.16s-.1.04-.1.16v10.032c0 .219-.159.399-.378.399h-1.696a.4.4 0 0 1-.398-.399V35.433a.8.8 0 0 1 .797-.797h2.154c.42 0 .638.12.878.638l4.647 10.25c.04.1.1.16.16.16.039 0 .099-.06.099-.18V35.015c0-.22.16-.379.379-.379h1.715c.22 0 .379.16.379.379v13.64a.8.8 0 0 1-.798.799ZM181.088 49.613c-1.415 0-3.33-.14-3.928-.24-.34-.06-.519-.218-.519-.618V35.333c0-.398.18-.558.519-.618.598-.1 2.513-.24 3.928-.24 3.99 0 6.263 2.155 6.263 6.103v2.932c0 3.95-2.274 6.103-6.263 6.103Zm3.51-9.034c0-2.992-1.515-3.769-3.51-3.769-.737 0-1.256.04-1.674.06v10.35c.418.02.937.06 1.674.06 1.995 0 3.51-.777 3.51-3.77V40.58ZM199.334 49.613c-1.495 0-2.572-.14-3.53-.359-.199-.04-.378-.18-.378-.399V47.42c0-.22.179-.38.379-.38h.04c.797.1 2.792.2 3.53.2 1.775 0 2.313-.638 2.313-1.795 0-.777-.379-1.177-1.695-1.954l-2.632-1.575c-1.855-1.098-2.354-2.254-2.354-3.65 0-2.194 1.276-3.79 4.986-3.79 1.316 0 3.15.2 3.829.36.2.04.359.18.359.378v1.476c0 .2-.14.36-.34.36h-.04c-1.315-.12-2.631-.2-3.928-.2-1.476 0-2.094.518-2.094 1.415 0 .658.34 1.058 1.635 1.776l2.394 1.336c2.193 1.216 2.772 2.493 2.772 4.068 0 2.014-1.256 4.168-5.245 4.168ZM212.596 49.613c-3.29 0-5.684-1.834-5.684-6.222V40.7c0-4.388 2.393-6.223 5.684-6.223s5.683 1.835 5.683 6.223v2.692c0 4.388-2.393 6.222-5.683 6.222Zm2.891-8.914c0-2.633-.937-3.81-2.891-3.81s-2.892 1.177-2.892 3.81v2.692c0 2.632.937 3.809 2.892 3.809s2.891-1.177 2.891-3.809V40.7ZM229.606 49.294c-.299.08-1.615.319-3.151.319-2.393 0-5.644-1.177-5.644-6.103V40.58c0-5.006 3.251-6.103 5.644-6.103 1.536 0 2.852.24 3.151.32.26.08.439.18.439.458v1.336c0 .24-.1.42-.399.42h-.04c-.698-.061-2.054-.16-3.11-.16-1.676 0-2.893.897-2.893 3.729v2.931c0 2.773 1.217 3.73 2.892 3.73 1.057 0 2.413-.1 3.111-.16h.04c.3 0 .399.18.399.42v1.335c0 .28-.18.38-.439.46ZM235.15 49.454h-1.975a.4.4 0 0 1-.4-.399v-14.04c0-.22.18-.379.4-.379h1.974c.22 0 .4.16.4.38v14.04a.4.4 0 0 1-.4.398ZM249.527 49.454h-2.114c-.18 0-.339-.16-.379-.34l-.917-3.788h-4.587l-.917 3.789c-.04.18-.2.339-.38.339h-2.113c-.2 0-.36-.14-.36-.34 0-.02.02-.059.02-.099l3.271-12.505c.48-1.854 1.915-2.034 2.773-2.034.857 0 2.293.18 2.772 2.034l3.27 12.505c0 .04.02.08.02.1 0 .199-.16.339-.359.339Zm-5.384-12.326c-.06-.239-.12-.318-.32-.318-.199 0-.259.08-.319.318l-1.436 5.924h3.51l-1.435-5.924ZM259.698 49.334c-.598.14-2.333.279-3.39.279-2.593 0-4.607-.697-4.607-4.088v-10.49a.4.4 0 0 1 .399-.399h1.974a.4.4 0 0 1 .4.399v10.49c0 1.316.397 1.715 1.554 1.715h3.67a.4.4 0 0 1 .399.4v1.275c0 .28-.1.359-.399.419ZM271.383 49.613c-1.496 0-2.573-.14-3.53-.359-.2-.04-.379-.18-.379-.399V47.42c0-.22.18-.38.379-.38h.04c.797.1 2.792.2 3.53.2 1.775 0 2.313-.638 2.313-1.795 0-.777-.379-1.177-1.695-1.954l-2.632-1.575c-1.855-1.098-2.354-2.254-2.354-3.65 0-2.194 1.277-3.79 4.986-3.79 1.316 0 3.151.2 3.83.36.198.04.358.18.358.378v1.476c0 .2-.14.36-.339.36h-.04c-1.316-.12-2.632-.2-3.929-.2-1.476 0-2.094.518-2.094 1.415 0 .658.34 1.058 1.636 1.776l2.393 1.336c2.194 1.216 2.772 2.493 2.772 4.068 0 2.014-1.256 4.168-5.245 4.168ZM287.755 49.294c-.299.08-1.615.319-3.151.319-2.393 0-5.644-1.177-5.644-6.103V40.58c0-5.006 3.251-6.103 5.644-6.103 1.536 0 2.852.24 3.15.32.26.08.44.18.44.458v1.336c0 .24-.1.42-.399.42h-.04c-.698-.061-2.054-.16-3.11-.16-1.676 0-2.892.897-2.892 3.729v2.931c0 2.773 1.216 3.73 2.891 3.73 1.057 0 2.413-.1 3.111-.16h.04c.3 0 .399.18.399.42v1.335c0 .28-.18.38-.44.46ZM293.299 49.454h-1.975a.4.4 0 0 1-.399-.399v-14.04c0-.22.18-.379.4-.379h1.974c.219 0 .399.16.399.38v14.04a.4.4 0 0 1-.4.398ZM305.423 49.334c-.638.1-1.416.279-3.79.279-2.592 0-4.606-.697-4.606-4.088v-6.96c0-3.39 2.014-4.089 4.607-4.089 2.373 0 3.151.18 3.789.28.3.04.399.139.399.418v1.277a.4.4 0 0 1-.4.398h-4.067c-1.157 0-1.576.4-1.576 1.716v2.153h5.405a.4.4 0 0 1 .398.4v1.435a.4.4 0 0 1-.398.398h-5.405v2.574c0 1.316.419 1.714 1.576 1.714h4.068a.4.4 0 0 1 .399.4v1.276c0 .28-.1.38-.4.418ZM319.263 49.454h-2.015c-.478 0-.897 0-1.216-.718l-4.427-9.713c-.06-.12-.12-.16-.18-.16s-.1.04-.1.16v10.032c0 .219-.16.399-.379.399h-1.695a.4.4 0 0 1-.399-.399V35.433a.8.8 0 0 1 .798-.797h2.154c.419 0 .638.12.877.638l4.647 10.25c.04.1.1.16.16.16.04 0 .1-.06.1-.18V35.015c0-.22.16-.379.378-.379h1.715c.22 0 .38.16.38.379v13.64a.8.8 0 0 1-.798.799ZM331.786 49.294c-.3.08-1.616.319-3.151.319-2.393 0-5.644-1.177-5.644-6.103V40.58c0-5.006 3.25-6.103 5.644-6.103 1.535 0 2.852.24 3.151.32.259.08.439.18.439.458v1.336c0 .24-.1.42-.4.42h-.039c-.698-.061-2.054-.16-3.111-.16-1.676 0-2.892.897-2.892 3.729v2.931c0 2.773 1.216 3.73 2.892 3.73 1.057 0 2.413-.1 3.111-.16h.04c.299 0 .399.18.399.42v1.335c0 .28-.18.38-.439.46ZM343.352 49.334c-.638.1-1.416.279-3.79.279-2.592 0-4.606-.697-4.606-4.088v-6.96c0-3.39 2.014-4.089 4.606-4.089 2.374 0 3.152.18 3.79.28.299.04.399.139.399.418v1.277a.4.4 0 0 1-.4.398h-4.068c-1.156 0-1.575.4-1.575 1.716v2.153h5.404a.4.4 0 0 1 .4.4v1.435a.4.4 0 0 1-.4.398h-5.404v2.574c0 1.316.418 1.714 1.575 1.714h4.069a.4.4 0 0 1 .399.4v1.276c0 .28-.1.38-.4.418ZM350.51 49.613c-1.495 0-2.573-.14-3.53-.359-.2-.04-.378-.18-.378-.399V47.42c0-.22.179-.38.378-.38h.04c.798.1 2.793.2 3.53.2 1.775 0 2.314-.638 2.314-1.795 0-.777-.379-1.177-1.695-1.954l-2.633-1.575c-1.855-1.098-2.353-2.254-2.353-3.65 0-2.194 1.276-3.79 4.986-3.79 1.316 0 3.15.2 3.829.36.199.04.359.18.359.378v1.476c0 .2-.14.36-.34.36h-.04c-1.316-.12-2.632-.2-3.928-.2-1.476 0-2.094.518-2.094 1.415 0 .658.34 1.058 1.635 1.776l2.394 1.336c2.193 1.216 2.772 2.493 2.772 4.068 0 2.014-1.257 4.168-5.245 4.168Z"/></g></svg>