<svg xmlns="http://www.w3.org/2000/svg" viewBox="0 0 200 76.536"><defs><style>.cls-1{fill:#1d1d1b}</style></defs><g id="Layer_2" data-name="Layer 2"><g id="Layer_1-2" data-name="Layer 1"><path d="M74.926 20.2h1.247a1.194 1.194 0 01.47.061 1.2 1.2 0 01-.061-.471v-8.774a1.194 1.194 0 01.061-.47 1.194 1.194 0 01-.47.061h-1.247V8.583h6.337l2.127 7.625a22.408 22.408 0 01.715 3.169h.1a28.912 28.912 0 01.736-3.149l2.208-7.645h6.276v2.024H92.18a1.2 1.2 0 01-.47-.061 1.176 1.176 0 01.062.47v8.769a1.181 1.181 0 01-.062.471 1.2 1.2 0 01.47-.061h1.247v2.023h-5.765V20.2h1.023a1.2 1.2 0 01.47.061 1.2 1.2 0 01-.061-.471v-5.319a39.007 39.007 0 01.184-4.376l-.1-.02c-.408 1.86-.551 2.392-1.1 4.252l-2.358 7.891h-3.311l-2.352-7.891c-.491-1.718-.653-2.372-1.063-4.252l-.123.02a39.246 39.246 0 01.184 4.376v5.314a1.2 1.2 0 01-.061.471 1.2 1.2 0 01.47-.061h1v2.023h-5.54zm26.279.7a4.241 4.241 0 01-3.332 1.532c-2.126 0-3.557-1.247-3.557-3.085 0-2.168 1.615-3.252 4.866-3.252.245 0 .675.02 1.145.062h.225l.225.02.246.021a.265.265 0 01-.063-.2v-.164a2 2 0 00-.245-1.2 1.915 1.915 0 00-1.512-.573c-1.125 0-1.636.43-1.779 1.451h-2.639c.022-2.126 1.555-3.25 4.438-3.25a5.292 5.292 0 013.5 1.062 3.159 3.159 0 01.859 2.475v4.293a.552.552 0 01-.061.326.524.524 0 01.307-.061l.98-.02v1.9h-3.659v-.572a1.812 1.812 0 01.123-.716zm-1.635-3.057c-1.717 0-2.535.492-2.535 1.514 0 .735.614 1.247 1.513 1.247a2.406 2.406 0 002.064-1.125 2.645 2.645 0 00.328-1.594zm6.393 2.474l1.022.02a.782.782 0 01.307.061.736.736 0 01-.041-.306v-5.459a.691.691 0 01.041-.285.763.763 0 01-.307.04l-1.022.021v-1.881h3.966v.7a2.726 2.726 0 01-.184.981l.082.042a3.457 3.457 0 013.291-1.963 3.162 3.162 0 013.5 3.414v4.395a.518.518 0 01-.061.306.773.773 0 01.306-.061l.961-.02v1.9h-5.295v-1.9l1.043.02a.782.782 0 01.307.061.518.518 0 01-.061-.306v-3.889c0-1.247-.512-1.82-1.657-1.82-1.37 0-2.126.92-2.126 2.535v3.169a.753.753 0 01-.04.306.678.678 0 01.286-.061l1.062-.02v1.9h-5.376zm21.768-1.411c-.145 2.33-1.658 3.6-4.316 3.6a4.772 4.772 0 01-3.68-1.411 5.572 5.572 0 01-1.307-3.72c0-3.087 1.737-5.111 4.395-5.111a2.958 2.958 0 012.862 1.655l.061-.021a2.906 2.906 0 01-.164-.837v-.532h2.086v3.884H125.4c-.122-1.451-.694-2.106-1.819-2.106-1.452 0-2.269 1.145-2.269 3.13 0 1.941.8 3.065 2.208 3.065a1.727 1.727 0 001.821-1.6zm1.239 1.411l1.025.02a.977.977 0 01.326.061.518.518 0 01-.061-.306v-9.445a1.191 1.191 0 01.061-.469 1.206 1.206 0 01-.471.061h-.88v-1.9h4.069v3.087a20.961 20.961 0 01-.123 2.574l.062.041c1.023-1.349 1.778-1.758 3.108-1.758 2.165 0 3.536 1.227 3.536 3.168v4.641a.511.511 0 01-.062.306.893.893 0 01.327-.061l.941-.02v1.9h-5.294v-1.9l1.041.02a.78.78 0 01.308.061.72.72 0 01-.042-.306v-3.884c0-1.206-.551-1.82-1.634-1.82-1.41 0-2.168.879-2.168 2.535v3.169a.518.518 0 01-.061.306.947.947 0 01.3-.061l1.065-.02v1.9h-5.373zm22.175-1.083c-.225 1.941-2.064 3.271-4.579 3.271a4.746 4.746 0 01-5.09-5.131 4.809 4.809 0 011.368-3.741 5.076 5.076 0 013.619-1.35c3 0 4.785 1.881 4.785 5.07v.8h-6.5a1.042 1.042 0 01-.512-.082c.121 1.614.981 2.514 2.391 2.514a1.86 1.86 0 001.964-1.349zm-3.167-2.822a1.9 1.9 0 01.612.061c-.185-1.574-.878-2.351-2.107-2.351-1.267 0-2.043.839-2.207 2.351a1.841 1.841 0 01.594-.061zm6.8 2.413a1.87 1.87 0 002 1.859c.877 0 1.41-.408 1.41-1.021 0-.674-.43-1-1.7-1.227-2.064-.388-2.677-.593-3.189-1.062a2.534 2.534 0 01-.8-1.963c0-2.045 1.244-3.19 3.536-3.19a3.082 3.082 0 012.677 1.412l.063-.021a2.353 2.353 0 01-.125-.655v-.429h2.044v3.21h-2.124A1.746 1.746 0 00156.7 14c-.838 0-1.39.388-1.39 1.022a.777.777 0 00.368.7 2.393 2.393 0 00.822.278l1.268.286c1.635.348 2.187.614 2.7 1.269a2.8 2.8 0 01.533 1.8c0 1.982-1.308 3.107-3.661 3.107a3.02 3.02 0 01-2.779-1.493l-.083.042a1.744 1.744 0 01.163.694v.511h-2.091v-3.391zm7.006-6.3h1.1a1.742 1.742 0 01.47.041 1.12 1.12 0 01-.06-.451V10.73l2.8-.9v2.288a1.12 1.12 0 01-.06.451 1.742 1.742 0 01.469-.041h2.25v1.921h-2.25a1.194 1.194 0 01-.469-.061 1.217 1.217 0 01.06.47v4.519c0 .837.226 1.165.778 1.165.593 0 .818-.367.879-1.452h1.615v.348c0 1.984-.939 2.923-2.924 2.923-2.107 0-3.148-.9-3.148-2.718v-4.785a1.217 1.217 0 01.06-.47 1.194 1.194 0 01-.47.061h-1.1zm18.128 6.706c-.224 1.941-2.064 3.271-4.58 3.271a4.747 4.747 0 01-5.09-5.131 4.806 4.806 0 011.37-3.741 5.07 5.07 0 013.619-1.35c3.006 0 4.784 1.881 4.784 5.07v.8h-6.5a1.034 1.034 0 01-.51-.082c.124 1.614.98 2.514 2.393 2.514a1.858 1.858 0 001.96-1.349zm-3.169-2.822a1.893 1.893 0 01.613.061c-.183-1.574-.878-2.351-2.1-2.351-1.269 0-2.044.839-2.209 2.351a1.841 1.841 0 01.593-.061zm4.391 3.905l1.022.02a.968.968 0 01.326.061.518.518 0 01-.061-.306v-5.456a.487.487 0 01.061-.285.916.916 0 01-.326.04l-1.022.021v-1.881H185v.96a6.469 6.469 0 01-.2 1.493l.1.021c.714-1.9 1.655-2.678 3.126-2.678a5.41 5.41 0 011.064.1V14.8a4.67 4.67 0 00-.858-.082 2.693 2.693 0 00-3.032 2.962v2.208a1.944 1.944 0 01-.04.51 1.985 1.985 0 01.489-.061l1.167-.02v1.9h-5.683zM74.926 39.636h1.247a1.212 1.212 0 01.47.06 1.191 1.191 0 01-.061-.47v-8.77a1.189 1.189 0 01.061-.469 1.212 1.212 0 01-.47.06h-1.247v-2.024h6.337l2.127 7.626a22.377 22.377 0 01.715 3.169h.1a28.858 28.858 0 01.736-3.149l2.208-7.646h6.276v2.024H92.18a1.22 1.22 0 01-.47-.06 1.171 1.171 0 01.062.469v8.77a1.173 1.173 0 01-.062.47 1.22 1.22 0 01.47-.06h1.247v2.023h-5.765v-2.023h1.023a1.217 1.217 0 01.47.06 1.191 1.191 0 01-.061-.47v-5.315a38.989 38.989 0 01.184-4.375l-.1-.02c-.408 1.86-.551 2.392-1.1 4.252l-2.358 7.891h-3.311l-2.352-7.891c-.491-1.719-.653-2.372-1.063-4.252l-.123.02a39.228 39.228 0 01.184 4.375v5.315a1.191 1.191 0 01-.061.47 1.215 1.215 0 01.47-.06h1v2.023h-5.54zm28.876-.961c-.224 1.941-2.064 3.27-4.579 3.27a4.746 4.746 0 01-5.09-5.13 4.808 4.808 0 011.367-3.742 5.075 5.075 0 013.619-1.349c3.005 0 4.784 1.881 4.784 5.069v.8H97.4a1.019 1.019 0 01-.512-.084c.124 1.616.982 2.516 2.393 2.516a1.859 1.859 0 001.962-1.349zm-3.168-2.822a1.9 1.9 0 01.613.061c-.184-1.574-.879-2.35-2.105-2.35-1.268 0-2.044.838-2.209 2.35a1.841 1.841 0 01.593-.061zm4-3.885h1.1a1.709 1.709 0 01.47.042 1.086 1.086 0 01-.062-.45v-1.389l2.8-.9v2.289a1.086 1.086 0 01-.062.45 1.716 1.716 0 01.471-.042h2.248v1.922h-2.248a1.2 1.2 0 01-.471-.061 1.181 1.181 0 01.062.47v4.519c0 .837.225 1.165.777 1.165.593 0 .818-.368.878-1.452h1.616v.347c0 1.984-.94 2.924-2.924 2.924-2.106 0-3.149-.9-3.149-2.718V34.3a1.181 1.181 0 01.062-.47 1.2 1.2 0 01-.47.061h-1.1zm8.6 7.79l1.023.02a.949.949 0 01.327.061.518.518 0 01-.061-.306v-5.459a.489.489 0 01.061-.286.9.9 0 01-.327.041l-1.023.021v-1.882h3.866v.962a6.4 6.4 0 01-.2 1.491l.1.022c.716-1.9 1.655-2.678 3.128-2.678a5.465 5.465 0 011.063.1v2.372a4.743 4.743 0 00-.859-.081 2.692 2.692 0 00-3.025 2.965v2.207a1.949 1.949 0 01-.04.511 1.927 1.927 0 01.489-.061l1.165-.02v1.9h-5.683zM132 36.793c0 3.108-2.045 5.091-5.214 5.091a5.861 5.861 0 01-3.537-1.227 5 5 0 01-1.575-3.864 5.15 5.15 0 011.35-3.639 5.515 5.515 0 013.823-1.43A4.809 4.809 0 01132 36.793zm-7.462-.019c0 1.942.879 3.127 2.309 3.127 1.413 0 2.31-1.207 2.31-3.066 0-1.921-.877-3.129-2.289-3.129-1.45 0-2.329 1.165-2.329 3.068zm8.232 6.541h.879a1.178 1.178 0 01.47.062 1.2 1.2 0 01-.061-.47v-8.833a.489.489 0 01.061-.286.841.841 0 01-.326.041l-1.023.021v-1.882h3.883v.716a4.056 4.056 0 01-.162 1.064l.082.02a3.6 3.6 0 013.311-2.086c2.661 0 4.335 1.963 4.335 5.133 0 3.106-1.615 5.069-4.192 5.069a3.475 3.475 0 01-3.271-1.942l-.083.041a7.724 7.724 0 01.166 1.819v1.1a1.757 1.757 0 01-.041.47 1.075 1.075 0 01.449-.062h1.064v1.9h-5.541zm3.947-6.44c0 1.841.961 3.046 2.37 3.046 1.471 0 2.33-1.143 2.33-3.106 0-1.944-.859-3.129-2.227-3.129-1.534 0-2.472 1.228-2.472 3.189zm18.7-.082c0 3.108-2.047 5.091-5.215 5.091a5.859 5.859 0 01-3.537-1.227 5 5 0 01-1.574-3.864 5.146 5.146 0 011.35-3.639 5.512 5.512 0 013.822-1.43 4.81 4.81 0 015.155 5.069zm-7.463-.019c0 1.942.877 3.127 2.309 3.127 1.411 0 2.311-1.207 2.311-3.066 0-1.921-.88-3.129-2.29-3.129-1.452 0-2.329 1.165-2.329 3.068zm8.271 2.984l1.025.02a.593.593 0 01.326.061.518.518 0 01-.061-.306v-9.446a1.186 1.186 0 01.061-.468 1.2 1.2 0 01-.47.061h-.881v-1.9h4.069v11.753a.771.771 0 01-.039.306.515.515 0 01.305-.061l.941-.02v1.9h-5.276zm6.5 0l1.023.02a.945.945 0 01.327.061.525.525 0 01-.06-.306v-5.459a.5.5 0 01.06-.286.9.9 0 01-.327.041l-1.023.021v-1.882h4.075v7.565a.5.5 0 01-.064.306.956.956 0 01.329-.061l.939-.02v1.9h-5.275zm1.187-11.98h2.888v2.78h-2.884zm4.39 4.19h1.107a1.7 1.7 0 01.468.042 1.12 1.12 0 01-.06-.45v-1.389l2.8-.9v2.289a1.086 1.086 0 01-.062.45 1.716 1.716 0 01.471-.042h2.248v1.922h-2.248a1.2 1.2 0 01-.471-.061 1.181 1.181 0 01.062.47v4.519c0 .837.225 1.165.777 1.165.591 0 .817-.368.878-1.452h1.614v.347c0 1.984-.94 2.924-2.921 2.924-2.106 0-3.149-.9-3.149-2.718V34.3a1.217 1.217 0 01.06-.47 1.191 1.191 0 01-.468.061H168.3zm15.208 8.362a4.245 4.245 0 01-3.334 1.533c-2.124 0-3.555-1.247-3.555-3.085 0-2.169 1.613-3.252 4.864-3.252.247 0 .674.021 1.145.062h.225l.224.019.247.022a.269.269 0 01-.062-.206v-.163a2 2 0 00-.245-1.207 1.924 1.924 0 00-1.512-.571c-1.127 0-1.636.429-1.779 1.452h-2.638c.02-2.127 1.555-3.252 4.436-3.252a5.279 5.279 0 013.5 1.064 3.151 3.151 0 01.86 2.474v4.292a.546.546 0 01-.062.327.519.519 0 01.306-.061l.984-.02v1.9h-3.662v-.572a1.8 1.8 0 01.125-.715zm-1.635-3.047c-1.719 0-2.537.493-2.537 1.514 0 .736.615 1.247 1.513 1.247a2.409 2.409 0 002.065-1.125 2.65 2.65 0 00.327-1.595zm6.268 2.475l1.023.02a.768.768 0 01.307.061.72.72 0 01-.042-.306v-5.459a.678.678 0 01.042-.286.748.748 0 01-.307.041l-1.023.021v-1.882h3.968v.7a2.712 2.712 0 01-.186.981l.084.041a3.453 3.453 0 013.29-1.962 3.161 3.161 0 013.5 3.412v4.4a.525.525 0 01-.06.306.76.76 0 01.306-.061l.961-.02v1.9h-5.295v-1.9l1.042.02a.761.761 0 01.307.061.518.518 0 01-.061-.306v-3.891c0-1.247-.511-1.82-1.656-1.82-1.37 0-2.125.921-2.125 2.536v3.168a.72.72 0 01-.042.306.672.672 0 01.288-.061l1.061-.02v1.9h-5.377zM76.766 49.22a1.1 1.1 0 01.061-.449 1.745 1.745 0 01-.47.041h-1.431v-1.349h5.826v1.349h-1.758a1.678 1.678 0 01-.45-.041 1.6 1.6 0 01.041.449v6.973a3.835 3.835 0 00.613 2.269 3.529 3.529 0 002.9 1.409c2.29 0 3.6-1.512 3.6-4.129V49.22a1.079 1.079 0 01.062-.449 1.678 1.678 0 01-.45.041h-1.736v-1.349h5.581v1.349h-1.412a1.671 1.671 0 01-.449-.041 1.6 1.6 0 01.041.449v6.3a5.7 5.7 0 01-.92 3.8 5.087 5.087 0 01-4.273 2.085 5.354 5.354 0 01-4.374-1.86 5.226 5.226 0 01-1-3.516zm16 4.315a3.15 3.15 0 013.311-2.208c2.087 0 3.333 1.125 3.333 2.965v5.131a1.191 1.191 0 01-.061.469 1.217 1.217 0 01.47-.06h1.125V61.1h-4.928v-1.268h1.267a1.169 1.169 0 01.45.06 1.738 1.738 0 01-.041-.469v-4.539a1.967 1.967 0 00-2-2.229c-1.675-.081-2.8 1.1-2.8 3.026v3.742a1.266 1.266 0 01-.06.469 1.215 1.215 0 01.471-.06h1.286V61.1h-5.197v-1.268h1.37a1.112 1.112 0 01.449.06 1.738 1.738 0 01-.041-.469v-6.155a1.979 1.979 0 01.041-.51 1.408 1.408 0 01-.51.061l-1.309.02v-1.267h3.394v.88a5.836 5.836 0 01-.143 1.061zm12.361 5.888a1.191 1.191 0 01-.061.469 1.222 1.222 0 01.471-.06h1.289V61.1h-5.173v-1.268H103a1.12 1.12 0 01.45.06 1.738 1.738 0 01-.041-.469v-6.155a1.979 1.979 0 01.041-.51 1.3 1.3 0 01-.49.061l-1.309.02v-1.267h3.474zm-.02-11.96v1.86h-1.881v-1.86zm9.115 6.481c.2-.532.266-.676.491-1.186a4.669 4.669 0 01-.94.061l-.88.02v-1.267h4.56v1.267l-1.1-.042-3.313 8.3h-2.146l-3.373-8.3-1.1.042v-1.267h4.661v1.267l-.859-.02a4.649 4.649 0 01-.939-.061c.224.51.285.654.49 1.164l1.349 3.558a23.066 23.066 0 01.818 2.352h.081a23.312 23.312 0 01.818-2.352zm12.61 4.21c-.308 1.943-2.026 3.19-4.418 3.19a4.583 4.583 0 01-4.885-4.927c0-3.149 1.86-5.09 4.885-5.09a4.09 4.09 0 014.293 3.066 7.106 7.106 0 01.245 2.33h-7.3a.661.661 0 01-.347-.061 3.158 3.158 0 003.087 3.332c1.532 0 2.6-.674 2.863-1.84zm-2.087-2.678a1.063 1.063 0 01.452.061 2.757 2.757 0 00-2.824-2.882 3 3 0 00-3.025 2.882 2.237 2.237 0 01.654-.061zm6.518-1.655a2.89 2.89 0 013.106-2.494 3.048 3.048 0 01.716.1v1.534a1.645 1.645 0 00-.92-.246c-1.739 0-2.8 1.309-2.8 3.477v3.23a1.21 1.21 0 01-.06.469 1.163 1.163 0 01.471-.06h1.634V61.1h-5.541v-1.268h1.349a1.22 1.22 0 01.471.06 1.229 1.229 0 01-.059-.469v-6.155a1.4 1.4 0 01.059-.51 1.466 1.466 0 01-.51.061l-1.31.02v-1.267h3.4v1c0 .081-.023.306-.063.613 0 .122-.019.348-.04.612zm12.465-2.249v3.107h-1.39c0-1.247-.942-2.024-2.534-2.024-1.392 0-2.251.573-2.251 1.472a.991.991 0 00.349.777 2.254 2.254 0 001.349.429l1.186.184a5.291 5.291 0 012.492.818 2.445 2.445 0 01.9 1.943c0 1.9-1.452 3.066-3.821 3.066a2.975 2.975 0 01-2.966-1.574l-.081.02a2.86 2.86 0 01.1.715v.595h-1.372v-3.293h1.372c.08 1.349 1.165 2.187 2.8 2.187a4.255 4.255 0 001.369-.285 1.356 1.356 0 00.818-1.166 1.176 1.176 0 00-.656-1.166 5.5 5.5 0 00-1.531-.346l-1.063-.123c-2.188-.327-3.027-1.063-3.027-2.719a2.443 2.443 0 011.25-2.189 4.8 4.8 0 012.8-.674 2.7 2.7 0 012.536 1.451l.1-.02a2.049 2.049 0 01-.121-.654v-.532zm4.616 7.851a1.156 1.156 0 01-.063.469 1.215 1.215 0 01.469-.06h1.29V61.1h-5.171v-1.268h1.348a1.117 1.117 0 01.45.06 1.7 1.7 0 01-.042-.469v-6.155a1.933 1.933 0 01.042-.51 1.309 1.309 0 01-.491.061l-1.307.02v-1.267h3.475zm-.021-11.96v1.86h-1.88v-1.86zm8.577 10.691a3.648 3.648 0 01-.429 2.209 2.249 2.249 0 01-2.227.981 2.541 2.541 0 01-1.778-.552c-.592-.47-.8-1.083-.8-2.33v-5.194a1.353 1.353 0 01.061-.51 1.414 1.414 0 01-.491.061l-1.452.02v-1.267h1.472a1.2 1.2 0 01.471.061 1.2 1.2 0 01-.061-.47v-1.717l1.738-.614v2.331a1.2 1.2 0 01-.061.47 1.191 1.191 0 01.469-.061h2.7v1.267l-2.681-.02a1.973 1.973 0 01-.489-.061 1.3 1.3 0 01.061.49v5.214c0 .694.06.961.244 1.186a1.023 1.023 0 00.84.368.934.934 0 00.939-.655 5.313 5.313 0 00.144-1.207zm1.142-5.357l-1.042.042v-1.267h4.66v1.267l-.919-.02a7.547 7.547 0 01-.982-.041 11.637 11.637 0 01.573 1.227l1.431 3.311a18.421 18.421 0 01.838 2.167h.081a18.513 18.513 0 01.818-2.167l1.37-3.333c.267-.612.306-.715.552-1.2a7.524 7.524 0 01-.982.041l-.9.02v-1.272h4.478v1.267l-.981-.042-3.968 9.221a5.814 5.814 0 01-1.348 2.29 3.016 3.016 0 01-1.778.47 5.558 5.558 0 01-1.267-.122v-1.288a5.9 5.9 0 00.878.061c.98 0 1.186-.164 1.7-1.247l.512-1.064zM66.4 57.439c-6.212 4.353-21.781 8.822-24.39 1-4.735 3.563-7.569 13.274-8.776 18.1-1.207-4.821-4.04-14.53-8.775-18.094-2.609 7.819-18.177 3.35-24.388-1-.661-7.56 3.253-23.277 11.329-21.626-.718-5.878-7.7-13.186-11.278-16.644 4.781 1.368 14.6 3.763 20.055 1.446C14.707 14.45 26.362 3.2 33.237 0c6.876 3.2 18.53 14.45 13.063 20.619 5.451 2.318 15.274-.078 20.054-1.446-3.576 3.457-10.561 10.767-11.279 16.645 8.076-1.652 11.99 14.067 11.325 21.621zM33.238 3.386c-5.438 2.776-11.044 7.736-11.95 13.762h.012c6.832-2.3 10.635 7.126 11.943 12.4 1.3-5.273 5.109-14.7 11.943-12.4h.005c-.91-6.026-6.516-10.986-11.953-13.762zm30.211 52.323c.312-6.1-1.181-13.432-5.948-17.228-1.422 7.067-11.492 5.645-16.713 4.141C44.7 46.4 50.967 54.405 45.556 59.173c5.67 2.232 12.766-.145 17.893-3.464zm-60.423 0c5.127 3.32 12.224 5.7 17.894 3.466-5.409-4.765.855-12.775 4.77-16.544-5.22 1.505-15.291 2.927-16.713-4.142-4.77 3.787-6.261 11.123-5.951 17.218zm30.212-15.965c-5.438 3.065-11.044 8.538-11.95 15.184h.012c6.832-2.541 10.635 7.865 11.943 13.684 1.3-5.819 5.109-16.225 11.943-13.684h.005c-.91-6.646-6.516-12.119-11.953-15.184zM31.96 37.53c.065-6.243-1.869-13.831-7.175-17.938-1.214 7.186-12.128 5.28-17.819 3.5 4.385 4.038 11.493 12.536 5.876 17.183v.006c6.204 2.545 13.745.424 19.118-2.751zm2.555 0c5.372 3.178 12.913 5.3 19.124 2.756v-.006c-5.617-4.646 1.49-13.143 5.876-17.183-5.691 1.778-16.606 3.685-17.82-3.5-5.31 4.103-7.244 11.691-7.18 17.933z" class="cls-1"/></g></g></svg>