<svg xmlns="http://www.w3.org/2000/svg" viewBox="0 0 374.92 25.99"><defs><style>.cls-1{fill:#5c267e}.cls-2{fill:#1d1d1b}</style></defs><g id="Layer_2" data-name="Layer 2"><g id="Logos"><path d="M6 25.1H.65a.65.65 0 01-.65-.65V1.58A.62.62 0 01.65 1H6a.63.63 0 01.65.61v22.84a.66.66 0 01-.65.65zM30.31 25.1H26a1.49 1.49 0 01-1.36-.87l-6.4-10.89c-.13-.22-.23-.26-.32-.26s-.17.07-.17.3v11.07a.65.65 0 01-.65.65h-4.92a.67.67 0 01-.68-.65V2.17A1.22 1.22 0 0112.7 1H17a1.45 1.45 0 011.3.94l6.59 11.21c.13.22.2.29.29.29s.17 0 .17-.29V1.62A.65.65 0 0126 1h4.87a.65.65 0 01.65.65V23.9a1.22 1.22 0 01-1.21 1.2zM50.64 6.36H45.8v18.09a.65.65 0 01-.65.65h-5.3a.66.66 0 01-.65-.65V6.36h-4.93a.62.62 0 01-.65-.62V1.58a.62.62 0 01.65-.58h16.37a.65.65 0 01.68.61v4.13a.65.65 0 01-.68.62zM62.13 25.4c-5.39 0-10-2.77-10-10.69v-3.35c0-7.92 4.58-10.72 10-10.72s10 2.8 10 10.72v3.35c-.02 7.92-4.6 10.69-10 10.69zm3.29-14c0-3.47-1-4.9-3.29-4.9s-3.28 1.43-3.28 4.9v3.35c0 3.47 1 4.87 3.28 4.87s3.29-1.4 3.29-4.87zM89.26 26a13 13 0 1113-13 13 13 0 01-13 13zm0-24a11 11 0 1011 11 11 11 0 00-11-11zm.78 12l-4.84 5.69a1.34 1.34 0 01-1.86.16 1.3 1.3 0 01-.16-1.85l4.22-5-4.22-5a1.32 1.32 0 012-1.69L90 12.09a1.27 1.27 0 01.35.9 1.38 1.38 0 01-.35.91zm6.82 0L92 19.69a1.33 1.33 0 01-1.85.16A1.29 1.29 0 0190 18l4.23-5L90 8a1.32 1.32 0 012-1.7l4.84 5.79a1.27 1.27 0 01.35.9 1.38 1.38 0 01-.33.91z" class="cls-1"/><path d="M121.92 25.1h-2a1.06 1.06 0 01-1-.5l-9.69-18.5c0-.06-.07-.09-.1-.09s0 0 0 .09v18.4a.59.59 0 01-.57.6h-1.64c-.31 0-.56-.06-.56-.37V2.57a.89.89 0 01.91-.88H109c.89 0 1 .16 1.3.63l9.67 18.4.06.1V2.29a.6.6 0 01.57-.6h1.67a.58.58 0 01.57.6v21.9a.92.92 0 01-.92.91zM141.14 25.17c-1.19.12-4.28.15-6.14.15-4.41 0-6.71-1.67-6.71-5.86V7.33c0-4.19 2.3-5.86 6.71-5.86 1.86 0 4.82.07 6.14.19a.44.44 0 01.32.44v1.58a.34.34 0 01-.35.37H135c-3.34 0-3.87.89-3.87 3.28v4.38h9.67a.63.63 0 01.63.63v1.2a.63.63 0 01-.63.63h-9.67v5.29c0 2.4.53 3.28 3.87 3.28h6.08a.34.34 0 01.35.38v1.61a.46.46 0 01-.29.44zM168.65 2.32l-3.49 21.3a1.71 1.71 0 01-2 1.61h-1.35a1.89 1.89 0 01-1.8-1.58L157 12c-.06-.29-.09-.29-.19-.29h-.06c-.09 0-.13 0-.19.29l-3.16 11.65a1.89 1.89 0 01-1.79 1.58h-1.33a1.7 1.7 0 01-1.95-1.61l-3.5-21.3v-.09a.51.51 0 01.54-.54h1.83a.57.57 0 01.53.54l3.06 20.07c.06.31 0 .47.16.47s.15-.19.22-.47l3.08-11.66a1.41 1.41 0 011.48-1.26h2a1.41 1.41 0 011.48 1.26l3.09 11.66c.06.28.09.47.22.47s.09-.16.16-.47l3.05-20.07c.07-.35.29-.54.54-.54h1.83a.51.51 0 01.53.54zM187.15 4.15H181v20.32a.59.59 0 01-.56.63h-1.73a.6.6 0 01-.57-.63V4.15H172c-.34 0-.63-.16-.63-.5V2.26a.6.6 0 01.63-.57h15.16a.55.55 0 01.6.57v1.39c-.01.35-.26.5-.61.5zM198.4 25.32c-5 0-8.54-2.89-8.54-9.89v-4.06c0-7 3.59-9.9 8.54-9.9s8.51 2.9 8.51 9.9v4.06c0 7-3.56 9.89-8.51 9.89zm5.6-13.95c0-5.3-2.15-7.32-5.61-7.32s-5.64 2-5.64 7.32v4.06c0 5.29 2.17 7.31 5.64 7.31s5.61-2 5.61-7.31zM227.39 25.1h-2a1 1 0 01-1-.5l-9.7-18.5c0-.06-.06-.09-.1-.09s0 0 0 .09v18.4a.59.59 0 01-.56.6h-1.64c-.32 0-.57-.06-.57-.37V2.57a.89.89 0 01.91-.88h1.74c.88 0 1 .16 1.29.63l9.67 18.4.06.1V2.29a.59.59 0 01.56-.6h1.67a.58.58 0 01.57.6v21.9a.91.91 0 01-.9.91zM258.11 25.1h-1.86a.58.58 0 01-.54-.47l-2-7.25h-8.16l-2 7.25a.64.64 0 01-.57.47h-1.86a.5.5 0 01-.53-.5.56.56 0 010-.22l5.83-20.51a3.09 3.09 0 013.21-2.4 3 3 0 013.18 2.36l5.83 20.55a.56.56 0 010 .22.48.48 0 01-.53.5zM250.2 4.53c-.09-.35-.28-.57-.6-.57s-.53.22-.63.57l-2.87 10.36h7zM286.44 25a51.9 51.9 0 01-6.15.28c-3.37 0-6.71-.66-6.71-5.86V2.32a.63.63 0 01.63-.63h1.61a.63.63 0 01.63.63v17.14c0 2.4.53 3.28 3.87 3.28h6.09a.34.34 0 01.34.38v1.48a.44.44 0 01-.31.4zM302.54 25.17c-1.2.12-4.29.15-6.15.15-4.41 0-6.71-1.67-6.71-5.86V7.33c0-4.19 2.3-5.86 6.71-5.86 1.86 0 4.82.07 6.15.19a.44.44 0 01.31.44v1.58a.33.33 0 01-.34.37h-6.08c-3.35 0-3.88.89-3.88 3.28v4.38h9.67a.63.63 0 01.63.63v1.2a.63.63 0 01-.63.63h-9.67v5.29c0 2.4.53 3.28 3.88 3.28h6.08a.34.34 0 01.34.38v1.61a.45.45 0 01-.31.44zM324.28 2.42l-5.8 20.51a3 3 0 01-3.21 2.39 3.08 3.08 0 01-3.22-2.39l-5.83-20.51a.44.44 0 010-.19.54.54 0 01.57-.54h1.83a.65.65 0 01.57.47l5.48 20.08c.12.44.28.66.63.66s.47-.22.6-.66l5.51-20.08a.59.59 0 01.54-.47h1.86a.51.51 0 01.53.54.44.44 0 01-.06.19zM340.41 25.17c-1.19.12-4.28.15-6.14.15-4.41 0-6.71-1.67-6.71-5.86V7.33c0-4.19 2.3-5.86 6.71-5.86 1.86 0 4.82.07 6.14.19a.44.44 0 01.32.44v1.58a.34.34 0 01-.35.37h-6.08c-3.34 0-3.88.89-3.88 3.28v4.38h9.68a.64.64 0 01.63.63v1.2a.63.63 0 01-.63.63h-9.68v5.29c0 2.4.54 3.28 3.88 3.28h6.08a.34.34 0 01.35.38v1.61a.46.46 0 01-.32.44zM358.31 25a51.69 51.69 0 01-6.14.28c-3.38 0-6.71-.66-6.71-5.86V2.32a.63.63 0 01.62-.63h1.61a.63.63 0 01.63.63v17.14c0 2.4.54 3.28 3.88 3.28h6.08a.34.34 0 01.35.38v1.48a.44.44 0 01-.32.4zM367.13 25.32a31.63 31.63 0 01-5.23-.44c-.53-.09-.6-.22-.6-.56v-1.27a.49.49 0 01.54-.5h.09c1.45.13 3.75.19 5.2.19 3.79 0 4.79-1.51 4.79-3.72 0-1.57-.91-2.46-3.78-4.22l-3.05-1.86c-2.9-1.76-4.35-3.37-4.35-5.89 0-3.81 2.74-5.58 7.53-5.58a42.48 42.48 0 015.48.38c.32.06.54.22.54.53v1.36a.49.49 0 01-.54.5h-.06c-1.39-.09-3.59-.19-5.42-.19-3.25 0-4.63.7-4.63 3 0 1.48 1 2.36 3.43 3.81l2.9 1.73c3.65 2.18 4.95 3.91 4.95 6.43 0 3.03-1.58 6.3-7.79 6.3z" class="cls-2"/></g></g></svg>