<svg xmlns="http://www.w3.org/2000/svg" xmlns:xlink="http://www.w3.org/1999/xlink" xml:space="preserve" id="Layer_1" x="0" y="0" enable-background="new 0 0 595.1 168.8" version="1.1" viewBox="0 0 595.1 168.8"><style>.st0{fill:#003f72}.st3{fill:#c60c30}</style><g><path d="M234.8 70.5c-15.2 0-25.1-10.8-25.1-26.9 0-15.7 10.6-27.1 25.8-27.1C250 16.5 259 26.8 259 44v2.1h-34.2c0 9 3.9 13.8 10.6 13.8 4.7 0 8.3-2.8 9.6-7.7l13.7 1.2c-3.2 10.9-11.9 17.1-23.9 17.1m9.4-32.8c-.1-7.5-3.6-11.4-9.6-11.4-5.6 0-9.3 4.1-9.6 11.4h19.2zM570.9 70.5c-15.2 0-25.1-10.8-25.1-26.9 0-15.7 10.6-27.1 25.8-27.1 14.5 0 23.5 10.3 23.5 27.5v2.1h-34.2c0 9 3.9 13.8 10.6 13.8 4.7 0 8.3-2.8 9.6-7.7l13.7 1.2c-3.2 10.9-11.9 17.1-23.9 17.1m9.4-32.8c-.1-7.5-3.6-11.4-9.6-11.4-5.6 0-9.3 4.1-9.6 11.4h19.2zM260.4 17.9h16l7.5 30.1 7.1-30.1h13.3l7.4 30.6 8.9-30.6h12l-14.8 51.2h-13.4l-8.5-33.3-8.4 33.3h-12.3l-14.8-51.2M359.6 26.9c-6.5 0-10.9 5.6-11.1 16.5-.2 10.9 4.3 16.6 10.6 16.6 4.9 0 9.6-3.8 10.4-10.4l12.7 1.5c-1.7 11.8-11.1 19.4-24.2 19.4-15.1 0-25.6-10.8-25.4-26.9.3-16.3 11.2-27.1 27.4-27.1 12.3 0 20.8 7.2 22.2 19.4L369 37.3c-.7-6.7-4.9-10.4-9.4-10.4M419.8 60.8c-3.3 6.2-8.9 9.6-16.1 9.6-10.6 0-17-6.2-17-15.6 0-12 11-18.4 32.8-18.6V34c0-5.2-2.7-7.9-8.1-7.9-6 0-9.4 2.5-10.1 7.2l-13.2-1.5c2.3-10.1 10.4-15.2 24.1-15.2 15.3 0 21.3 6 21.3 20v22.7c0 4.2.4 7.5 1.4 9.9h-14.1c-.6-2.5-.9-5.3-1-8.4m-18.1-6.9c0 4.2 2.7 6.7 7.4 6.7 6 0 10.5-5 10.5-11.9V44c-11.9.2-17.9 3.8-17.9 9.9zM451 53.1c1.2 4.7 5.5 7.4 11.8 7.4 5.4 0 8.4-2.4 8.4-5.6 0-4.5-4.3-4.3-11.8-5.9-12.1-2.5-18.2-6.6-18.2-15.8 0-9.6 7.8-16.7 20.6-16.7 10.5 0 17.6 4.7 20.6 13.3L471 32c-1.7-4.1-4.8-5.8-9.7-5.8-4.7 0-7.3 1.8-7.3 5.1 0 4.5 4.9 4.3 14.1 6.3 11.1 2.4 16.5 6.4 16.5 15.3 0 10.1-8.5 17.3-23 17.3-11.7 0-20-5.9-22.4-15.4l11.8-1.7M524.7 0h14.6v69.1h-14.6V0M225.6 110.7c2.1-3.5 4.6-6.2 7.5-7.9 2.9-1.8 6.1-2.7 9.7-2.7 3.1 0 5.7.6 7.8 1.9 2.1 1.2 3.8 3.2 5.1 5.9 1.3 2.7 1.9 5.7 1.9 9v23.2c0 1.7.4 3 1.2 3.7.8.7 2.1 1.1 3.9 1.1h3.3v3.7h-25v-3.7h2.4c2.2 0 3.8-.4 4.6-1.1.9-.7 1.3-1.8 1.3-3.2v-20.3c0-4.4-.7-7.7-2-9.8-1.9-3-4.7-4.6-8.5-4.6s-6.9 1.5-9.4 4.6c-2.5 3.1-3.8 7.1-3.8 12v17.6c0 1.7.4 2.9 1.2 3.7.8.7 2.1 1.1 3.9 1.1h3.3v3.7h-25.4v-3.7h3.3c1.6 0 2.9-.3 3.8-1 .9-.7 1.3-1.5 1.3-2.5v-30.8c0-2-.5-3.6-1.6-4.6-1.1-1-2.7-1.6-4.7-1.6h-2.4V101l16.9-.8.4 10.5M266.9 101.2l19.1-.6v40.9c0 1.1.3 1.9.8 2.4.8.7 1.8 1 3 1h5.4v3.7H268v-3.7h5c1.5 0 2.6-.4 3.3-1.1.7-.7 1-1.8 1-3.2v-30c0-1.9-.5-3.3-1.6-4.3s-2.7-1.4-4.8-1.4H267l-.1-3.7m13.4-20c1.5 0 2.9.6 4 1.7 1.1 1.2 1.7 2.5 1.7 4.1 0 1.5-.6 2.8-1.7 4-1.1 1.1-2.5 1.7-4 1.7-1.6 0-2.9-.6-4-1.7s-1.7-2.5-1.7-4 .6-2.9 1.7-4c1.2-1.2 2.5-1.8 4-1.8zM477.7 101.2l19.1-.6v40.9c0 1.1.3 1.9.8 2.4.8.7 1.8 1 3 1h5.4v3.7h-27.3v-3.7h5c1.5 0 2.6-.4 3.3-1.1.7-.7 1-1.8 1-3.2v-30c0-1.9-.5-3.3-1.6-4.3s-2.7-1.4-4.8-1.4h-3.9v-3.7m13.4-20c1.5 0 2.9.6 4 1.7 1.1 1.2 1.7 2.5 1.7 4.1 0 1.5-.6 2.8-1.7 4-1.1 1.1-2.5 1.7-4 1.7-1.6 0-2.9-.6-4-1.7s-1.7-2.5-1.7-4 .6-2.9 1.7-4c1.1-1.2 2.5-1.8 4-1.8zM291.9 101h23.5v3.5c-3.1.1-5.1.3-6 .8-.9.5-1.3 1.2-1.3 2.1 0 .7.2 1.5.5 2.2l12.6 28.1 11.6-27.3c.2-.5.3-.9.3-1.4 0-2.5-2.5-4-7.4-4.6V101h19.8v3.5c-2 .2-3.6.7-4.8 1.6-1.2.9-2.1 2-2.8 3.5l-17.5 40.5h-2.8L299 108.5c-.7-1.5-1.5-2.5-2.5-3.1-1-.6-2.5-.9-4.6-.9V101M387.4 125.1h-34.3c.2 7.3 1.5 12.4 4.1 15.4 2.9 3.4 6.7 5 11.2 5 6.7 0 12.1-3.7 16.2-11.2l3.2 1.4c-5 9.6-12.1 14.4-21.5 14.4-6.4 0-11.8-2.3-16.1-6.9-4.4-4.6-6.5-10.5-6.5-17.7 0-7.7 2.1-14 6.4-18.8 4.3-4.8 9.6-7.2 15.9-7.2 4.6 0 8.6 1.2 12 3.6 3.4 2.4 5.9 5.8 7.6 10.2 1.1 3.1 1.7 7.1 1.8 11.8m-34.3-3.5h21c1.2 0 2.2-.4 2.9-1.2s1-2.2 1-4.3c0-3.7-1.2-6.9-3.6-9.5-2.4-2.6-5.2-3.9-8.4-3.9-3.6 0-6.6 1.6-9.1 4.7-2.4 3.1-3.7 7.9-3.8 14.2zM438.1 131c2.1 5.9 4.5 10 7.3 12.2 2.7 2.3 6.1 3.4 10.1 3.4 3.7 0 6.6-.8 8.5-2.4 2-1.6 3-3.7 3-6.2 0-1.4-.4-2.7-1.1-3.8s-1.7-1.9-3-2.4-4.6-1.3-10.1-2.3c-5.2-1-8.8-2.1-10.8-3.2s-3.6-2.7-4.7-4.6c-1.1-2-1.7-4.1-1.7-6.4 0-3.5 1.2-6.7 3.5-9.5 3-3.6 7.2-5.5 12.6-5.5 4.1 0 7.9 1.3 11.5 4l3.4-3.6h2.1l1.3 17.1h-3.3c-1.5-4.9-3.5-8.5-6.1-10.7-2.5-2.2-5.7-3.3-9.4-3.3-3.2 0-5.8.8-7.6 2.4-1.8 1.6-2.8 3.6-2.8 5.9 0 2 .8 3.7 2.5 5.1 1.7 1.4 4.9 2.5 9.8 3.2 5.6.9 9.3 1.7 11 2.4 2.8 1 4.9 2.6 6.4 4.7s2.3 4.7 2.3 7.7c0 4.2-1.6 7.7-5 10.6-3.3 2.9-7.5 4.4-12.6 4.4-4.7 0-9.1-1.6-13.1-4.6l-3.7 4.2h-2.7l-1-18.7 3.4-.1M541.1 101H564v3.5h-2.1c-2 0-3.4.3-4.1.8-.7.5-1.1 1.3-1.1 2.2 0 .4.1.9.3 1.3l13.3 28.5 10-23.6c.7-1.7 1.1-3.3 1.1-4.9 0-1.2-.5-2.2-1.5-2.9-1-.7-2.9-1.1-5.9-1.3V101h19.8v3.5c-3.8.4-6.3 2-7.6 5l-17.9 41c-3 7-6.1 11.8-9.1 14.3-3.1 2.6-6.3 3.9-9.8 3.9-2.5 0-4.6-.7-6.1-2.1-1.5-1.4-2.3-3.1-2.3-5.1 0-1.5.5-2.8 1.4-3.8 1-1 2.1-1.5 3.6-1.5 1.3 0 2.4.4 3.3 1.3.9.8 1.3 1.8 1.3 3 0 .4-.1.9-.2 1.5-.1.5-.2.9-.2 1.1 0 .8.5 1.2 1.6 1.2s2.4-.4 3.8-1.2c1.4-.8 2.7-2.1 4-3.9 1.2-1.8 3.4-5.8 6.4-12l-18.1-38.6c-.7-1.3-1.5-2.3-2.4-3s-2.4-1.1-4.3-1.3l-.1-3.3M144 0h18.7l26.2 42.6V0h14.6v69.1h-15.6l-29.3-48v48H144V0" class="st0"/><path d="M135.3 79.5h31.2v3.7h-5.2c-1.8 0-3.1.3-3.9.9-.7.6-1.1 1.5-1.1 2.8v37.8c0 4.4.4 7.8 1.2 10.1 1.1 3.4 3.3 6 6.3 8 3.1 2 7.1 3 12 3 6.8 0 12-1.8 15.6-5.3 3.6-3.5 5.4-8.3 5.4-14.2V96.4c0-3.1-.2-5.4-.6-6.9-.4-1.6-1-2.8-1.8-3.7-.8-.9-1.8-1.5-3-2-1.2-.4-3.3-.6-6.1-.6v-3.7h28.6v3.7h-2c-3.2 0-5.5.9-7.1 2.6-1.6 1.7-2.3 4.2-2.3 7.5v32.3c0 8.1-2.3 14.3-6.9 18.6-5.2 4.9-12.1 7.3-20.7 7.3-7.5 0-13.3-1.1-17.6-3.2-4.3-2.1-7.4-5.2-9.3-9.1-1.5-3-2.2-6.8-2.2-11.4V86.9c0-1.1-.4-2.1-1.2-2.7-.8-.7-2-1-3.6-1h-5.4l-.3-3.7M518 58.5c-1.6.3-3.1.5-4.4.5-5.1 0-6.2-2.3-6.2-8.1v-23H518V18h-10.6V3.1l-14.8 2.7v12.1H486v9.9h6.6v24.6c0 12.5 4.8 18 16.8 18 2.7 0 5.6-.3 8.6-.9v-11M537.9 130.5c-.3 5-1.2 8.6-2.8 10.8-1.6 2.2-3.6 3.3-5.9 3.3-1.9 0-3.5-.7-4.8-2.1-1.3-1.4-1.9-3.5-1.9-6.2v-31.1h15V101h-15V81.2H519c-.3 6.7-1.9 11.9-4.9 15.6-2 2.6-5 4.2-8.9 4.8v3.5h8.5v32.6c0 3.6 1.1 6.4 3.4 8.6 2.3 2.2 5.4 3.3 9.4 3.3 4.3 0 7.9-1.6 10.6-4.7 2.7-3.1 4.2-7.9 4.4-14.4h-3.6M425.5 99.3c-8.3 0-15.3 9.7-18.2 20.6v-19.7l-17.3.8v3.7h4.1c1.8 0 3.2.5 4.2 1.6s1.5 2.7 1.5 5.1v30.3c0 .9-.4 1.6-1.2 2.3-.8.6-2 .9-3.6.9h-4.7v3.7H420v-3.7h-6c-2 0-3.4-.3-4.2-.9-.8-.6-1.2-1.5-1.2-2.6v-8.8c0-9.2 3.9-24.8 11.6-24.8 2.1 0 1.7 3.4 5.9 3.4 3.4 0 5.8-2.5 5.8-5.8 0-3.7-3-6.1-6.4-6.1M0 0v60.6C0 117.9 64.5 151 64.5 151S129 118.1 129 60.6V0H0" class="st0"/><g><path fill="#fff" d="M99.6 102.3c0-3.5-.5-6.9-1.5-10.2-9.6 6.3-19 7.9-24.7 4.5.3-.4.5-.9.5-1.4 0-1.3-1-2.3-2.3-2.3-.5 0-1 .2-1.4.5-3.4-5.6-1.8-15.1 4.5-24.7-3.3-1-6.7-1.5-10.2-1.5-3.5 0-6.9.5-10.2 1.5 6.3 9.6 7.9 19 4.5 24.7-.4-.3-.9-.5-1.4-.5-1.3 0-2.3 1-2.3 2.3 0 .5.2 1 .5 1.4-5.6 3.4-15.1 1.8-24.7-4.5-1 3.3-1.5 6.7-1.5 10.2 0 3.5.5 6.9 1.5 10.2 9.6-6.3 19-7.9 24.7-4.5-.3.4-.5.9-.5 1.4 0 1.3 1 2.3 2.3 2.3.5 0 1-.2 1.4-.5 3.4 5.6 1.8 15.1-4.5 24.7 3.3 1 6.7 1.5 10.2 1.5 3.5 0 6.9-.5 10.2-1.5-6.3-9.6-7.9-19-4.5-24.7.4.3.9.5 1.4.5 1.3 0 2.3-1 2.3-2.3 0-.5-.2-1-.5-1.4 5.6-3.4 15.1-1.8 24.7 4.5 1-3.3 1.5-6.7 1.5-10.2"/><path d="M70.9 102.3c0 3.5-2.8 6.4-6.4 6.4s-6.4-2.8-6.4-6.4c0-3.5 2.8-6.4 6.4-6.4s6.4 2.9 6.4 6.4" class="st0"/></g><path fill="#fffffe" d="M3.7 3.7h121.5v56.9H3.7z"/><path d="M74.3 44.2c.6.4.3.9 0 1.2-.3.3-3.4 2.3-5.4 1.7-1.5-.5-1.5-3.2-3.6-4.1-1.7-.7-3.6.6-3.6.6 3-.1 3.9 4.2 3.9 4.2-4.6-3.6-8.8-1.1-9.1 1.2 4-2.4 7.1.9 7.1.9-1.4.2-4.6 2.5-2.2 6.2.4-4.3 4.7-5 4.7-5-.4 2 1.4 6 4.8 5.2-2.4-1.6-2-3.2-2-4.3 0-.6.7-1 1.5-1.1 4.7-.5 4.7 3.1 4.7 3.1 1.3-.1 4.8-4.8 4.6-7.2 1.3 2 4.8 3.1 7.3 1.3-3.2-.5-4.6-3.7-4.8-4.3-.2-.6-1-4.5-2.5-6-2.1-2.1-5.5-.5-7.2 1.2-.6.5-2.2 3.4-.2 4.3 1.4.4 1.7.7 2 .9M23.2 34.8c-4.9 0-10.4-9.9-10.9-10.7 2.8-.2 2.7-1.6 2.4-2.5-1-3.3-7.3-.2-7.8.4.2-3.2 3.7-4.5 5.8-4.1-.4-4.9-4.9-5.2-4.9-5.2 3.9-2.9 6.4.8 7.2 3.6 3.9-2.9.2-6.8-.5-7.2 0 0 3.1-.3 4.4 2.9 1.2 3-.3 4.8-.3 4.8s1 0 1.6-.5c2.2-1.5 2.1-3.6 2-3.9 0 0 1.6 1 1.4 2.9-.1 1.3-1.4 2.3-2 3-.5.7-1.8 2.2-.2 7 .8 2.3 2 4.1 2.9 4.5-.6.9-1.5 2.1-1.1 5" class="st3"/><path d="M12.4 42c-3.1.2-8.5 1.5-5.7 7.1.1-3.8 5.2-4.2 6.2-3.9-2.5 4.2.4 8.2 2.7 8-2.3-1.8-.2-4.5 0-5.4.2-.7 1-1.1 1.9-.8 2.8.8.8 3.2.8 3.2 6.2 2.8 9 .4 10.2-1 0 0 1.9 1.8 0 3.2 1 .6 6.9.8 9.1-1.9.7 2.2 7.7 2.2 8.8 1.2 0 0-1.4-.8-1.4-1.8 0-1.7 1.9-3.1 4.3-4.1 2.8-1.2 7.3-1.8 11.9-3.9 8.4-4 18.8-11.4 22.1-6.8 1.7 2.4 1.3 4.7 3 6.3 1.7 1.6 4.4.9 6.1.7 4.1-.5 10-1.1 13.6-1.3 3.6-.2 4.6 2.4 4.6 2.7.3.8-.1 1.3-.6 1.2-1.2-.1-3.4-.6-4.7.1-1.8 1-1.3 3.5-1.3 3.5 1.5-2.6 5.7-2.2 7.2-2-1.4 1.2-4 5.9-.3 8-1-3.6 2.4-6.1 2.4-6.1.3 1 2.5 3.1 7.4 2.8-5.1-1.6-4.3-4.2-4.3-4.2 1.7.7 5.3.2 7-3.5-5.8 3.6-7.4.2-7.6-.2-1-1.8 1.8-2.2 1.8-2.2-.6-1.2-8.6-6.2-4.6-7.7-1.4-.8-4.7-.5-7.6 1.7.1-.7 0-2.6-.9-3.4 0 0-4.8 3.3-8.6 2.7-3.8-.6-2.3-6.3-2.3-6.3s9.7 1.2 13.3-.5c3.6-1.7 3.6-4.2 6.6-5.8 2.4-1.3 5.3-.2 5.3-.2-.4-2.5-5.2-4.5-8.8-.6 0 0-.3-7.1-8.9-6.2-5.4.5-9.4 2.7-15 3.7-5.4 1-10.5 1.9-13.9 1.9-3.4 0-8.3-.9-8.7-4.7-.2-2.2 1.5-3.2 3.2-3.2 2.6 0 6.2 1.5 9.1 2.5 2.1.7 4.1.7 5.3.7 3.1 0 6.9-1.5 8.8-2.3 1.9-.8 3.5-1.2 7.2-.9-1.2-1.5-9.4-5.1-15-4.8-5.3.3-5.7 2.8-10.9 2.5-5.2-.2-9.8.6-10 4.6-.1 3.9 3.3 8.1 11.9 7.5 3.5-.2 16.5-2.4 19.1-3.2 3.4-1.1 16.4-3.6 13.9 2.8-.5 1.4-2.1 2.8-5.9 2.8s-8.6-1.1-9.9-1.3c-1.3-.2-4.7-.6-8-.1-3.1.4-24.5 3.5-28.4 4 0 1.3-.8 5.4 2.9 7.7-1.6.8-4.8 2.4-7.9 1.1-.2 1 1 2.9 2.4 4.5-1.2.4-5.8 2.6-8.2 1-1 1.7-3.8 6-10.8 4.6.4-.3.2-2.4-1.4-3.1-1.7.2-1.9 1.2-8.7.4-2-.2-3.7-.9-4.3-2.2-.6-1.4.2-3.3-.2-4.4-.9-2.3-4.3-2-4.3-2 3 2.3 1 5.5 1 5.5-2.8-2.8-7.2-5.6-8.7-.6 4.5-1.8 6.7 2.4 6.7 2.4" class="st3"/><path d="M56.2 16.8c-1.7-3.3-5.5-.9-5.5-.9 1-1.2.1-4.9-1.2-5.7 0 1.9-1.6 2.5-2.8 2.2-1.5-.4-.9-2.5-.5-3.4-1.2-.1-3.6-.2-5.3 2.2-.4-3-3.2-4.3-6-3.5 3 3.5-3.5 7.2-5.8 6.1-1.1 2.2 2.5 4.8 3 4.1-1.9 2.8-5 2.2-6.8 1.6-.1 1.2 1.3 3.8 3.8 3.8-1.3 2-4.2 2.2-5 1.8-.4 1.9 2.8 3.7 3.6 3.8-2.6 4.1-1.7 9.2-.3 11.2l1 1.7c2.1-4.2 7-2.6 6.2 1.5 4.6.5 6.8-3.5 7.8-5.9 1.6 1.7 3.5 1.9 4.6 1.7-1.5-2.8-.8-5.6-.2-6.7 1.6 1.5 3.8 1.8 5 1.5-1.5-2-1.5-7.1-1.1-8.9 1 .7 3.3 1.4 4.4-1.1-1.9-.6-2.3-7.2 1.1-7.1zm-20.7.6c.3-.3.9-.8 1.1-.5.5.7.6 1.2 1.5 2.1.6.6 1.6.9 2.1 1.1.2 1-1.7 2.4-3.9.4-1.1-1.1-1.5-2.4-.8-3.1zm5 13.7c-2.4 3.3-4.7 1.8-4.7 1.8s-2.7-1-1.4-4.9c-1.7-1.2-1.1-2.8-.6-3.1.2.5.4 1.5 1.9 2.3 1.5.8 2.1.3 2.2 0 .3-.6-.4-1.2-1-1.7-.5-.6-.6-1.5-.3-1.9.5-.6 1.3-.5 1.7-.2-1.8.3.6 1.8 1.1 2.1.6.3 3.2 1.3 2.4-.3.4.1.9.8.8 1.5-.1.5-.9 1-1.7.9-.8-.1-1.7-.3-2 .3-.2.3 0 1.2 1.5 1.9 1.5.8 2.1.3 2.8.1.2.5-.7 1.9-2.7 1.2zm7.6-7.4c-.2 1-1.4 1.4-2.8 1.1-2.9-.6-2.9-2.8-2-3.2.4.3 1.2.9 2 1 1.2.2 1.7 0 2.5 0 .4 0 .4.7.3 1.1z" class="st3"/></g></svg>