<svg xmlns="http://www.w3.org/2000/svg" xmlns:xlink="http://www.w3.org/1999/xlink" xml:space="preserve" id="Art" x="0" y="0" version="1.1" viewBox="0 0 438 139.9"><style>.st1{fill:#1d1d1b}.st2{fill:#dc4405}</style><g><g><path fill="#fff" d="M107.5 48.5c-.8-4.8-2-8.7-3.6-12-1.4-2.8-3.1-5.1-5.2-6.8-2.8-2.4-6.3-3.6-9.9-3.6-1.7 0-3.4.2-5 .7l5.3-11.4-10.9-7.7h-7.9c-1.3 0-2.8-1-4.7-2.3C62.4 3.1 57.9 0 50.3 0c-6.4 0-11.5 1.8-15.5 5.5 0 0-26 25.3-26.1 25.5-1.5 1.5-2.8 3.4-3.9 5.6-1.6 3.2-2.8 7.1-3.6 12-1.7 10.1-1.4 20.2 1 29.1 2.6 9.7 7.3 19 14 27.6 8.2 10.6 19.4 20.2 33.4 28.5l4.8 2.9 4.8-2.9c13.9-8.4 25.2-18 33.4-28.5 6.7-8.6 11.4-17.9 14-27.6 2.3-9 2.6-19.1.9-29.2z"/><g><path d="M46.6 37.8H32.1l-1.3 21.8c.8.1 1.6.4 2.3.7l13.5-22.5zM35.3 87.3s-.1 0-.1-.1V89c.2.1.5.2.7.3 1.1.4 2.4.8 4.5.8 2.2 0 3.6-.4 4.8-.9v-1.8c-1.2.6-2.5 1.1-4.8 1.1-2.2 0-3.4-.4-4.5-.9l-.6-.3zm.6 6.8-.6-.3s-.1 0-.1-.1v1.8c.2.1.5.2.7.3 1.1.4 2.4.8 4.5.8 1.6 0 2.7-.2 3.7-.5v-1.7c-.9.3-2 .6-3.7.6-2.1 0-3.3-.4-4.5-.9zm0 6.5-.6-.3s-.1 0-.1-.1v1.8c.2.1.5.2.7.3 1.1.4 2.4.8 4.5.8.8 0 1.5-.1 2.1-.2v-1.6c-.6.1-1.3.2-2.1.2-2.1 0-3.3-.4-4.5-.9zM52.2 7.8c1.2.2 2.4.6 3.5 1.2 1.1.5 2.1 1.2 3.1 2 1.5 1.1 3 2.4 4.8 3.3v-2.7c-1.2-.7-2.5-1.5-3.7-2.3-1.1-.7-2.3-1.3-3.6-1.8-1.3-.5-2.6-.8-3.9-1-1.3-.2-2.7-.2-4-.1h-.2v1.1h.3c1.3-.1 2.5 0 3.7.3z" class="st1"/><path d="M105.9 48.8c-.8-4.7-1.9-8.4-3.5-11.5-1.3-2.6-2.9-4.7-4.8-6.3-2.5-2.1-5.6-3.3-8.9-3.3-4.4 0-8.3 1.6-11.1 4.6l-4.8-5.2.8-1.7h6.6l-.8 1.7h2.5L87.1 16l-9.4-6.7h-7.3c-1.8 0-3.5-1.1-5.6-2.6-3.3-2.3-7.4-5.1-14.5-5.1-6 0-10.7 1.6-14.4 5L19.2 22.9S9.8 32 9.8 32.1c-1.4 1.4-2.6 3.2-3.6 5.2-1.5 3.1-2.7 6.9-3.5 11.5-1.7 9.9-1.4 19.7 1 28.5 2.5 9.5 7.1 18.6 13.7 27.1 8.1 10.4 19.2 19.9 33 28.1l4 2.4 4-2.4c13.8-8.3 24.9-17.7 33-28.1 6.6-8.5 11.2-17.6 13.7-27.1 2.2-8.8 2.5-18.6.8-28.5zM37.4 8.3c1.2-1.1 4.8-4.4 12.8-4.4 6.4 0 10 2.5 13.2 4.7 2.3 1.6 4.3 3 6.9 3H77l7.3 5.2-3 6.4h-6.5c-.9-.1-1.9-.4-2.6-1-.9-.8-1.5-2-1.6-3.3h-1.1c0 .8 0 1.6.3 2.4.3.8.7 1.5 1.2 2.2.2.3.5.5.8.8l-1.6 3.5 4.4 4.8h-3.4l-5.8-5H64l4.3 5h-8.6l-5-5h-3c.6-1.3.9-2.8 1-4.2v-.8l-.1-.8v-.4l-.1-.4-.1-.8c-.3-1-.6-2-1.1-3-.5-.9-1.1-1.8-1.9-2.5l-.3-.3-.3-.3c-.2-.2-.4-.3-.6-.5-.4-.3-.8-.6-1.3-.9-1.4-.8-3-1.3-4.6-1.5-.5 0-.9-.1-1.4-.1v1.2c1.9.1 3.7.6 5.2 1.6.4.2.7.5 1.1.8.2.1.3.3.5.5l.2.2.2.3c.6.7 1.1 1.4 1.5 2.2.4.8.7 1.7.8 2.5l.1.7v2c-.2 1.8-.8 3.5-1.9 4.9l-1.4 1.8h6.2l2.7 2.7H30.7v-9.4h-8.2L37.4 8.3zM25.9 41.6c-.9 3.5-3.9 6-7.4 6.3h-.8c-4.5 0-8.2-3.5-8.5-7.9v-.6c0-2.3 1-4.6 2.7-6.2.2-.2 8.3-8.1 8.3-8.1h8.3v8.1l-2.6 8.4zm76.8 35.1c-1.5 5.7-3.8 11.2-6.8 16.5-.2.3-.3.5-.5.8-.1.2-.2.4-.4.6-.2.3-.3.5-.5.8-.1.2-.3.5-.4.7-.2.2-.3.5-.5.7-.3.4-.6.9-.8 1.3-.1.2-.2.3-.3.5-.2.3-.4.6-.7.9-.1.2-.3.4-.4.5-.2.3-.5.6-.7.9-.1.2-.2.3-.3.5-.3.5-.7.9-1 1.4-.3.4-.7.8-1 1.3-3.7 4.6-8.1 9.1-13 13.3-3.7 3.1-7.6 6.1-11.9 9-2.1 1.4-4.2 2.7-6.4 4l-2.8 1.7-2.8-1.7C38 122.3 27.1 113 19.2 102.8c-.2-.3-.5-.6-.7-.9-.2-.2-.3-.4-.5-.6-.3-.4-.5-.7-.8-1.1-.1-.1-.2-.3-.3-.4-.3-.4-.6-.9-.9-1.3 0-.1-.1-.1-.2-.2-.3-.5-.6-1-.9-1.4 0 0 0-.1-.1-.1-4.2-6.5-7.2-13.2-9.1-20.2-2.2-8.4-2.6-17.9-.9-27.5C5.3 46 6 43.3 6.9 41c.3 1.7.9 3.3 1.9 4.6-.3 1.2-.6 2.5-.8 4-.4 2.3-.7 4.5-.8 6.8l15.1 7c.3-.4.5-.8.8-1.1.2-.3.5-.5.7-.7l-9.1-11.9c.9.3 1.9.4 2.9.4.7 0 1.4-.1 2.1-.2L26 60.3c.7-.3 1.5-.6 2.3-.7l-.9-15.5c.3-.6.6-1.3.8-2l2.2-7.2.1-.3h48.2l.3-.4c1.7-1.9 4.8-4.2 9.8-4.2 2.7 0 5.3.9 7.4 2.7 1.6 1.4 3 3.2 4.2 5.5 1.4 2.9 2.5 6.4 3.3 10.9 1.6 9.6 1.3 19.1-1 27.6z" class="st1"/><circle cx="77.5" cy="16.2" r="1.2" class="st1"/><path d="M70.5 16.8c.1-.2.4-1.7 1.9-1.9v-1.2h-3.1v3.1h1.2zm30 32.9c-1.3-7.5-4.4-16.5-11.7-16.5-5.2 0-7.6 3.1-8.5 4.6H53.5L35.2 61.7c.2.2.5.4.7.6.4.4.7.8 1 1.3L50 57.7l-1.1 4.8L37.8 66c.2.8.3 1.7.3 2.5-.4-.1-.7-.2-1.1-.3-.4-.1-.7-.3-1.1-.4-.2-.1-.3-.2-.5-.2-.3-.2-.7-.3-1-.5-.8-.3-1.6-.6-2.8-.8-.2 0-.3 0-.5-.1-.3 0-.5-.1-.8-.1h-1.8c-.3 0-.5 0-.8.1-.2 0-.4 0-.5.1-1.1.2-1.9.4-2.7.8-.4.2-.8.3-1.1.5-.2.1-.4.2-.5.3-.3.2-.7.3-1 .4-.3.1-.7.2-1.1.3 0-.9.1-1.8.3-2.6l-14-4.8c0 1.7.1 3.3.2 4.9v.5c0 .3.1.7.1 1 0 .3 0 .5.1.8h1.3c.3 0 .7.1.9.1 1.2.2 2 .6 2.8 1 1.4.7 3 1.4 5.9 1.4s4.6-.8 5.9-1.4c.4-.2.8-.4 1.3-.6.8-.3 1.7-.6 3-.6h1.2c1.2.1 2.1.3 2.9.6.5.2.9.4 1.4.6 1.4.7 3 1.4 5.9 1.4 3 0 4.6-.8 5.9-1.4.3-.2.7-.3 1-.5l-.5 2.2 2.1-.4-.5 2.3c-1.2.3-2.1.7-2.9 1.1-1.3.6-2.6 1.2-5.1 1.2-2.5 0-3.8-.6-5.1-1.2-1.4-.7-2.9-1.4-5.8-1.4s-4.4.7-5.8 1.4c-1.3.6-2.6 1.2-5.1 1.2-2.5 0-3.8-.6-5.1-1.2-.8-.4-1.7-.8-2.9-1.1H10c-.1 0-.2 0-.3-.1-.1 0-.2 0-.3-.1h-.2c0 .1-.4.1-.9 0 .1.5.2 1.1.4 1.6.3 0 .6.1.9.1.1 0 .2 0 .3.1h.2c.2 0 .3.1.5.1s.3.1.5.1c.6.2 1.2.5 1.8.8 1.4.7 2.9 1.4 5.8 1.4s4.4-.7 5.8-1.4c1.3-.6 2.6-1.2 5.1-1.2 2.5 0 3.8.6 5.1 1.2 1.4.7 2.9 1.4 5.8 1.4s4.4-.7 5.8-1.4c.6-.3 1.2-.6 1.9-.8l-1 4.8c-.6.2-1.2.5-1.7.7-1.3.6-2.5 1.2-5 1.2s-3.6-.6-5-1.2c-1.4-.7-3-1.4-5.9-1.4-3 0-4.6.8-5.9 1.4-1.3.6-2.5 1.2-5 1.2s-3.6-.6-5-1.2c-.3-.2-.7-.3-1.1-.5h-.1s-.1 0-.1-.1c-.7-.3-1.5-.5-2.5-.7.3.8.6 1.7.9 2.5 1.3 3.6 3 7.1 5.1 10.6.1.2.2.3.3.5.1.2.3.5.4.7.1.2.2.4.3.5.1.2.3.5.4.7.1.2.2.4.4.6.1.2.3.4.4.7.1.2.3.4.4.6.1.2.3.4.4.6.2.2.3.5.5.7.1.2.3.4.4.5.2.3.4.5.6.8.1.1.2.3.3.4l.9 1.2c7.7 9.9 18.3 18.9 31.4 26.8l1.1.7 1.1-.7c13.2-7.9 23.8-16.9 31.4-26.8.5-.6.9-1.2 1.4-1.9.1-.1.1-.2.2-.2.5-.6.9-1.3 1.3-1.9 0-.1.1-.1.1-.2.9-1.4 1.8-2.7 2.6-4.1 2.1-3.6 3.9-7.4 5.3-11.2.3-.7.5-1.5.8-2.2-1 .2-1.8.4-2.5.7 0 0-.1 0-.1.1h-.1c-.4.2-.7.3-1 .5-1.3.6-2.5 1.2-5 1.2s-3.6-.6-5-1.2c-1.4-.7-3-1.4-5.9-1.4-3 0-4.6.8-5.9 1.4-1.3.6-2.5 1.2-5 1.2s-3.6-.6-5-1.2c-.5-.2-1-.5-1.7-.7l-1.9-8.9 2.1.4-1.3-5.6 6.9-6.9 4.6 3.3L79 55l7.1 7.2 4.5-3.3 8.2 8.3 2.1 2.1c.1-.7.2-1.4.2-2.2v-.7c.6-5.5.3-11.1-.6-16.7zm-13.4 1.1.1-.4h2.6l.8-2.5h.4l.8 2.5h2.6l.1.4-2.1 1.5.8 2.5-.4.3-2.1-1.5-2.1 1.5-.4-.3.8-2.5-1.9-1.5zm-5.6-.3-.4.3-2.1-1.6-2.1 1.5-.4-.3.8-2.5-2.1-1.5.1-.4H78l.8-2.5h.4L80 46h2.6l.1.4-2 1.6.8 2.5zm-11.8 4.3-.4.3-2.1-1.5-2.1 1.5-.4-.3.8-2.5-2.1-1.5.1-.4h2.6l.8-2.5h.4l.8 2.5h2.6l.1.4-2.1 1.5 1 2.5zm-9.6 29.3-2.6-.5 3.5 16.9-6.8-2.7-6.8 2.7L51 83.6l-2.6.5L51.8 68l-2 .4L54.1 46h.4l4.2 22.4-2-.4 3.4 16.1zm-4.4 18.7.5 16h-3.8l.6-16 .1-2.6 1.3-.6 1.3.6v2.6zm-4.7 4.6-.1 1c-1.7.1-2.6.5-3.7 1-1.6.8-3.4 1.6-6.8 1.6-3.2 0-5-.8-6.5-1.5-.1 0-.2-.1-.3-.1-.2-.1-.5-.2-.7-.3h-.1l-.9-.3 1-.8.3-.2c.5.2 1 .4 1.4.6l.6.3c1.3.6 2.7 1.1 5.2 1.1 2.9 0 4.4-.7 5.8-1.4 1.3-.6 2.5-1.2 4.8-1.2v.2zm22.3 1.1.6-.3c.5-.2.9-.4 1.4-.6l1.3 1.1c-.4.1-.7.2-1 .4h-.1l-.6.3c-.1 0-.2.1-.3.1-1.5.7-3.3 1.5-6.5 1.5-3.4 0-5.2-.9-6.8-1.6-1.1-.5-2-.9-3.7-1l-.1-1v-.3c2.3 0 3.5.6 4.8 1.2 1.4.7 2.9 1.4 5.8 1.4 2.5-.1 4-.6 5.2-1.2zM46.4 82.6l-.9 4.4 2.7-.5-3.8 18 7.2-3.6-.2 2.4-.2 2.1c-2.8 0-4.2.7-5.6 1.4-1.3.6-2.6 1.2-5.1 1.2-2.3 0-3.6-.5-4.8-1.1-.1-.1-.2-.1-.3-.2-.5-.2-1-.5-1.6-.7V83.9l-.1.1-1.5 1.2v21.4l-1.4 1.2V84.4l2.8-2.1s.1 0 .1.1l.6.3c.1 0 .2.1.3.1.4.2.9.4 1.4.6 1.1.4 2.5.8 4.5.8 2.9-.2 4.5-1 5.9-1.6zm15.8 0c1.4.7 3 1.4 5.9 1.4 2 0 3.4-.3 4.5-.8.5-.2 1-.4 1.4-.6h.1c.3-.1.5-.2.8-.4 0 0 .1 0 .1-.1l2.8 2.1v23.4l-1.4-1.2V85.1l-1.6-1.2v22.2c-.6.2-1.1.5-1.6.7-.1.1-.2.1-.3.2-1.2.6-2.4 1.1-4.8 1.1-2.5 0-3.8-.6-5.1-1.2-1.4-.7-2.8-1.4-5.6-1.4l-.2-2.1-.2-2.4 7.2 3.6-.5-2.3-3.4-15.7 2.7.5-.8-4.5c-.1 0 0 0 0 0z" class="st1"/><path d="M72.6 89.3c.2-.1.5-.2.7-.3v-1.8s-.1 0-.1.1l-.6.3c-1.1.5-2.3.9-4.5.9-2.4 0-3.6-.5-4.8-1.1v1.8c1.2.5 2.6.9 4.8.9 2.1 0 3.4-.3 4.5-.8zm0 4.8c-1.1.5-2.3.9-4.5.9-1.7 0-2.8-.3-3.7-.6v1.7c1 .3 2.1.5 3.7.5 2.1 0 3.4-.4 4.5-.8.2-.1.5-.2.7-.3v-1.8s-.1 0-.1.1l-.6.3zm0 6.5c-1.1.5-2.3.9-4.5.9-.8 0-1.5-.1-2.1-.2v1.6c.6.1 1.3.2 2.1.2 2.1 0 3.4-.4 4.5-.8.2-.1.5-.2.7-.3v-1.8s-.1 0-.1.1l-.6.3zm-57.1-59 .9.6 9.3-12.8v-1.6h-1.5zm53 32.3v-5.5h-2.3v1.3h.7v4.2zm4.4-1.5c0 1.1 1.1 1.7 2.1 1.7s2.1-.6 2.1-1.7c0-.6-.3-1.2-.9-1.4.4-.2.7-.7.7-1.2 0-1.1-1-1.6-1.9-1.6-.9 0-1.9.5-1.9 1.6 0 .5.3 1 .7 1.2-.5.2-.9.7-.9 1.4zm2.1-2.1c-.3 0-.5-.2-.5-.5s.2-.5.5-.5.5.2.5.5-.2.5-.5.5zm0 2.5c-.3 0-.6-.3-.6-.6s.3-.6.6-.6.6.3.6.6-.3.6-.6.6zm8.1-4.4-1.2 1.5c-.4.5-.9 1.3-.9 2.2 0 .6.3 1.1.7 1.5.4.3 1 .5 1.6.5 1.1 0 2.4-.7 2.4-2.1 0-.9-.6-2-1.8-2-.2 0-.4 0-.5.1l1.5-1.7h-1.8zm.2 2.8c.4 0 .8.3.8.8s-.3.8-.8.8c-.4 0-.8-.4-.8-.8s.4-.8.8-.8zm6 1.2c0 1.1 1.1 1.7 2.1 1.7s2.1-.6 2.1-1.7c0-.6-.3-1.2-.9-1.4.4-.2.7-.7.7-1.2 0-1.1-1-1.6-1.9-1.6-.9 0-1.9.5-1.9 1.6 0 .5.3 1 .7 1.2-.6.2-.9.7-.9 1.4zm2.1-2.1c-.3 0-.5-.2-.5-.5s.2-.5.5-.5.5.2.5.5-.2.5-.5.5zm0 2.5c-.3 0-.6-.3-.6-.6s.3-.6.6-.6.6.3.6.6-.3.6-.6.6z" class="st1"/></g></g><g><path d="M119.8 52.1c0-12.6 6.8-20.4 18.9-20.4 12 0 18.8 7.8 18.8 20.4 0 12.6-6.8 20.4-18.8 20.4-12.1-.1-18.9-7.9-18.9-20.4zm27.6 0c0-12.4-2.7-17.2-8.8-17.2-6.1 0-8.8 4.8-8.8 17.2 0 12.3 2.7 17.2 8.8 17.2 6.1-.1 8.8-4.9 8.8-17.2zm29 17.6-.9 2.1h-16.3v-1.9l2.7-1.2V50.4l-2.8-4.4v-.7l10.1-3.4h1.4l-.2 6.8h.3c1.3-3.4 4-6.8 8.4-6.8 3.6 0 5.7 2.1 5.7 5.4 0 3-2.1 4.9-4.6 4.9-2.9 0-4.6-1.9-4.6-4.7-1.7.7-3.3 2.3-4.8 4.3v16.7l5.6 1.2zm24.8-2.9c3 0 4.8-.7 7.2-2.6l1.3 1.5c-2.1 4.8-6.2 6.8-11.9 6.8-7.6 0-13.7-4.9-13.7-14.9 0-10.1 6.8-15.7 14.9-15.7 6.6 0 11.1 3.8 11.1 10.9 0 1.1-.1 2.5-.3 3.8h-17.2c.2 6 2.9 10.2 8.6 10.2zm-8.4-13.4h9.4c.1-.5.2-1.4.2-2.5 0-3.1-.9-6-4-6-2.9 0-5.1 2.8-5.6 8.5zm38.8 12.5c6.4 0 10.4 3.1 10.4 9.5 0 8.2-8.1 11.2-17 11.2-8.2 0-14.2-1.9-14.2-7 0-3.8 3-5.6 7.6-6.2v-.2c-3.8-.5-6-2.7-6-6.2s2.6-5.6 6.3-6.3c-3.8-1.3-6.2-4-6.2-8.4 0-5.9 4.4-10.5 12.9-10.5 3.5 0 7.6.7 10.7 2.2-.3-.4-.4-.9-.4-1.6 0-2.1 1.6-3.5 3.7-3.5s3.7 1.5 3.7 3.8c0 2.5-1.7 4-4.1 4-1.7 0-3.4-.7-5.3-1.4v.7c2.3 1.1 4 3.4 4 6.4 0 6.4-6.4 9.3-12.3 9.3-1.5 0-2.8-.1-4.1-.5-1.4.5-2.5 1.2-2.5 2.7 0 1.3.8 2 2.4 2h10.4zm-13.4 12.5c0 3.6 2.6 5.2 7.2 5.2 5.3 0 9.3-1.5 9.3-5.7 0-2.5-1.3-4.1-5.3-4.1H221c-1.7 1-2.8 2.5-2.8 4.6zm6.9-33.5c-3.4 0-4 2.6-4 7 0 4.3.6 6.9 4 6.9 3.5 0 4.1-2.6 4.1-6.9 0-4.4-.6-7-4.1-7z" class="st2"/><path d="M255.4 72.4c-9 0-15-5.2-15-15.3 0-10.1 6-15.3 15-15.3s15 5.2 15 15.3c.1 10.2-5.9 15.3-15 15.3zm0-3.1c4.5 0 5.7-4.4 5.7-12.2 0-7.8-1.2-12.2-5.7-12.2s-5.7 4.4-5.7 12.2c0 7.8 1.3 12.2 5.7 12.2zm50.2.5-.9 1.9H290v-1.9l2.7-1.3V54c0-4.4-2.3-5.8-4.8-5.8-2.3 0-4.1 1.1-5.3 2.3v18.1l4 1.3-.9 1.9h-14.6v-1.9l2.7-1.2V50.3l-2.8-4.4v-.7l10.1-3.3h1.4l-.2 5.8h.3c2.4-3.8 5.8-5.8 10.3-5.8 4.9 0 8.6 3.4 8.6 10.3v16.4l4.1 1.2zm27-6c0-3.6-1.9-5.4-6.3-7.1l-4.8-2c-5-2-7.8-5.4-7.8-11.5 0-8 6.2-11.5 12.7-11.5 3.6 0 6.4.8 8.5 1.5l3.3-1.5.6 11.1-1.8.4-3.2-4.2c-2-2.8-4.1-4.3-7.6-4.3-3.1 0-5.3 2-5.3 5.1 0 3.1 1.4 4.9 5.4 6.5l5 2c6.3 2.5 9 6.1 9 12.3 0 8-6.1 11.9-13.3 11.9-4.8 0-7.4-1.2-9.2-2.1l-3.6 2.1-1.1-12.7 2.1-.4 3.3 4.8c2.2 3.4 4.7 5.2 8.5 5.2 3.5-.1 5.6-2.1 5.6-5.6zm8.3-20 10.7-9.2h2v7.9h8.8L362 46h-8.3v15.8c0 3.9 1.5 5.4 4.2 5.4 1.7 0 3.1-.4 5-1.4l.7 1.6c-2.1 3.1-5.4 5-9.7 5-5.2 0-8.8-2.6-8.8-9.4V46h-4v-2.2zm47.9 21.5c0 3 1.1 3.7 4.2 3.4l.2 1.3c-1.7 1.6-3.9 2.4-7 2.4-2.9 0-5.3-1.2-5.8-4.3l-.2-.1c-1.4 3-4.5 4.4-8.1 4.4-4.5 0-8.2-2.5-8.2-8 0-5.9 4.7-8.8 12.1-8.8 1.4 0 2.9.3 4 .5v-2.5c0-3.9-2.5-5.8-6.4-5.8-2.8 0-5.2.5-8 2l-.8-1.9c2.9-3.9 7.5-6 13-6 5.6 0 11 2.5 11 10.7v12.7zm-10.3-6.6c-4 0-6.2 1-6.2 4.6 0 2.5 1.5 4.2 3.8 4.2 1.5 0 2.7-.3 3.9-1.4v-7.3h-1.5zM390 43.8l10.7-9.2h2v7.9h8.8L411 46h-8.3v15.8c0 3.9 1.5 5.4 4.2 5.4 1.7 0 3.1-.4 5-1.4l.7 1.6c-2.1 3.1-5.4 5-9.7 5-5.2 0-8.8-2.6-8.8-9.4V46h-4v-2.2z" class="st2"/><path d="M429 66.8c3 0 4.8-.7 7.2-2.6l1.3 1.5c-2.1 4.8-6.2 6.8-11.9 6.8-7.6 0-13.7-4.9-13.7-14.9 0-10.1 6.8-15.7 14.9-15.7 6.6 0 11.1 3.8 11.1 10.9 0 1.1-.1 2.5-.3 3.8h-17.2c.3 6 2.9 10.2 8.6 10.2zm-8.3-13.4h9.4c.1-.5.2-1.4.2-2.5 0-3.1-.9-6-4-6-3 0-5.1 2.8-5.6 8.5z" class="st2"/></g><g><path d="M153.9 111.4c0 9.8-6.5 14.7-15 14.7-9 0-15.3-3.6-15.3-14V89.8l-5-1.5.5-2.1h15.1l.5 2.1-5 1.5v21.4c0 7.6 3.2 11.2 9.6 11.2 6.2 0 10.5-3.6 10.5-11.7v-21l-5-1.5.5-2.1h12.9l.5 2.1-5 1.5v21.7z" class="st1"/><path d="m188.4 123.5-.9 1.9h-12.9v-1.9l3.1-1.1v-16.5c0-4.3-2.7-5.2-5-5.2-2.7 0-5.3 1.3-6.8 2.7v18.8l4.7 1.3-.9 1.9H157v-1.9l3.1-1.1V103l-3.2-3.6v-.7l8-3.1h1l-.2 5.7h.3c2.7-4.4 6.8-5.7 9.8-5.7 3.9 0 7.9 2.3 7.9 9.2v17.5l4.7 1.2zm14.4 0-.9 1.9H189v-1.9l3.1-1.1V103l-3.2-3.6v-.7l8-3.1h1.1v26.7l4.8 1.2zm-7.7-40.8c2.3 0 4.2 1.8 4.2 4.2 0 2.3-1.8 4.2-4.2 4.2-2.3 0-4.2-1.8-4.2-4.2.1-2.4 1.9-4.2 4.2-4.2zm28 17-4.4-1.5.4-1.9H230l.4 1.9-3.1 1.3-10.2 26h-3.4L203 99.8l-2.9-1.8.5-1.7H213l.5 2-4.3 1.1 4.7 11.8c1.6 4 2.4 8.1 2.4 8.1h.3s.9-4 2.5-8.2l4-11.4zm19.9 22.1c3.3 0 5.6-.9 8.3-2.7l.9 1.5c-2.4 3.7-5.8 5.6-11 5.6-7.2 0-12.9-5-12.9-15s6.3-15.5 13.8-15.5c6 0 10.4 3.8 10.4 10.5 0 1.1-.1 2.2-.3 3.5H234c0 7.6 3.4 12.1 9 12.1zm-8.8-15.1h12.3c.1-.5.1-1.3.1-1.8 0-4.2-1.7-6.4-5.2-6.4-3.2 0-6.3 2.5-7.2 8.2zm34.5 16.8-.9 2h-14.2v-1.9l3.1-1.1V103l-3.2-3.6v-.7l8-3.1h1l-.2 6.9h.3c1.7-3.8 4.7-7 8.5-7 3.1 0 5 1.7 5 4.4s-1.8 4.1-3.9 4.1c-2.4 0-3.8-1.7-3.8-4.1-2.3.9-4.1 2.9-5.8 5.4v17l6.1 1.2zm9.2-7.5c2.8 6 5.4 7.6 9 7.6 3 0 5-1.1 5-4.2 0-2.5-1.5-4-4.8-5.1l-3.8-1.3c-4-1.4-6.6-3.9-6.6-8.8 0-5.8 4.2-8.5 9.8-8.5 1.3 0 4 .5 5.4 1.2l3.2-1.1.5 8.6-1.4.5c-2.9-5-5.2-6.4-8.1-6.4-2.8 0-4.6 1.6-4.6 4s1.2 4 4.5 5.1l3.8 1.3c4.4 1.5 7.2 3.9 7.2 9 0 6-4.5 8.4-10.5 8.4-2.7 0-5-.8-6.6-1.5l-3 1.5-.6-9.6 1.6-.7zm34.6 7.5-.9 1.9h-12.9v-1.9l3.1-1.1V103l-3.2-3.6v-.7l8-3.1h1.1v26.7l4.8 1.2zm-7.7-40.8c2.3 0 4.2 1.8 4.2 4.2 0 2.3-1.8 4.2-4.2 4.2-2.3 0-4.2-1.8-4.2-4.2.1-2.4 1.9-4.2 4.2-4.2zm6.2 14.8 8.4-9.2h1.3v8h9.8l-.5 3.1h-9.3v17.4c0 3.8 1.6 5.3 4.4 5.3 1.9 0 3.4-.4 5.4-1.4l.7 1.7c-2.2 2.4-4.8 3.8-9.1 3.8-4.5 0-7.3-2.3-7.3-8.3V99.4H311v-1.9z" class="st1"/><path d="m330.6 99.8-2.9-1.8.5-1.7h12.4l.5 2-4.3 1.1 4.8 12.6c1.9 5 2.2 8.5 2.2 8.5h.3s1.1-4.3 2.5-8.6l4-12.2-4.4-1.5.4-1.9h10.7l.4 1.9-3.1 1.3-9.3 25.4c-4.2 11.5-7.8 15.1-13.3 15.1-3.5 0-5.4-2-5.4-4.6 0-2.4 1.5-3.9 3.8-3.9 2.1 0 3.4 1.5 3.4 3.4 0 1-.3 1.8-.7 2.3 2.7 0 6.2-4.9 8-10.7l-10.5-26.7z" class="st1"/></g></g></svg>