<svg xmlns="http://www.w3.org/2000/svg" id="Layer_1" data-name="Layer 1" viewBox="0 0 311.995 112.502"><defs><style>.cls-1{fill:#e30613}.cls-2{fill:#fff}</style></defs><path d="M135.204 26.866a13.313 13.313 0 1 0-4.574 2.166l1.445 2.061a1.1 1.1 0 0 0 .912.641h4.812c.354 0 .519-.288.369-.641Zm-15.568-10.57a7.8 7.8 0 1 1 12.516 6.215l-.677-.966a1.1 1.1 0 0 0-.913-.641h-4.81c-.353 0-.519.287-.369.641l1.784 2.544a7.8 7.8 0 0 1-7.526-7.789M153.561 29.322c-5.752 0-10.088-4.169-10.088-9.7V4.546a.9.9 0 0 1 .878-.879h3.378a.879.879 0 0 1 .878.879v14.829a4.673 4.673 0 0 0 4.954 4.918 4.724 4.724 0 0 0 4.99-4.882V4.546a.88.88 0 0 1 .878-.879h3.378a.9.9 0 0 1 .878.879v15.077c0 5.53-4.353 9.7-10.124 9.7M182.052 28.966h-14.475a.881.881 0 0 1-.88-.878V4.546a.88.88 0 0 1 .88-.878h14.475a.878.878 0 0 1 .878.878v2.916a.879.879 0 0 1-.878.879h-10.326v5.426h8.581a.9.9 0 0 1 .878.879v2.952a.879.879 0 0 1-.878.878h-8.581v5.817h10.326a.878.878 0 0 1 .878.878v2.917a.879.879 0 0 1-.878.878M201.552 28.966h-14.474a.881.881 0 0 1-.879-.878V4.546a.88.88 0 0 1 .879-.878h14.474a.879.879 0 0 1 .878.878v2.916a.879.879 0 0 1-.878.879h-10.324v5.426h8.582a.9.9 0 0 1 .877.879v2.952a.878.878 0 0 1-.877.878h-8.582v5.817h10.324a.879.879 0 0 1 .878.878v2.917a.879.879 0 0 1-.878.878M226.434 29.322h-.5a.988.988 0 0 1-.748-.308l-14.3-15.77v14.843a.88.88 0 0 1-.879.879h-3.235a.9.9 0 0 1-.88-.879V4.154a.873.873 0 0 1 .88-.842h.532a.988.988 0 0 1 .748.307l14.233 15.177V4.546a.881.881 0 0 1 .88-.879h3.271a.9.9 0 0 1 .878.879v23.933a.872.872 0 0 1-.878.843M231.94 11.024a.972.972 0 0 1-.488-.173l-.938-.669c-.152-.115-.45-.439-.007-1.031a6.889 6.889 0 0 0 1.618-3.927 2.431 2.431 0 0 0-.021-.33 2.293 2.293 0 0 1-.983.221 2.258 2.258 0 0 1-2.242-2.504 2.635 2.635 0 0 1 2.772-2.608c1.579 0 3.171 1.277 3.171 4.131a10.869 10.869 0 0 1-2.424 6.64.557.557 0 0 1-.458.253M243.895 29.322a11.336 11.336 0 0 1-7.957-2.823.87.87 0 0 1-.222-1.32l1.282-2.207a.994.994 0 0 1 .678-.494 1.061 1.061 0 0 1 .831.186 8.38 8.38 0 0 0 5.244 2.163 2.788 2.788 0 0 0 3.034-2.536c0-1.615-1.312-2.833-4.39-4.079-2.923-1.182-6.812-3.284-6.812-7.87 0-3.385 2.568-7.03 8.2-7.03a12.8 12.8 0 0 1 7.235 2.423.958.958 0 0 1 .4.623 1.081 1.081 0 0 1-.146.83l-1.35 2.023a1.483 1.483 0 0 1-.661.555.906.906 0 0 1-.864-.073l-.261-.163a8.413 8.413 0 0 0-4.569-1.759c-2.022 0-2.927 1.149-2.927 2.287 0 1.518 1.18 2.617 4.07 3.795 3.737 1.5 7.558 3.655 7.558 8.225 0 3.512-2.937 7.244-8.381 7.244M159.097 63.166h-.5a.988.988 0 0 1-.75-.309l-14.3-15.77v14.844a.879.879 0 0 1-.878.879h-3.237a.9.9 0 0 1-.879-.879V37.998a.873.873 0 0 1 .879-.842h.533a.986.986 0 0 1 .748.307l14.233 15.176v-14.25a.88.88 0 0 1 .879-.878h3.272a.9.9 0 0 1 .878.878v23.934a.873.873 0 0 1-.878.843M169.019 62.811h-3.306a.9.9 0 0 1-.879-.879V38.391a.9.9 0 0 1 .879-.877h3.306a.9.9 0 0 1 .878.877v23.542a.9.9 0 0 1-.878.879M185.17 63.168h-.355a.84.84 0 0 1-.786-.5v-.007L173.04 38.728a.852.852 0 0 1 .036-.829.865.865 0 0 1 .753-.383h3.623a.852.852 0 0 1 .794.519l6.764 15.068 6.767-15.075a.846.846 0 0 1 .789-.512h3.627a.868.868 0 0 1 .754.383.853.853 0 0 1 .035.83l-11.025 23.932a.841.841 0 0 1-.788.51M215.287 62.864h-14.474a.881.881 0 0 1-.879-.879V38.444a.88.88 0 0 1 .879-.878h14.474a.877.877 0 0 1 .878.878v2.915a.879.879 0 0 1-.878.88h-10.324v5.426h8.581a.9.9 0 0 1 .878.879v2.951a.879.879 0 0 1-.878.879h-8.581v5.818h10.324a.876.876 0 0 1 .878.877v2.916a.878.878 0 0 1-.878.879M238.224 62.864h-3.734a.805.805 0 0 1-.751-.433l-4.674-9.31h-3.613v8.864a.9.9 0 0 1-.88.879h-3.271a.88.88 0 0 1-.878-.879V38.443a.88.88 0 0 1 .878-.878h10.17a7.913 7.913 0 0 1 7.957 7.85 8 8 0 0 1-5.181 7.283l4.764 8.836a.932.932 0 0 1 0 .915.878.878 0 0 1-.781.415m-12.747-13.953h5.593a3.418 3.418 0 0 0 3.317-3.424 3.327 3.327 0 0 0-3.317-3.246h-5.593ZM250.664 63.22a11.332 11.332 0 0 1-7.956-2.823.87.87 0 0 1-.223-1.321l1.282-2.206a1 1 0 0 1 .679-.494 1.059 1.059 0 0 1 .831.186 8.373 8.373 0 0 0 5.244 2.163 2.788 2.788 0 0 0 3.033-2.536c0-1.614-1.312-2.834-4.389-4.08-2.925-1.181-6.813-3.282-6.813-7.869 0-3.385 2.569-7.03 8.206-7.03a12.793 12.793 0 0 1 7.233 2.422.956.956 0 0 1 .4.624 1.073 1.073 0 0 1-.146.829l-1.349 2.024a1.512 1.512 0 0 1-.662.556.914.914 0 0 1-.864-.073l-.261-.164a8.41 8.41 0 0 0-4.569-1.759c-2.021 0-2.926 1.149-2.926 2.287 0 1.518 1.18 2.617 4.069 3.794 3.737 1.5 7.559 3.655 7.559 8.226 0 3.512-2.938 7.244-8.382 7.244M267.517 62.864h-3.308a.9.9 0 0 1-.879-.879V38.444a.9.9 0 0 1 .879-.878h3.308a.9.9 0 0 1 .878.878v23.541a.9.9 0 0 1-.878.879M281.395 62.811h-3.307a.9.9 0 0 1-.879-.879V42.186h-5.238a.88.88 0 0 1-.878-.879v-2.916a.879.879 0 0 1 .878-.877h15.541a.879.879 0 0 1 .879.877v2.92a.88.88 0 0 1-.879.879h-5.239v19.747a.9.9 0 0 1-.878.879M302.788 62.811h-3.27a.881.881 0 0 1-.88-.879V50.687l-8.071-11.826a.885.885 0 0 1-.04-.912.866.866 0 0 1 .775-.435h3.628a.888.888 0 0 1 .731.4l5.528 7.944 5.522-7.94a.9.9 0 0 1 .737-.406h3.663a.868.868 0 0 1 .775.434.886.886 0 0 1-.034.906l-8.184 11.8v11.28a.9.9 0 0 1-.88.879M124.287 63.221c-5.733 0-10.055-4.154-10.055-9.664v-15.1a.85.85 0 0 1 .829-.83h3.383a.831.831 0 0 1 .83.83v14.854a4.73 4.73 0 0 0 5.013 4.977 4.78 4.78 0 0 0 5.048-4.942V38.454a.831.831 0 0 1 .83-.83h3.387a.85.85 0 0 1 .829.83v15.1c0 5.51-4.339 9.664-10.091 9.664M126.096 81.128a5.775 5.775 0 0 0 3.25-5.294c0-3.518-2.915-6.2-6.97-6.2h-7.5a.636.636 0 0 0-.638.635v22.184a.637.637 0 0 0 .638.637h7.874c4.222 0 7.305-2.715 7.305-6.467a5.665 5.665 0 0 0-3.954-5.428Zm-8.444-1.307v-7.037h4.39a3.257 3.257 0 0 1 3.585 3.451 3.412 3.412 0 0 1-3.585 3.586Zm-.033 10.187v-7.171h5.227a3.428 3.428 0 0 1 3.485 3.519 3.333 3.333 0 0 1-3.485 3.652ZM132.688 92.454a.637.637 0 0 0 .637.637h13.4a.636.636 0 0 0 .637-.637v-1.843a.636.636 0 0 0-.637-.636H136.14v-7.2h8.947a.636.636 0 0 0 .636-.637v-1.877a.658.658 0 0 0-.636-.635h-8.947v-6.837h10.587a.635.635 0 0 0 .637-.636v-1.882a.636.636 0 0 0-.637-.636h-13.4a.636.636 0 0 0-.637.636ZM150.976 92.454a.636.636 0 0 0 .636.637h11.929a.637.637 0 0 0 .637-.637v-1.843a.637.637 0 0 0-.637-.636h-9.08v-19.7a.66.66 0 0 0-.637-.636h-2.212a.636.636 0 0 0-.636.636ZM166.752 92.454a.636.636 0 0 0 .635.637h2.18a.659.659 0 0 0 .635-.637v-8.812h8.95a.659.659 0 0 0 .637-.637v-1.844a.659.659 0 0 0-.637-.636h-8.947v-7.741h10.589a.636.636 0 0 0 .637-.636v-1.877a.636.636 0 0 0-.637-.636h-13.4a.635.635 0 0 0-.635.636ZM180.782 93.091h2.111a.842.842 0 0 0 .77-.5l2.045-4.592h10.956l2.078 4.592a.78.78 0 0 0 .771.5h2.111a.592.592 0 0 0 .57-.871l-10.22-22.552a.789.789 0 0 0-.57-.37h-.335a.787.787 0 0 0-.57.37L180.212 92.22a.591.591 0 0 0 .57.871m6.232-7.975 4.089-9.181h.167l4.121 9.181ZM204.666 90.779a10.857 10.857 0 0 0 7.2 2.647c4.358 0 7.472-2.848 7.472-6.333 0-4.088-3.317-5.932-7.2-7.506-2.781-1.139-4.256-2.312-4.256-4.222 0-1.24.972-3.016 3.787-3.016a7.882 7.882 0 0 1 4.523 1.675.792.792 0 0 0 1.173-.336l.838-1.272a.8.8 0 0 0-.2-1.14 11.339 11.339 0 0 0-6.2-1.977c-5.328 0-7.338 3.586-7.338 6.2 0 3.886 2.68 5.661 6.1 7.1 3.318 1.373 5.06 2.647 5.06 4.658 0 1.708-1.475 3.115-3.786 3.115-2.581 0-3.786-1-5.362-2.311a.755.755 0 0 0-1.14.268l-.87 1.373c-.37.57-.1.8.2 1.073M226.706 92.454a.661.661 0 0 0 .638.637h2.208a.661.661 0 0 0 .637-.637v-19.67h5.463a.636.636 0 0 0 .636-.636v-1.877a.636.636 0 0 0-.636-.636h-14.407a.636.636 0 0 0-.637.636v1.877a.636.636 0 0 0 .637.636h5.461ZM0 .319v62.608a49.575 49.575 0 0 0 99.15 0V.319Z" class="cls-1"/><path d="M93.706 5.764h-8.762L49.575 41.133 14.206 5.764H5.444v10l34.748 34.747L9.443 81.26a43.8 43.8 0 0 0 7.468 11.3l32.664-32.663L82.238 92.56a43.827 43.827 0 0 0 7.469-11.3L58.958 50.511l34.748-34.748Z" class="cls-2"/><path d="M57.79 48.393c-1.323-.966-2.536 1.188-2.536 1.188-.83-1.127-1.63.094-1.63.094 1.121.774 1.023 2.591-1.1 2.132a2.874 2.874 0 0 1-2.353-2.3l1.593.585v-2.641l-1.521.567.509-1.858h-2.385l.509 1.858-1.522-.567v2.645l1.593-.585a2.873 2.873 0 0 1-2.354 2.3c-2.123.459-2.22-1.358-1.1-2.132 0 0-.8-1.221-1.629-.094 0 0-1.214-2.154-2.537-1.188 0 0 1.867 2.3 2.1 8.445 0 0 1.759-1.13 6.137-1.085 4.377-.045 6.135 1.085 6.135 1.085.231-6.141 2.1-8.445 2.1-8.445" class="cls-1"/><path d="M42.475 47.311a2.195 2.195 0 0 1 .392.129 7.409 7.409 0 0 1 13.416 0 2.143 2.143 0 0 1 .392-.129 1.952 1.952 0 0 1 1.207.121 8.9 8.9 0 0 0-6.938-5.625l-1.369 1.37-1.37-1.37a8.9 8.9 0 0 0-6.937 5.625 1.952 1.952 0 0 1 1.207-.121ZM49.558 57.573l1.664 1.664c2.241-.16 3.866-.633 3.866-1.193 0-.691-2.476-1.251-5.53-1.251s-5.53.56-5.53 1.251c0 .56 1.625 1.033 3.866 1.193l1.664-1.664Z" class="cls-1"/><path d="M60.352 7.633a1.536 1.536 0 0 1 1.536 1.533v16.666H51.297a1.824 1.824 0 0 1-1.721 1.253 1.822 1.822 0 0 1-1.719-1.253H37.259V9.166a1.535 1.535 0 0 1 1.535-1.533v16.678h9.116a1.714 1.714 0 0 1 1.665 1.52 1.714 1.714 0 0 1 1.666-1.52h9.111V7.633m-5.827-.715a5.449 5.449 0 0 0 4.272.717v15.156a5.451 5.451 0 0 1-4.272-.716c-1.743-1.366-4.912-.228-4.952 1.4v.03-.03c-.038-1.629-3.209-2.767-4.95-1.4a5.454 5.454 0 0 1-4.273.716V7.635a5.451 5.451 0 0 0 4.273-.717c1.747-1.369 4.933-.22 4.953 1.418.019-1.638 3.2-2.787 4.953-1.418m-7.203 10.693a3.406 3.406 0 0 0-2.67.35 4.089 4.089 0 0 1-2.427.668v1.089a4.069 4.069 0 0 0 2.427-.667 3.406 3.406 0 0 1 2.67-.35Zm0-4.075a3.406 3.406 0 0 0-2.67.35 4.077 4.077 0 0 1-2.427.667v1.091a4.081 4.081 0 0 0 2.427-.668 3.4 3.4 0 0 1 2.67-.349Zm0-4.075a3.408 3.408 0 0 0-2.67.351 4.073 4.073 0 0 1-2.427.666v1.091a4.093 4.093 0 0 0 2.427-.667 3.406 3.406 0 0 1 2.67-.35Zm9.6 9.168a4.089 4.089 0 0 1-2.427-.668 3.408 3.408 0 0 0-2.671-.35v1.09a3.408 3.408 0 0 1 2.671.35 4.069 4.069 0 0 0 2.427.667Zm0-4.076a4.077 4.077 0 0 1-2.427-.667 3.408 3.408 0 0 0-2.671-.35v1.091a3.4 3.4 0 0 1 2.671.349 4.081 4.081 0 0 0 2.427.668Zm0-4.075a4.073 4.073 0 0 1-2.427-.666 3.41 3.41 0 0 0-2.671-.351v1.091a3.408 3.408 0 0 1 2.671.35 4.093 4.093 0 0 0 2.427.667ZM33.088 96.611a.131.131 0 0 1 .129-.131h2.789a.131.131 0 0 1 .13.131v.561a.13.13 0 0 1-.13.13h-2.027v1.124h1.691a.135.135 0 0 1 .131.13v.569a.131.131 0 0 1-.131.131h-1.691v1.2h2.027a.131.131 0 0 1 .13.131v.562a.13.13 0 0 1-.13.129h-2.789a.129.129 0 0 1-.129-.129Zm4.669 4.2a2.195 2.195 0 0 0 1.507.534 1.446 1.446 0 0 0 1.575-1.356c0-.884-.766-1.281-1.431-1.549-.555-.226-.809-.444-.809-.766a.545.545 0 0 1 .6-.48 2.242 2.242 0 0 1 .952.377.183.183 0 0 0 .241-.082l.26-.391a.171.171 0 0 0-.041-.226 2.41 2.41 0 0 0-1.37-.458 1.366 1.366 0 0 0-1.541 1.314c0 .808.643 1.221 1.287 1.48.576.234.87.473.87.823a.571.571 0 0 1-.623.527 2.261 2.261 0 0 1-1.034-.425.16.16 0 0 0-.233.048l-.248.425c-.062.11-.026.144.035.2m5.448.336a.133.133 0 0 0 .129.129h.639a.134.134 0 0 0 .13-.129v-3.844h1.052a.131.131 0 0 0 .131-.13v-.557a.132.132 0 0 0-.131-.131h-2.994a.132.132 0 0 0-.131.131v.561a.131.131 0 0 0 .131.13h1.048Zm8.08 0a.128.128 0 0 0 .128.129h.591a.128.128 0 0 0 .124-.129v-4.4a.129.129 0 0 0-.124-.13h-.479l-.987.829a.145.145 0 0 0-.034.124l.041.335a.112.112 0 0 0 .137.088l.6-.13Zm2.43-1.117a1.538 1.538 0 0 1 .828-1.144v-.02a1.288 1.288 0 0 1-.7-1.062 1.524 1.524 0 0 1 3 0 1.313 1.313 0 0 1-.706 1.054v.028a1.405 1.405 0 0 1 .83 1.144c0 .747-.631 1.316-1.639 1.316-.978 0-1.608-.569-1.608-1.316m1.623-1.54c.424-.1.623-.357.623-.652a.6.6 0 0 0-.638-.582.6.6 0 0 0-.609.582c0 .308.192.548.624.652m-.712 1.527a.717.717 0 0 0 1.424 0 .712.712 0 1 0-1.424 0m3.631.266a.13.13 0 0 1-.131-.129v-.569l2.467-3a.143.143 0 0 1 .1-.04h.371a.13.13 0 0 1 .13.131v2.916h.547a.126.126 0 0 1 .131.125v.425a.13.13 0 0 1-.131.129h-.547l.006.877a.135.135 0 0 1-.13.131h-.569a.136.136 0 0 1-.131-.131v-.864h-2.116m2.144-.711v-1.645l-1.37 1.645Zm2.652 1.208a1.747 1.747 0 0 0 1.349.569 1.6 1.6 0 0 0 1.658-1.57 1.45 1.45 0 0 0-1.568-1.52h-.589v-.911h1.521a.129.129 0 0 0 .129-.131v-.465a.129.129 0 0 0-.129-.13h-2.165a.128.128 0 0 0-.13.13v2.021a.228.228 0 0 0 .212.24h1.055a.751.751 0 0 1 .829.766.794.794 0 0 1-.795.81 1.479 1.479 0 0 1-.884-.384.118.118 0 0 0-.165.007l-.342.336c-.082.081-.075.129.014.232m-16.275-.033a.545.545 0 1 0 .544-.544.542.542 0 0 0-.544.544m.737-1.046a1.613 1.613 0 1 0 0-3.225h-1.033a.173.173 0 0 0-.167.173v2.881a.169.169 0 0 0 .167.171h1.033m-.459-2.518h.406a.904.904 0 0 1 0 1.808h-.406ZM25.012 43.617a1.436 1.436 0 0 0-2.871 0v6.788s-3.967-.46-6.188 4.3c0 0 1.617-5.107 5.381-5.219l.008-12.69a1.292 1.292 0 1 0-2.584 0v9.256s.858.163 1.063.226c0 0-.727-.063-1.063-.076-.258-.01-.513-.016-.764-.01V35.243a1.292 1.292 0 0 0-2.584 0v11.14c-.257.026-.5.053-.736.082v-8.911a1.172 1.172 0 1 0-2.343 0v9.293c-1.025.18-1.745.337-1.858.373q.556-.251 1.1-.446v-5.52a.971.971 0 0 0-.971-.971.952.952 0 0 0-.95.971v11.757c.1 2.7.853 7.808 5.237 7.765a3.206 3.206 0 0 1-2.384-.218 4.95 4.95 0 0 1-.014 1.145 3.964 3.964 0 0 0 .265 2.025h7.864s-1.064-2.667 1.45-6.208c0 0 2.94-4.117 2.94-7.119Zm-12.489 9.534c4.128-6.905 7.946-4.856 7.946-4.856-4.452-.299-7.544 4.233-7.946 4.856ZM80.804 43.08a2.848 2.848 0 0 0 3.151-2.363s.153 2.81 2.763 1.319c0 0-.247 2.855 2.476 1.509 0 0-.6 2.312 1.51 2.034 0 0 5.287-12.533-8.817-9.676a7.652 7.652 0 0 1 7.834-.52s-3.658-5.361-11.769-.65a1.925 1.925 0 0 1 .933 2.5 5 5 0 0 0-1.4 1.61c-.389.869-.056 3.443-3.32 3.6 0 0-.522 1.615 1.7 2.242.41.116.5.02 1.518-.822 1.063-.881 3.395-.783 3.421-.783Zm-2.287-3.663c.271-.493 1.184.325 1.184.325s-.16-.019-.694.329c-.647.421-.755-.16-.49-.654Z" class="cls-2"/><path d="M87.625 49.53c.274-.371 1.481-1.467 1.247-1.8-.892-1.278-3.782-4.158-5.977-3.2-.724.315-1.816.906-2.213 1.073a6.35 6.35 0 0 0-3.491 3.213c-1.447 3.261 1.056 6.18 3.436 8.131 1.242 1.018 2.539 1.966 3.771 3 .907.758 2.048 2 1.608 3.3-.4 1.174-2.135 2-3.043.8a1.321 1.321 0 0 1 .182-1.888c.675-.423 1.432.281 1.6.922.115-1.235-.284-2.679-1.63-3.025a3.157 3.157 0 0 0-3.279 1.555 4.619 4.619 0 0 0 1.457 6.032 4.767 4.767 0 0 0 6.154-1.408 4.329 4.329 0 0 0 .383-4.084 8.1 8.1 0 0 0-2.989-3.139 14.6 14.6 0 0 1-3.372-3.422 6.622 6.622 0 0 1-1.14-5.324c-.395 1.739.677 3.5 1.74 4.785a21.014 21.014 0 0 0 4.367 3.69 5.994 5.994 0 0 1 2.037 2.126 7.976 7.976 0 0 0-1.362-3.428 2.846 2.846 0 0 0 1.759-.039c.821-.45-.138-1.512-.512-1.917a3.377 3.377 0 0 0 2.794-2.072c.5-1.372-.108-2.87-.741-4.089-1.031 4.306-4.467 2.48-2.786.208ZM48.09 77.046a12.429 12.429 0 0 1-1.368.372l.281 11 1.007-1.446Zm1.439-.56c-.436.2-.891.376-1.356.533l.24 9.379 1.048-1.5Zm1.439-.721c-.186.094-.374.19-.564.292-.25.134-.513.262-.782.386l.2 7.928 1.088-1.561Zm1.44-.671c-.422.182-.873.389-1.341.622l.17 6.627 1.126-1.617Zm1.44-.573c-.386.141-.838.317-1.335.528l.134 5.269 1.167-1.676Zm1.311-.438s-.464.131-1.2.4l.1 3.814 1.1-1.582Zm-10.416 4.184a4.573 4.573 0 0 1-2.5-.7c-.673 8.762 4.453 13.5 4.453 13.5a1.588 1.588 0 0 0-1.4-.4 1.629 1.629 0 0 0 .316 3.227 1.694 1.694 0 0 0 1.061-.393 1.835 1.835 0 0 1 2.445.337 17.6 17.6 0 0 1-4.375-15.571Zm15.535-.97a1.557 1.557 0 0 1-1.555 1.555 1.522 1.522 0 0 1-.939-.348l-.3.563.657.427-6.568 14.343h-1.671a2.4 2.4 0 0 1-.491-.53l8.13-15.038-8.474 14.642a16.213 16.213 0 0 1-1.537-2.189l9.826-14.167a1.615 1.615 0 0 1 1.367-.813 1.556 1.556 0 0 1 1.555 1.555Zm-1.006-3.436v1.563a1.953 1.953 0 0 0-2.048.558c-.657.929-9.248 13.236-9.964 14.261a16.96 16.96 0 0 1-.7-1.457l.091-11.355a5.863 5.863 0 0 1-4.411-.518v-1.982s2.88 2.253 8.154.066 7-1.934 8.437-1.123c0 0-2.364-1.893-7.689.426-5.444 2.371-8.276.465-9.228-.369l.013-2.729a8.024 8.024 0 0 0 9.066 1.935c5.525-2.251 8.279.724 8.279.724Z" class="cls-2"/></svg>