<svg xmlns="http://www.w3.org/2000/svg" viewBox="0 0 1427.45 521.3"><defs><style>.cls-1{fill:#182a47}.cls-2{fill:#fff}.cls-3{fill:#bc912c}</style></defs><g id="Suffolk_University_Boston_-_2_COLOR" data-name="Suffolk University Boston - 2 COLOR"><path d="M398.81 231.53a79.57 79.57 0 01-35.62-8.18l-2.05-33.58h7.45c1.61 10.08 2.92 17.38 8 24.24s13.14 10.22 21.31 10.22c13.73 0 22.49-9.2 22.49-19.42 0-9.05-5.55-14.45-15-19.27l-21.75-11.1c-7.89-4.09-20.44-10.66-20.44-27.15 0-15.48 12.12-28.91 35-28.91a74.6 74.6 0 0132.26 7.45l1.17 30.36h-7.15c-1.9-21.17-14.31-30.51-27.16-30.51-10.66 0-19.13 6.28-19.13 16.2 0 6.87 3.07 12.56 14.46 18.11l20.73 10.22c8.18 3.94 22.78 11.09 22.78 29.49.03 21.46-19.39 31.83-37.35 31.83zM557.07 127.58c-15 .14-15 10.8-15 16.79v51.68c0 5.55 0 15.18-7.44 23.65-8.91 10.07-22.78 11.83-31.54 11.83-13.14 0-27.74-4.09-34.16-15.33-3.8-6.72-3.8-14.16-3.8-18.84V135.9c0-6.13-.58-8.32-6.13-8.32h-8.9V121h47.4v6.57h-10.21c-5.55 0-6.28 2-6.28 8.32v59c0 9.05 0 28.62 25 28.62 14.75 0 28-8.33 28-25.7v-53.44c0-11.39-3.21-16.79-16.64-16.79V121h39.71zM652.12 157.51c-1-7.74-3.07-15.33-7.74-21.9-5.55-7.89-15-8-19-8h-17.79c-5.55 0-7 .73-7 7.59v34.89h8.47c16.2 0 16.35-15.62 16.35-20.58h6.72V199h-6.73c.15-15-4.67-22.34-16.79-22.34h-8v37.52c0 6 .58 8.18 6.28 8.18h13.58v6.57h-50.84v-6.57h8.76c5.55 0 6.28-2.19 6.28-8.18V135.9c0-6.13-.73-8.32-6.28-8.32h-8.76V121h86.72l2.34 36.5zM755.34 157.51c-1-7.74-3.07-15.33-7.74-21.9-5.55-7.89-15-8-19-8h-17.79c-5.55 0-7 .73-7 7.59v34.89h8.47c16.2 0 16.35-15.62 16.35-20.58h6.72V199h-6.72c.15-15-4.67-22.34-16.79-22.34h-8v37.52c0 6 .59 8.18 6.28 8.18h13.58v6.57h-50.85v-6.57h8.76c5.55 0 6.28-2.19 6.28-8.18V135.9c0-6.13-.73-8.32-6.28-8.32h-8.76V121h86.72l2.34 36.5zM825.86 231.53c-9.06 0-20.59-1-31.69-10.81s-19.27-25-19.27-46c0-27.88 15.92-56.35 50.08-56.35 40.15 0 51.24 34.75 51.24 56.79 0 27.75-16.22 56.37-50.36 56.37zm-.73-105.85c-30.08 0-31.69 35.33-31.69 49.2 0 18.69 3.8 49.35 32.42 49.35 29.93 0 31.82-34.31 31.82-50.52 0-21.31-5.4-48.03-32.55-48.03zM976.38 228.9h-88.62v-6.57h8.76c5.55 0 6.28-2.19 6.28-8.18V135.9c0-6.13-.73-8.32-6.28-8.32h-8.76V121H939v6.57h-14c-5.55 0-6.28 2-6.28 8.32v78.54c0 6.28 1.75 7.89 7 7.89h18.39c16.36 0 23.51-10.08 28.33-34.16h6.71zM1053.9 228.9v-6.57h7.6c3.79 0 7.44-.15 7.44-3.94a8.38 8.38 0 00-1.6-3.95l-27.16-40-17.08 17.81v21.9c0 6 .58 8.18 6.28 8.18h8.76v6.57h-46v-6.57h8.76c5.55 0 6.28-2.19 6.28-8.18V135.9c0-6.13-.73-8.32-6.28-8.32h-8.76V121h46v6.57h-8.76c-5.55 0-6.28 2-6.28 8.32v46l38.25-40.15c1.75-1.75 4.23-4.38 4.23-7.59 0-6.43-7.29-6.57-13.87-6.57V121h44.83v6.57c-5.26.29-12.41.73-24.24 13.28-.29.44-1.9 2-2.19 2.48l-19.86 20.59 32.85 47.89a12.13 12.13 0 00.9 1.19c4.53 6.87 6.72 9.2 17.37 9.35v6.57zM462.9 279.58c-15 .14-15 10.8-15 16.79v51.68c0 5.55 0 15.18-7.45 23.65-8.91 10.07-22.78 11.83-31.54 11.83-13.14 0-27.74-4.09-34.16-15.33-3.79-6.72-3.79-14.16-3.79-18.84V287.9c0-6.13-.59-8.32-6.14-8.32h-8.9V273h47.45v6.57h-10.25c-5.55 0-6.28 2-6.28 8.32v59c0 9.05 0 28.62 25 28.62 14.75 0 28-8.33 28-25.7v-53.44c0-11.39-3.22-16.79-16.65-16.79V273h39.71zM589.34 279.58c-14.6.14-14.6 10.8-14.6 16.79v85.84h-8.62l-66-90.37h-.29v66c0 5.69 0 16.5 15 16.5h5.26v6.57h-43.46v-6.57c15.18-.15 15.18-10.66 15.18-16.5v-74.6c-2.48-2.92-5.55-3.65-15.18-3.65V273h27.74l62 85.7h.29v-62.33c0-5.7 0-16.79-14.89-16.79h-5.26V273h42.78zM601.6 380.9v-6.57h9.79c5.69 0 6.27-2.19 6.27-8.18V287.9c0-6.13-.58-8.32-6.27-8.32h-9.79V273h48.18v6.57h-9.92c-5.55 0-6.28 2-6.28 8.32v78.25c0 6 .58 8.18 6.28 8.18h9.92v6.57zM772.57 279.58c-7.3 0-11 .58-16.5 15l-34.46 88.92h-5.69l-36.94-93c-4.23-10.51-7.88-10.95-12.7-10.95H664V273h43.36v6.57h-6.14c-3.79 0-8.46.44-8.46 4.38a13.88 13.88 0 001 4.52l28.76 72 24.24-63.66a26.28 26.28 0 001.75-7.44c0-6.57-4.67-9.78-11-9.78h-3.36V273h38.4zM875.2 380.9H785v-6.57h8.9c5.55 0 6.14-2.19 6.14-8.18V287.9c0-6.13-.59-8.32-6.14-8.32H785V273h86.7l2.19 36.79h-6.57c-3.36-20.73-9.93-30.22-27.15-30.22h-16.36c-7.44 0-7.88 1.9-7.88 8v34.45h7.88c16.94 0 17.23-14 17.38-20.44h6.57v49.06h-6.57c.29-17.38-7-22.05-17.52-22.05h-7.74v37.52c0 7.45 1.9 8.18 7.74 8.18H839c25.69 0 29.78-21.17 31.53-33.29h6.57zM972.59 380.9l-20-39c-5-9.64-9.34-11.39-16.93-11.39h-8.76v35.62c0 6 .58 8.18 6.28 8.18h8.76v6.57h-46v-6.57h8.76c5.55 0 6.28-2.19 6.28-8.18V287.9c0-6.13-.59-8.32-6.28-8.32h-8.76V273h51.39c2.63 0 13.58.14 22 4.09a27.17 27.17 0 0115.48 24.67c0 4.52-1 22.48-27.3 26.72v.29c4.67 1.6 6.42 3.06 11.53 12.85L981.49 365c5 9.35 7.3 9.35 11.68 9.35h2.48v6.57zm-28.33-101.32h-11c-5.69 0-6.42 2.63-6.42 7.44V324h15c13.72 0 25-2.92 25-22.63.05-14.64-6.52-21.79-22.58-21.79zM1048.36 383.53a79.57 79.57 0 01-35.62-8.18l-2-33.58h7.45c1.6 10.08 2.92 17.38 8 24.24s13.14 10.22 21.31 10.22c13.73 0 22.49-9.2 22.49-19.42 0-9.05-5.55-14.45-15-19.27l-21.75-11.1c-7.89-4.09-20.44-10.66-20.44-27.15 0-15.48 12.11-28.91 35-28.91a74.6 74.6 0 0132.26 7.45l1.17 30.36h-7.16c-1.89-21.17-14.3-30.51-27.15-30.51-10.66 0-19.13 6.28-19.13 16.2 0 6.87 3.07 12.56 14.46 18.11l20.75 10.22c8.17 3.94 22.77 11.09 22.77 29.49-.04 21.46-19.45 31.83-37.41 31.83zM1100.92 380.9v-6.57h9.78c5.69 0 6.28-2.19 6.28-8.18V287.9c0-6.13-.59-8.32-6.28-8.32h-9.78V273h48.18v6.57h-9.93c-5.55 0-6.28 2-6.28 8.32v78.25c0 6 .59 8.18 6.28 8.18h9.93v6.57zM1250.71 314c-1.75-12.41-5.26-34.45-25.84-34.45-4.67 0-7 .73-7 8v78.54c0 6 .59 8.18 6.28 8.18h10.07v6.57h-48.76v-6.57h10.22c5.55 0 6.28-2.19 6.28-8.18v-79.21c0-3.51 0-7.3-6.57-7.3-19.27 0-24.68 20.44-26.28 34.45h-6.72l2.34-41h90.37l2.34 41zM1372.18 279.58c-6.42 0-10.36 1.17-16.93 12.84l-24.09 43.07v30.66c0 6 .58 8.18 6.28 8.18h9.78v6.57H1299v-6.57h10c5.54 0 6.27-2.19 6.27-8.18v-29.34l-31.68-49.06c-5.25-8.17-6.27-8.17-12.41-8.17V273h41.9v6.57h-6c-2.19 0-7.45 0-7.45 3.65 0 2 1.75 4.81 2.19 5.54l24.82 38.4 19-33.58c.44-1 1.9-3.65 1.9-6.27 0-7.74-7.15-7.74-10.37-7.74h-2V273h37.08z" class="cls-1"/></g><g id="_2_color_shield" data-name="2 color shield"><path d="M183.07 115.66c-6.3 0-16.35 1.51-21.69 2.67a157.36 157.36 0 01-29 3.24c-10.9 0-21.11-.46-38.74-5.56-6-1.72-8.35 2.08-8.35 5.56v151.94s.31 16.74 11.37 34.79C108 326.86 140 365.14 197.11 383.69c57.06-18.55 89.07-56.83 100.44-75.39 11.05-18.05 11.36-34.79 11.36-34.79V121.57c0-3.48-2.4-7.28-8.35-5.56-17.63 5.1-27.83 5.56-38.74 5.56a157.36 157.36 0 01-29-3.24 141.52 141.52 0 00-21.92-2.67z" class="cls-1"/><path d="M193.08 260.09h-86.81a2.8 2.8 0 01-2.84-2.76V152.56c0-1.53 1.13-2.72 1.87-2.72H288a2.75 2.75 0 012.82 2.72v104.77a2.79 2.79 0 01-2.82 2.76h-94.92z" class="cls-2"/><path d="M203.86 253.56c10.48-6 21.28-2.19 40.24-.7a159.56 159.56 0 0040.59-2.08v-95.57l-6.61-10.32c-16.21 5.73-34.13 9.25-53.47 3.36-20.45-6.24-27-5.92-27-5.92h-.77s-6.53-.32-27 5.92c-19.34 5.89-37.48 2.37-53.7-3.36l-6.38 10.32v95.57a159.61 159.61 0 0040.6 2.08c19-1.49 29.75-5.28 40.23.7z" class="cls-1"/><path d="M202.88 245.67c9.74-5.56 19.48-3.24 37.11-1.85a201.08 201.08 0 0038-.7v-98.35c-15.07 5.33-37.69 6.41-55.67.93-19-5.8-25.28-4.18-25.28-4.18s-6.27-1.62-25.29 4.18c-18 5.48-40.59 4.4-55.67-.93v98.35a201.14 201.14 0 0038 .7c17.63-1.39 27.38-3.71 37.12 1.85z" class="cls-2"/><path d="M178.49 73.94s12.56 6.76 17.63 11.35 13 11 16.79 18.48 3.87 26.58 2.9 28l-.48.72-.48.73 6 2.75-6.14 11.85-10.37 159.85s-2 7.13-4.63 7.41a6.63 6.63 0 01-5-1.61c-.48-.48-14.13-175.88-14.13-175.88a13.64 13.64 0 01-6.28-4.59c-2.66-3.5-7.85-11-9.06-18.24s-2.9-15.1-4.35-15.94c0 0 9.6 0 12.44 6.64 1.61 3.78-.72-8-2.9-11.47S156.9 76.14 157.51 64.3c0 0 19.12 17 24.68 20.39 0 0-4.43-5.08-3.7-10.75z" class="cls-2"/><path d="M217.79 132.08c8.7-46.52-35.61-53.55-41.66-67.62-.8 5.33 0 12.31 1.69 14.85-5.74-3.47-11.28-7.69-14.79-12.53-2-2.72-6.84-9.28-6.91-12.59-9.54 20 14.37 39.2 16.07 47-4.3-6.1-14-8.13-19.68-5.23a11.37 11.37 0 016.18 4.51c5.67 8.19 3.58 19.41 9.35 27.39a21 21 0 004.85 4.89 13.76 13.76 0 00-3.87 2.4l7.6 11.48 11.76 162c.4 5.33 3.88 9.27 8.75 9.27s8.58-3.94 8.84-9.27l10.89-161.13c.56-1.48 4-8.94 6-12.85.01.03-2.53-1.24-5.07-2.57zm-45.45-5.27c-7.2-8.73-3.93-17.21-8.63-25.32 1.91-.75 4.72.07 7.43 3.26a32.59 32.59 0 014.2 7.09s3.55-6.14-1.38-16.14C168.4 84.44 158.77 78 158.06 66a17.05 17.05 0 001.94 3.14c10.94 13.77 23.91 13.46 28.84 28.38-4.07-.8-12.41-7.49-14-9.55a30 30 0 007.86 16.26c4.9 5.11 4.14 16.16 4.53 15.19 3.89-9.66.79-15-1.32-18.52a19.42 19.42 0 016.34 4.08c3.23-10.27-7.44-22.81-11.43-28.85 4.26 3.74 38.43 17.55 33.19 54-29.92-10.57-32.72 7.54-41.67-3.32zM195.52 143c3.53-.83 11-.42 17.66 3.12L202.06 308c-.29 2.5-1.65 4.42-3.87 5zm19.06.23c-11.84-4.89-19-3.69-19-3.69l-.18-8.49c15.64-.84 22.6 4.88 22.6 4.88zM149.32 274.01l4.46 13.72h14.42l-11.67 8.47 4.46 13.71-11.67-8.47-11.66 8.47 4.45-13.71-11.66-8.47h14.42l4.45-13.72zM245 274.01l4.46 13.72h14.42l-11.67 8.47 4.46 13.71-11.67-8.47-11.66 8.47 4.45-13.71-11.66-8.47h14.42l4.45-13.72z" class="cls-3"/></g><g id="Layer_3" data-name="Layer 3"><path d="M414.61 483.83a34.89 34.89 0 01-11.9 1.61h-32.13v-3.82h5.1c3.23 0 3.65-1.28 3.65-4.76v-45.57c0-3.57-.34-4.84-3.65-4.84h-5.1v-3.83H402a31.59 31.59 0 0112 1.79 14 14 0 012.89 24.91 20.17 20.17 0 01-7.31 3.4v.17a27.78 27.78 0 019.6 2.89 14.62 14.62 0 017.31 12.58c.02 7.9-5.33 13.51-11.88 15.47zm-13.77-57.38h-8.67c-2.38 0-3.57.59-3.57 3.57v21.34h11.9c8.84 0 12.33-5.44 12.33-12.84 0-6.89-2.83-12.07-11.99-12.07zm.09 28.73H388.6v21.68c0 2.89 0 4.76 3.57 4.76h10.29c5.69 0 13.26-1.62 13.26-13.09 0-10.97-8.16-13.35-14.79-13.35zM470.28 487c-5.27 0-12-.59-18.44-6.29s-11.22-14.53-11.22-26.77c0-16.24 9.26-32.82 29.15-32.82 23.38 0 29.84 20.24 29.84 33.07 0 16.12-9.43 32.81-29.33 32.81zm-.42-61.63c-17.51 0-18.45 20.58-18.45 28.65 0 10.88 2.21 28.73 18.87 28.73 17.43 0 18.54-20 18.54-29.41 0-12.44-3.15-28-18.96-28zM536.75 487a46.35 46.35 0 01-20.75-4.79l-1.19-19.55h4.34c.93 5.87 1.7 10.12 4.67 14.11a15.25 15.25 0 0012.41 6c8 0 13.09-5.35 13.09-11.3 0-5.27-3.23-8.42-8.75-11.22l-12.67-6.46c-4.59-2.38-11.9-6.21-11.9-15.81 0-9 7.06-16.84 20.4-16.84a43.42 43.42 0 0118.79 4.34l.68 17.68h-4.17c-1.1-12.33-8.33-17.77-15.81-17.77-6.2 0-11.13 3.66-11.13 9.44 0 4 1.78 7.31 8.41 10.54l12.07 5.95c4.76 2.3 13.27 6.46 13.27 17.17.01 12.45-11.3 18.51-21.76 18.51zM622.26 446.51c-1-7.22-3.06-20.06-15-20.06-2.72 0-4.08.42-4.08 4.67v45.74c0 3.48.34 4.76 3.65 4.76h5.87v3.82h-28.43v-3.82h6c3.23 0 3.65-1.28 3.65-4.76V430.7c0-2 0-4.25-3.82-4.25-11.22 0-14.37 11.9-15.3 20.06h-3.91l1.36-23.89h52.61l1.36 23.89zM668.33 487c-5.27 0-12-.59-18.44-6.29s-11.22-14.53-11.22-26.77c0-16.24 9.26-32.82 29.15-32.82 23.38 0 29.84 20.24 29.84 33.07 0 16.12-9.44 32.81-29.33 32.81zm-.42-61.63c-17.51 0-18.45 20.58-18.45 28.65 0 10.88 2.21 28.73 18.87 28.73 17.43 0 18.53-20 18.53-29.41 0-12.44-3.14-28-18.95-28zM776.8 426.45c-8.51.08-8.51 6.29-8.51 9.78v50h-5l-38.42-52.62h-.17V472c0 3.32 0 9.61 8.75 9.61h3.06v3.82h-25.34v-3.82c8.84-.09 8.84-6.21 8.84-9.61v-43.43c-1.44-1.7-3.23-2.12-8.84-2.12v-3.83h16.15l36.13 49.9h.17v-36.29c0-3.32 0-9.78-8.67-9.78h-3.06v-3.83h24.91z" class="cls-3"/></g></svg>