<svg xmlns="http://www.w3.org/2000/svg" id="Layer_1" data-name="Layer 1" viewBox="0 0 723.67 310.26"><defs><style>.cls-1{fill:#0058a4}</style></defs><path d="M150.65 191.37c5.56-15.85 8.38-24.87 8.38-30.15 0-8.05-6.43-16.91-11.6-24l-.58-.8c-2-2.8-4-5.5-5.45-7.6-1.5 2.1-3.43 4.8-5.45 7.6l-.58.8c-5.17 7.12-11.6 16-11.6 24 0 5.28 2.82 14.3 8.38 30.15 3.32 9.47 4.77 31.34 5.38 46.93a83.52 83.52 0 01.5 9h-.17c.09 1.49.13 2.76.13 3.74h-.07v1h7v-1h-.06c0-1 0-2.25.12-3.74h-.17a82.92 82.92 0 01.45-8.55c.63-15.61 2.03-37.81 5.39-47.38zM107.29 199.16a22.5 22.5 0 0110 2.28C111.11 192.3 103 186 93.55 186a21.31 21.31 0 00-21.28 21.28c0 10.73 7.79 16.24 16.33 19.37a20.08 20.08 0 0118.69-27.5zM169.46 90.05A3.56 3.56 0 00167 84h-22v14.2h16.31zM121.59 98.2h16.3V84H116a3.56 3.56 0 00-2.52 6.07z" class="cls-1" transform="translate(-38.33 -44.87)"/><path d="M174.05 243.85a15.35 15.35 0 019-13.92 13 13 0 00-7.42-23.66c-19.3 0-22.85 32.39-23.47 42.07 0 1.41-.06 2.65-.07 3.69h9.76v7.1H145v3.42A21.47 21.47 0 00166.4 284h3.6v3.56c0 4.34-2.22 8.47-6.27 11.64a21 21 0 01-8.92 4.09c-1.49 12.06-10.89 18.76-11.32 19.06l-2 1.42-2-1.42c-.43-.3-9.84-7-11.33-19.06a21 21 0 01-8.92-4.09c-4.05-3.17-6.28-7.3-6.28-11.64V284h3.56a21.47 21.47 0 0021.44-21.44v-3.42h-16.9V252h9.76c0-1.12 0-2.48-.09-4-.68-10.08-4.36-41.73-23.44-41.73a13 13 0 00-7.42 23.67 15.28 15.28 0 01-6.32 29.2H57.81c17.62 48.27 74 76.07 83.64 80.5a211.94 211.94 0 0044.09-27.93c19.67-16.32 32.93-33.92 39.64-52.57h-35.84a15.3 15.3 0 01-15.29-15.29z" class="cls-1" transform="translate(-38.33 -44.87)"/><path d="M52.55 229.76a84.24 84.24 0 003 22.28h38a8.17 8.17 0 005-14.68 20.58 20.58 0 01-2-1.13c-20.84-4.49-31.38-14.23-31.38-28.94a28.42 28.42 0 0128.38-28.39c12.72 0 24.44 8.53 33 24 .46.82.9 1.65 1.33 2.49a65.89 65.89 0 00-2.45-11.68c-6-17-8.78-26.16-8.78-32.5 0-10.36 7.18-20.26 13-28.21l.58-.8c4.34-6 8.26-11.56 8.3-11.61l2.91-4.14 2.91 4.14c0 .05 3.95 5.62 8.3 11.61l.58.8c5.77 8 12.95 17.85 12.95 28.21 0 6.34-2.83 15.54-8.78 32.5a65.21 65.21 0 00-2.47 11.91c.47-.92.94-1.83 1.44-2.72 8.57-15.48 20.29-24 33-24a28.43 28.43 0 0128.39 28.39c0 14.71-10.54 24.45-31.33 28.94a19 19 0 01-2 1.13 8.18 8.18 0 005 14.68h38.07a85.76 85.76 0 002.93-22.28V105.31H52.55zM141.41 314.75a20.88 20.88 0 006.44-14.69v-3.55h3.55a13.31 13.31 0 0010.49-5.75 28.62 28.62 0 01-20.49-14.41 28.66 28.66 0 01-20.49 14.41 13.31 13.31 0 0010.49 5.75h3.6v3.55a20.93 20.93 0 006.41 14.69z" class="cls-1" transform="translate(-38.33 -44.87)"/><path d="M179.52 75A17.65 17.65 0 00167 69.76h-4.17V55.53h-10.72V44.87h-21.33v10.66h-10.66v14.23H116a17.77 17.77 0 00-17.82 17.78 18.26 18.26 0 00.35 3.55h-60.2v138.67c0 33.72 17.32 65.89 50.09 93a219.41 219.41 0 0048.85 30.57l4.18 1.78 4.17-1.78a219.41 219.41 0 0048.85-30.57c32.77-27.13 50.09-59.3 50.09-93V91.09h-60.2A17.75 17.75 0 00179.52 75zm57.93 23.2v131.56c0 31.53-16.43 61.8-47.51 87.54a212.46 212.46 0 01-47.1 29.51l-1.39.59-1.4-.59A212.27 212.27 0 0193 317.3c-31.09-25.74-47.52-56-47.52-87.54V98.2h66.09l-3.12-3.12a10.66 10.66 0 010-15.09 10.74 10.74 0 017.55-3.12h21.94v-7.11h-10.71v-7.11h10.66V52H145v10.65h10.67v7.11H145v7.11h22a10.67 10.67 0 017.54 18.21l-3.13 3.12z" class="cls-1" transform="translate(-38.33 -44.87)"/><path d="M210.62 207.29A21.31 21.31 0 00189.34 186c-9.49 0-17.56 6.29-23.74 15.43a22.57 22.57 0 0110-2.28 20.08 20.08 0 0118.68 27.5c8.55-3.12 16.34-8.65 16.34-19.36zM374 220.75h-5.2a1.07 1.07 0 00-1.07 1.08v23.29h-.06l-23.47-24.93h-1.41a1.06 1.06 0 00-1.07 1v38a1.11 1.11 0 001.07 1.08h5.13a1.07 1.07 0 001.07-1.08v-24.28h.06l23.58 25.89H374a1.06 1.06 0 001.07-1v-38a1.11 1.11 0 00-1.07-1.05zM357.86 144.42a1.18 1.18 0 00-1.19-.78H356a1.25 1.25 0 00-1.19.78l-21.94 47.45a1.25 1.25 0 001.2 1.83h6.14a2.12 2.12 0 002-1.41l3.46-7.62h21.08l3.46 7.62a2 2 0 002 1.41h6.14a1.25 1.25 0 001.2-1.83zm-8.74 32.43l6.88-15.51h.22l7.05 15.51zM667.65 194.41A19.34 19.34 0 00687.32 175v-29.31a1.38 1.38 0 00-1.34-1.34h-6.69a1.34 1.34 0 00-1.34 1.34v28.91c0 5.92-4.16 10.65-10.3 10.65s-10.23-4.73-10.23-10.72v-28.84a1.33 1.33 0 00-1.34-1.34h-6.69a1.38 1.38 0 00-1.34 1.34V175a19.33 19.33 0 0019.6 19.41zM324.58 180.45c0-9.1-7.89-13.19-14.74-15.94-5.71-2.33-8.32-4.59-8.32-7.9 0-2.26 2.18-4.94 6.21-4.94 3.88 0 9.24 3.53 9.8 3.88a1.85 1.85 0 002.47-.85l2.68-4a1.75 1.75 0 00-.43-2.33 24.74 24.74 0 00-14.1-4.72c-11.21 0-15.86 7.26-15.86 13.53 0 8.33 6.62 12.56 13.25 15.24 5.93 2.4 9 4.87 9 8.46 0 3-2.75 5.43-6.42 5.43-4.59 0-10.29-4.16-10.65-4.37a1.63 1.63 0 00-2.39.5l-2.54 4.37c-.63 1.13-.28 1.48.35 2.11 1.41 1.34 6.63 5.5 15.51 5.5 9.91-.01 16.18-6.7 16.18-13.97zM323.89 220.75h-5.36a1.07 1.07 0 00-1.07 1.08V245c0 4.73-3.33 8.51-8.24 8.51s-8.22-3.82-8.22-8.61v-23.07a1.07 1.07 0 00-1.07-1.08h-5.36a1.11 1.11 0 00-1.07 1.08v23.46a15.71 15.71 0 0031.42 0v-23.46a1.11 1.11 0 00-1.03-1.08zM531.27 232.88A12.22 12.22 0 00519 220.75h-16.16a1.07 1.07 0 00-1.07 1.07v37.34a1.07 1.07 0 001.07 1.08H508a1.12 1.12 0 001.08-1.08v-14.38h6.26l7.51 15a1 1 0 00.9.51h5.92a1.07 1.07 0 001-1.64l-7.72-14.33c4.88-2.02 8.32-6.25 8.32-11.44zm-12.92 5.87h-9.2v-11.24h9.2a5.62 5.62 0 015.59 5.48 5.75 5.75 0 01-5.59 5.76zM630.05 220.75H605.4a1.07 1.07 0 00-1.07 1.07v4.62a1.06 1.06 0 001.07 1.07h8.6v31.65a1.11 1.11 0 001.07 1.08h5.25a1.11 1.11 0 001.07-1.08v-31.65h8.63a1.06 1.06 0 001.07-1.07v-4.62a1.07 1.07 0 00-1.04-1.07zM590.33 220.75h-5.24a1.11 1.11 0 00-1.07 1.08v37.33a1.11 1.11 0 001.07 1.08h5.24a1.11 1.11 0 001.07-1.08v-37.33a1.11 1.11 0 00-1.07-1.08zM747.27 164.51c-5.72-2.33-8.33-4.59-8.33-7.9 0-2.26 2.19-4.94 6.21-4.94s9.24 3.53 9.8 3.88a1.85 1.85 0 002.47-.85l2.68-4a1.75 1.75 0 00-.43-2.33 24.74 24.74 0 00-14.1-4.72c-11.21 0-15.86 7.26-15.86 13.53 0 8.33 6.62 12.56 13.25 15.24 5.93 2.4 9 4.87 9 8.46 0 3-2.76 5.43-6.43 5.43-4.59 0-10.29-4.16-10.65-4.37a1.63 1.63 0 00-2.39.5l-2.54 4.37c-.63 1.13-.28 1.48.35 2.11 1.41 1.34 6.63 5.5 15.52 5.5 9.94 0 16.21-6.69 16.21-14-.03-9.07-7.92-13.16-14.76-15.91zM672.92 220.75h-5.81a1.11 1.11 0 00-.9.51l-9 13-9-13a1.11 1.11 0 00-.9-.51h-5.75a1 1 0 00-.91 1.64l12.86 18.84v17.93a1.07 1.07 0 001.07 1.08h5.19a1.11 1.11 0 001.07-1.08v-18l13-18.78a1 1 0 00-.92-1.63zM573.08 185.25h-18v-39.56a1.38 1.38 0 00-1.34-1.34h-6.48a1.33 1.33 0 00-1.34 1.34v46.67a1.33 1.33 0 001.34 1.34h25.8a1.33 1.33 0 001.34-1.34v-5.77a1.33 1.33 0 00-1.32-1.34zM713 144.35h-6.55a1.39 1.39 0 00-1.34 1.34v46.67a1.39 1.39 0 001.34 1.34H713a1.38 1.38 0 001.34-1.34v-46.67a1.38 1.38 0 00-1.34-1.34z" class="cls-1" transform="translate(-38.33 -44.87)"/><rect width="7.38" height="39.48" x="354.05" y="175.88" class="cls-1" rx="1.07" ry="1.07"/><path d="M608.49 143.64a25.39 25.39 0 1025.38 25.46 25.28 25.28 0 00-25.38-25.46zm0 41.61a16.23 16.23 0 010-32.45 16.23 16.23 0 010 32.45zM448.4 220.75h-5.76a1 1 0 00-1 .62l-10.83 24.26h-.39l-10.83-24.26a1 1 0 00-1-.62h-5.76a1 1 0 00-1 1.47l17.42 38a1 1 0 001 .62h.56a1 1 0 001-.62l17.48-38a1 1 0 00-.89-1.47zM399.54 144.35H393a1.38 1.38 0 00-1.34 1.34v46.67a1.38 1.38 0 001.34 1.34h6.55a1.39 1.39 0 001.34-1.34v-46.67a1.39 1.39 0 00-1.35-1.34zM459.69 144.35h-6.48a1.33 1.33 0 00-1.34 1.34v29.12h-.07l-29.34-31.17h-1.76a1.33 1.33 0 00-1.34 1.27v47.45a1.39 1.39 0 001.34 1.34h6.41a1.33 1.33 0 001.34-1.34V162h.07L458 194.41h1.69a1.33 1.33 0 001.34-1.27v-47.45a1.39 1.39 0 00-1.34-1.34zM485.57 220.75h-22.95a1.07 1.07 0 00-1.07 1.07v37.35a1.07 1.07 0 001.07 1.07h22.95a1.07 1.07 0 001.07-1.07v-4.63a1.07 1.07 0 00-1.07-1.07h-16.7v-9.88h13.94a1.07 1.07 0 001.07-1.07v-4.67a1.11 1.11 0 00-1.07-1.08h-13.94v-9.26h16.7a1.06 1.06 0 001.07-1.07v-4.62a1.07 1.07 0 00-1.07-1.07zM558 236.88c-4.58-1.86-6.67-3.66-6.67-6.32 0-1.8 1.75-3.95 5-3.95s7.39 2.82 7.85 3.1a1.49 1.49 0 002-.67l2.14-3.22a1.41 1.41 0 00-.34-1.86 19.9 19.9 0 00-11.28-3.77c-9 0-12.69 5.8-12.69 10.83 0 6.65 5.3 10 10.6 12.18 4.74 1.92 7.17 3.89 7.17 6.77 0 2.43-2.2 4.35-5.14 4.35-3.67 0-8.23-3.33-8.52-3.5a1.29 1.29 0 00-1.91.4l-2 3.49c-.51.91-.23 1.18.28 1.69 1.13 1.08 5.3 4.4 12.41 4.4 8 0 13-5.35 13-11.16-.16-7.28-6.47-10.56-11.9-12.76zM507.5 151.46v-5.77a1.34 1.34 0 00-1.34-1.34h-30.81a1.34 1.34 0 00-1.34 1.34v5.77a1.34 1.34 0 001.34 1.34h10.79v39.56a1.39 1.39 0 001.34 1.34H494a1.38 1.38 0 001.34-1.34V152.8h10.79a1.34 1.34 0 001.37-1.34zM685.11 252.24h-4.92a.21.21 0 00-.21.21v.93a.21.21 0 00.21.21h1.73v6.32a.22.22 0 00.21.21h1a.22.22 0 00.21-.21v-6.32h1.72a.21.21 0 00.22-.21v-.93a.21.21 0 00-.17-.21zM693.13 252.13H693a.18.18 0 00-.19.11l-2.48 5.32-2.47-5.32a.22.22 0 00-.2-.11h-.18a.18.18 0 00-.2.16l-1.34 7.57a.21.21 0 00.21.26h1a.21.21 0 00.2-.17l.65-4.27 2 4.43a.21.21 0 00.19.13h.21a.19.19 0 00.19-.13l2-4.43.67 4.27a.24.24 0 00.21.17h1a.2.2 0 00.2-.26l-1.33-7.57a.18.18 0 00-.21-.16z" class="cls-1" transform="translate(-38.33 -44.87)"/></svg>