<svg xmlns="http://www.w3.org/2000/svg" xmlns:xlink="http://www.w3.org/1999/xlink" id="Layer_1" x="0" y="0" version="1.1" viewBox="0 0 360 109" xml:space="preserve"><style>.st2{fill:#fff}.st3{fill:#881c1c}.st4{fill:#212721}</style><pattern id="Unnamed_Pattern" width="69" height="69" x="-72.5" y="749" overflow="visible" patternUnits="userSpaceOnUse" viewBox="2.12 -70.9 69 69"><g><path fill="none" d="M2.12-70.9h69v69h-69z"/><path fill="#f7bc60" d="M2.12-70.9h69v69h-69z"/><g><path d="M61.77-71.65c.02.07.01.13-.03.19-.05.1-.11.06-.17.13-.05.06-.1.28-.08.36-.17.06-.01.23-.02.35 0 .05-.04.11-.04.16-.01.12.02.27.07.37.1.2.27.41.44.54.19.15.36.57.61.63.18.04.38-.1.54-.14.18-.04.4.01.57-.05.22-.08.13-.34.29-.45.1-.07.29-.01.41-.05.2-.07.34-.26.38-.46.02-.08.01-.14.04-.22.04-.1.11-.16.09-.29-.01-.06-.05-.12-.06-.19-.02-.11 0-.22 0-.34 0-.2.02-.38-.08-.55-.38-.69-1.24-.93-1.97-.79-.18.03-.29.13-.44.21-.17.09-.14.17-.32.22-.08.03-.22.12-.21.22 0 .12 0 .05.01.17-.02.01-.02 0-.03-.03M54.11-71.65c.02.07.01.13-.03.19-.05.1-.11.06-.17.13-.05.06-.1.28-.08.36-.17.06-.01.23-.02.35 0 .05-.04.11-.04.16-.01.12.02.27.07.37.1.2.27.41.44.54.19.15.36.57.61.63.18.04.38-.1.54-.14.18-.04.4.01.57-.05.22-.08.13-.34.29-.45.1-.07.29-.01.41-.05.2-.07.34-.26.38-.46.02-.08.01-.14.04-.22.04-.1.11-.16.09-.29-.01-.06-.05-.12-.06-.19-.02-.11 0-.22 0-.34 0-.2.02-.38-.08-.55-.38-.69-1.24-.93-1.97-.79-.18.03-.29.13-.44.21-.17.09-.14.17-.32.22-.08.03-.22.12-.21.22 0 .12 0 .05.01.17-.02.01-.02 0-.03-.03M46.44-71.65c.02.07.01.13-.03.19-.05.1-.11.06-.17.13-.05.06-.1.28-.08.36-.17.06-.01.23-.02.35 0 .05-.04.11-.04.16-.01.12.02.27.07.37.1.2.27.41.44.54.19.15.36.57.61.63.18.04.38-.1.54-.14.18-.04.4.01.57-.05.22-.08.13-.34.29-.45.1-.07.29-.01.41-.05.2-.07.34-.26.38-.46.02-.08.01-.14.04-.22.04-.1.11-.16.09-.29-.01-.06-.05-.12-.06-.19-.02-.11 0-.22 0-.34 0-.2.02-.38-.08-.55-.38-.69-1.24-.93-1.97-.79-.18.03-.29.13-.44.21-.17.09-.14.17-.32.22-.08.03-.22.12-.21.22 0 .12 0 .05.01.17-.02.01-.02 0-.03-.03M38.77-71.65c.02.07.01.13-.03.19-.05.1-.11.06-.17.13-.05.06-.1.28-.08.36-.17.06-.01.23-.02.35 0 .05-.04.11-.04.16-.01.12.02.27.07.37.1.2.27.41.44.54.19.15.36.57.61.63.18.04.38-.1.54-.14.18-.04.4.01.57-.05.22-.08.13-.34.29-.45.1-.07.29-.01.41-.05.2-.07.34-.26.38-.46.02-.08.01-.14.04-.22.04-.1.11-.16.09-.29-.01-.06-.05-.12-.06-.19-.02-.11 0-.22 0-.34 0-.2.02-.38-.08-.55-.38-.69-1.24-.93-1.97-.79-.18.03-.29.13-.44.21-.17.09-.14.17-.32.22-.08.03-.22.12-.21.22 0 .12 0 .05.01.17-.02.01-.02 0-.03-.03M31.11-71.65c.02.07.01.13-.03.19-.05.1-.11.06-.16.13-.05.06-.1.28-.08.36-.17.06-.01.23-.02.35 0 .05-.04.11-.04.16-.01.12.02.27.07.37.1.2.27.41.43.54.19.15.36.57.61.63.18.04.38-.1.54-.14.18-.04.4.01.57-.05.22-.08.13-.34.29-.45.1-.07.29-.01.41-.05.2-.07.34-.26.38-.46.02-.08.01-.14.04-.22.04-.1.11-.16.09-.29-.01-.06-.05-.12-.06-.19-.02-.11 0-.22 0-.34 0-.2.02-.38-.08-.55-.38-.69-1.24-.93-1.97-.79-.18.03-.29.13-.44.21-.17.09-.14.17-.32.22-.08.03-.22.12-.21.22 0 .12 0 .05.01.17-.02.01-.02 0-.03-.03M23.44-71.65c.02.07.01.13-.03.19-.05.1-.11.06-.17.13-.05.06-.1.28-.08.36-.17.06-.01.23-.02.35 0 .05-.04.11-.04.16-.01.12.02.27.07.37.1.2.27.41.43.54.19.15.36.57.61.63.18.04.38-.1.54-.14.18-.04.4.01.57-.05.22-.08.13-.34.29-.45.1-.07.29-.01.41-.05.2-.07.34-.26.38-.46.02-.08.01-.14.04-.22.04-.1.11-.16.09-.29-.01-.06-.05-.12-.06-.19-.02-.11 0-.22 0-.34 0-.2.02-.38-.08-.55-.38-.69-1.24-.93-1.97-.79-.18.03-.29.13-.44.21-.17.09-.14.17-.32.22-.08.03-.22.12-.21.22 0 .12 0 .05.01.17-.02.01-.02 0-.03-.03M15.77-71.65c.02.07.01.13-.03.19-.05.1-.11.06-.17.13-.05.06-.1.28-.08.36-.17.06-.01.23-.02.35 0 .05-.04.11-.04.16-.01.12.02.27.07.37.1.2.27.41.44.54.19.15.36.57.61.63.18.04.38-.1.54-.14.18-.04.4.01.57-.05.22-.08.13-.34.29-.45.1-.07.29-.01.41-.05.2-.07.34-.26.38-.46.02-.08.01-.14.04-.22.04-.1.11-.16.09-.29-.01-.06-.05-.12-.06-.19-.02-.11 0-.22 0-.34 0-.2.02-.38-.08-.55-.38-.69-1.24-.93-1.97-.79-.18.03-.29.13-.44.21-.17.09-.14.17-.32.22-.08.03-.22.12-.21.22 0 .12 0 .05.01.17-.02.01-.02 0-.03-.03M8.11-71.65c.02.07.01.13-.03.19-.05.1-.11.06-.17.13-.05.06-.1.28-.08.36-.17.06-.01.23-.02.35 0 .05-.04.11-.04.16-.01.12.02.27.07.37.1.2.27.41.44.54.19.15.36.57.61.63.18.04.38-.1.54-.14.18-.04.4.01.57-.05.22-.08.13-.34.29-.45.1-.07.29-.01.41-.05.2-.07.34-.26.38-.46.02-.08.01-.14.04-.22.04-.1.11-.16.09-.29-.01-.06-.05-.12-.06-.19-.02-.11 0-.22 0-.34 0-.2.02-.38-.08-.55-.38-.69-1.24-.93-1.97-.79-.18.03-.29.13-.44.21-.17.09-.14.17-.32.22-.08.03-.22.12-.21.22 0 .12 0 .05.01.17-.02.01-.02 0-.03-.03M.44-71.65c.02.07.01.13-.03.19-.05.1-.11.06-.17.13-.05.06-.1.28-.08.36-.16.05 0 .22-.01.35 0 .05-.04.11-.04.16-.01.12.02.27.07.37.1.2.27.41.44.54.19.15.36.57.61.63.18.04.38-.1.54-.14.18-.04.4.01.57-.05.22-.08.13-.34.29-.45.1-.07.29-.01.41-.05.2-.07.34-.26.38-.46.02-.08.01-.14.04-.22.04-.1.11-.16.09-.29-.01-.06-.05-.12-.06-.19-.02-.11 0-.22 0-.34 0-.2.02-.38-.08-.55-.38-.69-1.24-.93-1.97-.79-.18.03-.29.13-.44.21-.17.09-.14.17-.32.22-.08.03-.22.12-.21.22 0 .12 0 .05.01.17-.02.01-.02 0-.03-.03" class="st2"/></g><g><path d="M69.44-71.65c.02.07.01.13-.03.19-.05.1-.11.06-.17.13-.05.06-.1.28-.08.36-.17.06-.01.23-.02.35 0 .05-.04.11-.04.16-.01.12.02.27.07.37.1.2.27.41.43.54.19.15.36.57.61.63.18.04.38-.1.54-.14.18-.04.4.01.57-.05.22-.08.13-.34.29-.45.1-.07.29-.01.41-.05.2-.07.34-.26.38-.46.02-.08.01-.14.04-.22.04-.1.11-.16.09-.29-.01-.06-.05-.12-.06-.19-.02-.11 0-.22 0-.34 0-.2.02-.38-.08-.55-.38-.69-1.24-.93-1.97-.79-.18.03-.29.13-.44.21-.17.09-.14.17-.32.22-.08.03-.22.12-.21.22 0 .12 0 .05.01.17-.02.01-.02 0-.03-.03" class="st2"/></g><path d="M.5-71.65c.02.07.01.13-.03.19-.05.1-.11.06-.17.13-.05.06-.1.28-.08.36-.17.06-.01.23-.02.35 0 .05-.04.11-.04.16-.01.12.02.27.07.37.1.2.27.41.44.54.19.15.36.57.61.63.18.04.38-.1.54-.14.18-.04.4.01.57-.05.22-.08.13-.34.29-.45.1-.07.29-.01.41-.05.2-.07.34-.26.38-.46.02-.08.01-.14.04-.22.04-.1.11-.16.09-.29-.01-.06-.05-.12-.06-.19-.02-.11 0-.22 0-.34 0-.2.02-.38-.08-.55-.38-.69-1.24-.93-1.97-.79-.18.03-.29.13-.44.21-.17.09-.14.17-.32.22-.08.03-.22.12-.21.22 0 .12 0 .05.01.17-.02.01-.02 0-.03-.03" class="st2"/><g><g><path d="M69.44-64c.02.07.01.13-.03.19-.05.1-.11.06-.17.13-.05.06-.1.28-.08.36-.17.06-.01.23-.02.35 0 .05-.04.11-.04.16-.01.12.02.27.07.37.1.2.27.41.43.54.19.15.36.57.61.63.18.04.38-.1.54-.14.18-.04.4.01.57-.05.22-.08.13-.34.29-.45.1-.07.29-.01.41-.05.2-.07.34-.26.38-.46.02-.08.01-.14.04-.22.04-.1.11-.16.09-.29-.01-.06-.05-.12-.06-.19-.02-.11 0-.22 0-.34 0-.2.02-.38-.08-.55-.38-.69-1.24-.93-1.97-.79-.18.03-.29.13-.44.21-.17.09-.14.17-.32.22-.08.03-.22.12-.21.22 0 .12 0 .05.01.17-.02.01-.02 0-.03-.03M61.78-64c.02.07.01.13-.03.19-.05.1-.11.06-.17.13-.05.06-.1.28-.08.36-.17.06-.01.23-.02.35 0 .05-.04.11-.04.16-.01.12.02.27.07.37.1.2.27.41.44.54.19.15.36.57.61.63.18.04.38-.1.54-.14.18-.04.4.01.57-.05.22-.08.13-.34.29-.45.1-.07.29-.01.41-.05.2-.07.34-.26.38-.46.02-.08.01-.14.04-.22.04-.1.11-.16.09-.29-.01-.06-.05-.12-.06-.19-.02-.11 0-.22 0-.34 0-.2.02-.38-.08-.55-.38-.69-1.24-.93-1.97-.79-.18.03-.29.13-.44.21-.17.09-.14.17-.32.22-.08.03-.22.12-.21.22 0 .12 0 .05.01.17-.02.01-.02 0-.03-.03M54.12-64c.02.07.01.13-.03.19-.05.1-.11.06-.17.13-.05.06-.1.28-.08.36-.17.06-.01.23-.02.35 0 .05-.04.11-.04.16-.01.12.02.27.07.37.1.2.27.41.44.54.19.15.36.57.61.63.18.04.38-.1.54-.14.18-.04.4.01.57-.05.22-.08.13-.34.29-.45.1-.07.29-.01.41-.05.2-.07.34-.26.38-.46.02-.08.01-.14.04-.22.04-.1.11-.16.09-.29-.01-.06-.05-.12-.06-.19-.02-.11 0-.22 0-.34 0-.2.02-.38-.08-.55-.38-.69-1.24-.93-1.97-.79-.18.03-.29.13-.44.21-.17.09-.14.17-.32.22-.08.03-.22.12-.21.22 0 .12 0 .05.01.17-.02.01-.02 0-.03-.03M46.46-64c.02.07.01.13-.03.19-.05.1-.11.06-.16.13-.05.06-.1.28-.08.36-.17.06-.01.23-.02.35 0 .05-.04.11-.05.16-.01.12.02.27.07.37.1.2.27.41.44.54.19.15.36.57.61.63.18.04.38-.1.54-.14.18-.04.4.01.57-.05.22-.08.13-.34.29-.45.1-.07.29-.01.41-.05.2-.07.34-.26.38-.46.02-.08.01-.14.04-.22.04-.1.11-.16.09-.29-.01-.06-.05-.12-.06-.19-.02-.11 0-.22 0-.34 0-.2.02-.38-.08-.55-.38-.69-1.24-.93-1.97-.79-.18.03-.29.13-.44.21-.17.09-.14.17-.32.22-.08.03-.22.12-.21.22 0 .12 0 .05.01.17-.02.01-.02 0-.03-.03M38.8-64c.02.07.01.13-.03.19-.05.1-.11.06-.17.13-.05.06-.1.28-.08.36-.17.06-.01.23-.02.35 0 .05-.04.11-.04.16-.01.12.02.27.07.37.1.2.27.41.44.54.19.15.36.57.61.63.18.04.38-.1.54-.14.18-.04.4.01.57-.05.22-.08.13-.34.29-.45.1-.07.29-.01.41-.05.2-.07.34-.26.38-.46.02-.08.01-.14.04-.22.04-.1.11-.16.09-.29-.01-.06-.05-.12-.06-.19-.02-.11 0-.22 0-.34 0-.2.02-.38-.08-.55-.38-.69-1.24-.93-1.97-.79-.18.03-.29.13-.44.21-.17.09-.14.17-.32.22-.08.03-.22.12-.21.22 0 .12 0 .05.01.17-.02.01-.02 0-.03-.03M31.14-64c.02.07.01.13-.03.19-.05.1-.11.06-.16.13-.05.06-.1.28-.08.36-.17.06-.01.23-.02.35 0 .05-.04.11-.05.16-.01.12.02.27.07.37.1.2.27.41.44.54.19.15.36.57.61.63.18.04.38-.1.54-.14.18-.04.4.01.57-.05.22-.08.13-.34.29-.45.1-.07.29-.01.41-.05.2-.07.34-.26.38-.46.02-.08.01-.14.04-.22.04-.1.11-.16.09-.29-.01-.06-.05-.12-.06-.19-.02-.11 0-.22 0-.34 0-.2.02-.38-.08-.55-.38-.69-1.24-.93-1.97-.79-.18.03-.29.13-.44.21-.17.09-.14.17-.32.22-.08.03-.22.12-.21.22 0 .12 0 .05.01.17-.02.01-.02 0-.03-.03M23.48-64c.02.07.01.13-.03.19-.05.1-.11.06-.17.13-.05.06-.1.28-.08.36-.17.06-.01.23-.02.35 0 .05-.04.11-.04.16-.01.12.02.27.07.37.1.2.27.41.44.54.19.15.36.57.61.63.18.04.38-.1.54-.14.18-.04.4.01.57-.05.22-.08.13-.34.29-.45.1-.07.29-.01.41-.05.2-.07.34-.26.38-.46.02-.08.01-.14.04-.22.04-.1.11-.16.09-.29-.01-.06-.05-.12-.06-.19-.02-.11 0-.22 0-.34 0-.2.02-.38-.08-.55-.38-.69-1.24-.93-1.97-.79-.18.03-.29.13-.44.21-.17.09-.14.17-.32.22-.08.03-.22.12-.21.22 0 .12 0 .05.01.17-.02.01-.02 0-.03-.03M15.82-64c.02.07.01.13-.03.19-.05.1-.11.06-.16.13-.05.06-.1.28-.08.36-.17.06-.01.23-.02.35 0 .05-.04.11-.05.16-.01.12.02.27.07.37.1.2.27.41.44.54.19.15.36.57.61.63.18.04.38-.1.54-.14.18-.04.4.01.57-.05.22-.08.13-.34.29-.45.1-.07.29-.01.41-.05.2-.07.34-.26.38-.46.02-.08.01-.14.04-.22.04-.1.11-.16.09-.29-.01-.06-.05-.12-.06-.19-.02-.11 0-.22 0-.34 0-.2.02-.38-.08-.55-.38-.69-1.24-.93-1.97-.79-.18.03-.29.13-.44.21-.17.09-.14.17-.32.22-.08.03-.22.12-.21.22 0 .12 0 .05.01.17-.02.01-.02 0-.03-.03M8.16-64c.02.07.01.13-.03.19-.05.1-.11.06-.17.13-.05.06-.1.28-.08.36-.17.06-.01.23-.02.35 0 .05-.04.11-.04.16-.01.12.02.27.07.37.1.2.27.41.44.54.19.15.36.57.61.63.18.04.38-.1.54-.14.18-.04.4.01.57-.05.22-.08.13-.34.29-.45.1-.07.29-.01.41-.05.2-.07.34-.26.38-.46.02-.08.01-.14.04-.22.04-.1.11-.16.09-.29-.01-.06-.05-.12-.06-.19-.02-.11 0-.22 0-.34 0-.2.02-.38-.08-.55-.38-.69-1.24-.93-1.97-.79-.18.03-.29.13-.44.21-.17.09-.14.17-.32.22-.08.03-.22.12-.21.22 0 .12 0 .05.01.17-.02.01-.02 0-.03-.03M.5-64c.02.07.01.13-.03.19-.05.1-.11.06-.17.13-.05.06-.1.28-.08.36-.17.06-.01.23-.02.35 0 .05-.04.11-.04.16-.01.12.02.27.07.37.1.2.27.41.44.54.19.15.36.57.61.63.18.04.38-.1.54-.14.18-.04.4.01.57-.05.22-.08.13-.34.29-.45.1-.07.29-.01.41-.05.2-.07.34-.26.38-.46.02-.08.01-.14.04-.22.04-.1.11-.16.09-.29-.02-.07-.06-.12-.07-.19-.02-.11 0-.22 0-.34 0-.2.02-.38-.08-.55-.38-.69-1.24-.93-1.97-.79-.18.03-.29.13-.44.21-.17.09-.14.17-.32.22-.08.03-.22.12-.21.22 0 .12 0 .05.01.17-.02.01-.02 0-.03-.03" class="st2"/></g><g><path d="M69.44-56.35c.02.07.01.13-.03.19-.05.1-.11.06-.17.13-.05.06-.1.28-.08.36-.17.06-.01.23-.02.35 0 .05-.04.11-.04.16-.01.12.02.27.07.37.1.2.27.41.43.54.19.15.36.57.61.63.18.04.38-.1.54-.14.18-.04.4.01.57-.05.22-.08.13-.34.29-.45.1-.07.29-.01.41-.05.2-.07.34-.26.38-.46.02-.08.01-.14.04-.22.04-.1.11-.16.09-.29-.01-.06-.05-.12-.06-.19-.02-.11 0-.22 0-.34 0-.2.02-.38-.08-.55-.38-.69-1.24-.93-1.97-.79-.18.03-.29.13-.44.21-.17.09-.14.17-.32.22-.08.03-.22.12-.21.22 0 .12 0 .05.01.17-.02.01-.02 0-.03-.03M61.78-56.35c.02.07.01.13-.03.19-.05.1-.11.06-.17.13-.05.06-.1.28-.08.36-.17.06-.01.23-.02.35 0 .05-.04.11-.04.16-.01.12.02.27.07.37.1.2.27.41.44.54.19.15.36.57.61.63.18.04.38-.1.54-.14.18-.04.4.01.57-.05.22-.08.13-.34.29-.45.1-.07.29-.01.41-.05.2-.07.34-.26.38-.46.02-.08.01-.14.04-.22.04-.1.11-.16.09-.29-.01-.06-.05-.12-.06-.19-.02-.11 0-.22 0-.34 0-.2.02-.38-.08-.55-.38-.69-1.24-.93-1.97-.79-.18.03-.29.13-.44.21-.17.09-.14.17-.32.22-.08.03-.22.12-.21.22 0 .12 0 .05.01.17-.02.01-.02 0-.03-.03M54.12-56.35c.02.07.01.13-.03.19-.05.1-.11.06-.17.13-.05.06-.1.28-.08.36-.17.06-.01.23-.02.35 0 .05-.04.11-.04.16-.01.12.02.27.07.37.1.2.27.41.44.54.19.15.36.57.61.63.18.04.38-.1.54-.14.18-.04.4.01.57-.05.22-.08.13-.34.29-.45.1-.07.29-.01.41-.05.2-.07.34-.26.38-.46.02-.08.01-.14.04-.22.04-.1.11-.16.09-.29-.01-.06-.05-.12-.06-.19-.02-.11 0-.22 0-.34 0-.2.02-.38-.08-.55-.38-.69-1.24-.93-1.97-.79-.18.03-.29.13-.44.21-.17.09-.14.17-.32.22-.08.03-.22.12-.21.22 0 .12 0 .05.01.17-.02.01-.02 0-.03-.03M46.46-56.35c.02.07.01.13-.03.19-.05.1-.11.06-.16.13-.05.06-.1.28-.08.36-.17.06-.01.23-.02.35 0 .05-.04.11-.05.16-.01.12.02.27.07.37.1.2.27.41.44.54.19.15.36.57.61.63.18.04.38-.1.54-.14.18-.04.4.01.57-.05.22-.08.13-.34.29-.45.1-.07.29-.01.41-.05.2-.07.34-.26.38-.46.02-.08.01-.14.04-.22.04-.1.11-.16.09-.29-.01-.06-.05-.12-.06-.19-.02-.11 0-.22 0-.34 0-.2.02-.38-.08-.55-.38-.69-1.24-.93-1.97-.79-.18.03-.29.13-.44.21-.17.09-.14.17-.32.22-.08.03-.22.12-.21.22 0 .12 0 .05.01.17-.02.01-.02 0-.03-.03M38.8-56.35c.02.07.01.13-.03.19-.05.1-.11.06-.17.13-.05.06-.1.28-.08.36-.17.06-.01.23-.02.35 0 .05-.04.11-.04.16-.01.12.02.27.07.37.1.2.27.41.44.54.19.15.36.57.61.63.18.04.38-.1.54-.14.18-.04.4.01.57-.05.22-.08.13-.34.29-.45.1-.07.29-.01.41-.05.2-.07.34-.26.38-.46.02-.08.01-.14.04-.22.04-.1.11-.16.09-.29-.01-.06-.05-.12-.06-.19-.02-.11 0-.22 0-.34 0-.2.02-.38-.08-.55-.38-.69-1.24-.93-1.97-.79-.18.03-.29.13-.44.21-.17.09-.14.17-.32.22-.08.03-.22.12-.21.22 0 .12 0 .05.01.17-.02.01-.02 0-.03-.03M31.14-56.35c.02.07.01.13-.03.19-.05.1-.11.06-.16.13-.05.06-.1.28-.08.36-.17.06-.01.23-.02.35 0 .05-.04.11-.05.16-.01.12.02.27.07.37.1.2.27.41.44.54.19.15.36.57.61.63.18.04.38-.1.54-.14.18-.04.4.01.57-.05.22-.08.13-.34.29-.45.1-.07.29-.01.41-.05.2-.07.34-.26.38-.46.02-.08.01-.14.04-.22.04-.1.11-.16.09-.29-.01-.06-.05-.12-.06-.19-.02-.11 0-.22 0-.34 0-.2.02-.38-.08-.55-.38-.69-1.24-.93-1.97-.79-.18.03-.29.13-.44.21-.17.09-.14.17-.32.22-.08.03-.22.12-.21.22 0 .12 0 .05.01.17-.02.01-.02 0-.03-.03M23.48-56.35c.02.07.01.13-.03.19-.05.1-.11.06-.17.13-.05.06-.1.28-.08.36-.17.06-.01.23-.02.35 0 .05-.04.11-.04.16-.01.12.02.27.07.37.1.2.27.41.44.54.19.15.36.57.61.63.18.04.38-.1.54-.14.18-.04.4.01.57-.05.22-.08.13-.34.29-.45.1-.07.29-.01.41-.05.2-.07.34-.26.38-.46.02-.08.01-.14.04-.22.04-.1.11-.16.09-.29-.01-.06-.05-.12-.06-.19-.02-.11 0-.22 0-.34 0-.2.02-.38-.08-.55-.38-.69-1.24-.93-1.97-.79-.18.03-.29.13-.44.21-.17.09-.14.17-.32.22-.08.03-.22.12-.21.22 0 .12 0 .05.01.17-.02.01-.02 0-.03-.03M15.82-56.35c.02.07.01.13-.03.19-.05.1-.11.06-.16.13-.05.06-.1.28-.08.36-.17.06-.01.23-.02.35 0 .05-.04.11-.05.16-.01.12.02.27.07.37.1.2.27.41.44.54.19.15.36.57.61.63.18.04.38-.1.54-.14.18-.04.4.01.57-.05.22-.08.13-.34.29-.45.1-.07.29-.01.41-.05.2-.07.34-.26.38-.46.02-.08.01-.14.04-.22.04-.1.11-.16.09-.29-.01-.06-.05-.12-.06-.19-.02-.11 0-.22 0-.34 0-.2.02-.38-.08-.55-.38-.69-1.24-.93-1.97-.79-.18.03-.29.13-.44.21-.17.09-.14.17-.32.22-.08.03-.22.12-.21.22 0 .12 0 .05.01.17-.02.01-.02 0-.03-.03M8.16-56.35c.02.07.01.13-.03.19-.05.1-.11.06-.17.13-.05.06-.1.28-.08.36-.17.06-.01.23-.02.35 0 .05-.04.11-.04.16-.01.12.02.27.07.37.1.2.27.41.44.54.19.15.36.57.61.63.18.04.38-.1.54-.14.18-.04.4.01.57-.05.22-.08.13-.34.29-.45.1-.07.29-.01.41-.05.2-.07.34-.26.38-.46.02-.08.01-.14.04-.22.04-.1.11-.16.09-.29-.01-.06-.05-.12-.06-.19-.02-.11 0-.22 0-.34 0-.2.02-.38-.08-.55-.38-.69-1.24-.93-1.97-.79-.18.03-.29.13-.44.21-.17.09-.14.17-.32.22-.08.03-.22.12-.21.22 0 .12 0 .05.01.17-.02.01-.02 0-.03-.03M.5-56.35c.02.07.01.13-.03.19-.05.1-.11.06-.17.13-.05.06-.1.28-.08.36-.17.06-.01.23-.02.35 0 .05-.04.11-.04.16-.01.12.02.27.07.37.1.2.27.41.44.54.19.15.36.57.61.63.18.04.38-.1.54-.14.18-.04.4.01.57-.05.22-.08.13-.34.29-.45.1-.07.29-.01.41-.05.2-.07.34-.26.38-.46.02-.08.01-.14.04-.22.04-.1.11-.16.09-.29-.01-.06-.05-.12-.06-.19-.02-.11 0-.22 0-.34 0-.2.02-.38-.08-.55-.38-.69-1.24-.93-1.97-.79-.18.03-.29.13-.44.21-.17.09-.14.17-.32.22-.08.03-.22.12-.21.22 0 .12 0 .05.01.17-.02.01-.02 0-.03-.03" class="st2"/></g><g><path d="M69.44-48.7c.02.07.01.13-.03.19-.05.1-.11.06-.17.13-.05.06-.1.28-.08.36-.17.06-.01.23-.02.35 0 .05-.04.11-.04.16-.01.12.02.27.07.37.1.2.27.41.43.54.19.15.36.57.61.63.18.04.38-.1.54-.14.18-.04.4.01.57-.05.22-.08.13-.34.29-.45.1-.07.29-.01.41-.05.2-.07.34-.26.38-.46.02-.08.01-.14.04-.22.04-.1.11-.16.09-.29-.01-.06-.05-.12-.06-.19-.02-.11 0-.22 0-.34 0-.2.02-.38-.08-.55-.38-.69-1.24-.93-1.97-.79-.18.03-.29.13-.44.21-.17.09-.14.17-.32.22-.08.03-.22.12-.21.22 0 .12 0 .05.01.17-.02.01-.02 0-.03-.03M61.78-48.7c.02.07.01.13-.03.19-.05.1-.11.06-.17.13-.05.06-.1.28-.08.36-.17.06-.01.23-.02.35 0 .05-.04.11-.04.16-.01.12.02.27.07.37.1.2.27.41.44.54.19.15.36.57.61.63.18.04.38-.1.54-.14.18-.04.4.01.57-.05.22-.08.13-.34.29-.45.1-.07.29-.01.41-.05.2-.07.34-.26.38-.46.02-.08.01-.14.04-.22.04-.1.11-.16.09-.29-.01-.06-.05-.12-.06-.19-.02-.11 0-.22 0-.34 0-.2.02-.38-.08-.55-.38-.69-1.24-.93-1.97-.79-.18.03-.29.13-.44.21-.17.09-.14.17-.32.22-.08.03-.22.12-.21.22 0 .12 0 .05.01.17-.02.01-.02 0-.03-.03M54.12-48.7c.02.07.01.13-.03.19-.05.1-.11.06-.17.13-.05.06-.1.28-.08.36-.17.06-.01.23-.02.35 0 .05-.04.11-.04.16-.01.12.02.27.07.37.1.2.27.41.44.54.19.15.36.57.61.63.18.04.38-.1.54-.14.18-.04.4.01.57-.05.22-.08.13-.34.29-.45.1-.07.29-.01.41-.05.2-.07.34-.26.38-.46.02-.08.01-.14.04-.22.04-.1.11-.16.09-.29-.01-.06-.05-.12-.06-.19-.02-.11 0-.22 0-.34 0-.2.02-.38-.08-.55-.38-.69-1.24-.93-1.97-.79-.18.03-.29.13-.44.21-.17.09-.14.17-.32.22-.08.03-.22.12-.21.22 0 .12 0 .05.01.17-.02.01-.02 0-.03-.03M46.46-48.7c.02.07.01.13-.03.19-.05.1-.11.06-.16.13-.05.06-.1.28-.08.36-.17.06-.01.23-.02.35 0 .05-.04.11-.05.16-.01.12.02.27.07.37.1.2.27.41.44.54.19.15.36.57.61.63.18.04.38-.1.54-.14.18-.04.4.01.57-.05.22-.08.13-.34.29-.45.1-.07.29-.01.41-.05.2-.07.34-.26.38-.46.02-.08.01-.14.04-.22.04-.1.11-.16.09-.29-.01-.06-.05-.12-.06-.19-.02-.11 0-.22 0-.34 0-.2.02-.38-.08-.55-.38-.69-1.24-.93-1.97-.79-.18.03-.29.13-.44.21-.17.09-.14.17-.32.22-.08.03-.22.12-.21.22 0 .12 0 .05.01.17-.02.01-.02 0-.03-.03M38.8-48.7c.02.07.01.13-.03.19-.05.1-.11.06-.17.13-.05.06-.1.28-.08.36-.17.06-.01.23-.02.35 0 .05-.04.11-.04.16-.01.12.02.27.07.37.1.2.27.41.44.54.19.15.36.57.61.63.18.04.38-.1.54-.14.18-.04.4.01.57-.05.22-.08.13-.34.29-.45.1-.07.29-.01.41-.05.2-.07.34-.26.38-.46.02-.08.01-.14.04-.22.04-.1.11-.16.09-.29-.01-.06-.05-.12-.06-.19-.02-.11 0-.22 0-.34 0-.2.02-.38-.08-.55-.38-.69-1.24-.93-1.97-.79-.18.03-.29.13-.44.21-.17.09-.14.17-.32.22-.08.03-.22.12-.21.22 0 .12 0 .05.01.17-.02.01-.02 0-.03-.03M31.14-48.7c.02.07.01.13-.03.19-.05.1-.11.06-.16.13-.05.06-.1.28-.08.36-.17.06-.01.23-.02.35 0 .05-.04.11-.05.16-.01.12.02.27.07.37.1.2.27.41.44.54.19.15.36.57.61.63.18.04.38-.1.54-.14.18-.04.4.01.57-.05.22-.08.13-.34.29-.45.1-.07.29-.01.41-.05.2-.07.34-.26.38-.46.02-.08.01-.14.04-.22.04-.1.11-.16.09-.29-.01-.06-.05-.12-.06-.19-.02-.11 0-.22 0-.34 0-.2.02-.38-.08-.55-.38-.69-1.24-.93-1.97-.79-.18.03-.29.13-.44.21-.17.09-.14.17-.32.22-.08.03-.22.12-.21.22 0 .12 0 .05.01.17-.02.01-.02 0-.03-.03M23.48-48.7c.02.07.01.13-.03.19-.05.1-.11.06-.17.13-.05.06-.1.28-.08.36-.17.06-.01.23-.02.35 0 .05-.04.11-.04.16-.01.12.02.27.07.37.1.2.27.41.44.54.19.15.36.57.61.63.18.04.38-.1.54-.14.18-.04.4.01.57-.05.22-.08.13-.34.29-.45.1-.07.29-.01.41-.05.2-.07.34-.26.38-.46.02-.08.01-.14.04-.22.04-.1.11-.16.09-.29-.01-.06-.05-.12-.06-.19-.02-.11 0-.22 0-.34 0-.2.02-.38-.08-.55-.38-.69-1.24-.93-1.97-.79-.18.03-.29.13-.44.21-.17.09-.14.17-.32.22-.08.03-.22.12-.21.22 0 .12 0 .05.01.17-.02.01-.02 0-.03-.03M15.82-48.7c.02.07.01.13-.03.19-.05.1-.11.06-.16.13-.05.06-.1.28-.08.36-.17.06-.01.23-.02.35 0 .05-.04.11-.05.16-.01.12.02.27.07.37.1.2.27.41.44.54.19.15.36.57.61.63.18.04.38-.1.54-.14.18-.04.4.01.57-.05.22-.08.13-.34.29-.45.1-.07.29-.01.41-.05.2-.07.34-.26.38-.46.02-.08.01-.14.04-.22.04-.1.11-.16.09-.29-.01-.06-.05-.12-.06-.19-.02-.11 0-.22 0-.34 0-.2.02-.38-.08-.55-.38-.69-1.24-.93-1.97-.79-.18.03-.29.13-.44.21-.17.09-.14.17-.32.22-.08.03-.22.12-.21.22 0 .12 0 .05.01.17-.02.01-.02 0-.03-.03M8.16-48.7c.02.07.01.13-.03.19-.05.1-.11.06-.17.13-.05.06-.1.28-.08.36-.17.06-.01.23-.02.35 0 .05-.04.11-.04.16-.01.12.02.27.07.37.1.2.27.41.44.54.19.15.36.57.61.63.18.04.38-.1.54-.14.18-.04.4.01.57-.05.22-.08.13-.34.29-.45.1-.07.29-.01.41-.05.2-.07.34-.26.38-.46.02-.08.01-.14.04-.22.04-.1.11-.16.09-.29-.01-.06-.05-.12-.06-.19-.02-.11 0-.22 0-.34 0-.2.02-.38-.08-.55-.38-.69-1.24-.93-1.97-.79-.18.03-.29.13-.44.21-.17.09-.14.17-.32.22-.08.03-.22.12-.21.22 0 .12 0 .05.01.17-.02.01-.02 0-.03-.03M.5-48.7c.02.07.01.13-.03.19-.05.1-.11.06-.17.13-.05.06-.1.28-.08.36-.17.06-.01.23-.02.35 0 .05-.04.11-.04.16-.01.12.02.27.07.37.1.2.27.41.44.54.19.15.36.57.61.63.18.04.38-.1.54-.14.18-.04.4.01.57-.05.22-.08.13-.34.29-.45.1-.07.29-.01.41-.05.2-.07.34-.26.38-.46.02-.08.01-.14.04-.22.04-.1.11-.16.09-.29-.01-.06-.05-.12-.06-.19-.02-.11 0-.22 0-.34 0-.2.02-.38-.08-.55-.38-.69-1.24-.93-1.97-.79-.18.03-.29.13-.44.21-.17.09-.14.17-.32.22-.08.03-.22.12-.21.22 0 .12 0 .05.01.17-.02.01-.02 0-.03-.03" class="st2"/></g><g><path d="M69.44-41.04c.02.07.01.13-.03.19-.05.1-.11.06-.17.13-.05.06-.1.28-.08.36-.17.06-.01.23-.02.35 0 .05-.04.11-.04.16-.01.12.02.27.07.37.1.2.27.41.43.54.19.15.36.57.61.63.18.04.38-.1.54-.14.18-.04.4.01.57-.05.22-.08.13-.34.29-.45.1-.07.29-.01.41-.05.2-.07.34-.26.38-.46.02-.08.01-.14.04-.22.04-.1.11-.16.09-.29-.01-.06-.05-.12-.06-.19-.02-.11 0-.22 0-.34 0-.2.02-.38-.08-.55-.38-.69-1.24-.93-1.97-.79-.18.03-.29.13-.44.21-.17.09-.14.17-.32.22-.08.03-.22.12-.21.22 0 .12 0 .05.01.17-.02.01-.02 0-.03-.03M61.78-41.04c.02.07.01.13-.03.19-.05.1-.11.06-.17.13-.05.06-.1.28-.08.36-.17.06-.01.23-.02.35 0 .05-.04.11-.04.16-.01.12.02.27.07.37.1.2.27.41.44.54.19.15.36.57.61.63.18.04.38-.1.54-.14.18-.04.4.01.57-.05.22-.08.13-.34.29-.45.1-.07.29-.01.41-.05.2-.07.34-.26.38-.46.02-.08.01-.14.04-.22.04-.1.11-.16.09-.29-.01-.06-.05-.12-.06-.19-.02-.11 0-.22 0-.34 0-.2.02-.38-.08-.55-.38-.69-1.24-.93-1.97-.79-.18.03-.29.13-.44.21-.17.09-.14.17-.32.22-.08.03-.22.12-.21.22 0 .12 0 .05.01.17-.02.01-.02 0-.03-.03M54.12-41.04c.02.07.01.13-.03.19-.05.1-.11.06-.17.13-.05.06-.1.28-.08.36-.17.06-.01.23-.02.35 0 .05-.04.11-.04.16-.01.12.02.27.07.37.1.2.27.41.44.54.19.15.36.57.61.63.18.04.38-.1.54-.14.18-.04.4.01.57-.05.22-.08.13-.34.29-.45.1-.07.29-.01.41-.05.2-.07.34-.26.38-.46.02-.08.01-.14.04-.22.04-.1.11-.16.09-.29-.01-.06-.05-.12-.06-.19-.02-.11 0-.22 0-.34 0-.2.02-.38-.08-.55-.38-.69-1.24-.93-1.97-.79-.18.03-.29.13-.44.21-.17.09-.14.17-.32.22-.08.03-.22.12-.21.22 0 .12 0 .05.01.17-.02.01-.02 0-.03-.03M46.46-41.04c.02.07.01.13-.03.19-.05.1-.11.06-.16.13-.05.06-.1.28-.08.36-.17.06-.01.23-.02.35 0 .05-.04.11-.05.16-.01.12.02.27.07.37.1.2.27.41.44.54.19.15.36.57.61.63.18.04.38-.1.54-.14.18-.04.4.01.57-.05.22-.08.13-.34.29-.45.1-.07.29-.01.41-.05.2-.07.34-.26.38-.46.02-.08.01-.14.04-.22.04-.1.11-.16.09-.29-.01-.06-.05-.12-.06-.19-.02-.11 0-.22 0-.34 0-.2.02-.38-.08-.55-.38-.69-1.24-.93-1.97-.79-.18.03-.29.13-.44.21-.17.09-.14.17-.32.22-.08.03-.22.12-.21.22 0 .12 0 .05.01.17-.02.01-.02 0-.03-.03M38.8-41.04c.02.07.01.13-.03.19-.05.1-.11.06-.17.13-.05.06-.1.28-.08.36-.17.06-.01.23-.02.35 0 .05-.04.11-.04.16-.01.12.02.27.07.37.1.2.27.41.44.54.19.15.36.57.61.63.18.04.38-.1.54-.14.18-.04.4.01.57-.05.22-.08.13-.34.29-.45.1-.07.29-.01.41-.05.2-.07.34-.26.38-.46.02-.08.01-.14.04-.22.04-.1.11-.16.09-.29-.01-.06-.05-.12-.06-.19-.02-.11 0-.22 0-.34 0-.2.02-.38-.08-.55-.38-.69-1.24-.93-1.97-.79-.18.03-.29.13-.44.21-.17.09-.14.17-.32.22-.08.03-.22.12-.21.22 0 .12 0 .05.01.17-.02.01-.02 0-.03-.03M31.14-41.04c.02.07.01.13-.03.19-.05.1-.11.06-.16.13-.05.06-.1.28-.08.36-.17.06-.01.23-.02.35 0 .05-.04.11-.05.16-.01.12.02.27.07.37.1.2.27.41.44.54.19.15.36.57.61.63.18.04.38-.1.54-.14.18-.04.4.01.57-.05.22-.08.13-.34.29-.45.1-.07.29-.01.41-.05.2-.07.34-.26.38-.46.02-.08.01-.14.04-.22.04-.1.11-.16.09-.29-.01-.06-.05-.12-.06-.19-.02-.11 0-.22 0-.34 0-.2.02-.38-.08-.55-.38-.69-1.24-.93-1.97-.79-.18.03-.29.13-.44.21-.17.09-.14.17-.32.22-.08.03-.22.12-.21.22 0 .12 0 .05.01.17-.02.01-.02 0-.03-.03M23.48-41.04c.02.07.01.13-.03.19-.05.1-.11.06-.17.13-.05.06-.1.28-.08.36-.17.06-.01.23-.02.35 0 .05-.04.11-.04.16-.01.12.02.27.07.37.1.2.27.41.44.54.19.15.36.57.61.63.18.04.38-.1.54-.14.18-.04.4.01.57-.05.22-.08.13-.34.29-.45.1-.07.29-.01.41-.05.2-.07.34-.26.38-.46.02-.08.01-.14.04-.22.04-.1.11-.16.09-.29-.01-.06-.05-.12-.06-.19-.02-.11 0-.22 0-.34 0-.2.02-.38-.08-.55-.38-.69-1.24-.93-1.97-.79-.18.03-.29.13-.44.21-.17.09-.14.17-.32.22-.08.03-.22.12-.21.22 0 .12 0 .05.01.17-.02.01-.02 0-.03-.03M15.82-41.04c.02.07.01.13-.03.19-.05.1-.11.06-.16.13-.05.06-.1.28-.08.36-.17.06-.01.23-.02.35 0 .05-.04.11-.05.16-.01.12.02.27.07.37.1.2.27.41.44.54.19.15.36.57.61.63.18.04.38-.1.54-.14.18-.04.4.01.57-.05.22-.08.13-.34.29-.45.1-.07.29-.01.41-.05.2-.07.34-.26.38-.46.02-.08.01-.14.04-.22.04-.1.11-.16.09-.29-.01-.06-.05-.12-.06-.19-.02-.11 0-.22 0-.34 0-.2.02-.38-.08-.55-.38-.69-1.24-.93-1.97-.79-.18.03-.29.13-.44.21-.17.09-.14.17-.32.22-.08.03-.22.12-.21.22 0 .12 0 .05.01.17-.02.01-.02 0-.03-.03M8.16-41.04c.02.07.01.13-.03.19-.05.1-.11.06-.17.13-.05.06-.1.28-.08.36-.17.06-.01.23-.02.35 0 .05-.04.11-.04.16-.01.12.02.27.07.37.1.2.27.41.44.54.19.15.36.57.61.63.18.04.38-.1.54-.14.18-.04.4.01.57-.05.22-.08.13-.34.29-.45.1-.07.29-.01.41-.05.2-.07.34-.26.38-.46.02-.08.01-.14.04-.22.04-.1.11-.16.09-.29-.01-.06-.05-.12-.06-.19-.02-.11 0-.22 0-.34 0-.2.02-.38-.08-.55-.38-.69-1.24-.93-1.97-.79-.18.03-.29.13-.44.21-.17.09-.14.17-.32.22-.08.03-.22.12-.21.22 0 .12 0 .05.01.17-.02.01-.02 0-.03-.03M.5-41.04c.02.07.01.13-.03.19-.05.1-.11.06-.17.13-.05.06-.1.28-.08.36-.17.06-.01.23-.02.35 0 .05-.04.11-.04.16-.01.12.02.27.07.37.1.2.27.41.44.54.19.15.36.57.61.63.18.04.38-.1.54-.14.18-.04.4.01.57-.05.22-.08.13-.34.29-.45.1-.07.29-.01.41-.05.2-.07.34-.26.38-.46.02-.08.01-.14.04-.22.04-.1.11-.16.09-.29-.01-.06-.05-.12-.06-.19-.02-.11 0-.22 0-.34 0-.2.02-.38-.08-.55-.38-.69-1.24-.93-1.97-.79-.18.03-.29.13-.44.21-.17.09-.14.17-.32.22-.08.03-.22.12-.21.22 0 .12 0 .05.01.17-.02.01-.02 0-.03-.03" class="st2"/></g><g><path d="M69.44-33.39c.02.07.01.13-.03.19-.05.1-.11.06-.17.13-.05.06-.1.28-.08.36-.17.06-.01.23-.02.35 0 .05-.04.11-.04.16-.01.12.02.27.07.37.1.2.27.41.43.54.19.15.36.57.61.63.18.04.38-.1.54-.14.18-.04.4.01.57-.05.22-.08.13-.34.29-.45.1-.07.29-.01.41-.05.2-.07.34-.26.38-.46.02-.08.01-.14.04-.22.04-.1.11-.16.09-.29-.01-.06-.05-.12-.06-.19-.02-.11 0-.22 0-.34 0-.2.02-.38-.08-.55-.38-.69-1.24-.93-1.97-.79-.18.03-.29.13-.44.21-.17.09-.14.17-.32.22-.08.03-.22.12-.21.22 0 .12 0 .05.01.17-.02.01-.02 0-.03-.03M61.78-33.39c.02.07.01.13-.03.19-.05.1-.11.06-.17.13-.05.06-.1.28-.08.36-.17.06-.01.23-.02.35 0 .05-.04.11-.04.16-.01.12.02.27.07.37.1.2.27.41.44.54.19.15.36.57.61.63.18.04.38-.1.54-.14.18-.04.4.01.57-.05.22-.08.13-.34.29-.45.1-.07.29-.01.41-.05.2-.07.34-.26.38-.46.02-.08.01-.14.04-.22.04-.1.11-.16.09-.29-.01-.06-.05-.12-.06-.19-.02-.11 0-.22 0-.34 0-.2.02-.38-.08-.55-.38-.69-1.24-.93-1.97-.79-.18.03-.29.13-.44.21-.17.09-.14.17-.32.22-.08.03-.22.12-.21.22 0 .12 0 .05.01.17-.02.01-.02 0-.03-.03M54.12-33.39c.02.07.01.13-.03.19-.05.1-.11.06-.17.13-.05.06-.1.28-.08.36-.17.06-.01.23-.02.35 0 .05-.04.11-.04.16-.01.12.02.27.07.37.1.2.27.41.44.54.19.15.36.57.61.63.18.04.38-.1.54-.14.18-.04.4.01.57-.05.22-.08.13-.34.29-.45.1-.07.29-.01.41-.05.2-.07.34-.26.38-.46.02-.08.01-.14.04-.22.04-.1.11-.16.09-.29-.01-.06-.05-.12-.06-.19-.02-.11 0-.22 0-.34 0-.2.02-.38-.08-.55-.38-.69-1.24-.93-1.97-.79-.18.03-.29.13-.44.21-.17.09-.14.17-.32.22-.08.03-.22.12-.21.22 0 .12 0 .05.01.17-.02.01-.02 0-.03-.03M46.46-33.39c.02.07.01.13-.03.19-.05.1-.11.06-.16.13-.05.06-.1.28-.08.36-.17.06-.01.23-.02.35 0 .05-.04.11-.05.16-.01.12.02.27.07.37.1.2.27.41.44.54.19.15.36.57.61.63.18.04.38-.1.54-.14.18-.04.4.01.57-.05.22-.08.13-.34.29-.45.1-.07.29-.01.41-.05.2-.07.34-.26.38-.46.02-.08.01-.14.04-.22.04-.1.11-.16.09-.29-.01-.06-.05-.12-.06-.19-.02-.11 0-.22 0-.34 0-.2.02-.38-.08-.55-.38-.69-1.24-.93-1.97-.79-.18.03-.29.13-.44.21-.17.09-.14.17-.32.22-.08.03-.22.12-.21.22 0 .12 0 .05.01.17-.02.01-.02 0-.03-.03M38.8-33.39c.02.07.01.13-.03.19-.05.1-.11.06-.17.13-.05.06-.1.28-.08.36-.17.06-.01.23-.02.35 0 .05-.04.11-.04.16-.01.12.02.27.07.37.1.2.27.41.44.54.19.15.36.57.61.63.18.04.38-.1.54-.14.18-.04.4.01.57-.05.22-.08.13-.34.29-.45.1-.07.29-.01.41-.05.2-.07.34-.26.38-.46.02-.08.01-.14.04-.22.04-.1.11-.16.09-.29-.01-.06-.05-.12-.06-.19-.02-.11 0-.22 0-.34 0-.2.02-.38-.08-.55-.38-.69-1.24-.93-1.97-.79-.18.03-.29.13-.44.21-.17.09-.14.17-.32.22-.08.03-.22.12-.21.22 0 .12 0 .05.01.17-.02.01-.02 0-.03-.03M31.14-33.39c.02.07.01.13-.03.19-.05.1-.11.06-.16.13-.05.06-.1.28-.08.36-.17.06-.01.23-.02.35 0 .05-.04.11-.05.16-.01.12.02.27.07.37.1.2.27.41.44.54.19.15.36.57.61.63.18.04.38-.1.54-.14.18-.04.4.01.57-.05.22-.08.13-.34.29-.45.1-.07.29-.01.41-.05.2-.07.34-.26.38-.46.02-.08.01-.14.04-.22.04-.1.11-.16.09-.29-.01-.06-.05-.12-.06-.19-.02-.11 0-.22 0-.34 0-.2.02-.38-.08-.55-.38-.69-1.24-.93-1.97-.79-.18.03-.29.13-.44.21-.17.09-.14.17-.32.22-.08.03-.22.12-.21.22 0 .12 0 .05.01.17-.02.01-.02 0-.03-.03M23.48-33.39c.02.07.01.13-.03.19-.05.1-.11.06-.17.13-.05.06-.1.28-.08.36-.17.06-.01.23-.02.35 0 .05-.04.11-.04.16-.01.12.02.27.07.37.1.2.27.41.44.54.19.15.36.57.61.63.18.04.38-.1.54-.14.18-.04.4.01.57-.05.22-.08.13-.34.29-.45.1-.07.29-.01.41-.05.2-.07.34-.26.38-.46.02-.08.01-.14.04-.22.04-.1.11-.16.09-.29-.01-.06-.05-.12-.06-.19-.02-.11 0-.22 0-.34 0-.2.02-.38-.08-.55-.38-.69-1.24-.93-1.97-.79-.18.03-.29.13-.44.21-.17.09-.14.17-.32.22-.08.03-.22.12-.21.22 0 .12 0 .05.01.17-.02.01-.02 0-.03-.03M15.82-33.39c.02.07.01.13-.03.19-.05.1-.11.06-.16.13-.05.06-.1.28-.08.36-.17.06-.01.23-.02.35 0 .05-.04.11-.05.16-.01.12.02.27.07.37.1.2.27.41.44.54.19.15.36.57.61.63.18.04.38-.1.54-.14.18-.04.4.01.57-.05.22-.08.13-.34.29-.45.1-.07.29-.01.41-.05.2-.07.34-.26.38-.46.02-.08.01-.14.04-.22.04-.1.11-.16.09-.29-.01-.06-.05-.12-.06-.19-.02-.11 0-.22 0-.34 0-.2.02-.38-.08-.55-.38-.69-1.24-.93-1.97-.79-.18.03-.29.13-.44.21-.17.09-.14.17-.32.22-.08.03-.22.12-.21.22 0 .12 0 .05.01.17-.02.01-.02 0-.03-.03M8.16-33.39c.02.07.01.13-.03.19-.05.1-.11.06-.17.13-.05.06-.1.28-.08.36-.17.06-.01.23-.02.35 0 .05-.04.11-.04.16-.01.12.02.27.07.37.1.2.27.41.44.54.19.15.36.57.61.63.18.04.38-.1.54-.14.18-.04.4.01.57-.05.22-.08.13-.34.29-.45.1-.07.29-.01.41-.05.2-.07.34-.26.38-.46.02-.08.01-.14.04-.22.04-.1.11-.16.09-.29-.01-.06-.05-.12-.06-.19-.02-.11 0-.22 0-.34 0-.2.02-.38-.08-.55-.38-.69-1.24-.93-1.97-.79-.18.03-.29.13-.44.21-.17.09-.14.17-.32.22-.08.03-.22.12-.21.22 0 .12 0 .05.01.17-.02.01-.02 0-.03-.03M.5-33.39c.02.07.01.13-.03.19-.05.1-.11.06-.17.13-.05.06-.1.28-.08.36-.17.06-.01.23-.02.35 0 .05-.04.11-.04.16-.01.12.02.27.07.37.1.2.27.41.44.54.19.15.36.57.61.63.18.04.38-.1.54-.14.18-.04.4.01.57-.05.22-.08.13-.34.29-.45.1-.07.29-.01.41-.05.2-.07.34-.26.38-.46.02-.08.01-.14.04-.22.04-.1.11-.16.09-.29-.01-.06-.05-.12-.06-.19-.02-.11 0-.22 0-.34 0-.2.02-.38-.08-.55-.38-.69-1.24-.93-1.97-.79-.18.03-.29.13-.44.21-.17.09-.14.17-.32.22-.08.03-.22.12-.21.22 0 .12 0 .05.01.17-.02.01-.02 0-.03-.03" class="st2"/></g><g><path d="M69.44-25.74c.02.07.01.13-.03.19-.05.1-.11.06-.17.13-.05.06-.1.28-.08.36-.16.06 0 .23-.01.35 0 .05-.04.11-.04.16-.01.12.02.27.07.37.1.2.27.41.43.54.19.15.36.57.61.63.18.04.38-.1.54-.14.18-.04.4.01.57-.05.22-.08.13-.34.29-.45.1-.07.29-.01.41-.05.2-.07.34-.26.38-.46.02-.08.01-.14.04-.22.04-.1.11-.16.09-.29-.01-.06-.05-.12-.06-.19-.02-.11 0-.22 0-.34 0-.2.02-.38-.08-.55-.38-.69-1.24-.93-1.97-.79-.18.03-.29.13-.44.21-.17.09-.14.17-.32.22-.08.03-.22.12-.21.22 0 .12 0 .05.01.17-.02.01-.02 0-.03-.03M61.78-25.74c.02.07.01.13-.03.19-.05.1-.11.06-.17.13-.05.06-.1.28-.08.36-.17.06-.01.23-.02.35 0 .05-.04.11-.04.16-.01.12.02.27.07.37.1.2.27.41.44.54.19.15.36.57.61.63.18.04.38-.1.54-.14.18-.04.4.01.57-.05.22-.08.13-.34.29-.45.1-.07.29-.01.41-.05.2-.07.34-.26.38-.46.02-.08.01-.14.04-.22.04-.1.11-.16.09-.29-.01-.06-.05-.12-.06-.19-.02-.11 0-.22 0-.34 0-.2.02-.38-.08-.55-.38-.69-1.24-.93-1.97-.79-.18.03-.29.13-.44.21-.17.09-.14.17-.32.22-.08.03-.22.12-.21.22 0 .12 0 .05.01.17-.02.01-.02 0-.03-.03M54.12-25.74c.02.07.01.13-.03.19-.05.1-.11.06-.17.13-.05.06-.1.28-.08.36-.17.06-.01.23-.02.35 0 .05-.04.11-.04.16-.01.12.02.27.07.37.1.2.27.41.44.54.19.15.36.57.61.63.18.04.38-.1.54-.14.18-.04.4.01.57-.05.22-.08.13-.34.29-.45.1-.07.29-.01.41-.05.2-.07.34-.26.38-.46.02-.08.01-.14.04-.22.04-.1.11-.16.09-.29-.01-.06-.05-.12-.06-.19-.02-.11 0-.22 0-.34 0-.2.02-.38-.08-.55-.38-.69-1.24-.93-1.97-.79-.18.03-.29.13-.44.21-.17.09-.14.17-.32.22-.08.03-.22.12-.21.22 0 .12 0 .05.01.17-.02.01-.02 0-.03-.03M46.46-25.74c.02.07.01.13-.03.19-.05.1-.11.06-.16.13-.05.06-.1.28-.08.36-.17.06-.01.23-.02.35 0 .05-.04.11-.05.16-.01.12.02.27.07.37.1.2.27.41.44.54.19.15.36.57.61.63.18.04.38-.1.54-.14.18-.04.4.01.57-.05.22-.08.13-.34.29-.45.1-.07.29-.01.41-.05.2-.07.34-.26.38-.46.02-.08.01-.14.04-.22.04-.1.11-.16.09-.29-.01-.06-.05-.12-.06-.19-.02-.11 0-.22 0-.34 0-.2.02-.38-.08-.55-.38-.69-1.24-.93-1.97-.79-.18.03-.29.13-.44.21-.17.09-.14.17-.32.22-.08.03-.22.12-.21.22 0 .12 0 .05.01.17-.02.01-.02 0-.03-.03M38.8-25.74c.02.07.01.13-.03.19-.05.1-.11.06-.17.13-.05.06-.1.28-.08.36-.17.06-.01.23-.02.35 0 .05-.04.11-.04.16-.01.12.02.27.07.37.1.2.27.41.44.54.19.15.36.57.61.63.18.04.38-.1.54-.14.18-.04.4.01.57-.05.22-.08.13-.34.29-.45.1-.07.29-.01.41-.05.2-.07.34-.26.38-.46.02-.08.01-.14.04-.22.04-.1.11-.16.09-.29-.01-.06-.05-.12-.06-.19-.02-.11 0-.22 0-.34 0-.2.02-.38-.08-.55-.38-.69-1.24-.93-1.97-.79-.18.03-.29.13-.44.21-.17.09-.14.17-.32.22-.08.03-.22.12-.21.22 0 .12 0 .05.01.17-.02.01-.02 0-.03-.03M31.14-25.74c.02.07.01.13-.03.19-.05.1-.11.06-.16.13-.05.06-.1.28-.08.36-.17.06-.01.23-.02.35 0 .05-.04.11-.05.16-.01.12.02.27.07.37.1.2.27.41.44.54.19.15.36.57.61.63.18.04.38-.1.54-.14.18-.04.4.01.57-.05.22-.08.13-.34.29-.45.1-.07.29-.01.41-.05.2-.07.34-.26.38-.46.02-.08.01-.14.04-.22.04-.1.11-.16.09-.29-.01-.06-.05-.12-.06-.19-.02-.11 0-.22 0-.34 0-.2.02-.38-.08-.55-.38-.69-1.24-.93-1.97-.79-.18.03-.29.13-.44.21-.17.09-.14.17-.32.22-.08.03-.22.12-.21.22 0 .12 0 .05.01.17-.02.01-.02 0-.03-.03M23.48-25.74c.02.07.01.13-.03.19-.05.1-.11.06-.17.13-.05.06-.1.28-.08.36-.17.06-.01.23-.02.35 0 .05-.04.11-.04.16-.01.12.02.27.07.37.1.2.27.41.44.54.19.15.36.57.61.63.18.04.38-.1.54-.14.18-.04.4.01.57-.05.22-.08.13-.34.29-.45.1-.07.29-.01.41-.05.2-.07.34-.26.38-.46.02-.08.01-.14.04-.22.04-.1.11-.16.09-.29-.01-.06-.05-.12-.06-.19-.02-.11 0-.22 0-.34 0-.2.02-.38-.08-.55-.38-.69-1.24-.93-1.97-.79-.18.03-.29.13-.44.21-.17.09-.14.17-.32.22-.08.03-.22.12-.21.22 0 .12 0 .05.01.17-.02.01-.02 0-.03-.03M15.82-25.74c.02.07.01.13-.03.19-.05.1-.11.06-.16.13-.05.06-.1.28-.08.36-.17.06-.01.23-.02.35 0 .05-.04.11-.05.16-.01.12.02.27.07.37.1.2.27.41.44.54.19.15.36.57.61.63.18.04.38-.1.54-.14.18-.04.4.01.57-.05.22-.08.13-.34.29-.45.1-.07.29-.01.41-.05.2-.07.34-.26.38-.46.02-.08.01-.14.04-.22.04-.1.11-.16.09-.29-.01-.06-.05-.12-.06-.19-.02-.11 0-.22 0-.34 0-.2.02-.38-.08-.55-.38-.69-1.24-.93-1.97-.79-.18.03-.29.13-.44.21-.17.09-.14.17-.32.22-.08.03-.22.12-.21.22 0 .12 0 .05.01.17-.02.01-.02 0-.03-.03M8.16-25.74c.02.07.01.13-.03.19-.05.1-.11.06-.17.13-.05.06-.1.28-.08.36-.16.06 0 .23-.01.35 0 .05-.04.11-.04.16-.01.12.02.27.07.37.1.2.27.41.44.54.19.15.36.57.61.63.18.04.38-.1.54-.14.18-.04.4.01.57-.05.22-.08.13-.34.29-.45.1-.07.29-.01.41-.05.2-.07.34-.26.38-.46.02-.08.01-.14.04-.22.04-.1.11-.16.09-.29-.01-.06-.05-.12-.06-.19-.02-.11 0-.22 0-.34 0-.2.02-.38-.08-.55-.38-.69-1.24-.93-1.97-.79-.18.03-.29.13-.44.21-.17.09-.14.17-.32.22-.08.03-.22.12-.21.22 0 .12 0 .05.01.17-.02.01-.02 0-.03-.03M.5-25.74c.02.07.01.13-.03.19-.05.1-.11.06-.17.13-.05.06-.1.28-.08.36-.16.06 0 .23-.01.35 0 .05-.04.11-.04.16-.01.12.02.27.07.37.1.2.27.41.44.54.19.15.36.57.61.63.18.04.38-.1.54-.14.18-.04.4.01.57-.05.22-.08.13-.34.29-.45.1-.07.29-.01.41-.05.2-.07.34-.26.38-.46.02-.08.01-.14.04-.22.04-.1.11-.16.09-.29-.01-.06-.05-.12-.06-.19-.02-.11 0-.22 0-.34 0-.2.02-.38-.08-.55-.38-.69-1.24-.93-1.97-.79-.18.03-.29.13-.44.21-.17.09-.14.17-.32.22-.08.03-.22.12-.21.22 0 .12 0 .05.01.17-.02.01-.02 0-.03-.03" class="st2"/></g><g><path d="M69.44-18.08c.02.07.01.13-.03.19-.05.1-.11.06-.17.13-.05.06-.1.28-.08.36-.17.06-.01.23-.02.35 0 .05-.04.11-.04.16-.01.12.02.27.07.37.1.2.27.41.43.54.19.15.36.57.61.63.18.04.38-.1.54-.14.18-.04.4.01.57-.05.22-.08.13-.34.29-.45.1-.07.29-.01.41-.05.2-.07.34-.26.38-.46.02-.08.01-.14.04-.22.04-.1.11-.16.09-.29-.01-.06-.05-.12-.06-.19-.02-.11 0-.22 0-.34 0-.2.02-.38-.08-.55-.38-.69-1.24-.93-1.97-.79-.18.03-.29.13-.44.21-.17.09-.14.17-.32.22-.08.03-.22.12-.21.22 0 .12 0 .05.01.17-.02.01-.02 0-.03-.03M61.78-18.08c.02.07.01.13-.03.19-.05.1-.11.06-.17.13-.05.06-.1.28-.08.36-.17.06-.01.23-.02.35 0 .05-.04.11-.04.16-.01.12.02.27.07.37.1.2.27.41.44.54.19.15.36.57.61.63.18.04.38-.1.54-.14.18-.04.4.01.57-.05.22-.08.13-.34.29-.45.1-.07.29-.01.41-.05.2-.07.34-.26.38-.46.02-.08.01-.14.04-.22.04-.1.11-.16.09-.29-.01-.06-.05-.12-.06-.19-.02-.11 0-.22 0-.34 0-.2.02-.38-.08-.55-.38-.69-1.24-.93-1.97-.79-.18.03-.29.13-.44.21-.17.09-.14.17-.32.22-.08.03-.22.12-.21.22 0 .12 0 .05.01.17-.02.01-.02 0-.03-.03M54.12-18.08c.02.07.01.13-.03.19-.05.1-.11.06-.17.13-.05.06-.1.28-.08.36-.17.06-.01.23-.02.35 0 .05-.04.11-.04.16-.01.12.02.27.07.37.1.2.27.41.44.54.19.15.36.57.61.63.18.04.38-.1.54-.14.18-.04.4.01.57-.05.22-.08.13-.34.29-.45.1-.07.29-.01.41-.05.2-.07.34-.26.38-.46.02-.08.01-.14.04-.22.04-.1.11-.16.09-.29-.01-.06-.05-.12-.06-.19-.02-.11 0-.22 0-.34 0-.2.02-.38-.08-.55-.38-.69-1.24-.93-1.97-.79-.18.03-.29.13-.44.21-.17.09-.14.17-.32.22-.08.03-.22.12-.21.22 0 .12 0 .05.01.17-.02.01-.02 0-.03-.03M46.46-18.08c.02.07.01.13-.03.19-.05.1-.11.06-.16.13-.05.06-.1.28-.08.36-.17.06-.01.23-.02.35 0 .05-.04.11-.05.16-.01.12.02.27.07.37.1.2.27.41.44.54.19.15.36.57.61.63.18.04.38-.1.54-.14.18-.04.4.01.57-.05.22-.08.13-.34.29-.45.1-.07.29-.01.41-.05.2-.07.34-.26.38-.46.02-.08.01-.14.04-.22.04-.1.11-.16.09-.29-.01-.06-.05-.12-.06-.19-.02-.11 0-.22 0-.34 0-.2.02-.38-.08-.55-.38-.69-1.24-.93-1.97-.79-.18.03-.29.13-.44.21-.17.09-.14.17-.32.22-.08.03-.22.12-.21.22 0 .12 0 .05.01.17-.02.01-.02 0-.03-.03M38.8-18.08c.02.07.01.13-.03.19-.05.1-.11.06-.17.13-.05.06-.1.28-.08.36-.17.06-.01.23-.02.35 0 .05-.04.11-.04.16-.01.12.02.27.07.37.1.2.27.41.44.54.19.15.36.57.61.63.18.04.38-.1.54-.14.18-.04.4.01.57-.05.22-.08.13-.34.29-.45.1-.07.29-.01.41-.05.2-.07.34-.26.38-.46.02-.08.01-.14.04-.22.04-.1.11-.16.09-.29-.01-.06-.05-.12-.06-.19-.02-.11 0-.22 0-.34 0-.2.02-.38-.08-.55-.38-.69-1.24-.93-1.97-.79-.18.03-.29.13-.44.21-.17.09-.14.17-.32.22-.08.03-.22.12-.21.22 0 .12 0 .05.01.17-.02.01-.02 0-.03-.03M31.14-18.08c.02.07.01.13-.03.19-.05.1-.11.06-.16.13-.05.06-.1.28-.08.36-.17.06-.01.23-.02.35 0 .05-.04.11-.05.16-.01.12.02.27.07.37.1.2.27.41.44.54.19.15.36.57.61.63.18.04.38-.1.54-.14.18-.04.4.01.57-.05.22-.08.13-.34.29-.45.1-.07.29-.01.41-.05.2-.07.34-.26.38-.46.02-.08.01-.14.04-.22.04-.1.11-.16.09-.29-.01-.06-.05-.12-.06-.19-.02-.11 0-.22 0-.34 0-.2.02-.38-.08-.55-.38-.69-1.24-.93-1.97-.79-.18.03-.29.13-.44.21-.17.09-.14.17-.32.22-.08.03-.22.12-.21.22 0 .12 0 .05.01.17-.02.01-.02 0-.03-.03M23.48-18.08c.02.07.01.13-.03.19-.05.1-.11.06-.17.13-.05.06-.1.28-.08.36-.17.06-.01.23-.02.35 0 .05-.04.11-.04.16-.01.12.02.27.07.37.1.2.27.41.44.54.19.15.36.57.61.63.18.04.38-.1.54-.14.18-.04.4.01.57-.05.22-.08.13-.34.29-.45.1-.07.29-.01.41-.05.2-.07.34-.26.38-.46.02-.08.01-.14.04-.22.04-.1.11-.16.09-.29-.01-.06-.05-.12-.06-.19-.02-.11 0-.22 0-.34 0-.2.02-.38-.08-.55-.38-.69-1.24-.93-1.97-.79-.18.03-.29.13-.44.21-.17.09-.14.17-.32.22-.08.03-.22.12-.21.22 0 .12 0 .05.01.17-.02.01-.02 0-.03-.03M15.82-18.08c.02.07.01.13-.03.19-.05.1-.11.06-.16.13-.05.06-.1.28-.08.36-.17.06-.01.23-.02.35 0 .05-.04.11-.05.16-.01.12.02.27.07.37.1.2.27.41.44.54.19.15.36.57.61.63.18.04.38-.1.54-.14.18-.04.4.01.57-.05.22-.08.13-.34.29-.45.1-.07.29-.01.41-.05.2-.07.34-.26.38-.46.02-.08.01-.14.04-.22.04-.1.11-.16.09-.29-.01-.06-.05-.12-.06-.19-.02-.11 0-.22 0-.34 0-.2.02-.38-.08-.55-.38-.69-1.24-.93-1.97-.79-.18.03-.29.13-.44.21-.17.09-.14.17-.32.22-.08.03-.22.12-.21.22 0 .12 0 .05.01.17-.02.01-.02 0-.03-.03M8.16-18.08c.02.07.01.13-.03.19-.05.1-.11.06-.17.13-.05.06-.1.28-.08.36-.17.06-.01.23-.02.35 0 .05-.04.11-.04.16-.01.12.02.27.07.37.1.2.27.41.44.54.19.15.36.57.61.63.18.04.38-.1.54-.14.18-.04.4.01.57-.05.22-.08.13-.34.29-.45.1-.07.29-.01.41-.05.2-.07.34-.26.38-.46.02-.08.01-.14.04-.22.04-.1.11-.16.09-.29-.01-.06-.05-.12-.06-.19-.02-.11 0-.22 0-.34 0-.2.02-.38-.08-.55-.38-.69-1.24-.93-1.97-.79-.18.03-.29.13-.44.21-.17.09-.14.17-.32.22-.08.03-.22.12-.21.22 0 .12 0 .05.01.17-.02.01-.02 0-.03-.03M.5-18.08c.02.07.01.13-.03.19-.05.1-.11.06-.17.13-.05.06-.1.28-.08.36-.17.06-.01.23-.02.35 0 .05-.04.11-.04.16-.01.12.02.27.07.37.1.2.27.41.44.54.19.15.36.57.61.63.18.04.38-.1.54-.14.18-.04.4.01.57-.05.22-.08.13-.34.29-.45.1-.07.29-.01.41-.05.2-.07.34-.26.38-.46.02-.08.01-.14.04-.22.04-.1.11-.16.09-.29-.01-.06-.05-.12-.06-.19-.02-.11 0-.22 0-.34 0-.2.02-.38-.08-.55-.38-.69-1.24-.93-1.97-.79-.18.03-.29.13-.44.21-.17.09-.14.17-.32.22-.08.03-.22.12-.21.22 0 .12 0 .05.01.17-.02.01-.02 0-.03-.03" class="st2"/></g><g><path d="M69.44-10.43c.02.07.01.13-.03.19-.05.1-.11.06-.17.13-.05.06-.1.28-.08.36-.16.06 0 .23-.01.35 0 .05-.04.11-.04.16-.01.12.02.27.07.37.1.2.27.41.43.54.19.15.36.57.61.63.18.04.38-.1.54-.14.18-.04.4.01.57-.05.22-.08.13-.34.29-.45.1-.07.29-.01.41-.05.2-.07.34-.26.38-.46.02-.08.01-.14.04-.22.04-.1.11-.16.09-.29-.01-.06-.05-.12-.06-.19-.02-.11 0-.22 0-.34 0-.2.02-.38-.08-.55-.38-.69-1.24-.93-1.97-.79-.18.03-.29.13-.44.21-.17.09-.14.17-.32.22-.08.03-.22.12-.21.22 0 .12 0 .05.01.17-.02.01-.02 0-.03-.03M61.78-10.43c.02.07.01.13-.03.19-.05.1-.11.06-.17.13-.05.06-.1.28-.08.36-.17.06-.01.23-.02.35 0 .05-.04.11-.04.16-.01.12.02.27.07.37.1.2.27.41.44.54.19.15.36.57.61.63.18.04.38-.1.54-.14.18-.04.4.01.57-.05.22-.08.13-.34.29-.45.1-.07.29-.01.41-.05.2-.07.34-.26.38-.46.02-.08.01-.14.04-.22.04-.1.11-.16.09-.29-.01-.06-.05-.12-.06-.19-.02-.11 0-.22 0-.34 0-.2.02-.38-.08-.55-.38-.69-1.24-.93-1.97-.79-.18.03-.29.13-.44.21-.17.09-.14.17-.32.22-.08.03-.22.12-.21.22 0 .12 0 .05.01.17-.02.01-.02 0-.03-.03M54.12-10.43c.02.07.01.13-.03.19-.05.1-.11.06-.17.13-.05.06-.1.28-.08.36-.17.06-.01.23-.02.35 0 .05-.04.11-.04.16-.01.12.02.27.07.37.1.2.27.41.44.54.19.15.36.57.61.63.18.04.38-.1.54-.14.18-.04.4.01.57-.05.22-.08.13-.34.29-.45.1-.07.29-.01.41-.05.2-.07.34-.26.38-.46.01-.08 0-.15.03-.22.04-.1.11-.16.09-.29-.01-.06-.05-.12-.06-.19-.02-.11 0-.22 0-.34 0-.2.02-.38-.08-.55-.38-.69-1.24-.93-1.97-.79-.18.03-.29.13-.44.21-.17.09-.14.17-.32.22-.08.03-.22.12-.21.22 0 .12 0 .05.01.17-.02.01-.02 0-.03-.03M46.46-10.43c.02.07.01.13-.03.19-.05.1-.11.06-.16.13-.05.06-.1.28-.08.36-.17.06-.01.23-.02.35 0 .05-.04.11-.05.16-.01.12.02.27.07.37.1.2.27.41.44.54.19.15.36.57.61.63.18.04.38-.1.54-.14.18-.04.4.01.57-.05.22-.08.13-.34.29-.45.1-.07.29-.01.41-.05.2-.07.34-.26.38-.46.02-.08.01-.14.04-.22.04-.1.11-.16.09-.29-.01-.06-.05-.12-.06-.19-.02-.11 0-.22 0-.34 0-.2.02-.38-.08-.55-.38-.69-1.24-.93-1.97-.79-.18.03-.29.13-.44.21-.17.09-.14.17-.32.22-.08.03-.22.12-.21.22 0 .12 0 .05.01.17-.02.01-.02 0-.03-.03M38.8-10.43c.02.07.01.13-.03.19-.05.1-.11.06-.17.13-.05.06-.1.28-.08.36-.17.06-.01.23-.02.35 0 .05-.04.11-.04.16-.01.12.02.27.07.37.1.2.27.41.44.54.19.15.36.57.61.63.18.04.38-.1.54-.14.18-.04.4.01.57-.05.22-.08.13-.34.29-.45.1-.07.29-.01.41-.05.2-.07.34-.26.38-.46.01-.08 0-.15.03-.22.04-.1.11-.16.09-.29-.01-.06-.05-.12-.06-.19-.02-.11 0-.22 0-.34 0-.2.02-.38-.08-.55-.38-.69-1.24-.93-1.97-.79-.18.03-.29.13-.44.21-.17.09-.14.17-.32.22-.08.03-.22.12-.21.22 0 .12 0 .05.01.17-.02.01-.02 0-.03-.03M31.14-10.43c.02.07.01.13-.03.19-.05.1-.11.06-.16.13-.05.06-.1.28-.08.36-.17.06-.01.23-.02.35 0 .05-.04.11-.05.16-.01.12.02.27.07.37.1.2.27.41.44.54.19.15.36.57.61.63.18.04.38-.1.54-.14.18-.04.4.01.57-.05.22-.08.13-.34.29-.45.1-.07.29-.01.41-.05.2-.07.34-.26.38-.46.02-.08.01-.14.04-.22.04-.1.11-.16.09-.29-.01-.06-.05-.12-.06-.19-.02-.11 0-.22 0-.34 0-.2.02-.38-.08-.55-.38-.69-1.24-.93-1.97-.79-.18.03-.29.13-.44.21-.17.09-.14.17-.32.22-.08.03-.22.12-.21.22 0 .12 0 .05.01.17-.02.01-.02 0-.03-.03M23.48-10.43c.02.07.01.13-.03.19-.05.1-.11.06-.17.13-.05.06-.1.28-.08.36-.17.06-.01.23-.02.35 0 .05-.04.11-.04.16-.01.12.02.27.07.37.1.2.27.41.44.54.19.15.36.57.61.63.18.04.38-.1.54-.14.18-.04.4.01.57-.05.22-.08.13-.34.29-.45.1-.07.29-.01.41-.05.2-.07.34-.26.38-.46.02-.08.01-.14.04-.22.04-.1.11-.16.09-.29-.01-.06-.05-.12-.06-.19-.02-.11 0-.22 0-.34 0-.2.02-.38-.08-.55-.38-.69-1.24-.93-1.97-.79-.18.03-.29.13-.44.21-.17.09-.14.17-.32.22-.08.03-.22.12-.21.22 0 .12 0 .05.01.17-.02.01-.02 0-.03-.03M15.82-10.43c.02.07.01.13-.03.19-.05.1-.11.06-.16.13-.05.06-.1.28-.08.36-.17.06-.01.23-.02.35 0 .05-.04.11-.05.16-.01.12.02.27.07.37.1.2.27.41.44.54.19.15.36.57.61.63.18.04.38-.1.54-.14.18-.04.4.01.57-.05.22-.08.13-.34.29-.45.1-.07.29-.01.41-.05.2-.07.34-.26.38-.46.01-.08 0-.15.03-.22.04-.1.11-.16.09-.29-.01-.06-.05-.12-.06-.19-.02-.11 0-.22 0-.34 0-.2.02-.38-.08-.55-.38-.69-1.24-.93-1.97-.79-.18.03-.29.13-.44.21-.17.09-.14.17-.32.22-.08.03-.22.12-.21.22 0 .12 0 .05.01.17-.02.01-.02 0-.03-.03M8.16-10.43c.02.07.01.13-.03.19-.05.1-.11.06-.17.13-.05.06-.1.28-.08.36-.16.06 0 .23-.01.35 0 .05-.04.11-.04.16-.01.12.01.27.06.37.1.2.27.41.44.54.19.15.36.57.61.63.18.04.38-.1.54-.14.18-.04.4.01.57-.05.22-.08.13-.34.29-.45.1-.07.29-.01.41-.05.2-.07.34-.26.38-.46.02-.08.01-.14.04-.22.04-.1.11-.16.09-.29-.01-.06-.05-.12-.06-.19-.02-.11 0-.22 0-.34 0-.2.02-.38-.08-.55-.38-.69-1.24-.93-1.97-.79-.18.03-.29.13-.44.21-.17.09-.14.17-.32.22-.08.03-.22.12-.21.22 0 .12 0 .05.01.17-.02.01-.02 0-.03-.03M.5-10.43c.02.07.01.13-.03.19-.05.1-.11.06-.17.13-.05.06-.1.28-.08.36-.16.06 0 .23-.01.35 0 .05-.04.11-.04.16-.01.12.01.27.06.37.1.2.27.41.44.54.19.15.36.57.61.63.18.04.38-.1.54-.14.18-.04.4.01.57-.05.22-.08.13-.34.29-.45.1-.07.29-.01.41-.05.2-.07.34-.26.38-.46.01-.08 0-.15.03-.22.04-.1.11-.16.09-.29-.01-.07-.05-.12-.06-.19-.02-.11 0-.22 0-.34 0-.2.02-.38-.08-.55-.38-.69-1.24-.93-1.97-.79-.18.03-.29.13-.44.21-.17.09-.14.17-.32.22-.08.03-.22.12-.21.22 0 .12 0 .05.01.17-.02.01-.02 0-.03-.03" class="st2"/></g></g><g><path d="M69.44-2.78c.02.07.01.13-.03.19-.05.1-.11.06-.17.13-.05.06-.1.28-.08.36-.16.06 0 .23-.01.35 0 .05-.04.11-.04.16-.01.12.02.27.07.37.1.2.27.41.43.54.19.15.36.57.61.63.18.05.38-.1.54-.13.18-.04.4.01.57-.05.22-.08.13-.34.29-.45.1-.07.29-.01.41-.05.2-.08.34-.27.37-.47.02-.08.01-.14.04-.22.04-.1.11-.16.09-.29-.01-.06-.05-.12-.06-.19-.02-.11 0-.22 0-.34 0-.2.02-.38-.08-.55-.38-.69-1.24-.93-1.97-.79-.18.03-.29.13-.44.21-.17.09-.14.17-.32.22-.08.03-.22.12-.21.22 0 .12 0 .05.01.17-.02.01-.02 0-.03-.03M61.78-2.78c.02.07.01.13-.03.19-.05.1-.11.06-.17.13-.05.06-.1.28-.08.36-.17.06-.01.23-.02.35 0 .05-.04.11-.04.16-.01.12.02.27.07.37.1.2.27.41.44.54.19.15.36.57.61.63.18.04.38-.1.54-.14.18-.04.4.01.57-.05.22-.08.13-.34.29-.45.1-.07.29-.01.41-.05.2-.07.34-.26.38-.46.02-.08.01-.14.04-.22.04-.1.11-.16.09-.29-.01-.06-.05-.12-.06-.19-.02-.11 0-.22 0-.34 0-.2.02-.38-.08-.55-.38-.69-1.24-.93-1.97-.79-.18.03-.29.13-.44.21-.19.09-.15.17-.33.23-.08.03-.22.12-.21.22 0 .12 0 .05.01.17-.02.01-.02 0-.03-.03M54.12-2.78c.02.07.01.13-.03.19-.05.1-.11.06-.17.13-.05.06-.1.28-.08.36-.17.06-.01.23-.02.35 0 .05-.04.11-.04.16-.01.12.02.27.07.37.1.2.27.41.44.54.19.15.36.57.61.63.18.04.38-.1.54-.14.18-.04.4.01.57-.05.22-.08.13-.34.29-.45.1-.07.29-.01.41-.05.2-.07.34-.26.38-.46.02-.08.01-.14.04-.22.04-.1.11-.16.09-.29-.01-.06-.05-.12-.06-.19-.02-.11 0-.22 0-.34 0-.2.02-.38-.08-.55-.38-.69-1.24-.93-1.97-.79-.18.03-.29.13-.44.21-.17.09-.14.17-.32.22-.08.03-.22.12-.21.22 0 .12 0 .05.01.17-.02.01-.02 0-.03-.03M46.46-2.78c.02.07.01.13-.03.19-.05.1-.11.06-.16.13-.05.06-.1.28-.08.36-.17.06-.01.23-.02.35 0 .05-.04.11-.05.16-.01.12.02.27.07.37.1.2.27.41.44.54.19.16.37.58.61.64.18.04.38-.1.54-.14.18-.04.4.01.57-.05.22-.08.13-.34.29-.45.1-.07.29-.01.41-.05.2-.07.34-.26.38-.46.02-.08.01-.14.04-.22.04-.1.11-.16.09-.29-.01-.06-.05-.12-.06-.19-.02-.11 0-.22 0-.34 0-.2.02-.38-.08-.55-.38-.69-1.24-.93-1.97-.79-.18.03-.29.13-.44.21-.17.09-.14.17-.32.22-.08.03-.22.12-.21.22 0 .12 0 .05.01.17-.02.01-.02 0-.03-.03M38.8-2.78c.02.07.01.13-.03.19-.05.1-.11.06-.17.13-.05.06-.1.28-.08.36-.17.06-.01.23-.02.35 0 .05-.04.11-.04.16-.01.12.02.27.07.37.1.2.27.41.44.54.19.15.36.57.61.63.18.04.38-.1.54-.14.18-.04.4.01.57-.05.22-.08.13-.34.29-.45.1-.07.29-.01.41-.05.2-.07.34-.26.38-.46.02-.08.01-.14.04-.22.04-.1.11-.16.09-.29-.01-.06-.05-.12-.06-.19-.02-.11 0-.22 0-.34 0-.2.02-.38-.08-.55-.38-.69-1.24-.93-1.97-.79-.18.03-.29.13-.44.21-.17.09-.14.17-.32.22-.08.03-.22.12-.21.22 0 .12 0 .05.01.17-.02.01-.02 0-.03-.03M31.14-2.78c.02.07.01.13-.03.19-.05.1-.11.06-.16.13-.05.06-.1.28-.08.36-.17.06-.01.23-.02.35 0 .05-.04.11-.05.16-.01.12.02.27.07.37.1.2.27.41.44.54.19.15.36.57.61.63.18.05.38-.1.54-.13.18-.04.4.01.57-.05.22-.08.13-.34.29-.45.1-.07.29-.01.41-.05.2-.08.34-.27.37-.47.02-.08.01-.14.04-.22.04-.1.11-.16.09-.29-.01-.06-.05-.12-.06-.19-.02-.11 0-.22 0-.34 0-.2.02-.38-.08-.55-.38-.69-1.24-.93-1.97-.79-.18.03-.29.13-.44.21-.17.09-.14.17-.32.22-.08.03-.22.12-.21.22 0 .12 0 .05.01.17-.02.01-.02 0-.03-.03M23.48-2.78c.02.07.01.13-.03.19-.05.1-.11.06-.17.13-.05.06-.1.28-.08.36-.17.06-.01.23-.02.35 0 .05-.04.11-.04.16-.01.12.02.27.07.37.1.2.27.41.44.54.19.15.36.57.61.63.18.04.38-.1.54-.14.18-.04.4.01.57-.05.22-.08.13-.34.29-.45.1-.07.29-.01.41-.05.2-.07.34-.26.38-.46.02-.08.01-.14.04-.22.04-.1.11-.16.09-.29-.01-.06-.05-.12-.06-.19-.02-.11 0-.22 0-.34 0-.2.02-.38-.08-.55-.38-.69-1.24-.93-1.97-.79-.18.03-.29.13-.44.21-.17.09-.14.17-.32.22-.08.03-.22.12-.21.22 0 .12 0 .05.01.17-.02.01-.02 0-.03-.03M15.82-2.78c.02.07.01.13-.03.19-.05.1-.11.06-.16.13-.05.06-.1.28-.08.36-.17.06-.01.23-.02.35 0 .05-.04.11-.05.16-.01.12.02.27.07.37.1.2.27.41.44.54.19.15.36.57.61.63.18.04.38-.1.54-.14.18-.04.4.01.57-.05.22-.08.13-.34.29-.45.1-.07.29-.01.41-.05.2-.07.34-.26.38-.46.02-.08.01-.14.04-.22.04-.1.11-.16.09-.29-.01-.06-.05-.12-.06-.19-.02-.11 0-.22 0-.34 0-.2.02-.38-.08-.55-.38-.69-1.24-.93-1.97-.79-.18.03-.29.13-.44.21-.17.09-.14.17-.32.22-.08.03-.22.12-.21.22 0 .12 0 .05.01.17-.02.01-.02 0-.03-.03M8.16-2.78c.02.07.01.13-.03.19-.05.1-.11.06-.17.13-.05.06-.09.28-.07.36-.17.06-.01.23-.02.35 0 .05-.04.11-.04.16-.01.12.01.27.06.37.1.2.27.41.44.54.19.16.36.58.61.64.17.04.38-.11.54-.14.18-.04.4.01.57-.05.22-.08.13-.34.29-.45.1-.07.29-.01.41-.05.2-.07.34-.26.38-.46.02-.08.01-.14.04-.22.04-.1.11-.16.09-.29-.01-.06-.05-.12-.06-.19-.02-.11 0-.22 0-.34 0-.2.02-.38-.08-.55-.38-.69-1.24-.93-1.97-.79-.2.03-.3.12-.46.2-.17.09-.14.17-.32.23-.08.02-.21.12-.21.22 0 .12 0 .05.01.17-.02.01-.02 0-.03-.03M.5-2.78c.01.07 0 .13-.03.19-.05.1-.11.06-.17.13-.05.06-.09.28-.07.36-.17.06-.02.23-.02.35 0 .05-.04.11-.04.16-.02.12.01.27.06.37.1.2.27.41.44.54.19.16.36.58.61.64.17.04.38-.11.54-.14.18-.05.4.01.57-.06.22-.08.13-.34.29-.45.1-.07.29-.01.41-.05.19-.07.33-.26.37-.46.02-.08.01-.14.04-.22.04-.1.11-.16.09-.29-.01-.06-.05-.12-.06-.19-.02-.11 0-.22 0-.34 0-.2.02-.38-.08-.55-.38-.68-1.24-.92-1.98-.78-.18.03-.28.12-.44.2-.17.09-.14.17-.32.23-.08.02-.21.12-.21.22 0 .12 0 .05.01.17-.02.01-.02 0-.03-.03" class="st2"/></g></g></pattern><g><g><path d="M183.14 70.96v-1.58c3.55-.45 4.06-.9 3.32-3.1-.73-2.2-1.86-5.24-3.1-8.67h-12c-.9 2.53-1.74 4.9-2.48 7.27-1.24 3.55-.73 4.11 3.49 4.5v1.58h-12.22v-1.58c3.55-.51 4.34-.85 6.31-5.8l11.66-29.56 1.75-.51c3.49 9.69 7.27 20.39 10.87 30.19 1.8 4.84 2.53 5.35 6.19 5.69v1.58h-13.79zm-5.52-30.13h-.11c-1.8 4.84-3.6 9.74-5.29 14.36h10.36l-4.96-14.36z" class="st3"/><path d="M228.09 70.96V69.5c3.32-.34 3.94-.56 3.94-4.56v-9.4c0-4-1.41-6.53-4.96-6.53-2.03 0-4.17 1.13-6.31 2.93.11.68.17 1.3.17 2.37v10.98c0 3.55.51 3.89 3.6 4.22v1.46h-12.05v-1.46c3.49-.34 4-.62 4-4.34v-9.69c0-4.17-1.46-6.48-4.9-6.48-2.25 0-4.45 1.52-6.14 2.93v13.23c0 3.66.45 4 3.21 4.34v1.46h-11.88V69.5c3.72-.34 4.22-.68 4.22-4.34V53.5c0-3.6-.17-3.88-3.44-4.39v-1.29c2.48-.45 5.35-1.18 7.83-2.31v4.56c1.18-.79 2.42-1.8 4.11-2.87 1.46-.9 2.82-1.52 4.62-1.52 2.7 0 5.12 1.69 6.25 4.62 1.63-1.24 3.27-2.31 4.67-3.15 1.18-.79 2.65-1.46 4.22-1.46 4.39 0 7.15 3.1 7.15 8.62v10.87c0 3.77.45 4 3.66 4.34v1.46h-11.97zM257.4 70.96V69.5c3.27-.34 3.72-.68 3.72-4.34v-9.35c0-4.62-1.75-6.93-5.52-6.93-2.14 0-4.28 1.07-5.86 2.87v13.4c0 3.6.28 4 3.61 4.34v1.46h-11.94l.06-1.46c3.38-.28 3.83-.62 3.83-4.34V38.29c0-3.55-.11-3.83-3.83-4.17v-1.29c2.7-.4 6.08-1.3 8.28-1.97v18.92c1.97-2.03 5.01-4.11 8.05-4.11 4.56-.06 7.77 2.87 7.77 9.63v9.85c0 3.72.39 4.06 3.72 4.34v1.46H257.4zM288.69 66.17c-3.55 4.45-7.43 5.46-9.18 5.46-6.93 0-10.98-5.63-10.98-12 0-3.88 1.41-7.32 3.72-9.85 2.31-2.59 5.35-4.11 8.22-4.11h.06c4.67 0 8.45 4.17 8.45 8.56 0 1.13-.28 1.58-1.3 1.8-.96.17-8 .73-14.7.96.05 7.66 4.45 10.81 8.39 10.81 2.25 0 4.39-.9 6.42-2.81l.9 1.18zm-9.57-18.41c-2.54 0-5.02 2.36-5.86 6.93 3.15 0 6.25-.06 9.52-.17 1.02 0 1.35-.34 1.35-1.13.05-2.93-1.86-5.63-4.96-5.63h-.05zM299.42 51.64c1.69-2.82 4.11-5.97 6.81-5.97 1.92 0 3.27 1.46 3.27 2.82 0 1.13-.73 2.25-1.8 2.76-.67.28-1.18.23-1.52-.11-.79-.84-1.46-1.18-2.37-1.18-1.46 0-3.27 1.69-4.5 4.84v10.3c0 3.72.28 4.05 4.62 4.39v1.46h-12.95v-1.46c3.49-.34 3.89-.68 3.89-4.39V53.44c0-3.72-.28-3.94-3.49-4.39v-1.24c2.76-.45 5.24-1.13 7.94-2.31v6.14h.1zM324.96 52.99c-1.07-3.32-3.04-5.58-5.8-5.58-2.14 0-3.66 1.69-3.66 3.89 0 2.48 2.25 3.83 4.79 4.9 4.22 1.75 7.1 3.77 7.1 7.66 0 5.12-4.79 7.77-9.29 7.77-2.87 0-5.46-1.07-6.48-1.92-.39-.79-.9-4.62-.9-6.64l1.46-.28c1.01 3.72 3.55 6.98 6.93 6.98 2.09 0 4-1.58 4-3.94 0-2.48-1.63-3.83-4.45-5.12-3.38-1.58-7.04-3.44-7.04-7.77 0-3.94 3.38-7.27 8.56-7.27 2.31-.06 3.83.51 5.01.96.45 1.3 1.07 4.62 1.24 6.03l-1.47.33zM340.48 70.9c-.96.51-1.86.73-2.36.73-3.55 0-5.52-2.25-5.52-6.7V48.55h-3.89l-.22-.56 1.52-1.63h2.59v-4.11l3.66-3.72.79.11v7.72h6.36c.51.56.34 1.8-.34 2.2h-6.03v14.47c0 4.56 1.86 5.41 3.27 5.41s2.7-.56 3.49-.96l.51 1.46-3.83 1.96z" class="st3"/></g></g><g><path d="M55.32 35.93c-3.38.23-4.67 1.01-4.96 3.32-.17 1.52-.28 3.94-.28 9.12v4.62c0 6.64-1.01 11.43-4.28 14.87-2.59 2.7-6.36 3.89-10.08 3.89-3.27 0-6.53-.79-9.01-2.7-3.38-2.59-4.96-6.81-4.96-13.4V41.62c0-5.07-.45-5.29-4.9-5.69v-1.58h14.59v1.58c-4.45.28-4.9.62-4.9 5.69V54.4c0 9.07 3.6 14.25 10.59 14.25 8.11 0 10.64-6.76 10.64-16.05v-4.22c0-5.18-.17-7.55-.39-9.29-.34-2.2-1.52-2.87-5.46-3.15v-1.58h13.4v1.57z" class="st4"/><path d="M85.48 70.96v-1.58c4.56-.45 4.79-.73 4.73-6.7l-.17-22.98h-.23L76.07 70.56h-1.13L62.33 40.49h-.11l-.84 16.05c-.23 4.62-.23 7.1-.17 9.35.11 2.7 1.46 3.1 5.18 3.49v1.58H53.26v-1.58c3.27-.39 4.39-1.01 4.79-3.38.28-1.97.62-4.45 1.07-10.31l.79-11.71c.51-7.32.22-7.55-4.9-8.05v-1.58h9.24l12.84 28.16L90.1 34.35h9.57v1.58c-4.96.45-5.35.56-5.18 6.36l.56 20.39c.17 5.97.34 6.25 5.24 6.7v1.58H85.48zM118.09 71.63c-.84 0-2.03-.51-2.65-1.07-.73-.79-1.07-1.58-1.35-2.53-2.25 1.52-4.96 3.6-6.65 3.6-4 0-6.76-3.32-6.76-6.87 0-2.76 1.46-4.51 4.56-5.58 3.38-1.13 7.49-2.65 8.73-3.66v-1.01c0-4.05-1.91-6.36-4.73-6.36-1.13 0-1.97.45-2.53 1.12-.73.73-1.24 1.97-1.69 3.66-.23.96-.84 1.35-1.63 1.35-1.01 0-2.48-1.13-2.48-2.42 0-.84.73-1.46 1.8-2.25 1.58-1.13 5.24-3.32 8.45-3.94 1.69 0 3.38.51 4.62 1.52 1.97 1.63 2.53 3.94 2.53 6.87v10.47c0 2.53 1.01 3.38 1.97 3.38.68 0 1.46-.28 2.03-.62l.56 1.46-4.78 2.88zm-4.11-14.19c-1.18.62-3.88 1.8-5.07 2.37-2.2 1.01-3.44 2.08-3.44 4.11 0 2.93 2.25 4.34 4 4.34 1.46-.06 3.44-1.01 4.5-2.03v-8.79zM138.34 52.99c-1.07-3.32-3.04-5.58-5.8-5.58-2.14 0-3.66 1.69-3.66 3.89 0 2.48 2.25 3.83 4.79 4.9 4.22 1.75 7.1 3.77 7.1 7.66 0 5.12-4.79 7.77-9.29 7.77-2.87 0-5.46-1.07-6.48-1.92-.39-.79-.9-4.62-.9-6.64l1.46-.28c1.01 3.72 3.55 6.98 6.93 6.98 2.08 0 4-1.58 4-3.94 0-2.48-1.63-3.83-4.45-5.12-3.38-1.58-7.04-3.44-7.04-7.77 0-3.94 3.38-7.27 8.56-7.27 2.31-.06 3.83.51 5.01.96.45 1.3 1.07 4.62 1.24 6.03l-1.47.33zM156.19 52.99c-1.07-3.32-3.04-5.58-5.8-5.58-2.14 0-3.66 1.69-3.66 3.89 0 2.48 2.25 3.83 4.79 4.9 4.22 1.75 7.1 3.77 7.1 7.66 0 5.12-4.79 7.77-9.29 7.77-2.87 0-5.46-1.07-6.48-1.92-.39-.79-.9-4.62-.9-6.64l1.46-.28c1.01 3.72 3.55 6.98 6.93 6.98 2.08 0 4-1.58 4-3.94 0-2.48-1.63-3.83-4.45-5.12-3.38-1.58-7.04-3.44-7.04-7.77 0-3.94 3.38-7.27 8.56-7.27 2.31-.06 3.83.51 5.01.96.45 1.3 1.07 4.62 1.24 6.03l-1.47.33z" class="st4"/></g></svg>