<svg xmlns="http://www.w3.org/2000/svg" id="Layer_1" data-name="Layer 1" viewBox="0 0 70.76 6.31"><defs><style>.cls-2{fill:#231f20}</style></defs><path fill="#006241" d="M33.15 51.82a1.62 1.62 0 00-.94-1.61c.69-.32.6-1.3.6-1.3a1.51 1.51 0 00-1.5-1.6h-7.58l-1.55 2.38v-2.37h-2.26v3.83a.43.43 0 01-.47.47H17a.51.51 0 01-.46-.47v-3.83H14.4v4.78a1.5 1.5 0 001.42 1.4h6.87l.56-1h2.33v1h6.18c1.39 0 1.39-1.68 1.39-1.68zM28 49.15h2.8a.22.22 0 110 .44H28zm-2.43 1.68h-1.34l1-1.68h.38zm5.51.79H28v-.44h3.08a.22.22 0 010 .44z" transform="translate(-14.4 -47.24)"/><path d="M34.66 47.75h-.84v-.44H36v.44h-.84V50h-.48zM36.37 47.31h.49v1.09h1.27v-1.09h.49V50h-.49v-1.2h-1.27V50h-.49zM39.13 47.31h1.81v.44h-1.32v.67h1.25v.44h-1.25v.74H41v.4h-1.87zM44.82 49a1.1 1.1 0 01-2.2 0v-1.69h.49V49a.61.61 0 101.22 0v-1.69h.49zM45.24 47.31h.65l1.32 2v-2h.48V50h-.61l-1.34-2v2h-.49zM48.21 47.31h.49V50h-.49zM49.06 47.31h.56l.74 2.07.77-2.07h.52L50.55 50h-.42zM51.93 47.31h1.81v.44h-1.32v.67h1.25v.44h-1.25v.74h1.39v.4h-1.88zM54.2 47.31h.95c.52 0 1 .17 1 .79a.7.7 0 01-.63.74l.73 1.2h-.59L55 48.89h-.36V50h-.44zm.86 1.16c.27 0 .59 0 .59-.38s-.3-.36-.55-.36h-.42v.74zM57.94 47.9a.58.58 0 00-.48-.22c-.23 0-.45.1-.45.35 0 .55 1.3.24 1.3 1.21a.89.89 0 01-1 .87 1.14 1.14 0 01-.9-.37l.37-.35a.64.64 0 00.54.28c.22 0 .48-.12.48-.37 0-.6-1.3-.26-1.3-1.23 0-.56.5-.83 1-.83a1.08 1.08 0 01.78.29zM58.69 47.31h.48V50h-.48zM60.39 47.75h-.84v-.44h2.16v.44h-.83V50h-.49zM62.87 48.87l-1-1.56h.61l.67 1.09.68-1.09h.58l-1 1.56V50h-.48zM67.07 47.24a1.36 1.36 0 011.45 1.43 1.45 1.45 0 11-1.45-1.43zm0 2.43a1 1 0 10-.94-1 .93.93 0 00.94 1zM68.88 47.31h1.76v.44h-1.28v.72h1.21v.44h-1.21V50h-.48zM35 50.76h.42l1.18 2.73H36l-.25-.63h-1.16l-.25.63h-.55zm.62 1.69l-.42-1.11-.43 1.11zM36.87 50.76h.48v2.29h1.17v.44h-1.65zM40 50.76h.42l1.18 2.73H41l-.25-.63h-1.2l-.24.63h-.55zm.62 1.69l-.42-1.11-.43 1.11zM41.84 50.76h1.06c.41 0 .84.19.84.68a.61.61 0 01-.48.6.65.65 0 01.59.66c0 .59-.51.78-1 .78h-1zm.48 1.11h.44c.33 0 .49-.14.49-.35s-.16-.35-.53-.35h-.4zm0 1.2h.45c.25 0 .6 0 .6-.4s-.19-.39-.58-.39h-.47zM45.08 50.76h.42l1.18 2.73h-.56l-.25-.63h-1.18l-.25.63h-.54zm.62 1.69l-.42-1.11-.43 1.11zM47 50.76h.74l.73 1.91.74-1.91h.73v2.73h-.46v-2.27l-.83 2.27h-.34l-.83-2.27v2.27H47zM51.39 50.76h.42L53 53.49h-.56l-.25-.63H51l-.25.63h-.54zm.61 1.69l-.42-1.11-.43 1.11zM55.32 50.76h.42l1.18 2.73h-.56l-.25-.63h-1.19l-.24.63h-.55zm.62 1.69l-.42-1.11-.43 1.11zM57.49 51.2h-.84v-.44h2.16v.44H58v2.29h-.49zM60.29 50.76h1.06c.41 0 .84.19.84.68a.6.6 0 01-.48.6.65.65 0 01.59.66c0 .59-.51.78-1 .78h-1zm.48 1.11h.45c.32 0 .48-.14.48-.35s-.16-.35-.53-.35h-.4zm0 1.2h.45c.25 0 .6 0 .6-.4s-.19-.39-.58-.39h-.47zM62.68 50.76h.49v2.73h-.49zM63.74 50.76h.94c.53 0 1 .17 1 .78a.7.7 0 01-.63.74l.73 1.21h-.59l-.63-1.16h-.36v1.16h-.48zm.86 1.15c.27 0 .59 0 .59-.37s-.3-.37-.55-.37h-.42v.74zM66.15 50.76h.74l.73 1.91.74-1.91h.73v2.73h-.46v-2.27l-.83 2.27h-.34l-.83-2.27v2.27h-.46zM69.61 50.76h.48v2.73h-.48zM70.66 50.76h.64l1.33 2v-2h.49v2.73h-.62l-1.35-2.1v2.1h-.48zM76.13 53.29a2.45 2.45 0 01-1.13.27 1.44 1.44 0 110-2.87 1.59 1.59 0 011.08.34l-.36.36a1 1 0 00-.72-.26.92.92 0 00-.93 1 .93.93 0 00.93 1 1.26 1.26 0 00.64-.15v-.64h-.56v-.44h1zM76.61 50.76h.48v1.08h1.28v-1.08h.49v2.73h-.49v-1.21h-1.28v1.21h-.48zM80.33 50.76h.42l1.18 2.73h-.56l-.25-.63h-1.19l-.24.63h-.55zm.67 1.69l-.42-1.11-.43 1.11zM82.22 50.76H83l.73 1.91.74-1.91h.73v2.73h-.5v-2.27l-.83 2.27h-.34l-.83-2.27v2.27h-.46z" class="cls-2" transform="translate(-14.4 -47.24)"/></svg>