<svg xmlns="http://www.w3.org/2000/svg" xmlns:xlink="http://www.w3.org/1999/xlink" xml:space="preserve" enable-background="new 0 0 172 36" viewBox="0 0 172 36"><g><g><path d="M81.3 14.4c-3.1 0-4.9-2.2-4.9-5.9V1.2h1.9v7.2c0 2.8 1.3 4 3 4 1.8 0 3-1.2 3-3.9V1.2h1.9v7.2c0 3.8-1.8 6-4.9 6M88.2 14.1V4.4h1.7v1.4c.6-1.1 1.5-1.6 2.7-1.6 2 0 3.4 1.6 3.4 4.1v5.9h-1.8V8.7c0-1.7-.7-2.5-1.9-2.5-1.3 0-2.2 1-2.2 2.7v5.4h-1.9v-.2zM100 14.1h-1.8V4.4h1.8v9.7M100 3h-1.9V1.1h1.9V3zM106.5 14.2h-1.7l-3.6-9.8h2l2.5 7.2 2.5-7.2h1.8l-3.5 9.8zM114.7 14.3c-2.7 0-4.5-2.1-4.5-5.3 0-2.9 1.9-4.9 4.3-4.9s4.2 1.9 4.2 5.1v.7h-6.5c.2 1.8 1.3 2.6 2.6 2.6.8 0 1.7-.3 2.5-1.3l.1-.1 1.1 1.1-.1.1c-.9 1.4-2.2 2-3.7 2m2.1-5.9c-.2-1.5-.9-2.5-2.3-2.5-1.1 0-2.1.8-2.4 2.5h4.7zM122.2 14.1h-1.9V4.3h1.8v2.2c.6-1.6 1.7-2.3 3-2.3h.3v2.2h-.2c-1.7 0-3 1.3-3 4v3.7zM129.5 14.3c-1.1 0-2.5-.5-3.4-1.4l-.1-.1.8-1.4.1.1c.9.8 1.8 1.1 2.7 1.1 1 0 1.5-.4 1.5-1.2 0-.7-.6-1-1.7-1.4-1.2-.4-2.9-1-2.9-3.1 0-1.8 1.4-2.8 3.2-2.8 1 0 2.1.3 3 1l.1.1-.7 1.5-.1-.1c-.8-.6-1.7-.8-2.3-.8-.9 0-1.4.3-1.4 1 0 .8.8 1 2 1.4 1.7.6 2.7 1.4 2.7 3.1-.1 1.9-1.5 3-3.5 3M144.7 14.7c.5.4 1.1.7 1.7.7 1 0 1.4-.6 1.8-1.6l-3.8-9.2-.1-.2h2.1v.1l2.7 6.8 2.2-6.8v-.1h2l-.1.2-3.6 9.8c-.7 1.8-1.6 2.9-3.2 2.9-.7 0-1.7-.4-2.3-.9l.6-1.7zM160.4 14.3c-2.5 0-4.6-2.1-4.6-5.1s2.1-5.1 4.6-5.1 4.6 2.1 4.6 5.1-2.1 5.1-4.6 5.1m0-8.3c-1.4 0-2.7 1.1-2.7 3.2s1.3 3.3 2.8 3.3c1.4 0 2.7-1.1 2.7-3.2-.1-1.9-1.3-3.3-2.8-3.3M168.9 14.1H167V6.2h-1.1V4.4h1.2V3.3c0-2.5 1.9-3 2.8-3 .6 0 1 .1 1.4.3h.1v1.8h-.1c-.3-.1-.6-.2-1-.2-.9 0-1.3.5-1.3 1.4v.8h2.4v1.8h-2.5v7.9zM84.9 32.6h-8.5V19.7h8.4v1.9h-6.5V25h5.9v1.9h-5.9v3.8h6.6v1.9zM89.3 32.8c-1.6 0-3.4-.9-3.4-3.1 0-2 1.6-3.4 3.9-3.4.9 0 1.7.2 2.1.4v-.1c0-1.1-.6-2.1-2.1-2.1-1.1 0-1.9.4-2.7.9l-.1.1-.5-1.7h.1c.8-.5 2.1-1 3.4-1 2.4 0 3.8 1.5 3.8 4.1v5.8h-1.6v-1.2c-.4.5-1.4 1.3-2.9 1.3m-1.5-3.1c0 .9.8 1.4 1.7 1.4 1.6 0 2.4-.9 2.4-2.2v-.5c-.4-.2-1.2-.4-2.1-.4-.8 0-2 .4-2 1.7zM124.5 32.6h-2.1l-1.4-3.3h-5.3l-1.3 3.3h-2l5.3-12.9h1.5v.1l5.3 12.8m-4.3-5.2-1.9-5-2 5h3.9zM139.7 35.7c-1.5 0-2.8-.5-3.9-1.4l-.1-.1.8-1.7.1.1c1 .8 2.1 1.2 3.2 1.2 1.9 0 2.8-1.3 2.8-3.1v-.8c-.6 1.2-1.8 1.8-3.1 1.8-2 0-4.1-1.6-4.1-4.6s2.1-4.6 4.1-4.6c1.3 0 2.6.6 3.2 1.7v-1.5h1.6v7.9c0 1.5-.4 2.7-1.1 3.6-.8 1-2.1 1.5-3.5 1.5m-.1-11.2c-1.3 0-2.5.9-2.5 2.7 0 1.8 1.2 2.8 2.5 2.8 1.5 0 2.7-1 2.7-2.8-.1-2-1.3-2.7-2.7-2.7M148.2 32.6h-1.8V19.7h1.8v12.9zM141.9 14.3c-1.6 0-2.6-1-2.6-2.9V6.2h-1.2V4.4h1.2V1.6h1.9v2.8h2.5v1.9h-2.5V11c0 .9.3 1.5 1.1 1.5.4 0 .9-.1 1.2-.3l.2-.1v1.8h-.1c-.5.2-1.1.4-1.7.4M136.4 14.1h-1.8V4.3h1.8v9.8m0-11.1h-1.9V1.1h1.9V3zM98.5 32.8c-1.1 0-2.5-.5-3.4-1.4l-.1-.1.8-1.4.2.1c.9.8 1.8 1.1 2.7 1.1 1 0 1.5-.4 1.5-1.2 0-.7-.6-1-1.7-1.4-1.2-.4-2.9-1-2.9-3.1 0-1.8 1.4-2.8 3.2-2.8 1 0 2.1.3 3 1l.1.1-.7 1.5-.1-.1c-.8-.6-1.7-.8-2.3-.8-.9 0-1.4.3-1.4 1 0 .8.8 1 2 1.4 1.7.6 2.7 1.4 2.7 3.1-.1 1.9-1.6 3-3.6 3M106.7 32.8c-1.6 0-2.6-1-2.6-2.9v-5.2h-1.2v-1.8h1.2v-2.8h1.9v2.8h2.5v1.8H106v4.7c0 .9.3 1.5 1.1 1.5.4 0 .9-.1 1.2-.3l.2-.1v1.8h-.1c-.4.3-1.1.5-1.7.5M125.7 32.6v-9.8h1.7v1.4c.6-1.1 1.5-1.6 2.7-1.6 2 0 3.4 1.6 3.4 4.1v5.9h-1.8v-5.5c0-1.7-.7-2.5-1.9-2.5-1.3 0-2.2 1-2.2 2.7v5.4l-1.9-.1zM152.2 32.6h-1.8v-9.7h1.8v9.7m0-11.1h-1.9v-1.9h1.9v1.9zM157.2 32.8c-1.6 0-3.4-.9-3.4-3.1 0-2 1.6-3.4 3.9-3.4.9 0 1.7.2 2.1.4v-.1c0-1.1-.6-2.1-2.1-2.1-1.1 0-1.9.4-2.7.9l-.1.1-.5-1.7h.1c.8-.5 2.1-1 3.4-1 2.4 0 3.8 1.5 3.8 4.1v5.8h-1.6v-1.2c-.3.5-1.4 1.3-2.9 1.3m-1.5-3.2c0 .9.8 1.4 1.7 1.4 1.6 0 2.4-.9 2.4-2.2v-.5c-.4-.2-1.2-.4-2.1-.4-.8.1-2 .5-2 1.7z"/></g><path d="M18.1 32.1h-.5c-4.5 0-7.8-3.1-7.8-11.7V7.7c0-4.3 1.9-6 4.6-6v-.5H.6v.5c2.4 0 3.2 2.1 3.2 4.7v12.5c0 9.4 4.5 13.7 12.7 13.7H18v-.5z"/><path fill="#00aeef" d="M45.5 23.3c-.1-4.7-1.1-5.7-5.8-5.8V17c4.7 0 5.8-1.1 5.8-5.8h.4c.1 4.7 1.1 5.7 5.8 5.8v.5c-4.7 0-5.8 1.1-5.8 5.8h-.4z"/><path d="M20.3 32.1c4.3 0 6.1-2.9 6.1-7 0-4.9 0 0 0 0V7.3c0-4.2-2.1-5.6-4.6-5.6v-.5H46v6.6h-.4c-.7-3.9-2.2-5.4-7.1-5.4h-1.1c-4.6 0-5.5 1.5-5.5 5.6v3.8c0 5 2 5.2 5.9 5.2v.5c-3.9 0-5.9.4-5.9 5.5v1.6c0 6.2.8 6.6 6 6.6 3.1 0 6.8-.8 7.8-5h.4v6.3H20.3v-.4zM54.7 32.1c4.3 0 5.3-2.8 3.4-7.1L51.6 8.7 53.5.6h.4s9 21.3 11.2 25.6c2.3 4.6 4.3 5.8 6.3 5.8v.5H54.7v-.4z"/></g></svg>