<svg xmlns="http://www.w3.org/2000/svg" viewBox="0 0 200.001 84.57"><defs><style>.cls-4{fill:#969697}</style></defs><g id="Layer_2" data-name="Layer 2"><g id="Layer_1-2" data-name="Layer 1"><path fill="#662a84" d="M.088 0h199.89v62.072H.088z"/><path fill="#fecc37" d="M128.281 44.366c2.759 1.13 3.99 2.358 3.99 4.209 0 2.5-2.261 4.427-5.176 4.427-2.839 0-5.1-1.755-5.1-3.945 0-1.686 1.312-3.058 3.864-4-2.471-1.012-3.654-2.187-3.654-3.822 0-2.118 2.183-3.9 4.81-3.9s4.73 1.538 4.73 3.464c0 1.539-1.153 2.72-3.466 3.564m-1.893.935c-1.791.889-2.866 2.144-2.866 3.708a3.385 3.385 0 003.6 3.388 3.315 3.315 0 003.6-3.148c0-1.612-1.285-2.675-4.332-3.948m.6-7.355c-1.812 0-3.363 1.029-3.363 2.544 0 1.324.742 2.238 4.16 3.556 1.471-.839 2.513-1.893 2.513-3.265.002-1.732-1.469-2.832-3.308-2.832zM143.3 48.437v-.557l7.626-10.392h.71v9.745h1.974v1.2h-1.974v4.322h-1.695v-4.318H143.3m6.641-8.612l-5.4 7.408h5.4zm-35.459 12.934v-.578c2.27 0 2.378-.389 2.378-1.57v-11.2a16.03 16.03 0 01-3.16 1.977l-.2-.339a21.26 21.26 0 004.17-3.562h.883v12.8c.03 1.546.324 1.842 2.588 1.9v.578zm28.563-3.343h-.452c-.326 1.453-.749 1.837-1.941 1.86h-5.679c2.995-2.632 7.6-6.068 7.6-9.707a4.177 4.177 0 00-4.346-4.231 4.822 4.822 0 00-4.829 4.59h.381a4.089 4.089 0 013.753-3.229 3.137 3.137 0 013.157 3.208c0 4.289-6.985 9.567-7.6 10.169v.683h9.506l.2-1.483zm-14.7-30.36c-.389-2.5-1.156-2.672-2.225-2.672h-6.761v7.369h5.293c1.09 0 1.605-.139 1.755-1.893h.575v5.073h-.575c-.242-2.147-.818-2.015-2.061-2.015h-4.987v6.446c0 1.392.641 1.663 1.758 1.663h4.535c2.082 0 2.768-.447 3.5-3h.551l-.473 4.084h-14.97v-.575c2.423-.06 2.591-.394 2.591-2.238l.012-13.2c0-1.848-.171-2.181-2.591-2.238v-.57l14.393.007.236 3.759zm13.288-.617h12.847l.368 3.412h-.448c-.372-2.184-.83-2.465-1.821-2.465h-3.448v12.4c0 1.338.449 1.812 1.959 1.812h.569v.521h-7.21V33.6h.566c1.51 0 1.959-.474 1.959-1.812v-12.4h-3.444c-.992 0-1.435.269-1.81 2.468h-.446zM132.55 21.1c0-1.4 1.255-2.249 3.055-2.249a4.847 4.847 0 014.391 3h.437l-.359-2.681a12.951 12.951 0 00-4.715-1.053c-2.782 0-4.8 1.808-4.8 3.89 0 4.382 8.7 5.358 8.7 8.963 0 1.979-1.935 2.825-3.762 2.825a4.679 4.679 0 01-4.67-3.765h-.479l.554 3.73a19.988 19.988 0 004.841.841c3.19 0 5.511-2.058 5.511-4.513 0-4.61-8.704-5.433-8.704-8.988z"/><path fill="#fff" d="M187.152 30.609l-2.4-2.3a31.444 31.444 0 00-3.469-2.943 5.194 5.194 0 004.05-4.927c0-3.105-2.525-5.417-8.154-5.417-1.98 0-2.588.03-3.834.092s-3.1.183-3.834.183v.578h.668c1.765 0 2.286.545 2.286 2.434v12.7c0 2.04-.641 2.528-2.435 2.528h-.519v.575h8.609v-.575h-.7c-1.707 0-2.435-.457-2.435-2.283v-5.037c.488.033.883.061 1.551.061.8 0 1.282-.028 2-.057a26.891 26.891 0 015.206 4.388c2.774 2.642 3.421 3.749 8.744 3.5v-.575c-2.336-.148-3.537-1.127-5.334-2.925zm-10.283-5.035a13.322 13.322 0 01-1.884-.06v-9.726a12.444 12.444 0 011.519-.061c4.687 0 5.966 2.062 5.966 4.893 0 3.65-2.222 4.954-5.601 4.954zm10.283 5.035l-2.4-2.3a31.444 31.444 0 00-3.469-2.943 5.194 5.194 0 004.05-4.927c0-3.105-2.525-5.417-8.154-5.417-1.98 0-2.588.03-3.834.092s-3.1.183-3.834.183v.578h.668c1.765 0 2.286.545 2.286 2.434v12.7c0 2.04-.641 2.528-2.435 2.528h-.519v.575h8.609v-.575h-.7c-1.707 0-2.435-.457-2.435-2.283v-5.037c.488.033.883.061 1.551.061.8 0 1.282-.028 2-.057a26.891 26.891 0 015.206 4.388c2.774 2.642 3.421 3.749 8.744 3.5v-.575c-2.336-.148-3.537-1.127-5.334-2.925zm-10.283-5.035a13.322 13.322 0 01-1.884-.06v-9.726a12.444 12.444 0 011.519-.061c4.687 0 5.966 2.062 5.966 4.893 0 3.65-2.222 4.954-5.601 4.954zM84.582 14.842a16.6 16.6 0 016.918 1.671l.235 3.746h-.575a6.426 6.426 0 00-6.4-4.659c-5.053 0-7.572 3.909-7.572 8.993 0 5.477 3.306 9.176 7.907 9.176a8.61 8.61 0 006.884-4.579h.572l-1.447 3.551A12.82 12.82 0 0184.28 34.6c-6.144 0-9.81-4.055-9.81-9.653 0-5.87 3.786-10.105 10.112-10.105zm29.232 18.7v.572h-7.487v-.572c2.284-.057 2.562-.36 2.586-1.946v-6.678H97.8V31.3c0 1.845.17 2.179 2.589 2.239v.575h-7.478v-.575c2.269 0 2.376-.394 2.376-1.573V17.443h-.006c0-1.18-.107-1.573-2.376-1.573v-.575h7.495v.575c-2.421.06-2.591.393-2.591 2.238H97.8l-.006 5.646H108.9l.006-5.907c-.021-1.611-.29-1.92-2.588-1.975V15.3h7.486v.574c-2.268 0-2.379.391-2.379 1.572h-.007v14.517h.012c.004 1.18.112 1.576 2.384 1.576zM67.956 15.3v.575c2.419.06 2.588.393 2.588 2.239v12.04L57.9 15.3h-4.524v.575a3.711 3.711 0 012.316.755v14.884c0 1.149-.44 1.968-1.456 1.968-.809 0-1.183-.893-1.623-1.848L45.571 15.3h-2.148l-6.5 15.249c-1.162 2.532-1.372 2.94-2 2.94-.785 0-1.063-.7-1.2-2.73l-.924-13.314c0-1.18.358-1.573 2.628-1.573v-.575h-5.1l-6.646 15.279L16.994 15.3h-5.3v.574c2.271 0 2.631.391 2.631 1.572L13.517 30.3c-.153 2.752-.424 3.238-2.636 3.238v.572h6.3v-.572c-1.363-.063-2.512-.393-2.423-1.935l.817-13.617h.064l7.108 16.124h.694l6.9-16.124h.059l.876 13.554c.123 1.605-1.271 2-2.691 2v.572h11.68v-.572h-.109c-1.664 0-2.45-.3-2.45-1.12a8.691 8.691 0 01.605-1.909l1.68-3.977h7.884l1.983 4.735a3.394 3.394 0 01.332 1.24c0 .848-.635 1.031-2.36 1.031h-.41v.572h12.314v-.572c-2.574 0-2.679-.454-2.679-2.633V17.93l14.065 16.4h.786V17.443c0-1.178.109-1.571 2.381-1.571V15.3zm-27.47 10.074l3.469-8.217 3.435 8.217zM168.5 19.056l-.24-3.759-14.389-.007v.576c2.42.057 2.588.39 2.588 2.238l-.009 13.2c0 1.844-.171 2.178-2.591 2.238v.575h14.964l.477-4.084h-.551c-.731 2.55-1.411 3-3.5 3h-4.532c-1.123 0-1.761-.271-1.761-1.663v-6.452h4.99c1.24 0 1.818-.132 2.058 2.015h.575V21.86h-.575c-.153 1.754-.668 1.893-1.756 1.893h-5.292v-7.369h6.757c1.072 0 1.839.174 2.229 2.672z"/><path d="M4.617 70.171v10.148H3.356V70.171H0v-1.063h7.989v1.063zM14.8 80.319V74.97c0-1.294-.349-2.043-1.545-2.043-1.478 0-2.525 1.462-2.525 3.422v3.97H9.484V68.194h1.245v4.035a8.275 8.275 0 01-.132 1.644l.033.018a3.027 3.027 0 012.94-1.991c1.894 0 2.475 1.2 2.475 2.658v5.763zM24.764 75.934H19.25c-.083 2.474.9 3.5 2.74 3.5a5.57 5.57 0 002.392-.532l.116 1.062a7.15 7.15 0 01-2.723.5c-2.492 0-3.82-1.346-3.82-4.235 0-2.476 1.328-4.32 3.621-4.32 2.275 0 3.222 1.579 3.222 3.406a4.358 4.358 0 01-.034.619zm-3.255-3.073A2.255 2.255 0 0019.316 75H23.5a1.909 1.909 0 00-1.991-2.139zM34.214 80.469c-3.47 0-4.135-1.944-4.135-3.87v-7.491h1.279v7.374c0 1.612.531 2.939 2.956 2.939 2.059 0 3.072-.863 3.072-3.255v-7.058h1.247v6.958c0 2.874-1.512 4.403-4.419 4.403zM46.389 80.319V74.97c0-1.294-.349-2.043-1.545-2.043-1.478 0-2.524 1.462-2.524 3.422v3.97h-1.246v-8.255H42.3a13.158 13.158 0 01-.133 1.827l.033.017a3.052 3.052 0 012.956-2.01c1.894 0 2.475 1.2 2.475 2.658v5.763zM50.625 70.57a.845.845 0 01-.865-.848.856.856 0 01.865-.848.866.866 0 01.863.848.854.854 0 01-.863.848zm-.632 9.749v-8.255h1.246v8.255zM57 80.319h-1.3l-3.122-8.255H54l1.927 5.381c.165.514.315.981.465 1.462h.008c.133-.448.282-.948.449-1.394l1.976-5.449h1.362zM67.314 75.934H61.8c-.083 2.474.9 3.5 2.741 3.5a5.574 5.574 0 002.392-.532l.116 1.062a7.15 7.15 0 01-2.723.5c-2.492 0-3.821-1.346-3.821-4.235 0-2.476 1.329-4.32 3.621-4.32 2.275 0 3.222 1.579 3.222 3.406a4.489 4.489 0 01-.034.619zm-3.255-3.073A2.255 2.255 0 0061.866 75h4.185a1.909 1.909 0 00-1.992-2.139zM73.276 73.142c-1.827-.3-2.69 1.1-2.69 3.871v3.306H69.34v-8.255h1.229a14.3 14.3 0 01-.183 2.076l.017.016a2.663 2.663 0 012.923-2.242zM76.133 80.469a9.158 9.158 0 01-1.744-.168l.033-1.145a7.074 7.074 0 001.843.265c1.2 0 2.027-.53 2.027-1.4 0-1.993-4.019-.747-4.019-3.687 0-1.379 1.129-2.425 3.222-2.425a8.937 8.937 0 011.611.183l-.033 1.08a5.508 5.508 0 00-1.711-.283c-1.213 0-1.81.5-1.81 1.312 0 1.977 4.035.848 4.035 3.654 0 1.467-1.295 2.614-3.454 2.614zM82.129 70.57a.845.845 0 01-.864-.848.856.856 0 01.864-.848.866.866 0 01.863.848.854.854 0 01-.863.848zm-.629 9.749v-8.255h1.245v8.255zM87.892 80.451c-1.661 0-2.142-.731-2.142-2.441v-4.966h-1.8v-.98h1.8v-2.741l1.25-.348v3.089h2.42v.98H87V77.5c0 1.478.266 1.86 1.246 1.86a4.305 4.305 0 001.179-.15v1.081a7.354 7.354 0 01-1.533.16zM93.937 81.182c-.963 2.542-1.694 3.388-3.5 3.388a7.774 7.774 0 01-1.046-.083l.132-1.145a3.056 3.056 0 001.031.164c1 0 1.494-.464 2.142-2.207l.382-.98-3.156-8.255h1.428l1.724 4.736c.266.749.449 1.345.631 1.96h.017c.149-.531.5-1.562.83-2.508l1.478-4.185h1.362zM104.849 80.469c-2.208 0-3.637-1.346-3.637-4.235 0-2.361 1.462-4.32 3.936-4.32 2.01 0 3.654 1.113 3.654 4.137-.002 2.456-1.512 4.418-3.953 4.418zm.182-7.524c-1.294 0-2.523.979-2.523 3.188 0 2.111.912 3.273 2.523 3.273 1.3 0 2.476-1 2.476-3.273 0-1.993-.831-3.188-2.476-3.188zM115.494 69.307a4.276 4.276 0 00-1.294-.183c-1.264 0-1.827.731-1.827 2.326v.614h2.441v.98h-2.441v7.275h-1.246v-7.275h-1.794v-.98h1.794v-.581c0-2.309 1.146-3.373 3.121-3.373a6.27 6.27 0 011.363.15zM130.51 80.319l-1-6.91c-.2-1.363-.281-2.192-.349-2.807h-.033a20.848 20.848 0 01-.548 1.877l-2.624 7.84h-1.445l-2.492-7.341a19.527 19.527 0 01-.713-2.376h-.018c-.048.9-.165 1.8-.3 2.94l-.813 6.777h-1.312l1.593-11.211h1.612l2.558 7.573a16.4 16.4 0 01.63 2.177h.035a14.923 14.923 0 01.614-2.061l2.624-7.689h1.661l1.661 11.211zM138.349 80.319a11.113 11.113 0 01.084-1.744h-.033a3.017 3.017 0 01-2.874 1.894 1.991 1.991 0 01-2.258-2.01c0-1.728 1.794-2.923 5.017-2.923v-.682c0-1.246-.45-1.942-1.878-1.942a5.01 5.01 0 00-2.524.713l-.117-1.1a7.01 7.01 0 012.856-.614c2.277 0 2.924 1.13 2.924 2.69v3.24c0 .813 0 1.745.033 2.475zm-.066-3.87c-3.106 0-3.771.98-3.771 1.777a1.211 1.211 0 001.345 1.229 2.694 2.694 0 002.426-2.874zM147.234 80.319V74.97c0-1.294-.349-2.043-1.544-2.043-1.479 0-2.525 1.462-2.525 3.422v3.97h-1.246v-8.255h1.23a13 13 0 01-.134 1.827l.033.017a3.054 3.054 0 012.957-2.01c1.893 0 2.474 1.2 2.474 2.658v5.763zM153.961 80.418c-1.843 0-3.571-.815-3.571-3.936 0-2.708 1.363-4.535 4.053-4.535a6.617 6.617 0 011.944.282l-.135 1.1a5.184 5.184 0 00-1.893-.365c-1.776 0-2.657 1.313-2.657 3.307 0 1.692.532 3.088 2.525 3.088a4.852 4.852 0 002.076-.464l.117 1.078a6.964 6.964 0 01-2.459.445zM163.462 80.319V74.97c0-1.294-.351-2.043-1.546-2.043-1.478 0-2.525 1.462-2.525 3.422v3.97h-1.245V68.194h1.245v4.035a8.275 8.275 0 01-.132 1.644l.033.018a3.026 3.026 0 012.94-1.993c1.893 0 2.476 1.2 2.476 2.658v5.763zM173.427 75.934h-5.514c-.084 2.474.895 3.5 2.741 3.5a5.568 5.568 0 002.39-.532l.117 1.062a7.15 7.15 0 01-2.723.5c-2.492 0-3.822-1.346-3.822-4.235 0-2.476 1.33-4.32 3.621-4.32s3.223 1.579 3.223 3.406a4.489 4.489 0 01-.033.619zm-3.256-3.073A2.254 2.254 0 00167.979 75h4.184a1.909 1.909 0 00-1.992-2.139zM176.7 80.469a9.147 9.147 0 01-1.743-.168l.033-1.145a7.068 7.068 0 001.843.265c1.2 0 2.027-.53 2.027-1.4 0-1.993-4.02-.747-4.02-3.687 0-1.379 1.129-2.425 3.223-2.425a8.9 8.9 0 011.61.183l-.033 1.08a5.5 5.5 0 00-1.71-.283c-1.213 0-1.811.5-1.811 1.312 0 1.977 4.036.848 4.036 3.654-.002 1.467-1.297 2.614-3.455 2.614zM184.687 80.451c-1.66 0-2.142-.731-2.142-2.441v-4.966h-1.794v-.98h1.794v-2.741l1.246-.348v3.089h2.423v.98h-2.423V77.5c0 1.478.265 1.86 1.245 1.86a4.293 4.293 0 001.178-.15v1.081a7.329 7.329 0 01-1.527.16zM194.071 75.934h-5.514c-.083 2.474.9 3.5 2.741 3.5a5.576 5.576 0 002.391-.532l.116 1.062a7.146 7.146 0 01-2.723.5c-2.492 0-3.821-1.346-3.821-4.235 0-2.476 1.329-4.32 3.622-4.32 2.275 0 3.221 1.579 3.221 3.406a4.489 4.489 0 01-.033.619zm-3.256-3.073A2.255 2.255 0 00188.623 75h4.186a1.909 1.909 0 00-1.994-2.139zM199.951 73.142c-1.827-.3-2.691 1.1-2.691 3.871v3.306h-1.245v-8.255h1.228a14.287 14.287 0 01-.182 2.076l.016.016A2.665 2.665 0 01200 71.914z" class="cls-4"/></g></g></svg>