<svg xmlns="http://www.w3.org/2000/svg" viewBox="0 0 200 49.887"><defs><style>.cls-1{fill:#006937}</style></defs><g id="Layer_2" data-name="Layer 2"><g id="Layer_1-2" data-name="Layer 1"><path d="M.249 29.813c0-3.05 2.872-5.391 7.27-5.391a8.866 8.866 0 015.674 1.739 2.092 2.092 0 01.745 1.737c0 1.029-.568 2.022-1.419 2.022-.531 0-.992-.426-1.524-.923a5.866 5.866 0 00-3.9-1.7c-1.56 0-2.73.744-2.73 2.022 0 4.255 10.426 3.83 10.426 10.852a5.87 5.87 0 01-1.809 4.4 8.749 8.749 0 01-6.028 2.058 10.14 10.14 0 01-6.138-1.85A2.022 2.022 0 010 43.006c0-.993.568-2.022 1.455-2.022 1.24 0 2.234 2.768 5.78 2.768 1.844 0 3.44-.958 3.44-3.086 0-4.753-10.426-4.114-10.426-10.853M33.836 24.635c.425 0 .567.107.567.532v1.738c0 .39-.142.531-.567.531h-2.66c-1.737 0-2.766-.035-3.4-.106v15.818c0 2.3 1.206 1.987 1.206 2.7 0 .461-.532.567-2.482.567h-1.566c-1.95 0-2.482-.106-2.482-.567 0-.709 1.2-.391 1.2-2.7V27.33c-.637.071-1.666.106-3.4.106h-2.658c-.426 0-.568-.141-.568-.531v-1.738c0-.425.142-.532.568-.532zM42.882 43.148c0 2.3 1.206 1.987 1.206 2.7 0 .46-.532.567-2.482.567h-1.561c-1.951 0-2.483-.107-2.483-.567 0-.709 1.206-.391 1.206-2.7V27.9c0-2.3-1.206-1.986-1.206-2.7 0-.46.532-.567 2.483-.567h1.561c1.95 0 2.482.107 2.482.567 0 .71-1.206.391-1.206 2.7zM54.942 27.188h-1.171v8.334c4.894 0 6.454-1.595 6.454-4.291 0-3.191-2.162-4.043-5.283-4.043m5.107 10l4.716 6.212A7.315 7.315 0 0067 45.453c.212.142.284.248.284.426 0 .5-1.1.532-2.909.532-2.021 0-2.447-.284-3.405-1.56l-5.142-6.81h-2.057v5.107c0 2.3 1.206 1.987 1.206 2.7 0 .461-.531.567-2.482.567h-1.561c-1.95 0-2.482-.106-2.482-.567 0-.709 1.2-.391 1.2-2.7V27.9c0-2.3-1.2-1.986-1.2-2.694 0-.461.532-.568 2.482-.568h2.837c3.3 0 5.569.319 7.022.958a5.684 5.684 0 013.689 5.532c0 3.334-1.632 5-4.433 6.065M83.848 43.61c.426 0 .567.106.567.532v1.737c0 .39-.141.532-.567.532H72.783c-1.951 0-2.482-.107-2.482-.567 0-.709 1.2-.391 1.2-2.7V27.9c0-2.3-1.2-1.986-1.2-2.7 0-.46.531-.566 2.482-.566h1.561c1.95 0 2.482.106 2.482.566 0 .71-1.206.391-1.206 2.7v15.816c.638-.071 1.666-.106 3.4-.106zM93.319 43.148c0 2.3 1.206 1.987 1.206 2.7 0 .46-.532.567-2.482.567h-1.561c-1.95 0-2.482-.107-2.482-.567 0-.709 1.2-.391 1.2-2.7V27.9c0-2.3-1.2-1.986-1.2-2.7 0-.46.532-.567 2.482-.567h1.561c1.95 0 2.482.107 2.482.567 0 .71-1.206.391-1.206 2.7zM114.741 39.176V27.9c0-2.3-1.2-1.985-1.2-2.695 0-.46.531-.567 2.481-.567h.6c1.95 0 2.482.107 2.482.567 0 .71-1.2.391-1.2 2.695v17.872c0 .461-.213.639-1.241.639h-.214c-.922 0-1.063-.106-1.454-.6l-10.219-12.948c-.5-.638-1.1-1.418-1.454-1.916h-.071v12.2c0 2.3 1.2 1.987 1.2 2.7 0 .461-.532.567-2.482.567h-.6c-1.95 0-2.482-.106-2.482-.567 0-.709 1.2-.391 1.2-2.7V27.9c0-2.3-1.2-1.985-1.2-2.695 0-.46.532-.567 2.482-.567h.213c1.7 0 1.915.318 2.944 1.6l8.688 11.03c.5.638 1.1 1.418 1.454 1.915zM133.328 27.366c-3.05 0-5.958 2.518-5.958 7.945 0 5.958 2.554 8.475 6.738 8.475a8.1 8.1 0 003.086-.6V39.07c0-1.277-.249-1.668-.851-2.128-.284-.213-.355-.32-.355-.533 0-.5.709-.6 2.553-.6h.567c1.88 0 2.057.106 2.057.887v6.844a1.56 1.56 0 01-.921 1.561 14.036 14.036 0 01-6.6 1.525c-6.986 0-10.533-4.186-10.533-11.03 0-6.632 3.76-11.172 10.285-11.172A9.729 9.729 0 01139.6 26.2a2.278 2.278 0 01.816 1.879c0 1.1-.6 2.058-1.525 2.058-1.6 0-2.164-2.767-5.568-2.767M199.992 27.362V0h-43.227v27.361a4.037 4.037 0 000 .531 9.918 9.918 0 00.253 1.723 15.533 15.533 0 001.259 3.42q.191.381.412.781a23.709 23.709 0 002.244 3.308q.212.262.436.529a32.3 32.3 0 002.474 2.614q.39.372.809.747a59.374 59.374 0 0013.727 8.872 59.42 59.42 0 0013.726-8.871q.418-.377.809-.748a32.836 32.836 0 002.475-2.614c.15-.179.295-.355.436-.53a23.778 23.778 0 002.243-3.307q.222-.4.412-.78a15.487 15.487 0 001.259-3.421 9.725 9.725 0 00.253-1.723 4.037 4.037 0 000-.53zm-33.763 13.662a34.058 34.058 0 01-4.048-4.005 2.765 2.765 0 011.8-.593 3.053 3.053 0 012.184.895 3.786 3.786 0 005.232 0 3.246 3.246 0 011.651-.856V40.3a3.879 3.879 0 00-2.083 1.014 3.11 3.11 0 01-4.368 0c-.119-.096-.24-.194-.368-.29zm12.15 7.717a65.782 65.782 0 01-9.78-5.851h.181a3.75 3.75 0 002.616-1.048 3.239 3.239 0 011.651-.856V42.9l.159.1a3.865 3.865 0 002.715.4 3.283 3.283 0 012.274.3l.184.116.183-.116a3.277 3.277 0 012.274-.3 3.865 3.865 0 002.715-.4l.159-.1v-1.911a3.257 3.257 0 011.654.857 3.745 3.745 0 002.615 1.048h.179a65.821 65.821 0 01-9.779 5.847zm-4.646-6.23v-6.767a3.2 3.2 0 001.1.2 8.608 8.608 0 001.081-.069 3.493 3.493 0 012.115.206v6.769a3.137 3.137 0 00-1.013-.2h-.184a9.28 9.28 0 00-.991.071 3.5 3.5 0 01-2.108-.21zm4.988.341v-6.768a3.493 3.493 0 012.115-.206 8.643 8.643 0 001.084.069 3.18 3.18 0 001.1-.2v6.767a3.5 3.5 0 01-2.115.206 7.759 7.759 0 00-1.175-.066 3.139 3.139 0 00-1.009.198zm11.795-1.818c-.123.093-.239.187-.353.279a3.11 3.11 0 01-4.368 0 3.876 3.876 0 00-2.085-1.013v-3.835a3.248 3.248 0 011.654.856 3.785 3.785 0 005.231 0 3.055 3.055 0 012.184-.895 2.755 2.755 0 011.8.593 34.187 34.187 0 01-4.063 4.015zm6.171-6.9a23.6 23.6 0 01-1.673 2.351 3.485 3.485 0 00-2.235-.749 3.746 3.746 0 00-2.616 1.049 3.112 3.112 0 01-4.368 0 3.876 3.876 0 00-2.085-1.015v-1.207l-.325.207-.2.127a3.276 3.276 0 01-2.274.3 4.033 4.033 0 00-2.53.293 4.037 4.037 0 00-2.531-.293 3.276 3.276 0 01-2.274-.3l-.2-.127-.326-.207v1.211a3.88 3.88 0 00-2.083 1.015 3.112 3.112 0 01-4.368 0 3.746 3.746 0 00-2.616-1.049 3.482 3.482 0 00-2.236.75 23.637 23.637 0 01-1.674-2.353 20.09 20.09 0 01-.21-.346 3.958 3.958 0 001.937-.991 3.11 3.11 0 014.368 0 3.789 3.789 0 005.232 0 3.11 3.11 0 014.368 0 3.788 3.788 0 005.231 0 3.111 3.111 0 014.369 0 3.788 3.788 0 005.231 0 3.11 3.11 0 014.368 0 3.955 3.955 0 001.934.993q-.101.17-.214.345zm2.277-6.776v.5a8.81 8.81 0 01-.2 1.427 14.994 14.994 0 01-1.5 3.861 3.123 3.123 0 01-1.867-.881 3.789 3.789 0 00-5.232 0 3.112 3.112 0 01-4.368 0 3.788 3.788 0 00-5.231 0 3.113 3.113 0 01-4.369 0 3.788 3.788 0 00-5.231 0 3.112 3.112 0 01-4.368 0 3.789 3.789 0 00-5.232 0 3.129 3.129 0 01-1.869.882 15.011 15.011 0 01-1.5-3.862 8.825 8.825 0 01-.2-1.427v-2.8a1.3 1.3 0 112.6 0v4.217h3.83V24.2a1.3 1.3 0 112.6 0v5.074h3.829v-5.932a1.3 1.3 0 012.6 0v5.931h3.829v-6.789a1.3 1.3 0 012.6 0v6.789h3.83v-5.931a1.3 1.3 0 112.6 0v5.931h3.829V24.2a1.3 1.3 0 112.6 0v5.074h3.83v-4.218a1.3 1.3 0 112.6 0zm0-4.237a2.328 2.328 0 00-3.628 1.931v3.189h-1.772V24.2a2.328 2.328 0 10-4.656 0v4.046h-1.773v-4.9a2.328 2.328 0 10-4.656 0v4.9h-1.772v-5.762a2.329 2.329 0 00-4.657 0v5.761h-1.772v-4.9a2.328 2.328 0 10-4.656 0v4.9h-1.772V24.2a2.329 2.329 0 00-4.657 0v4.046h-1.772v-3.19a2.328 2.328 0 00-3.628-1.931v-1.063a41.418 41.418 0 0141.171 0zM176.443 5.289c.246-.021.5-.038.777-.051l.49-.024V4.25a42.12 42.12 0 011.33 0v.964l.489.024c.285.014.541.031.782.051l.557.047V4.319c.468.028.94.064 1.412.108V7.3c-1.3-.1-2.612-.151-3.9-.151s-2.6.051-3.9.151V4.427c.471-.044.942-.08 1.409-.108v1.017zM174.8 8.3c1.2-.086 2.4-.13 3.58-.13s2.381.044 3.576.13l-.526 1.025.777 6.317a43.154 43.154 0 00-7.657 0l.773-6.32zm24.165 12.771a41.618 41.618 0 00-15.676-5.065l-.8-6.493.82-1.6V3.5l-.461-.048a42.784 42.784 0 00-2.47-.186l-.539-.025-.27-.008a42.421 42.421 0 00-2.391.001l-.268.007-.538.025c-.812.038-1.642.1-2.467.186l-.461.048v4.42l.816 1.6-.794 6.5a41.635 41.635 0 00-15.676 5.065V1.029h41.171z" class="cls-1"/><path d="M188.884 12.639a3.282 3.282 0 012.274.3l.183.117.184-.117a3.282 3.282 0 012.274-.3 3.87 3.87 0 002.715-.4l.159-.1V3.8l-.527.335a3.282 3.282 0 01-2.274.3 4.037 4.037 0 00-2.531.293 4.034 4.034 0 00-2.53-.293 3.282 3.282 0 01-2.274-.3l-.527-.335v8.334l.159.1a3.87 3.87 0 002.715.405zm2.8-7.315a3.493 3.493 0 012.115-.206 4.491 4.491 0 002.188-.135v6.768a3.493 3.493 0 01-2.115.206 4.491 4.491 0 00-2.188.135zm-4.984-.341a4.491 4.491 0 002.188.135 3.493 3.493 0 012.112.206v6.769a3.261 3.261 0 00-1.2-.206 9.28 9.28 0 00-.991.07 3.492 3.492 0 01-2.115-.206z" class="cls-1"/><path d="M187.314 6.643a2.22 2.22 0 001.537.229 1.817 1.817 0 011.261.164.221.221 0 00.115.033.214.214 0 00.115-.395 2.213 2.213 0 00-1.537-.228 1.823 1.823 0 01-1.261-.165.214.214 0 00-.23.362zM187.314 8.522a2.214 2.214 0 001.537.228 1.828 1.828 0 011.261.164.214.214 0 10.23-.361 2.22 2.22 0 00-1.537-.229 1.822 1.822 0 01-1.261-.164.214.214 0 00-.23.362zM188.851 10.629a1.822 1.822 0 011.261.164.214.214 0 10.23-.362 2.213 2.213 0 00-1.537-.228 1.822 1.822 0 01-1.261-.164.214.214 0 00-.23.362 2.214 2.214 0 001.537.228zM193.832 10.629a2.214 2.214 0 001.537-.228.214.214 0 10-.23-.362 1.822 1.822 0 01-1.261.164 2.218 2.218 0 00-1.537.228.214.214 0 10.23.362 1.822 1.822 0 011.261-.164zM192.456 8.948a.213.213 0 00.115-.034 1.828 1.828 0 011.261-.164 2.214 2.214 0 001.537-.228.214.214 0 10-.23-.362 1.822 1.822 0 01-1.261.164 2.219 2.219 0 00-1.537.229.214.214 0 00.115.395zM192.456 7.069a.221.221 0 00.115-.033 1.817 1.817 0 011.261-.164 2.22 2.22 0 001.537-.229.214.214 0 00-.23-.362 1.823 1.823 0 01-1.261.165 2.213 2.213 0 00-1.537.228.214.214 0 00.115.395zM163.12 12.639a3.282 3.282 0 012.274.3l.184.117.184-.117a3.276 3.276 0 012.274-.3 3.867 3.867 0 002.714-.4l.159-.1V3.8l-.526.335a3.283 3.283 0 01-2.274.3 4.043 4.043 0 00-2.531.293 4.036 4.036 0 00-2.531-.293 3.283 3.283 0 01-2.274-.3l-.526-.335v8.334l.159.1a3.867 3.867 0 002.714.405zm2.8-7.315a3.492 3.492 0 012.115-.206 4.491 4.491 0 002.188-.135v6.768a3.493 3.493 0 01-2.115.206 4.491 4.491 0 00-2.188.135zm-4.989-.341a4.491 4.491 0 002.188.135 3.492 3.492 0 012.115.206v6.769a3.26 3.26 0 00-1.2-.206 9.3 9.3 0 00-.992.07 3.493 3.493 0 01-2.115-.206z" class="cls-1"/><path d="M161.551 6.643a2.217 2.217 0 001.536.229 1.819 1.819 0 011.262.164.219.219 0 00.115.033.214.214 0 00.115-.395 2.214 2.214 0 00-1.537-.228 1.825 1.825 0 01-1.262-.165.214.214 0 10-.229.362zM161.551 8.522a2.211 2.211 0 001.536.228 1.83 1.83 0 011.262.164.211.211 0 00.115.034.214.214 0 00.115-.395 2.22 2.22 0 00-1.537-.229 1.825 1.825 0 01-1.262-.164.214.214 0 10-.229.362zM163.087 10.629a1.824 1.824 0 011.262.164.211.211 0 00.115.034.215.215 0 00.115-.4 2.214 2.214 0 00-1.537-.228 1.825 1.825 0 01-1.262-.164.214.214 0 10-.229.362 2.216 2.216 0 001.536.232zM168.069 10.629a2.211 2.211 0 001.536-.228.214.214 0 00-.229-.362 1.825 1.825 0 01-1.262.164 2.214 2.214 0 00-1.537.228.215.215 0 00.115.4.211.211 0 00.115-.034 1.824 1.824 0 011.262-.168zM166.692 8.948a.211.211 0 00.115-.034 1.83 1.83 0 011.262-.164 2.211 2.211 0 001.536-.228.214.214 0 00-.229-.362 1.825 1.825 0 01-1.262.164 2.22 2.22 0 00-1.537.229.214.214 0 00.115.395zM166.692 7.069a.219.219 0 00.115-.033 1.819 1.819 0 011.262-.164 2.217 2.217 0 001.536-.229.214.214 0 00-.229-.362 1.825 1.825 0 01-1.262.165 2.214 2.214 0 00-1.537.228.214.214 0 00.115.395zM179.4 12.834l-.383-3.134q-.322-.006-.647-.006t-.632 0l-.385 3.129c.3-.005.606-.009.909-.009.38.006.76.012 1.138.02zM174.351 37.4a2.214 2.214 0 001.537.228c.08-.008.16-.017.239-.023a1.546 1.546 0 011.022.187.213.213 0 00.3-.066.21.21 0 00.026-.17.216.216 0 00-.092-.125 1.673 1.673 0 00-.659-.244 3.463 3.463 0 00-.878.015l-.2.02a1.584 1.584 0 01-1.064-.184.214.214 0 00-.23.362zM174.351 39.282a2.214 2.214 0 001.537.228 1.822 1.822 0 011.261.164.214.214 0 10.23-.362 2.213 2.213 0 00-1.537-.228 1.822 1.822 0 01-1.261-.164.214.214 0 10-.23.362zM176.249 41.357a1.441 1.441 0 01.9.2.221.221 0 00.115.033.214.214 0 00.115-.395 1.719 1.719 0 00-.227-.12 2.459 2.459 0 00-1.31-.108l-.085.009a1.718 1.718 0 01-1.176-.173.214.214 0 00-.3.066.208.208 0 00-.029.151.216.216 0 00.016.055.219.219 0 00.079.09 1.732 1.732 0 00.858.263 4.287 4.287 0 00.679-.035c.126-.017.247-.03.365-.036zM180.509 41.357c.119.006.238.019.36.032a4.313 4.313 0 00.681.035 1.722 1.722 0 00.856-.263.219.219 0 00.079-.09.269.269 0 00.017-.055.214.214 0 00-.326-.217 1.713 1.713 0 01-1.174.173l-.087-.009a2.455 2.455 0 00-1.309.108 1.669 1.669 0 00-.228.12.214.214 0 00.115.395.221.221 0 00.115-.033 1.446 1.446 0 01.901-.196zM179.493 39.708a.213.213 0 00.115-.034 1.822 1.822 0 011.261-.164 2.214 2.214 0 001.537-.228.214.214 0 10-.23-.362 1.822 1.822 0 01-1.261.164 2.214 2.214 0 00-1.537.228.215.215 0 00.115.4zM179.493 37.829a.213.213 0 00.115-.034 1.552 1.552 0 011.024-.187c.078.006.157.015.237.023a2.214 2.214 0 001.537-.228.214.214 0 10-.23-.362 1.584 1.584 0 01-1.062.184l-.2-.02a3.447 3.447 0 00-.876-.015 1.651 1.651 0 00-.661.244.218.218 0 00-.092.126.216.216 0 00.026.169.213.213 0 00.182.1zM128.229 17.159a4.4 4.4 0 01-1.842-.373 3.343 3.343 0 01-1.871-2.257 5.735 5.735 0 01-.1-2.282 5.822 5.822 0 011.009-2.608 5.033 5.033 0 013.252-2.125 4.642 4.642 0 012.511.146 3.33 3.33 0 012.193 2.415 5.554 5.554 0 01.126 1.914 5.911 5.911 0 01-.768 2.5 5.085 5.085 0 01-4.012 2.639c-.164.019-.327.021-.498.031zm-1.607-3.7c.018.166.036.476.088.781a1.61 1.61 0 00.71 1.151 2.049 2.049 0 002.249-.158 3.686 3.686 0 001.062-1.4 6.251 6.251 0 00.5-2.007 5.066 5.066 0 00-.066-1.549 1.6 1.6 0 00-.552-.982 1.853 1.853 0 00-2.007-.182 2.773 2.773 0 00-1.28 1.289 6.4 6.4 0 00-.704 3.058zm11.729-4.5c.051 0 2 0 2.295-.009.245-.01.307-.073.355-.315s.088-.472.133-.707c.063-.33.016-.387-.318-.387h-1.98c-.028 0-.209.021-.279-.088a.866.866 0 010-.445c.275-1.6.353-2.036.98-2.224a3.319 3.319 0 011.983.358c.195.05.291-.008.373-.193a4.484 4.484 0 00.215-.7.44.44 0 00-.239-.529 1.759 1.759 0 00-.349-.155 4.484 4.484 0 00-2.594-.134 3.235 3.235 0 00-1.342.749c-.784.728-.889 1.393-1.1 2.776l-.091.583h-1.092a1.5 1.5 0 00-.208.014.257.257 0 00-.242.216c-.064.319-.128.638-.18.959-.024.146.026.2.173.217a1.97 1.97 0 00.243.016l1.116.007h.327" class="cls-1"/><path d="M138.366 8.894c-.273 3.715-.671 6.493-.857 7.5a6.04 6.04 0 01-.5 1.679 3.7 3.7 0 01-.553.916 4.047 4.047 0 01-2.994 1.119c-.139-.02-.406-.036-.5-.287a.554.554 0 01.036-.436c.252-.352.787-.112 1.2-.211 1-.24 1.275-2.5 1.339-3.086.27-2.429.514-4.888.724-7.443zM2.343 3.468c1.172 0 1.283.066 1.283.553v8.535c0 1.127.111 1.769.641 2.189a3.441 3.441 0 002.123.555 2.892 2.892 0 001.99-.552 2.624 2.624 0 00.685-2.189V4.021c0-.487.067-.553 1.239-.553s1.237.066 1.237.553v8.734a4.05 4.05 0 01-1.127 3.184 5.664 5.664 0 01-4.024 1.238 5.924 5.924 0 01-4.135-1.216 4.072 4.072 0 01-1.194-3.206V5.5c0-1.437-.752-1.238-.752-1.68 0-.288.332-.354 1.548-.354zM24.554 12.534V5.5c0-1.437-.752-1.238-.752-1.68 0-.288.332-.354 1.548-.354h.376c1.216 0 1.548.066 1.548.354 0 .442-.752.243-.752 1.68v11.146c0 .288-.132.4-.774.4h-.132c-.575 0-.664-.066-.907-.376L18.341 8.6c-.31-.4-.686-.885-.906-1.194h-.045v7.604c0 1.437.752 1.238.752 1.68 0 .288-.332.354-1.548.354h-.376c-1.216 0-1.547-.066-1.547-.354 0-.442.751-.243.751-1.68V5.5c0-1.437-.751-1.238-.751-1.68 0-.288.331-.354 1.547-.354h.133c1.061 0 1.194.2 1.835 1L23.6 11.34c.309.4.685.884.906 1.194zM33.366 15.01c0 1.437.751 1.238.751 1.68 0 .288-.331.354-1.547.354h-.97c-1.216 0-1.548-.066-1.548-.354 0-.442.752-.243.752-1.68V5.5c0-1.437-.752-1.238-.752-1.68 0-.288.332-.354 1.548-.354h.973c1.216 0 1.547.066 1.547.354 0 .442-.751.243-.751 1.68zM46.269 5.723a2.61 2.61 0 00.2-.8.952.952 0 00-.376-.729c-.177-.155-.243-.244-.243-.354 0-.332.287-.376 1.9-.376 1.57 0 1.9.044 1.9.354a.423.423 0 01-.2.332 3.178 3.178 0 00-1.125 1.55l-4.113 10.79c-.176.487-.4.553-.729.553h-.354c-.332 0-.531-.066-.73-.553l-4.511-11.1A2.239 2.239 0 0036.7 4.131a.33.33 0 01-.222-.309c0-.332.708-.354 1.77-.354 1.459 0 1.768.177 2.233 1.349l1.857 4.688c.332.818.951 2.387 1.327 3.382h.035c.42-1.238.73-2.1 1.194-3.382zM55.3 15.364c.4-.044 1.04-.067 2.123-.067h3.516c.265 0 .353.067.353.332v1.084c0 .243-.088.331-.353.331H53.53c-1.216 0-1.547-.066-1.547-.354 0-.442.751-.243.751-1.68V5.5c0-1.437-.751-1.238-.751-1.68 0-.288.331-.354 1.547-.354h7.186c.266 0 .354.066.354.332v1.085c0 .243-.088.332-.354.332h-3.294c-1.083 0-1.725-.022-2.123-.066v4.024h4.445c.265 0 .353.066.353.332v1.039c0 .243-.088.331-.353.331H55.3zM70.983 11.3l2.941 3.87a4.557 4.557 0 001.393 1.282c.133.089.177.155.177.266 0 .309-.685.331-1.813.331-1.26 0-1.526-.177-2.123-.972l-3.206-4.246H67.07v3.179c0 1.437.752 1.238.752 1.68 0 .288-.332.354-1.548.354H65.3c-1.216 0-1.548-.066-1.548-.354 0-.442.752-.243.752-1.68V5.5c0-1.437-.752-1.238-.752-1.68 0-.288.332-.354 1.548-.354h1.77a11.55 11.55 0 014.378.6 3.544 3.544 0 012.3 3.449 3.676 3.676 0 01-2.765 3.785zM67.8 5.06h-.73v5.2c3.051 0 4.024-1 4.024-2.675 0-1.994-1.349-2.525-3.294-2.525zM77.442 6.7c0-1.9 1.791-3.361 4.533-3.361a5.531 5.531 0 013.538 1.084 1.307 1.307 0 01.464 1.077c0 .642-.354 1.261-.884 1.261-.332 0-.619-.266-.951-.575a3.656 3.656 0 00-2.432-1.06c-.973 0-1.7.465-1.7 1.261 0 2.653 6.5 2.388 6.5 6.766a3.662 3.662 0 01-1.128 2.741 5.458 5.458 0 01-3.759 1.283 6.323 6.323 0 01-3.825-1.15 1.26 1.26 0 01-.509-1.105c0-.62.354-1.261.907-1.261.774 0 1.393 1.725 3.6 1.725a1.905 1.905 0 002.145-1.924c.002-2.962-6.499-2.562-6.499-6.762zM92.166 15.01c0 1.437.752 1.238.752 1.68 0 .288-.331.354-1.548.354h-.97c-1.217 0-1.548-.066-1.548-.354 0-.442.752-.243.752-1.68V5.5c0-1.437-.752-1.238-.752-1.68 0-.288.331-.354 1.548-.354h.972c1.217 0 1.548.066 1.548.354 0 .442-.752.243-.752 1.68zM105.735 3.468c.265 0 .354.066.354.332v1.083c0 .243-.089.332-.354.332h-1.658c-1.084 0-1.725-.022-2.123-.066v9.861c0 1.437.752 1.238.752 1.68 0 .288-.332.354-1.548.354h-.972c-1.217 0-1.549-.066-1.549-.354 0-.442.753-.243.753-1.68V5.149c-.4.044-1.04.066-2.123.066h-1.659c-.265 0-.354-.089-.354-.332V3.8c0-.266.089-.332.354-.332zM120.725 3.822a.423.423 0 01-.2.332 4.153 4.153 0 00-1.193 1.546l-3.56 6.943v2.367c0 1.437.751 1.238.751 1.68 0 .288-.331.354-1.547.354H114c-1.216 0-1.548-.066-1.548-.354 0-.442.752-.243.752-1.68v-2.388l-3.67-7.23a2.509 2.509 0 00-1.217-1.261.329.329 0 01-.221-.309c0-.332.664-.354 1.769-.354 1.459 0 1.769.243 2.322 1.371l1.061 2.123a151.851 151.851 0 011.636 3.338h.045c.464-.973 1.039-2.1 1.68-3.338l.641-1.239a1.794 1.794 0 00.243-.8.951.951 0 00-.375-.729c-.178-.155-.244-.244-.244-.354 0-.332.31-.376 1.924-.376 1.573.004 1.927.048 1.927.358z" class="cls-1"/></g></g></svg>