<svg xmlns="http://www.w3.org/2000/svg" id="Layer_2" viewBox="0 0 373.55 70.87"><defs><style>.cls-1,.cls-2{fill:#fff}.cls-3{fill:#ddb10a}.cls-4{fill:#21409a}.cls-5{fill:#231f20}.cls-2{fill-rule:evenodd}</style></defs><g id="Layer_1-2"><path d="M272.35 47.15v3.27c0 .24-.19.38-.51.35l-1.62-.11c-.11 0-.24-.05-.27-.24l-.05-1.46c-.76-.11-1.54-.19-2.27-.19-5.4 0-6.75 4.35-6.75 8.13 0 4.67 2.03 7.92 6.86 7.92 1.51 0 3.16-.32 4.46-.68l.08 2.32c-1.59.62-3.27.97-5.19.97-5.78 0-9.51-3.24-9.51-10.46 0-5.27 2.59-10.81 9.78-10.81 1.68 0 3.65.38 5 .97ZM291.45 56.71c0 7.16-3.16 10.62-8.46 10.62s-8.46-3.57-8.46-10.62c0-5.08 1.92-10.65 8.51-10.65 5.65 0 8.4 4.32 8.4 10.65Zm-13.7-.05c0 3.54.81 8.13 5.24 8.13 3.67 0 5.27-3.13 5.27-8.13 0-3.62-.89-8.08-5.24-8.08s-5.27 4.57-5.27 8.08ZM307.36 63.66c.14 0 .22.08.22.22v3.3h-13.1c-.22 0-.32-.16-.3-.43l.08-1.35c0-.08.05-.19.22-.22l.78-.05V48.27l-.84-.05c-.19 0-.27-.19-.24-.43l.08-1.35c0-.14.08-.22.22-.22h4.62c.22 0 .32.16.3.43l-.08 1.35c0 .08-.05.19-.22.22l-.78.05v16.4h7.21l.05-.84c0-.19.19-.27.43-.24l1.35.08ZM323.22 63.66c.14 0 .22.08.22.22v3.3h-13.1c-.22 0-.32-.16-.3-.43l.08-1.35c0-.08.05-.19.22-.22l.78-.05V48.27l-.84-.05c-.19 0-.27-.19-.24-.43l.08-1.35c0-.14.08-.22.22-.22h4.62c.22 0 .32.16.3.43l-.08 1.35c0 .08-.05.19-.22.22l-.78.05v16.4h7.21l.05-.84c0-.19.19-.27.43-.24l1.35.08ZM339.08 63.66c.14 0 .22.08.22.22v3.3h-13.1c-.22 0-.32-.16-.3-.43l.08-1.35c0-.08.05-.19.22-.22l.78-.05V48.27l-.84-.05c-.19 0-.27-.19-.24-.43l.08-1.35c0-.14.08-.22.22-.22h12.65v3.3c0 .22-.16.32-.43.3l-1.35-.08c-.08 0-.19-.05-.22-.22l-.05-.78h-6.73v6.4h7.62v2.49h-7.62v7.05h7.19l.05-.84c0-.19.19-.27.43-.24l1.35.08ZM357.15 57.5v8.43c-1.89.89-4.05 1.4-6.3 1.4-5.73 0-9.65-3.43-9.65-10.62 0-5.54 3.03-10.65 10.19-10.65 1.78 0 3.62.27 5.05.92v3.32c0 .24-.19.38-.51.35l-1.62-.11c-.11 0-.24-.05-.27-.24l-.05-1.46c-.78-.13-1.57-.19-2.35-.19-5.46 0-7.16 3.89-7.16 8 0 4.94 2.05 8.05 6.7 8.05.97 0 2.08-.16 2.86-.49v-4.67l-.78-.05c-.19 0-.27-.19-.24-.43l.08-1.35c0-.14.08-.22.22-.22h3.84ZM373.33 63.66c.14 0 .22.08.22.22v3.3h-13.1c-.22 0-.32-.16-.3-.43l.08-1.35c0-.08.05-.19.22-.22l.78-.05V48.27l-.84-.05c-.19 0-.27-.19-.24-.43l.08-1.35c0-.14.08-.22.22-.22h12.65v3.3c0 .22-.16.32-.43.3l-1.35-.08c-.08 0-.19-.05-.22-.22l-.05-.78h-6.73v6.4h7.62v2.49h-7.62v7.05h7.19l.05-.84c0-.19.19-.27.43-.24l1.35.08ZM288.51 1.84c.39 0 .59.29.54.79l-.15 2.45c0 .15-.1.34-.39.39l-1.42.1h-.15v20.3c0 9.91-3.87 14.61-13.78 14.61s-13.58-3.19-13.58-14.61V5.57l-1.52-.1c-.34 0-.49-.34-.44-.78l.15-2.45c0-.25.15-.39.39-.39h8.39c.39 0 .59.29.54.79l-.15 2.45c0 .15-.1.34-.39.39l-1.42.1v21.28c0 6.08 1.81 9.37 7.99 9.37 6.87 0 8.44-4.22 8.44-9.37V5.57l-1.52-.1c-.34 0-.49-.34-.44-.78l.15-2.45c0-.25.15-.39.39-.39h8.39ZM339.34 1.84c.39 0 .59.29.54.79l-.15 2.45c0 .15-.1.34-.39.39l-1.37.1-8.29 32.61c-.29 1.08-1.18 1.72-2.26 1.72l-3.83-.15c-.54 0-.74-.34-.88-.88l-6.67-28.69h-.05l-6.57 27.41c-.25.98-.88 2.35-2.6 2.3l-3.68-.15c-.44 0-.74-.25-.88-.88l-8.04-33.3-1.47-.1c-.34 0-.49-.34-.44-.78l.15-2.45c0-.25.15-.39.39-.39h8.09c.39 0 .59.29.54.79l-.15 2.45c0 .15-.1.34-.39.39l-1.37.1 6.28 28.59h.05l7.01-30.06c.39-1.72 1.23-2.31 2.4-2.26l2.8.15c.49.05.69.29.83.93l7.11 31.24h.05l6.57-28.59-1.47-.1c-.34 0-.49-.34-.44-.78l.15-2.45c0-.25.15-.39.39-.39h8.04ZM372.17 36.27c.34 0 .49.34.44.78l-.15 2.45c0 .25-.15.39-.34.39h-8.58c-.39 0-.59-.29-.54-.78l.15-2.45c0-.15.1-.34.39-.39l1.37-.1-1.91-5.44h-15.55l-1.81 5.44 1.52.1c.34 0 .49.34.44.78l-.15 2.45c0 .25-.15.39-.39.39h-8.29c-.39 0-.59-.29-.54-.78l.15-2.45c0-.15.1-.34.39-.39l1.37-.1 10.99-30.6-1.47-.1c-.34 0-.49-.34-.44-.78l.15-2.45c0-.25.15-.39.39-.39h7.8l13.14 34.33 1.47.1Zm-10.74-10.05-6.38-18.1H355l-6.03 18.1h12.46ZM78.79 1.84v1.71c0 .11-.08.17-.22.15l-.7-.04s-.1-.03-.11-.11l-.03-.41-2.13-.01v8.51l.43.03c.1 0 .14.1.13.22l-.04.7c0 .07-.04.11-.11.11h-2.39c-.11 0-.17-.08-.15-.22l.04-.7s.03-.1.11-.11l.41-.03V3.12h-1.97l-.03.43c0 .1-.1.14-.22.13l-.7-.04c-.07 0-.11-.04-.11-.11V1.84h7.81ZM89.22 11.66c.1 0 .14.1.13.22l-.04.7c0 .07-.04.11-.11.11h-2.39c-.11 0-.17-.08-.15-.22l.04-.7s.03-.1.11-.11l.41-.03V7.87h-4.87v3.76l.43.03c.1 0 .14.1.13.22l-.04.7c0 .07-.04.11-.11.11h-2.39c-.11 0-.17-.08-.15-.22l.04-.7s.03-.1.11-.11l.41-.03V2.9l-.43-.03c-.1 0-.14-.1-.13-.22l.04-.7c0-.07.04-.11.11-.11h2.39c.11 0 .17.08.15.22l-.04.7s-.03.1-.11.11l-.41.03v3.67h4.87V2.9l-.43-.03c-.1 0-.14-.1-.13-.22l.04-.7c0-.07.04-.11.11-.11h2.39c.11 0 .17.08.15.22l-.04.7s-.03.1-.11.11l-.41.03v8.73l.43.03ZM98.13 10.88c.07 0 .11.04.11.11v1.71h-6.79c-.11 0-.17-.08-.15-.22l.04-.7s.03-.1.11-.11l.41-.03V2.9l-.43-.03c-.1 0-.14-.1-.13-.22l.04-.7c0-.07.04-.11.11-.11H98v1.71c0 .11-.08.17-.22.15l-.7-.04s-.1-.03-.11-.11l-.03-.41h-3.48v3.32h3.95v1.29h-3.95v3.65h3.72l.03-.43c0-.1.1-.14.22-.13l.7.04ZM114.27 1.84c.11 0 .17.08.15.22l-.04.7s-.03.1-.11.11l-.41.03h-.04v5.79c0 2.83-1.1 4.17-3.93 4.17s-3.88-.91-3.88-4.17V2.9l-.43-.03c-.1 0-.14-.1-.13-.22l.04-.7c0-.07.04-.11.11-.11h2.39c.11 0 .17.08.15.22l-.04.7s-.03.1-.11.11l-.4.03v6.07c0 1.74.52 2.67 2.28 2.67 1.96 0 2.41-1.2 2.41-2.67V2.9l-.43-.03c-.1 0-.14-.1-.13-.22l.04-.7c0-.07.04-.11.11-.11h2.39ZM125.99 1.84c.11 0 .17.08.15.22l-.04.7s-.03.1-.11.11l-.4.03h-.13v9.8h-1.05c-.07 0-.11-.03-.15-.08l-5.72-8v7.02h.13l.43.03c.1 0 .14.1.13.22l-.04.7c0 .07-.04.11-.11.11h-2.39c-.11 0-.17-.08-.15-.22l.04-.7s.03-.1.11-.11l.41-.03V2.9l-.43-.03c-.1 0-.14-.1-.13-.22l.04-.7c0-.07.04-.11.11-.11h1.55c.08 0 .13.04.17.1l5.61 7.84V2.9l-.43-.03c-.1 0-.14-.1-.13-.22l.04-.7c0-.07.04-.11.11-.11H126ZM130.96 11.66c.1 0 .14.1.13.22l-.04.7c0 .07-.04.11-.11.11h-2.39c-.11 0-.17-.08-.15-.22l.04-.7s.03-.1.11-.11l.41-.03V2.9l-.43-.03c-.1 0-.14-.1-.13-.22l.04-.7c0-.07.04-.11.11-.11h2.39c.11 0 .17.08.15.22l-.04.7s-.03.1-.11.11l-.41.03v8.73l.43.03ZM142.34 1.84c.11 0 .17.08.15.22l-.04.7s-.03.1-.11.11l-.41.03-3.47 9.46c-.07.21-.22.34-.45.34l-1.18-.04s-.07-.01-.1-.08l-3.63-9.67-.43-.03c-.1 0-.14-.1-.13-.22l.04-.7c0-.07.04-.11.11-.11h2.42c.11 0 .17.08.15.22l-.04.7s-.03.1-.11.11l-.41.03 2.81 7.89h.04l2.8-7.89-.43-.03c-.1 0-.14-.1-.13-.22l.04-.7c0-.07.04-.11.11-.11h2.37ZM150.79 10.88c.07 0 .11.04.11.11v1.71h-6.79c-.11 0-.17-.08-.15-.22l.04-.7s.03-.1.11-.11l.41-.03V2.9l-.43-.03c-.1 0-.14-.1-.13-.22l.04-.7c0-.07.04-.11.11-.11h6.55v1.71c0 .11-.08.17-.22.15l-.7-.04s-.1-.03-.11-.11l-.03-.41h-3.48v3.32h3.95v1.29h-3.95v3.65h3.72l.03-.43c0-.1.1-.14.22-.13l.7.04ZM160.69 11.66c.1 0 .14.1.13.22l-.04.7c0 .07-.04.11-.11.11h-1.6l-2.38-4.2h-1.54v3.13l.43.03c.1 0 .14.1.13.22l-.04.7c0 .07-.04.11-.11.11h-2.39c-.11 0-.17-.08-.15-.22l.04-.7s.03-.1.11-.11l.41-.03V2.9l-.43-.03c-.1 0-.14-.1-.13-.22l.04-.7c0-.07.04-.11.11-.11h3.16c2.73 0 4.02 1.04 4.02 3.25 0 1.41-.74 2.62-2.07 3.12l1.99 3.43.43.03Zm-4.32-4.41c1.51 0 2.38-.66 2.38-2.17s-.83-2.01-2.25-2.01h-1.34v4.18h1.22ZM169.38 9.71c0 1.76-1.3 3.05-3.75 3.05-1.32 0-2.37-.28-3.12-.6v-1.69c0-.13.1-.2.27-.18l.84.06c.06 0 .13.03.14.13l.03.76c.66.15 1.31.24 1.76.24 1.27 0 2.27-.43 2.27-1.59 0-1.25-.48-1.5-2.63-2.27-1.57-.59-2.64-1.39-2.64-2.94 0-1.75 1.33-2.91 3.69-2.91.87 0 1.69.08 2.48.28v1.83c0 .13-.1.2-.27.18l-.84-.06c-.06 0-.13-.03-.14-.13l-.03-.76c-.38-.04-.76-.07-1.11-.07-1.3 0-2.15.6-2.15 1.57s.59 1.37 2.5 2.06c2 .7 2.7 1.65 2.7 3.05M173.91 11.66c.1 0 .14.1.13.22l-.04.7c0 .07-.04.11-.11.11h-2.39c-.11 0-.17-.08-.16-.22l.04-.7s.03-.1.11-.11l.41-.03V2.9l-.43-.03c-.1 0-.14-.1-.13-.22l.04-.7c0-.07.04-.11.11-.11h2.39c.11 0 .17.08.15.22l-.04.7s-.03.1-.11.11l-.41.03v8.73l.43.03ZM183.53 1.84v1.71c0 .11-.08.17-.22.15l-.7-.04s-.1-.03-.11-.11l-.03-.41-2.13-.01v8.51l.43.03c.1 0 .14.1.13.22l-.04.7c0 .07-.04.11-.11.11h-2.39c-.11 0-.17-.08-.15-.22l.04-.7s.03-.1.11-.11l.41-.03V3.12h-1.97l-.03.43c0 .1-.1.14-.22.13l-.7-.04c-.07 0-.11-.04-.11-.11V1.84h7.81ZM192.96 1.84c.11 0 .17.08.15.22l-.04.7s-.03.1-.11.11l-.41.03-3.05 5.97v2.76l.43.03c.1 0 .14.1.13.22l-.04.7c0 .07-.04.11-.11.11h-2.39c-.11 0-.17-.08-.15-.22l.04-.7s.03-.1.11-.11l.41-.03V8.84l-3.01-5.95-.42-.03c-.1 0-.14-.1-.13-.22l.04-.7c0-.07.04-.11.11-.11h2.39c.11 0 .17.08.15.22l-.04.7s-.03.1-.11.11l-.39.03 2.18 4.51h.04l2.25-4.51-.43-.03c-.1 0-.14-.1-.13-.22l.04-.7c0-.07.04-.11.11-.11h2.37ZM207.12 7.28c0 3.71-1.64 5.5-4.38 5.5s-4.38-1.85-4.38-5.5c0-2.63.99-5.51 4.41-5.51 2.92 0 4.35 2.24 4.35 5.51m-7.09-.03c0 1.83.42 4.21 2.71 4.21 1.9 0 2.73-1.62 2.73-4.21 0-1.88-.46-4.18-2.71-4.18s-2.73 2.37-2.73 4.18M215.5 1.84v1.71c0 .11-.08.17-.22.15l-.7-.04s-.1-.03-.11-.11l-.03-.41h-3.5v3.32h3.79v1.29h-3.79v3.89l.43.03c.1 0 .14.1.13.22l-.04.7c0 .07-.04.11-.11.11h-2.39c-.11 0-.17-.08-.15-.22l.04-.7s.03-.1.11-.11l.41-.03V2.9l-.43-.03c-.1 0-.14-.1-.13-.22l.04-.7c0-.07.04-.11.11-.11h6.55ZM100.66 17.75c.25 0 .37.19.34.49l-.09 1.55c0 .09-.06.22-.25.25l-.87.06-5.23 20.57c-.19.68-.74 1.08-1.42 1.08l-2.41-.09c-.34 0-.46-.22-.56-.56L85.96 23h-.03l-4.15 17.29c-.16.62-.56 1.49-1.64 1.45l-2.32-.09c-.28 0-.46-.16-.56-.56l-5.07-21.01-.93-.06c-.22 0-.31-.22-.28-.49l.09-1.55c0-.16.09-.25.25-.25h5.1c.25 0 .37.19.34.49l-.09 1.55c0 .09-.06.22-.25.25l-.87.06 3.96 18.04h.03l4.42-18.96c.25-1.08.77-1.45 1.52-1.42l1.76.09c.31.03.43.19.53.59l4.48 19.71h.03l4.15-18.04-.93-.06c-.22 0-.31-.22-.28-.49l.09-1.55c0-.16.09-.25.25-.25h5.07ZM117.8 37.73c.15 0 .25.09.25.25v3.77h-15c-.25 0-.37-.19-.34-.5l.09-1.55c0-.09.06-.22.25-.25l.9-.06v-19.3l-.96-.06c-.22 0-.31-.22-.28-.49l.09-1.55c0-.15.09-.25.25-.25h14.48v3.77c0 .25-.19.37-.49.34l-1.55-.09c-.09 0-.22-.06-.25-.25l-.06-.9h-7.7v7.33h8.72v2.85h-8.72v8.07h8.23l.06-.96c0-.22.22-.31.49-.28l1.55.09ZM135.55 35.16c0 3.9-2.88 6.74-8.29 6.74-2.91 0-5.23-.62-6.9-1.33v-3.74c0-.28.22-.43.59-.4l1.85.12c.12 0 .28.06.31.28l.06 1.67c1.45.34 2.91.52 3.9.52 2.82 0 5.01-.96 5.01-3.53 0-2.75-1.05-3.31-5.82-5.01-3.47-1.3-5.85-3.06-5.85-6.5 0-3.87 2.94-6.43 8.17-6.43 1.92 0 3.74.19 5.48.62v4.05c0 .28-.22.43-.59.4l-1.86-.12c-.12 0-.28-.06-.31-.28l-.06-1.67c-.84-.09-1.67-.16-2.44-.16-2.88 0-4.76 1.33-4.76 3.46s1.3 3.03 5.54 4.55c4.42 1.55 5.97 3.65 5.97 6.74M154.05 17.75v3.77c0 .25-.19.37-.49.34l-1.55-.09c-.09 0-.22-.06-.25-.25l-.06-.9v-.03H147V39.4l.96.06c.22 0 .31.22.28.49l-.09 1.55c0 .16-.09.25-.25.25h-5.29c-.25 0-.37-.19-.34-.49l.09-1.55c0-.09.06-.22.25-.25l.9-.06V20.59h-4.36l-.06.96c0 .22-.22.31-.49.28l-1.55-.09c-.16 0-.25-.09-.25-.25v-3.74h17.26ZM171.41 37.73c.16 0 .25.09.25.25v3.77h-15c-.25 0-.37-.19-.34-.5l.09-1.55c0-.09.06-.22.25-.25l.9-.06v-19.3l-.96-.06c-.22 0-.31-.22-.28-.49l.09-1.55c0-.15.09-.25.25-.25h14.48v3.77c0 .25-.19.37-.5.34l-1.55-.09c-.09 0-.22-.06-.25-.25l-.06-.9h-7.7v7.33h8.73v2.85h-8.73v8.07h8.23l.06-.96c0-.22.22-.31.49-.28l1.55.09ZM191.54 39.46c.22 0 .31.22.28.5l-.09 1.55c0 .15-.09.25-.25.25h-3.53l-5.26-9.28h-3.4v6.93l.96.06c.22 0 .31.22.28.5l-.09 1.55c0 .15-.09.25-.25.25h-5.29c-.25 0-.37-.19-.34-.49l.09-1.55c0-.09.06-.22.25-.25l.9-.06v-19.3l-.96-.06c-.22 0-.31-.22-.28-.49l.09-1.55c0-.16.09-.25.25-.25h6.99c6.03 0 8.88 2.29 8.88 7.18 0 3.12-1.64 5.78-4.58 6.9l4.39 7.58.96.06Zm-9.56-9.74c3.34 0 5.26-1.45 5.26-4.8s-1.82-4.45-4.98-4.45h-2.97v9.25h2.69ZM215.27 17.75c.25 0 .37.19.34.49l-.09 1.55c0 .09-.06.22-.25.25l-.9.06h-.28v21.66h-2.32c-.16 0-.25-.06-.34-.19l-12.65-17.7V39.4h.28l.96.06c.22 0 .31.22.28.49l-.09 1.55c0 .16-.09.25-.25.25h-5.29c-.25 0-.37-.19-.34-.49l.09-1.55c0-.09.06-.22.25-.25l.9-.06V20.1l-.96-.06c-.22 0-.31-.22-.28-.49l.09-1.55c0-.16.09-.25.25-.25h3.43c.19 0 .28.09.37.22l12.4 17.32V20.1l-.96-.06c-.22 0-.31-.22-.28-.49l.09-1.55c0-.16.09-.25.25-.25h5.29ZM89.33 65.24c.19 0 .26.19.24.42l-.08 1.32c0 .13-.08.21-.19.21h-4.63c-.21 0-.32-.16-.29-.42l.08-1.32c0-.08.05-.19.21-.21l.74-.05-1.03-2.94h-8.39l-.98 2.94.82.05c.19 0 .26.19.24.42l-.08 1.32c0 .13-.08.21-.21.21h-4.47c-.21 0-.32-.16-.29-.42l.08-1.32c0-.08.05-.19.21-.21l.74-.05 5.93-16.52-.79-.05c-.18 0-.26-.19-.24-.42l.08-1.32c0-.13.08-.21.21-.21h4.21l7.09 18.53.79.05Zm-5.8-5.43-3.44-9.77h-.03l-3.26 9.77h6.72ZM106.11 46.66c.21 0 .32.16.29.42l-.08 1.32c0 .08-.05.19-.21.21l-.77.05h-.08v10.96c0 5.35-2.09 7.89-7.44 7.89s-7.33-1.72-7.33-7.89V48.66l-.82-.05c-.19 0-.26-.19-.24-.42l.08-1.32c0-.13.08-.21.21-.21h4.53c.21 0 .32.16.29.42l-.08 1.32c0 .08-.05.19-.21.21l-.77.05v11.49c0 3.28.98 5.06 4.32 5.06 3.71 0 4.55-2.28 4.55-5.06V48.66l-.82-.05c-.19 0-.26-.19-.24-.42l.08-1.32c0-.13.08-.21.21-.21h4.53ZM121.12 61.56c0 3.34-2.46 5.77-7.1 5.77-2.49 0-4.47-.53-5.9-1.14v-3.2c0-.24.19-.37.5-.34l1.59.11c.11 0 .24.05.27.24l.05 1.43c1.24.29 2.49.45 3.34.45 2.41 0 4.29-.82 4.29-3.02 0-2.36-.9-2.83-4.98-4.29-2.97-1.11-5-2.62-5-5.56 0-3.31 2.52-5.51 6.99-5.51 1.64 0 3.2.16 4.69.53v3.47c0 .24-.19.37-.5.34l-1.59-.11c-.11 0-.24-.05-.26-.24l-.05-1.43c-.71-.08-1.43-.13-2.09-.13-2.46 0-4.08 1.14-4.08 2.96s1.11 2.6 4.74 3.89c3.79 1.32 5.11 3.12 5.11 5.77M137.32 46.66v3.23c0 .21-.16.32-.42.29l-1.32-.08c-.08 0-.19-.05-.21-.21l-.05-.77v-.03h-4.02v16.1l.82.05c.19 0 .26.19.24.42l-.08 1.32c0 .13-.08.21-.21.21h-4.53c-.21 0-.32-.16-.29-.42l.08-1.32c0-.08.05-.19.21-.21l.77-.05v-16.1h-3.73l-.05.82c0 .19-.19.26-.42.24l-1.32-.08c-.13 0-.21-.08-.21-.21v-3.2h14.77ZM153.84 65.24c.19 0 .26.19.24.42l-.08 1.32c0 .13-.08.21-.21.21h-3.02l-4.5-7.94h-2.91v5.93l.82.05c.19 0 .26.19.24.42l-.08 1.32c0 .13-.08.21-.21.21h-4.53c-.21 0-.32-.16-.29-.42l.08-1.32c0-.08.05-.19.21-.21l.77-.05V48.66l-.82-.05c-.19 0-.26-.19-.24-.42l.08-1.32c0-.13.08-.21.21-.21h5.98c5.16 0 7.6 1.96 7.6 6.14 0 2.67-1.4 4.95-3.92 5.9l3.76 6.49.82.05Zm-8.18-8.34c2.86 0 4.5-1.24 4.5-4.1s-1.56-3.81-4.26-3.81h-2.54v7.92h2.3ZM173.61 65.24c.19 0 .26.19.24.42l-.08 1.32c0 .13-.08.21-.19.21h-4.63c-.21 0-.32-.16-.29-.42l.08-1.32c0-.08.05-.19.21-.21l.74-.05-1.03-2.94h-8.39l-.98 2.94.82.05c.19 0 .26.19.24.42l-.08 1.32c0 .13-.08.21-.21.21h-4.47c-.21 0-.32-.16-.29-.42l.08-1.32c0-.08.05-.19.21-.21l.74-.05 5.93-16.52-.79-.05c-.19 0-.26-.19-.24-.42l.08-1.32c0-.13.08-.21.21-.21h4.21l7.09 18.53.8.05Zm-5.8-5.43-3.44-9.77h-.03l-3.26 9.77h6.72ZM188.44 63.76c.13 0 .21.08.21.21v3.23h-12.84c-.21 0-.32-.16-.29-.42l.08-1.32c0-.08.05-.19.21-.21l.77-.05V48.68l-.82-.05c-.19 0-.26-.19-.24-.42l.08-1.32c0-.13.08-.21.21-.21h4.53c.21 0 .32.16.29.42l-.08 1.32c0 .08-.05.19-.21.21l-.77.05v16.07h7.07l.05-.82c0-.19.19-.26.42-.24l1.32.08ZM195.1 65.24c.19 0 .26.19.24.42l-.08 1.32c0 .13-.08.21-.21.21h-4.53c-.21 0-.32-.16-.29-.42l.08-1.32c0-.08.05-.19.21-.21l.77-.05V48.67l-.82-.05c-.18 0-.26-.19-.24-.42l.08-1.32c0-.13.08-.21.21-.21h4.53c.21 0 .32.16.29.42l-.08 1.32c0 .08-.05.19-.21.21l-.77.05v16.52l.82.05ZM215.38 65.24c.19 0 .26.19.24.42l-.08 1.32c0 .13-.08.21-.18.21h-4.63c-.21 0-.32-.16-.29-.42l.08-1.32c0-.08.05-.19.21-.21l.74-.05-1.03-2.94h-8.39l-.98 2.94.82.05c.19 0 .27.19.24.42l-.08 1.32c0 .13-.08.21-.21.21h-4.47c-.21 0-.32-.16-.29-.42l.08-1.32c0-.08.05-.19.21-.21l.74-.05 5.93-16.52-.79-.05c-.18 0-.26-.19-.24-.42l.08-1.32c0-.13.08-.21.21-.21h4.21l7.09 18.53.79.05Zm-5.8-5.43-3.44-9.77h-.03l-3.26 9.77h6.72ZM55.96 49.51c-5.31 8.7-14.54 13.89-24.73 13.89S11.81 58.21 6.5 49.51L.94 54.66c3.11 4.65 7.27 8.56 12.11 11.36 5.51 3.18 11.79 4.86 18.18 4.86s12.68-1.68 18.18-4.86c4.71-2.72 8.91-7 11.98-11.47l-5.44-5.03Z" class="cls-4"/><path d="M7.12 0h48.22v1.83H7.12z" class="cls-3"/><path d="M55.34 19.3c-.09 5.38 1.17 26.72-24.11 41.65C5.94 46.01 7.21 24.68 7.12 19.3V1.83h48.22V19.3Z" class="cls-4"/><path d="M10.3 38.04c3.06 7.51 9.08 15.91 20.92 22.91 11.85-7 17.86-15.4 20.92-22.91L31.22 18.69 10.3 38.04Z" class="cls-3"/><path d="M27.3 6.6v9.3c-2.5-.92-5.51-.19-7.1.99V7.68c1.4-1.37 4.71-1.98 7.1-1.08M12.4 6.62v9.3c2.5-.92 5.51-.19 7.1.99V7.7c-1.4-1.37-4.71-1.98-7.1-1.08" class="cls-2"/><path d="M29.44 14h-.02c-.36-.04-.63-.06-.81-.07V10.9c.18.01.45.03.79.07h.04c.71.03.81-.33.81-.33a.95.95 0 0 0-.81-.57h-.02c-.36-.04-.63-.06-.81-.07V7.44h-.63v9.35c-3.44-.73-6.03-.36-8.12 1.18-2.09-1.53-4.69-1.91-8.12-1.18V7.43h-.63v2.56c-.13 0-.31.02-.53.04v-.1c0-.07-.06-.13-.14-.13l-.86.09c-.07 0-.12.06-.12.13v1.1c0 .07.06.13.15.13l.85-.08c.07 0 .12-.06.12-.13v-.1c.22-.02.4-.03.53-.04v3.03c-.13 0-.31.02-.53.04v-.1c0-.07-.06-.13-.14-.13l-.86.09c-.07 0-.12.06-.12.13v1.09c0 .07.06.13.15.13l.85-.09c.07 0 .12-.06.12-.13v-.1c.22-.02.4-.03.53-.04v2.74l.39-.09c3.54-.82 6.13-.47 8.17 1.12l.19.15.19-.15c2.04-1.59 4.63-1.95 8.17-1.12l.39.09v-2.74c.18.01.45.03.79.07h.04c.71.03.81-.33.81-.33a.95.95 0 0 0-.81-.57M11.6 61.69c-.34.44-.91.51-1.51.04-.33-.25-.53-.52-.66-.75l.32-.42s.06-.03.1 0l.2.17s.03.03.01.06l-.14.19c.13.16.28.31.39.4.32.24.65.33.87.04.24-.31.17-.46-.22-1.07-.28-.45-.39-.85-.09-1.23.33-.43.89-.47 1.47-.01.21.17.4.34.56.54l-.35.45s-.06.03-.1 0l-.2-.17s-.03-.03-.01-.06l.14-.19c-.08-.08-.17-.16-.26-.23-.32-.25-.65-.26-.83-.02-.19.25-.12.45.23.99.36.56.35.93.09 1.27M14.96 64.23s.02.03.01.05l-.27.46-1.83-1.08s-.03-.05 0-.09l.12-.18s.02-.02.05-.01l.11.06 1.39-2.35-.11-.08s-.02-.05 0-.08l.12-.18s.03-.02.05-.01l1.76 1.04-.27.46s-.05.03-.08 0l-.18-.12s-.02-.02-.01-.05l.06-.11-.94-.55-.53.89 1.06.63-.2.35-1.06-.63-.58.98 1 .59.08-.11s.05-.02.08 0l.18.12ZM18.79 66.02s.03.03.02.05l-.21.49-1.95-.84s-.04-.04-.02-.08l.1-.2s.02-.02.05-.02l.12.04 1.08-2.51-.12-.06s-.03-.05 0-.08l.1-.2s.03-.03.05-.02l1.88.81-.21.49s-.05.04-.08.02l-.2-.1s-.03-.02-.02-.05l.04-.12-1-.43-.41.95 1.13.49-.16.37-1.13-.49-.45 1.05 1.07.46.06-.12s.05-.03.08 0l.2.1ZM23.98 64.7s.04.04.03.08l-.07.21s-.02.03-.04.02l-.12-.03-1.37.81.6 1.81.13.04s.03.04.02.08l-.07.21s-.02.03-.04.02l-.45-.13-.59-1.79-.38.23-.24.87.13.05s.03.04.02.08l-.07.21s-.02.03-.04.02l-.72-.2s-.04-.04-.03-.08l.07-.21s.02-.03.04-.02l.12.03.74-2.63-.13-.05s-.03-.04-.02-.08l.07-.21s.02-.03.04-.02l.72.2s.04.04.03.08l-.07.21s-.02.03-.04.02l-.13-.03-.33 1.18 1.43-.87-.13-.04s-.03-.04-.02-.08l.07-.21s.02-.03.04-.02l.81.23ZM31.69 65.59s.05.03.04.07l-.03.22s0 .03-.04.03h-.12l-.89 2.87c-.03.1-.11.15-.21.14l-.34-.03s-.06-.03-.07-.08l-.46-2.59-.71 2.41c-.03.09-.09.21-.24.19l-.33-.03s-.06-.03-.07-.08l-.56-3.01-.13-.02s-.04-.03-.04-.07l.03-.22s.01-.03.04-.03l.72.04s.05.03.04.07l-.03.22s0 .03-.04.03h-.12l.43 2.58.77-2.65c.04-.15.12-.2.22-.19l.25.03s.06.03.07.09l.49 2.82.72-2.52h-.13s-.04-.05-.04-.09l.03-.22s.01-.03.04-.03l.72.04ZM34.43 68.45s.05.03.04.07v.22s0 .03-.03.04l-.75.06s-.05-.02-.05-.07v-.22s0-.03.03-.04l.13-.02-.23-2.72h-.14s-.05-.02-.04-.06v-.22s0-.04.03-.04l.75-.06s.06.02.05.07v.22s0 .03-.03.04l-.13.02.23 2.72h.14ZM38.56 67.19c.1.54-.22 1.01-.97 1.16-.4.08-.74.05-.99 0l-.1-.52s.02-.06.07-.07l.26-.03s.04 0 .05.03l.05.23c.21 0 .42 0 .55-.03.39-.08.67-.27.6-.62-.07-.38-.23-.43-.94-.54-.52-.09-.89-.27-.99-.75-.1-.54.24-.97.96-1.11.27-.05.52-.07.78-.06l.11.56s-.02.07-.07.07l-.26.03s-.04 0-.05-.03l-.05-.23c-.12 0-.24.02-.34.04-.4.08-.63.31-.57.61.06.31.26.39.89.48.66.1.93.35 1.01.78M40.78 64.01c1.29-.43 1.83.07 2.16 1.04.41 1.21-.03 1.82-1.15 2.2l-.88.3s-.06 0-.07-.05l-.06-.21s0-.03.02-.04l.12-.05-.87-2.59-.13.03s-.05-.01-.06-.05l-.06-.21s0-.04.02-.04l.95-.32Zm1 2.83c.88-.3.88-.97.66-1.63-.25-.73-.58-1.16-1.54-.84l-.36.12.83 2.48.41-.14ZM47.04 63.15c.52 1.04.31 1.77-.45 2.15-.76.38-1.48.1-1.99-.92-.37-.73-.5-1.68.46-2.16.82-.41 1.53.01 1.99.93m-1.99.99c.26.51.71 1.12 1.35.8.53-.27.53-.84.17-1.56-.26-.52-.72-1.1-1.35-.79-.64.32-.43 1.04-.17 1.55M52.31 61.31s.05 0 .07.03l.12.19v.05l-.6.42s-.06 0-.08-.03l-.12-.19v-.05l.1-.08-1.25-1.68.45 2.11c.02.07.02.14-.04.18-.04.03-.1.07-.14.09-.04.02-.07.03-.11 0L48.8 61.2l1.17 1.74.12-.07s.05 0 .07.03l.12.19v.05l-.58.42s-.06 0-.08-.03l-.12-.19v-.05l.1-.08-1.5-2.28-.11.07s-.05 0-.07-.03l-.12-.19v-.05l.43-.3h.05l2.24 1.35-.55-2.52s0-.06.03-.09l.45-.32s.06 0 .08.03l.12.19s.01.03 0 .05l-.1.08 1.66 2.17.11-.07Z" class="cls-1"/><path d="m2.3 52.13 3.55-3.28.8-.76.45.74c.77 1.28 1.64 2.48 2.57 3.61l1.2-1.09a25.438 25.438 0 0 1-3.94-6.57c-.37-.9-.68-1.82-.94-2.76l-1.93 4.95-4.07.57s.01.03.02.05l2.28 4.54Z" class="cls-4"/><path d="M50.08 6.6v9.3c-2.5-.92-5.51-.19-7.1.99V7.68c1.4-1.37 4.71-1.98 7.1-1.08M35.18 6.62v9.3c2.49-.92 5.51-.19 7.1.99V7.7c-1.4-1.37-4.71-1.98-7.1-1.08" class="cls-2"/><path d="M52.22 14h-.02c-.36-.04-.63-.06-.81-.07V10.9c.18.01.45.03.79.07h.04c.71.03.81-.33.81-.33a.95.95 0 0 0-.81-.57h-.02c-.36-.04-.63-.06-.81-.07V7.44h-.63v9.35c-3.44-.73-6.03-.36-8.12 1.18-2.09-1.53-4.69-1.91-8.12-1.18V7.43h-.63v2.56c-.13 0-.31.02-.53.04v-.1c0-.07-.06-.13-.14-.13l-.86.09c-.07 0-.12.06-.12.13v1.1c0 .07.06.13.15.13l.85-.08c.07 0 .12-.06.12-.13v-.1c.22-.02.4-.03.53-.04v3.03c-.13 0-.31.02-.53.04v-.1c0-.07-.06-.13-.14-.13l-.86.09c-.07 0-.12.06-.12.13v1.09c0 .07.06.13.15.13l.85-.09c.07 0 .12-.06.12-.13v-.1c.22-.02.4-.03.53-.04v2.74l.39-.09c3.54-.82 6.13-.47 8.17 1.12l.19.15.19-.15c2.04-1.59 4.63-1.95 8.17-1.12l.39.09v-2.74c.18.01.45.03.79.07h.04c.71.03.81-.33.81-.33a.95.95 0 0 0-.81-.57" class="cls-1"/><path d="m60.12 52.13-3.54-3.28-.81-.76-.45.74c-.77 1.28-1.64 2.48-2.57 3.61l-1.2-1.09c1.63-1.97 2.96-4.18 3.94-6.57.37-.9.68-1.82.94-2.76l1.93 4.95 4.07.57s-.01.03-.02.05l-2.28 4.54Z" class="cls-4"/><path d="M32.45 45.47c1.42.71 2.64 1.06 3.38 1.02h.1c.25-.02.58-.09.82-.23.22-.13.37-.27.49-.46.15-.22.21-.4.22-.62l-.27.09c-.02 0-.08.02-.1.02-.83.13-1.86.02-3.29-.37-.23.26-.71.41-1.23.29-.04.1-.09.19-.13.28M34.48 37.66c-.04.09-.08.18-.13.26-.21.37-.5.64-.8.79v.28c.61-.27 1.23-.57 1.85-.91 2.3-1.23 3.92-2.6 4.42-3.57.01-.02.04-.08.06-.1.14-.26.26-.63.26-.96 0-.56-.24-1.05-.6-1.32-.47 1.1-1.34 2.35-2.53 3.52-.81.79-1.67 1.47-2.53 2.01M34.17 43.45c-.2.22-.55.42-.96.46-.08 0-.16.01-.24 0-.02.08-.05.17-.08.25 2.06.58 3.79.7 4.67.42.02 0 .08-.02.1-.03.25-.08.57-.24.78-.45.19-.19.31-.37.39-.59.09-.25.06-.47.06-.47-.09.06-.52.2-.52.2-.81.29-2.19.36-4.21.21M39.99 38.1c-.76.84-2.73 1.77-5.33 2.39-.17.27-.48.51-.87.65-.11.04-.23.07-.34.09l-.03.26c.21 0 .41-.02.62-.03 2.6-.15 4.65-.7 5.52-1.37.02-.02.07-.05.09-.07.23-.18.5-.46.64-.76.13-.27.18-.51.18-.77 0-.3-.06-.52-.19-.75-.07.09-.14.18-.21.26-.02.02-.06.07-.08.09M35.48 47.16c-.82-.02-2-.39-3.38-1.08-.06.11-.13.21-.19.31 1.06.55 2.01.93 2.8 1.11-.04.04-.08.08-.12.13-.16.15-.34.25-.58.33-.27.09-.6.08-.85.04-.02 0-.08-.01-.1-.02-.46-.07-1.07-.35-1.77-.8-.08.08-.16.16-.25.23.73.48 1.38.81 1.9.93-.13.11-.27.17-.46.22-.23.06-.5.04-.7 0-.02 0-.06-.02-.08-.02-.36-.08-.81-.31-1.33-.67-.12.06-.23.11-.35.15-.22.07-.53.13-.77.13-.69 0-1.34-.31-1.92-.88-.02-.02-.19.15-.17.17.58.63 1.33.99 2.08.99.24 0 .83-.09 1.05-.22.62.43 1.12.63 1.53.7.02 0 .07.01.09.02.23.04.53.04.77-.04.22-.07.38-.17.53-.3.06-.06.12-.12.16-.17.26.03.57.02.83-.06.27-.09.46-.2.64-.37.15-.14.29-.26.36-.42.4.02.72-.05.72-.05a.895.895 0 0 0 .69-.5c-.32.09-.67.13-.96.12h-.15" class="cls-1"/><path d="M36.79 37.96c-.66.4-1.33.75-1.99 1.03-.07.13-.17.26-.28.38-.29.33-.65.54-.98.61 0 .09 0 .19-.01.28.38-.09.77-.18 1.15-.29 2.51-.68 4.4-1.65 5.11-2.49.02-.02.06-.07.08-.09.19-.23.4-.56.47-.88.13-.55.03-.99-.26-1.32-.71.97-1.87 1.89-3.29 2.77M39.79 40.5s-.09.06-.11.08c-.83.64-2.69 1.16-5.08 1.37-.16.16-.36.34-.6.45-.25.12-.51.19-.75.2-.02.09-.04.15-.06.24h.05c2.59.31 4.7.12 5.67-.39l.1-.05c.26-.14.58-.37.77-.64.17-.25.26-.47.31-.72.05-.3.04-.5-.06-.75-.08.08-.17.15-.25.21M34.54 35.58c0 .31-.1.66-.29 1-.21.36-.49.64-.79.78 0 .1.02.19.03.29 1.03-.56 2.1-1.35 3.07-2.31 1.17-1.15 2.02-2.36 2.48-3.44.13-.3.19-.65.17-1.04-.06-.78-.46-1.43-.98-1.65 0 .15 0 .31-.02.47-.11 1.09-1.13 2.96-2.82 4.94-.28.33-.56.65-.85.96" class="cls-1"/><path d="M34.95 34.36c1.67-2 2.66-3.89 2.76-4.98.08-.68-.09-1.32-.48-1.54-.03.97-1.35 3.35-3.45 6 .2.37.11.99-.21 1.53-.11.18-.17.25-.36.44.02.12.05.24.07.37.57-.55 1.13-1.17 1.67-1.82" class="cls-1"/><path d="M21.74 35.49c-.05-.02-.1-.04-.15-.05.02.23.02.48.02.74 0 .64-.09 1.25-.22 1.75-.03.13.03.26.14.31.04.01.08.02.12.01.2-.48.47-.99.79-1.52.06-.1.12-.19.17-.29-.11-.41-.42-.78-.87-.97" class="cls-5"/><path d="M41.16 38.45a2.42 2.42 0 0 0-.35-1.09c.24-.36.37-.81.35-1.32-.02-.55-.22-1.06-.53-1.44.2-.35.3-.77.28-1.24-.03-.83-.42-1.55-1.01-1.93.02-.16.02-.31.02-.48-.04-1.25-.58-2.03-1.44-2.37-.18-.9-.79-1.72-1.33-2.13-.65 2.78-2.72 5.45-3.46 6.5-1.2 1.7-1.47 3.31-2.14 5.25-.79 2.3-1.34 4.74-3.44 6.18 0-.23.01-.46.04-.71.35-3.13 2.87-8.22 1.96-11.19-.06-.18-.12-.36-.2-.53-.9-2.04-2.95-2.35-5.05-1.41-1.31.59-2.66 1.09-3.29 2.51-.25.57-.34 1.16-.28 1.66.01.11.07.2.17.24.13.04.28-.03.36-.18.06-.1.1-.24.11-.39v-.02c0-.03 0-.07.02-.11.06-.16.24-.24.39-.18.15.06.22.24.15.4-.01.03-.03.05-.04.08-.04.05-.08.11-.11.18-.08.14-.13.29-.14.4-.03.17.07.34.23.41.01 0 .03.01.04.02.59.24 1.3-.07 1.72-.7.16-.23.3-.5.44-.79.21-.45.2-.91.54-1.31.57-.67 2.25-1.1 2.98-.22 1.42 1.72-.16 3.94-1.14 5.4-1.24 1.84-2.96 3.95-3.82 6.02-2.26 5.42 1.6 10.73 7.82 10.73 3.95 0 6.42-1.72 7.82-3.78-2.7-.21-4.17-1.96-4.17-1.96s.54-.05.89-.64c0 0 .25-.03.48-.06.54-.07 1.04-.35 1.25-.96.18-.51.19-.83.19-.83s.36-.15.58-.64c.12-.28.15-.42.15-.7.62-.21 1.1-.75 1.36-1.43.14-.36.16-.53.13-.88.7-.35 1.23-1.35 1.2-2.16 0-.28-.08-.53-.18-.76.31-.37.48-.88.44-1.46m-1.06 2.58c-.05.26-.14.48-.31.72-.19.27-.5.5-.77.64l-.1.05c-.97.51-3.08.7-5.67.39h-.05c.02-.09.04-.15.06-.24.24-.02.49-.09.75-.2.23-.11.44-.29.6-.45 2.4-.21 4.25-.72 5.08-1.37.02-.02.08-.06.11-.08.08-.06.17-.13.25-.21.09.25.11.45.06.75m-1.27 2.49c-.08.22-.2.4-.39.59-.21.21-.53.37-.78.45-.02 0-.08.02-.1.03-.88.28-2.61.16-4.67-.42.03-.08.05-.16.08-.25h.24c.41-.04.76-.24.96-.46 2.02.15 3.4.09 4.21-.21 0 0 .43-.14.52-.2 0 0 .03.22-.06.47m-2.93 4.02s-.32.07-.72.05c-.07.15-.21.28-.36.42-.18.17-.37.28-.64.37-.26.08-.57.09-.83.06-.04.06-.1.12-.16.17-.15.14-.31.23-.53.3-.24.08-.55.07-.77.04-.02 0-.07-.01-.09-.02-.41-.07-.91-.27-1.53-.7-.22.13-.81.22-1.05.22-.75 0-1.5-.36-2.08-.99-.02-.02.15-.2.17-.17.58.56 1.23.88 1.92.88.23 0 .54-.06.76-.13.12-.04.24-.09.35-.15.52.36.97.59 1.33.67.02 0 .06.01.08.02.2.04.48.06.7 0 .19-.05.32-.12.46-.22-.51-.13-1.17-.45-1.9-.94.08-.07.17-.15.25-.23.7.45 1.31.72 1.77.8.02 0 .07.02.1.02.25.04.58.05.85-.04.24-.08.42-.18.58-.33a.49.49 0 0 0 .12-.13c-.78-.18-1.74-.56-2.8-1.11.07-.1.13-.2.19-.31 1.38.69 2.56 1.06 3.38 1.08h.15c.29 0 .64-.03.96-.12-.04.11-.12.2-.22.29-.15.13-.32.18-.47.21m.04-1.06h-.1c-.74.05-1.96-.3-3.38-1.02.04-.09.09-.18.13-.28.51.12.99-.02 1.23-.29 1.43.39 2.46.5 3.29.37.02 0 .08-.02.1-.02.09-.02.18-.05.27-.08-.01.23-.08.41-.22.62-.13.18-.27.32-.49.46-.24.15-.57.22-.82.23m1.78-17.1c-.1 1.09-1.09 2.97-2.76 4.98-.54.65-1.1 1.27-1.67 1.82-.02-.12-.04-.25-.07-.37.19-.19.25-.25.36-.44.32-.54.41-1.17.21-1.53 2.1-2.66 3.42-5.03 3.45-6 .38.22.56.86.48 1.54m.51-.16c.52.22.93.87.98 1.65.03.39-.04.74-.17 1.04-.46 1.08-1.31 2.29-2.48 3.44-.98.96-2.04 1.74-3.07 2.31 0-.1-.02-.19-.03-.29.29-.15.58-.42.79-.78.19-.33.29-.69.29-1 .29-.31.57-.63.85-.96 1.69-1.98 2.7-3.85 2.82-4.94.02-.16.03-.32.02-.46m2.12 7.3c-.07.32-.28.65-.47.88-.02.02-.06.07-.08.09-.71.84-2.6 1.81-5.11 2.49-.39.1-.77.2-1.15.29 0-.09 0-.19.01-.28.33-.07.68-.29.98-.61.11-.12.2-.25.28-.38.66-.28 1.33-.63 1.99-1.03 1.42-.87 2.58-1.8 3.29-2.77.29.34.39.77.26 1.32m-.46-2.11-.05.1c-.5.97-2.12 2.34-4.42 3.57-.62.33-1.24.64-1.85.91v-.28c.29-.15.59-.42.8-.79.05-.09.09-.17.13-.26.86-.53 1.72-1.21 2.53-2.01 1.19-1.17 2.06-2.42 2.53-3.52.36.26.6.75.6 1.32 0 .33-.12.7-.26.96m-.23 5.62s-.07.05-.09.07c-.87.67-2.91 1.23-5.52 1.37l-.62.03c0-.09.02-.17.03-.26.11-.02.22-.05.34-.09.39-.14.7-.39.87-.65 2.6-.63 4.57-1.56 5.33-2.39.02-.02.07-.07.08-.09.07-.07.14-.16.21-.26.13.23.19.45.19.75 0 .26-.05.49-.18.77-.14.3-.41.58-.64.77" class="cls-5"/><path d="M37.73 10.96h-1.36V8.79h1.33s.02.1.02.19c0 .07 0 .13-.02.2h-.87v.47h.74s.02.1.02.19c0 .07 0 .13-.02.2h-.74v.53h.9s.02.1.02.19c0 .07 0 .13-.02.2M39.68 10.96c-.08.01-.17.02-.27.02-.09 0-.18 0-.24-.02l-.44-.78h-.19v.78c-.08.01-.15.02-.23.02-.08 0-.14 0-.22-.02V8.79c.15 0 .45-.02.64-.02.55 0 .82.19.82.69 0 .27-.16.53-.39.63l.52.86Zm-.93-1.81h-.21v.64h.16c.26 0 .38-.1.38-.33s-.12-.31-.33-.31M41.27 10.96h-1.36V8.79h1.33s.02.1.02.19c0 .07 0 .13-.02.2h-.87v.47h.74s.02.1.02.19c0 .07 0 .13-.02.2h-.74v.53h.9s.02.1.02.19c0 .07 0 .13-.02.2M37.06 13.18h-.23v.78c-.06 0-.13.02-.23.02-.09 0-.17 0-.23-.02v-2.17c.19 0 .47-.02.65-.02.49 0 .85.17.85.68s-.31.73-.81.73m-.01-1.03h-.21v.64h.2c.25 0 .38-.06.38-.33 0-.23-.11-.32-.37-.32M39.51 13.95h-1.36v-2.17h1.33s.02.1.02.19c0 .07 0 .13-.02.2h-.87v.47h.74s.02.1.02.19c0 .07 0 .13-.02.2h-.74v.53h.9s.02.1.02.19c0 .07 0 .13-.02.2M41.43 13.95c-.08.01-.17.02-.27.02-.09 0-.18 0-.24-.02l-.44-.78h-.19v.78c-.08.01-.15.02-.23.02-.08 0-.14 0-.22-.02v-2.17c.15 0 .45-.02.64-.02.55 0 .82.19.82.69 0 .27-.16.53-.39.63l.52.86Zm-.93-1.81h-.21v.64h.16c.26 0 .38-.1.38-.33s-.12-.31-.33-.31M46.62 10.96s-.14.02-.25.02c-.08 0-.18 0-.22-.02l-.16-.44h-.77l-.15.44c-.07 0-.15.02-.24.02s-.18 0-.23-.02l.76-2.17s.15-.02.22-.02c.09 0 .19 0 .23.02l.81 2.17Zm-.77-.82-.19-.61c-.02-.07-.05-.16-.06-.26-.02.1-.04.19-.06.26l-.18.61h.5ZM48.41 10.96c-.08.01-.17.02-.27.02-.09 0-.18 0-.24-.02l-.44-.78h-.19v.78c-.08.01-.15.02-.23.02-.08 0-.14 0-.22-.02V8.79c.15 0 .45-.02.64-.02.55 0 .82.19.82.69 0 .27-.16.53-.39.63l.52.86Zm-.93-1.81h-.21v.64h.16c.26 0 .38-.1.38-.33s-.12-.31-.33-.31M45.64 12.17h-.58v1.78c-.06 0-.15.02-.23.02s-.17 0-.23-.02v-1.78h-.57s-.02-.14-.02-.2.01-.15.03-.19h1.6s.02.14.02.19 0 .15-.02.2M47.27 13.95h-1.36v-2.17h1.33s.02.1.02.19c0 .07 0 .13-.02.2h-.87v.47h.74s.02.1.02.19c0 .07 0 .13-.02.2h-.74v.53h.9s.02.1.02.19c0 .07 0 .13-.02.2M48.23 13.98c-.23 0-.49-.04-.67-.13 0-.04-.02-.1-.02-.15 0-.08 0-.15.03-.24.19.08.44.13.64.13.23 0 .35-.11.35-.25 0-.16-.1-.23-.41-.32-.35-.11-.6-.27-.6-.65 0-.4.34-.62.8-.62.21 0 .39.03.52.07 0 .04.02.09.02.18 0 .06 0 .15-.02.21-.16-.04-.34-.06-.49-.06-.24 0-.37.08-.37.21 0 .15.12.21.41.3.35.11.6.27.6.66 0 .42-.33.67-.77.67M14.53 10.01c.05.13.1.29.12.41.02-.13.07-.28.12-.41l.24-.69c.06-.18.1-.35.1-.53.06 0 .15-.02.23-.02.07 0 .16 0 .22.02 0 .21-.04.42-.13.65l-.58 1.52s-.13.02-.21.02c-.09 0-.16 0-.22-.02l-.57-1.51a1.75 1.75 0 0 1-.13-.65c.06 0 .13-.02.23-.02.07 0 .17 0 .22.02 0 .2.04.36.1.53l.24.69ZM16.3 10.96c-.06 0-.13.02-.23.02-.09 0-.17 0-.23-.02V8.79c.06 0 .15-.02.23-.02.09 0 .17 0 .23.02v2.17ZM18.2 9.18h-.57v1.78c-.06 0-.15.02-.23.02s-.17 0-.23-.02V9.18h-.57s-.02-.14-.02-.2.01-.15.03-.19h1.6s.02.14.02.19 0 .15-.02.2M15.59 13.95s-.14.02-.25.02c-.08 0-.18 0-.22-.02l-.16-.44h-.77l-.15.44c-.07 0-.15.02-.24.02s-.18 0-.23-.02l.76-2.17s.15-.02.22-.02c.09 0 .19 0 .23.02l.81 2.17Zm-.77-.82-.19-.61c-.02-.07-.05-.16-.06-.26-.02.1-.04.19-.06.26l-.18.61h.5ZM18.04 13.95s-.13.02-.22.02c-.1 0-.19 0-.22-.02l-.04-1.3-.48 1.1s-.11.02-.16.02c-.06 0-.13 0-.16-.02l-.48-1.1-.04 1.3s-.14.02-.23.02c-.05 0-.14 0-.2-.02l.09-2.17c.06 0 .12-.02.19-.02.08 0 .15 0 .19.02l.64 1.47.64-1.47c.06 0 .13-.02.19-.02.07 0 .14 0 .19.02l.1 2.17ZM22.72 10.96h-1.36V8.79h1.33s.02.1.02.19c0 .07 0 .13-.02.2h-.87v.47h.74s.02.1.02.19c0 .07 0 .13-.02.2h-.74v.53h.9s.02.1.02.19c0 .07 0 .13-.02.2M23.23 10.37l.41-.56-.38-.52c-.12-.17-.2-.32-.22-.5.05 0 .16-.02.22-.02.08 0 .17 0 .23.02.02.14.1.26.18.38l.23.33.23-.32c.08-.11.15-.25.16-.38.05 0 .15-.02.23-.02.07 0 .17 0 .22.02-.03.21-.11.36-.24.55l-.34.47.41.58c.14.2.21.39.23.58-.06 0-.15.02-.23.02-.07 0-.16 0-.22-.02 0-.14-.06-.28-.14-.4l-.3-.46-.3.45c-.08.12-.12.27-.12.41-.05 0-.16.02-.23.02-.08 0-.17 0-.22-.02 0-.2.04-.36.21-.59M26.42 9.24a1.74 1.74 0 0 0-.5-.08c-.37 0-.6.26-.6.72 0 .43.19.71.6.71.15 0 .33-.03.48-.08.02.06.04.15.04.22v.15c-.16.07-.37.12-.55.12-.69 0-1.03-.42-1.03-1.1s.37-1.14 1.05-1.14c.17 0 .39.04.54.11 0 .03.01.1.01.14 0 .1-.01.19-.02.23M22.09 13.98c-.59 0-.91-.41-.91-1.12s.32-1.12.91-1.12.91.41.91 1.12-.32 1.12-.91 1.12m0-1.84c-.28 0-.43.21-.43.72s.16.72.43.72.43-.21.43-.72-.16-.72-.43-.72M24.59 13.95h-1.33v-2.17c.06 0 .14-.02.23-.02s.18 0 .23.02v1.78h.87s.02.1.02.19c0 .07 0 .13-.02.2M26.41 13.13c0 .55-.21.86-.83.86s-.82-.3-.82-.86v-1.34c.06 0 .15-.02.23-.02.09 0 .17 0 .23.02v1.38c0 .29.08.46.36.46s.38-.17.38-.46v-1.38c.06 0 .15-.02.23-.02s.17 0 .22.02v1.34ZM235.42 0h2.16v70.87h-2.16z" class="cls-4"/></g></svg>