<svg xmlns="http://www.w3.org/2000/svg" xmlns:xlink="http://www.w3.org/1999/xlink" id="Layer_1" x="0" y="0" version="1.1" viewBox="0 0 1110 377" xml:space="preserve"><style>.st2{fill:#003c3c}</style><g><g><path fill="#00c896" d="M376.8 188.5c0 104-84.3 188.3-188.3 188.3C84.5 376.8.2 292.5.2 188.5S84.6.2 188.6.2s188.2 84.3 188.2 188.3"/><path fill="#fff" d="M282.6 114.4V91h-24.5c-19.6-14-43.6-22.2-69.5-22.2S138.7 77 119.1 91H94.6v23.3c-16.1 20.4-25.7 46.1-25.7 74.1 0 40.8 20.5 76.9 51.7 98.5 2 1.4 4 2.6 6.1 3.7l61.9 32.8 61.9-32.8c2.3-1.2 4.4-2.5 6.5-4 31-21.6 51.3-57.6 51.3-98.3 0-27.8-9.6-53.6-25.7-73.9"/><path d="M277.6 237.7V96.3h-178v141.4c0 20.5 11.3 39.4 29.5 49l59.5 31.5 59.5-31.5c18.1-9.7 29.5-28.5 29.5-49m-57 45.9c0-3.1 2.5-5.7 5.7-5.7 3.1 0 5.7 2.5 5.7 5.7 0 3.1-2.5 5.7-5.7 5.7-3.1-.1-5.7-2.6-5.7-5.7m-38 18.5c0-3.1 2.5-5.7 5.7-5.7 3.1 0 5.7 2.5 5.7 5.7s-2.5 5.7-5.7 5.7-5.7-2.5-5.7-5.7m-17.9-25.6l23.9-12.9 23.8 12.9-23.9 12.6-23.8-12.6zm-20 7c0-3.1 2.5-5.7 5.7-5.7 3.1 0 5.7 2.5 5.7 5.7 0 3.1-2.5 5.7-5.7 5.7-3.1 0-5.7-2.6-5.7-5.7m-19.4-54.1l41.2 22.3-24.1 13-1.3-.7c-4.8-2.5-8.8-6.3-11.5-10.9-2.8-4.6-4.3-9.9-4.3-15.3v-8.4zm-18.6-4.2c0-3.1 2.5-5.7 5.7-5.7 3.1 0 5.7 2.5 5.7 5.7 0 3.1-2.6 5.7-5.7 5.7-3.2 0-5.7-2.5-5.7-5.7m0-38.3c0-3.1 2.5-5.7 5.7-5.7 3.1 0 5.7 2.5 5.7 5.7 0 3.1-2.6 5.7-5.7 5.7-3.2 0-5.7-2.5-5.7-5.7m0-38.3c0-3.1 2.5-5.7 5.7-5.7 3.1 0 5.7 2.5 5.7 5.7 0 3.1-2.6 5.7-5.7 5.7-3.2 0-5.7-2.6-5.7-5.7m11.5-39.3c0 3.1-2.5 5.7-5.7 5.7-3.1 0-5.7-2.5-5.7-5.7 0-3.1 2.5-5.7 5.7-5.7 3.2.1 5.7 2.6 5.7 5.7m6.2 150.2c0 3.1-2.5 5.7-5.7 5.7-3.1 0-5.7-2.5-5.7-5.7 0-3.1 2.5-5.7 5.7-5.7s5.7 2.5 5.7 5.7m44.4-150.2c0 3.1-2.5 5.7-5.7 5.7-3.1 0-5.7-2.5-5.7-5.7 0-3.1 2.5-5.7 5.7-5.7 3.1.1 5.7 2.6 5.7 5.7m50.5 0c0 3.1-2.5 5.7-5.7 5.7-3.1 0-5.7-2.5-5.7-5.7 0-3.1 2.5-5.7 5.7-5.7 3.2.1 5.7 2.6 5.7 5.7m32.6 96.2l-63.3 34.1-63.3-34.2V122h126.6v83.5zm0 32.2c0 5.4-1.5 10.7-4.3 15.3-2.8 4.6-6.8 8.4-11.6 10.9l-1.3.7-24.1-13 41.1-22.2v8.3zm6.5 16.2c3.1 0 5.7 2.5 5.7 5.7 0 3.1-2.5 5.7-5.7 5.7-3.1 0-5.7-2.5-5.7-5.7.1-3.2 2.6-5.7 5.7-5.7m11.5-144.6c0 3.1-2.5 5.7-5.7 5.7-3.1 0-5.7-2.5-5.7-5.7 0-3.1 2.5-5.7 5.7-5.7 3.1.1 5.7 2.6 5.7 5.7m0 39.4c0 3.1-2.5 5.7-5.7 5.7-3.1 0-5.7-2.5-5.7-5.7 0-3.1 2.5-5.7 5.7-5.7 3.1 0 5.7 2.6 5.7 5.7m0 38.3c0 3.1-2.5 5.7-5.7 5.7-3.1 0-5.7-2.5-5.7-5.7 0-3.1 2.5-5.7 5.7-5.7 3.1.1 5.7 2.6 5.7 5.7m0 38.4c0 3.1-2.5 5.7-5.7 5.7-3.1 0-5.7-2.5-5.7-5.7 0-3.1 2.5-5.7 5.7-5.7 3.1 0 5.7 2.5 5.7 5.7m-81.3-6.6l2.4 1.7h15.8l2.8-1.5v-19.9l-1.6-1.6v20.2l-3.9-1.9c-2.4-1.2-4.7-1.8-6.8-1.8-2.1 0-4.3.6-6.8 1.8l-2 1-2-1c-2.4-1.2-4.7-1.8-6.8-1.8-2.1 0-4.3.6-6.8 1.8l-3.9 1.9v-20.4l-1.5 1.7v20l2.8 1.5h15.8l2.5-1.7zm13.7-35.3l12.2 9.2c.8-6.5 1.6-12.9 2.3-18.9l-17.3-13.1c.9 7.3 1.8 15 2.8 22.7v.1zm17.2-22.5c-1.5 12.7-3 25.4-4.6 38 8 3.9 17.1 3.9 25.1 0-1.6-12.7-3.2-25.3-4.6-38-5.3-.8-10.6-.8-15.9 0m6.7 11.4c0-.9.3-1.8.8-2.6.2-.3.3-.4.5-.7.2.3.3.4.5.7.5.8.8 1.6.8 2.6v6.2h-2.5v-6.2zm9.2-12.7c.8-1.1 1.5-2.2 2.4-3.3-6.8-1.8-13.8-1.8-20.5 0l2.4 3.3c5.1-.8 10.4-.8 15.7 0m-7.3-6c3.2.1 6.5.5 9.7 1.5V149c-1.2-.4-2.3-.8-3.6-1.1l-1.2 2.4c-.8-.1-1.6-.3-2.4-.3-.4-.9-.8-1.9-1.2-2.8-1.2-.1-2.5-.1-3.7 0-.4.9-.8 1.9-1.2 2.8l-2.4.3-1.2-2.4c-1.2.3-2.4.7-3.6 1.1v6.2c3.4-1.1 7.1-1.6 10.8-1.5m-10.5 13.9l-2.2-1.6-.6 1.4-2-1.5-.8-2.4-2-1.5-.8 1.2-2-1.5-.8-2.4-2-1.5-.8 1.2-2-1.5-.8-2.4-2.2-1.6s.5 4.2.7 5.8l17.7 13.3c.1-1.2.6-5 .6-5m-21.1-23.4c.8-1.1 1.5-2.2 2.4-3.3-6.8-1.8-13.8-1.8-20.5 0l2.4 3.3c5.1-.9 10.4-.9 15.7 0m-8.6-6c3.6-.1 7.3.4 10.9 1.5v-6.2c-1.2-.4-2.3-.8-3.6-1.1l-1.2 2.4c-.8-.1-1.6-.3-2.4-.3-.4-.9-.8-1.9-1.2-2.8-1.2-.1-2.5-.1-3.7 0-.4.9-.8 1.9-1.2 2.8l-2.4.3-1.2-2.4c-1.2.3-2.4.7-3.6 1.1v6.2c3.1-1 6.4-1.5 9.6-1.5m-9.4 15l-2.2 1.6-.8 2.4-2 1.5-.8-1.2-2 1.5-.8 2.4-2 1.5-.8-1.2-2 1.5-.8 2.4-2 1.5-.6-1.4-2.2 1.6s.5 3.9.6 4.8l17.7-13.3c.2-1.4.7-5.6.7-5.6m-20.9 6.5c.8-1.1 1.5-2.2 2.4-3.3-6.8-1.8-13.8-1.8-20.5 0l2.4 3.3c5.1-.8 10.4-.8 15.7 0m-8.5-6c3.6-.1 7.3.4 10.9 1.5V149c-1.2-.4-2.3-.8-3.6-1.1l-1.2 2.4c-.8-.1-1.6-.3-2.4-.3-.4-.9-.8-1.9-1.2-2.8-1.2-.1-2.5-.1-3.7 0-.4.9-.8 1.9-1.2 2.8l-2.4.3-1.2-2.4c-1.2.3-2.4.7-3.6 1.1v6.2c3-1 6.3-1.4 9.6-1.5m-7.3 7.3c-1.5 12.7-3 25.4-4.6 38 8 3.9 17.1 3.9 25.1 0-1.6-12.7-3.2-25.3-4.6-38-5.4-.8-10.7-.8-15.9 0m6.6 11.4c0-.9.3-1.8.8-2.6.2-.3.3-.4.4-.7.2.3.3.4.5.7.5.8.8 1.6.8 2.6v6.2h-2.5v-6.2zm14.2 20.3l12.2-9.2v-.2c1-7.7 1.9-15.4 2.8-22.7l-17.3 13.1c.7 6.1 1.5 12.5 2.3 19m24.5 22l.6.3v-22c-2.9-1.4-5.4-2.1-8-2.1-2.8 0-5.5.8-8.6 2.4l-.7.4v21.9l1.9-.9c2.6-1.3 5-1.9 7.4-1.9 2.4 0 4.8.6 7.4 1.9m10.2-23.8c-2.6 0-5.1.7-8 2.1v22l.6-.3c2.6-1.3 5-1.9 7.4-1.9 2.3 0 4.7.6 7.4 1.9l1.9.9v-21.9l-.7-.4c-3.1-1.6-5.8-2.4-8.6-2.4m-8.7-19.2c1.8 1.1 3.3 2.7 4.4 4.5 1 1.8 1.6 3.9 1.6 6v1.9c.7.5 1 .7 1.7 1.3 1.7-.5 3.3-1.1 4.9-1.9-1.6-12.7-3.2-25.3-4.6-38-5.3-.8-10.6-.8-15.8 0-1.5 12.7-3 25.4-4.6 38 1.6.8 3.2 1.4 4.9 1.9.7-.5 1-.7 1.7-1.3v-1.9c-.2-4.3 2.1-8.3 5.8-10.5m1.2-8.7h-2.5v-6.2c0-.9.3-1.8.8-2.6.2-.3.3-.4.5-.7.2.3.3.4.5.7.5.7.8 1.6.8 2.6v6.2zM342.4 218.9c-.1.7-.5 1.1-1 1.5-.5.3-1.1.4-1.7.3-.7-.1-1.1-.4-1.5-.9-.3-.5-.5-1.1-.3-1.7.1-.7.4-1.1 1-1.5.5-.3 1.1-.4 1.7-.3.6.1 1.1.4 1.5.9.3.5.5 1 .3 1.7m-19.7 30.6l1.7-4.1c.4-1 1-1.7 1.9-2 .8-.3 1.6-.3 2.5.1.9.4 1.5 1 1.8 1.8s.2 1.7-.2 2.7l-1.7 4-6-2.5zm20.4-.4l1.8-4.2-11.5 3.4c.4-1 .5-2 .5-3-.1-1.2-.4-2.2-1.1-3.1-.6-.9-1.5-1.6-2.7-2.1-1.1-.5-2.2-.6-3.3-.5-1.1.2-2.1.6-3 1.3-.9.7-1.6 1.7-2.2 3l-3.2 7.5 20.1 8.5 1.4-3.3-8.5-3.6.4-.8 11.3-3.1zm-16.3 31.8c-.9 1.4-2 2.4-3.4 3.1-1.3.7-2.8 1-4.3.9-1.5-.1-2.9-.6-4.3-1.5l-11.2-7.5 2-3 11.2 7.5c.9.6 1.8.9 2.7 1 .9.1 1.7-.1 2.5-.5s1.4-1 2-1.8c.5-.8.8-1.6.9-2.5.1-.9-.1-1.7-.5-2.5s-1-1.5-1.9-2.1l-11.2-7.5 2-3 11.3 7.5c1.4.9 2.4 2 3 3.4.7 1.3.9 2.7.8 4.2-.2 1.5-.7 2.9-1.6 4.3M312 300l-15.2-15.6-1.8 1.7 3.5 15.5-15.4-4-1.8 1.7 15.2 15.6 2.6-2.5-9.7-10 11 2.9 1.8-1.7-2.5-11.1 9.7 10 2.6-2.5zm-30.7 26.1L269 308.2l2.9-2 12.3 17.9-2.9 2zm-20.1 12c-1.5.7-3 1-4.5.9-1.5-.1-2.9-.6-4.1-1.4-1.2-.8-2.2-2-2.9-3.5l-5.9-12.1 3.2-1.6 5.9 12.1c.5 1 1.1 1.7 1.8 2.2.7.5 1.6.8 2.4.8.9 0 1.7-.1 2.6-.6.9-.4 1.6-1 2-1.7.5-.7.8-1.5.8-2.4.1-.9-.1-1.8-.6-2.7L256 316l3.2-1.6 5.9 12.2c.7 1.5 1 3 .9 4.4-.1 1.5-.6 2.8-1.4 4.1-.8 1.2-1.9 2.2-3.4 3m-29.6 6.4c-.9.9-2.1 1.6-3.5 1.9-1 .3-2.1.3-3 .2-1-.1-1.9-.5-2.7-1-.8-.5-1.5-1.2-2.1-2-.6-.8-1-1.8-1.3-2.9-.4-1.5-.4-2.9-.1-4.2.3-1.3 1-2.4 1.9-3.3.9-.9 2.1-1.5 3.5-1.9 1.1-.3 2.1-.3 3-.2 1 .1 1.9.5 2.7 1 .8.5 1.5 1.2 2.1 2 .6.8 1 1.8 1.3 2.9.4 1.5.4 2.9.1 4.2v.2l-4.7-2.8-1.7 2.8 4.8 2.9c-.1 0-.2.1-.3.2m9 1.2l-4.1-2.5c.3-.8.6-1.7.7-2.6.2-1.5.1-2.9-.2-4.4-.4-1.5-1-2.9-1.9-4-.9-1.2-1.9-2.1-3.2-2.9-1.2-.7-2.6-1.2-4-1.5-1.4-.2-2.9-.1-4.4.2-1.5.4-2.8 1-4 1.9-1.2.9-2.1 1.9-2.8 3.2-.7 1.2-1.2 2.6-1.4 4-.2 1.4-.1 2.9.2 4.4.4 1.5 1 2.9 1.9 4 .9 1.2 1.9 2.1 3.2 2.9 1.2.7 2.6 1.2 4 1.5 1.5.2 2.9.2 4.4-.2 1.5-.4 2.8-1 4-1.9.7-.5 1.3-1.2 1.9-1.8l4.1 2.4 1.6-2.7zm-35.4 8.1l-.2-3.3-11.1.6-.3-6.3 10-.5-.2-3.1-10 .5-.3-5.8 10.9-.6-.2-3.3-14.5.8 1.1 21.8 14.8-.8zm-36.4-.3c-1.7-.2-3.1-.7-4.2-1.4-1.1-.8-2.1-1.8-2.9-3.1l2.7-2.1c.5.9 1.1 1.7 1.9 2.3.8.6 1.8.9 3.1 1.1 1.2.1 2.2 0 2.9-.4.8-.4 1.2-1 1.3-1.9.1-.7 0-1.3-.3-1.8s-.8-.9-1.3-1.3c-.6-.4-1.2-.7-1.9-1-.7-.3-1.4-.7-2.1-1.1-.7-.4-1.3-.8-1.9-1.4-.6-.5-1-1.2-1.3-1.9-.3-.8-.4-1.7-.2-2.8.2-1.3.6-2.3 1.3-3.1.7-.8 1.7-1.4 2.8-1.7 1.1-.3 2.4-.4 3.7-.3 1.4.2 2.7.6 3.7 1.3s1.9 1.5 2.5 2.5l-2.7 2.1c-.5-.8-1.1-1.4-1.7-1.8-.6-.4-1.4-.7-2.2-.8-1.1-.1-1.9 0-2.6.3-.7.4-1 .9-1.1 1.7-.1.7 0 1.2.4 1.7.3.4.8.8 1.3 1.2.6.4 1.2.7 1.9 1 .7.3 1.4.7 2.1 1.1.7.4 1.3.9 1.9 1.4.5.6 1 1.2 1.2 2 .3.8.4 1.8.2 2.9-.2 1.9-1.1 3.4-2.6 4.4-1.7.9-3.6 1.2-5.9.9m-30.2-29.6l-13 9.2-2.1-15.7-2.3-1-8.7 20 3.3 1.4 5.6-12.8 1.5 11.3 2.3 1 9.3-6.6-5.6 12.8 3.3 1.4 8.7-20-2.3-1zm-28.3-10.3l1.9-2.7-11.9-8.3-12.5 17.8 12 8.4 1.9-2.7-9.1-6.4 3.6-5.1 8.2 5.7 1.8-2.6L98 312l3.3-4.8 9 6.4zM71 306c-1.1-1.1-1.9-2.4-2.4-3.7-.5-1.4-.8-2.7-.7-4.2 0-1.4.4-2.8.9-4.1.6-1.3 1.4-2.5 2.6-3.6 1.1-1.1 2.3-1.9 3.7-2.5 1.3-.6 2.7-.8 4.2-.8 1.4 0 2.8.3 4.2.8 1.3.6 2.6 1.4 3.7 2.5 1.2 1.3 2.1 2.6 2.6 3.9.5 1.3.7 2.7.7 4.1h-3.4c.1-1-.1-1.9-.5-2.8-.4-.9-1-1.8-1.8-2.7-.8-.8-1.6-1.3-2.5-1.7-.9-.4-1.8-.6-2.8-.5-1 0-1.9.2-2.8.7-.9.4-1.8 1-2.6 1.8s-1.4 1.7-1.9 2.6c-.4.9-.7 1.9-.7 2.8 0 1 .1 1.9.5 2.8.4.9.9 1.7 1.7 2.5.9 1 1.9 1.6 2.8 2 .9.4 1.9.5 2.8.5v3.4c-1.4 0-2.8-.3-4.2-.8-1.5-.8-2.8-1.7-4.1-3m-21.2-26.2c-.9-1.4-1.4-2.8-1.5-4.3-.1-1.5.2-2.9.9-4.3.7-1.3 1.7-2.5 3.1-3.4l11.3-7.4 2 3-11.3 7.4c-.9.6-1.5 1.3-1.9 2.1-.4.8-.6 1.6-.5 2.5.1.9.4 1.7.9 2.5s1.2 1.4 2 1.8c.8.4 1.6.6 2.5.5.9-.1 1.8-.4 2.6-.9l11.3-7.4 2 3-11.3 7.4c-1.4.9-2.8 1.4-4.3 1.5-1.5.1-2.9-.2-4.2-.9-1.6-.6-2.7-1.7-3.6-3.1m5.3-36.8l-1.4-3.3-20 8.6 5.5 12.7 3-1.3-4.1-9.4 17-7.3zm-20.3-24.1c-.1-.7 0-1.2.3-1.7.4-.5.8-.8 1.5-.9.7-.1 1.2 0 1.7.3s.8.8 1 1.5c.1.7 0 1.2-.3 1.7s-.8.8-1.5.9c-.6.1-1.2 0-1.7-.3-.6-.3-.9-.8-1-1.5m315.7-33c-.6.6-1.4 1-2.3 1-1 0-1.8-.2-2.4-.8-.6-.6-.9-1.4-.9-2.5l-.2-4.4 6.5-.2.2 4.4c0 1-.3 1.9-.9 2.5m3.7-10.7l-21.8.8.1 3.6 9.2-.3v.9l-9 7.8.2 4.5 9-8c.1 1.1.4 2.1.8 2.9.6 1 1.3 1.8 2.3 2.3 1 .5 2.1.8 3.3.7 1.2 0 2.3-.4 3.2-1 .9-.6 1.6-1.4 2.2-2.5.5-1.1.7-2.3.7-3.6l-.2-8.1zM332 154l6.1-1.3 2.1 9.8 3.1-.7-2.1-9.8 5.7-1.2 2.3 10.7 3.2-.7-3.1-14.2-21.3 4.6 3.1 14.3 3.2-.7L332 154zm10.3-19.4l3-1.2-6.8-16.4-3 1.2 2.7 6.6-17.1 7.1 1.4 3.3 17.1-7.1 2.7 6.5zm-25.6-31l5.3 8.5 2.7-1.7-5.3-8.5 4.9-3.1 5.8 9.2 2.8-1.7-7.7-12.3-18.4 11.6 7.8 12.4 2.8-1.7-5.9-9.4 5.2-3.3zM314.3 80l-9.7 1.4 2.1-9.7-2.9-3.1-2.6 12.8-13.6 1.8 2.7 2.9 10.7-1.4-2.5 10.3 2.8 3.1 3.1-13.3L317 83l-2.7-3zm-28.6-10.9l1.9-2.5-8.1-6 3.5-4.7 8.8 6.5 1.9-2.6-11.7-8.6-13 17.5 11.8 8.7 1.9-2.6-8.9-6.6 3.7-5.1 8.2 6zm-29.1-28.6l1.2-3-13-5.3-8.2 20.2 3.3 1.3 3.5-8.7 9.2 3.7 1.2-3-9.2-3.7 2.2-5.5 9.8 4zm-40 3.4c1.4.3 2.8.2 4-.2 1.2-.4 2.2-1.2 3.1-2.2.8-1 1.4-2.3 1.7-3.8.2-1.1.2-2.2.1-3.2-.2-1-.5-1.9-1-2.7-.5-.8-1.2-1.5-2-2s-1.8-.9-2.8-1.1c-1.4-.3-2.7-.2-4 .2-1.2.4-2.2 1.2-3.1 2.2-.8 1-1.4 2.3-1.7 3.8-.2 1.1-.2 2.2-.1 3.2.2 1 .5 1.9 1 2.7.5.8 1.2 1.5 2 2s1.7.9 2.8 1.1m-.6 3.4c-1.5-.3-2.9-.9-4.1-1.7-1.2-.8-2.2-1.8-3-3-.8-1.2-1.4-2.5-1.7-4s-.3-2.9 0-4.5c.3-1.5.9-2.9 1.7-4.1.8-1.2 1.8-2.2 3-3 1.2-.8 2.5-1.4 3.9-1.7 1.4-.3 2.9-.3 4.4 0 1.5.3 2.9.9 4.1 1.7 1.2.8 2.2 1.8 3 3 .8 1.2 1.4 2.5 1.7 4 .3 1.4.3 2.9 0 4.5-.3 1.5-.9 2.9-1.7 4.1s-1.8 2.2-3 3c-1.2.8-2.5 1.4-3.9 1.7-1.4.3-2.9.3-4.4 0m-29.3-25l-4.1.3-5 9.3-6.3-8.5-4.1.3 8.8 11.7.7 9.5 3.6-.3-.7-9.6 7.1-12.7zm-27.4 5.9l-.8-3.2-17.3 4.2.8 3.2 6.9-1.7 4.3 18 3.5-.8-4.3-18 6.9-1.7zM135 54.7l-7.9-20.3 3.3-1.3 7.9 20.3-3.3 1.3zm-17 8.5c-1.5.8-2.9 1.3-4.3 1.3s-2.7-.2-4.2-.8l.9-3.3c1 .5 1.9.7 2.9.7s2-.3 3.1-.9c1-.6 1.8-1.3 2.1-2.1.4-.8.4-1.6-.1-2.3-.4-.6-.8-1.1-1.4-1.3-.5-.2-1.2-.3-1.8-.3-.7 0-1.4.1-2.2.3-.8.2-1.5.3-2.3.4-.8.1-1.6.1-2.3 0-.8-.1-1.5-.4-2.2-.8-.7-.4-1.3-1.2-1.8-2.1-.6-1.1-.9-2.2-.8-3.3.1-1.1.5-2.1 1.2-3.1.7-.9 1.6-1.7 2.8-2.4 1.2-.7 2.5-1.1 3.8-1.1 1.3-.1 2.4.1 3.5.5l-.9 3.3c-.9-.3-1.7-.5-2.5-.4-.8 0-1.5.3-2.3.7-.9.5-1.6 1.1-1.9 1.8-.3.7-.3 1.4.1 2.1.3.6.7 1 1.3 1.1.5.2 1.1.2 1.8.2.7-.1 1.4-.2 2.2-.3.8-.1 1.5-.3 2.3-.3.8-.1 1.6-.1 2.3.1.8.1 1.5.4 2.2.9.7.5 1.3 1.2 1.9 2.3 1 1.7 1.1 3.4.5 5.1-.5 1.4-1.8 2.8-3.9 4m-35.2 1.5l3.4-2.8c.9-.7 1.7-1 2.6-.9.9.1 1.6.5 2.2 1.2.6.8.9 1.6.8 2.4-.1.8-.6 1.6-1.5 2.3l-3.4 2.8-4.1-5zm18.3 9.2l3.5-2.8-11.8-2.4c.8-.7 1.4-1.6 1.8-2.4.5-1.1.6-2.1.5-3.2-.1-1.1-.6-2.1-1.4-3.1-.8-.9-1.7-1.6-2.7-2-1-.4-2.1-.4-3.3-.2-1.2.2-2.3.8-3.3 1.6l-6.3 5.1 13.7 16.9 2.8-2.3-5.9-7.1.7-.6 11.7 2.5zM83.5 89.5L81 87.4l-7.1 8.5-4.8-4 6.5-7.7-2.4-2-6.5 7.7-4.5-3.7 7-8.4-2.5-2.1-9.3 11.1 16.7 14 9.4-11.3zm-32.8 6.2l-2 3.3 10.5 13.4-16.8-2.7-2 3.4 23.2 3.4 1.3-2.1-14.2-18.7zm4.2 39l-20.1-8.4 1.4-3.3 20.1 8.4-1.4 3.3zm-4.2 11l-21.2-5.2-.9 3.5 14.6 3.6-17.3 7.6-.6 2.4 21.2 5.2.9-3.5-14.6-3.6 17.3-7.6.6-2.4zm-5.8 36.1c-.1 1.6-.5 3.1-1.3 4.4-.8 1.3-1.9 2.3-3.2 2.9-1.3.7-2.8 1-4.5.9l-13.5-.6.2-3.6 13.5.6c1.1 0 2-.1 2.8-.5.8-.4 1.4-1 1.9-1.7s.7-1.6.8-2.6c0-1-.1-1.8-.5-2.6s-1-1.4-1.7-1.9c-.8-.5-1.7-.7-2.7-.8l-13.5-.6.2-3.6 13.5.6c1.6.1 3.1.5 4.3 1.3 1.2.8 2.2 1.9 2.9 3.2.6 1.5.9 2.9.8 4.6" class="st2"/></g><path d="M648.1 83.6c0-4.8 3.9-8.7 8.7-8.7 4.8 0 8.7 3.9 8.7 8.7s-3.9 8.7-8.7 8.7c-4.8-.1-8.7-4-8.7-8.7zm-188.2 1.6v53.9c0 26.6 14.9 41.1 41.3 41.1 26.8 0 41.8-14.5 41.8-41.7V85.3c0-5.5 2.7-10.7 7.2-13.8l3.8-2.7h-31.8l4.4 2.7c4.9 3.1 7.9 8.4 7.9 14.2v49.8c0 11.5 0 36.6-29.4 36.6-26.9 0-30.3-20.1-30.3-36.6V85.2c0-5.5 2.6-10.6 7.1-13.7l3.8-2.7H449l3.8 2.7c4.5 3.1 7.1 8.2 7.1 13.7zm190.5 39.4V163c0 4.9-2.2 9.6-5.9 12.8l-2.6 2.2h30.7l-2.8-2.2c-4.1-3.2-6.6-8.1-6.6-13.3v-61.8l-21.4 8.4 3.4 3.3c3.4 3.3 5.2 7.6 5.2 12.2zm264.9 48.9c-7.9 0-17-8.3-19.8-14.8l-9.4 11c4.7 6 18.1 10.7 27.1 10.7 18.1 0 30.7-8.9 30.7-23.2 0-11.9-6.8-17.1-18.1-21.6l-7.8-3.2c-9.2-3.7-15.8-7.5-15.8-14.6s5.3-10.5 12.7-10.4c12.4.1 18.6 13 18.6 13 2.7-5.1 3.9-7.4 7-13.2-5.7-3-14.5-6.7-23.7-6.7-16.6 0-27.4 8.2-27.4 21.5 0 13.2 10.1 18.1 19.7 22l8.1 3.3c7.5 3.1 12.9 6.1 12.9 13.5 0 8.6-5.9 12.7-14.8 12.7zm-228.7-51.8l21.6 56.3h10.1l22.5-56.4c1.5-3.7 3.5-7.2 6-10.4 2.5-3.1 5.4-5.9 8.7-8.2h-24.6l.1.1c3.3 4.4 4.1 10.2 2.2 15.3l-14.4 38c-.9 2.4-1.7 4.7-2.4 7.1-.7-2.3-1.4-4.7-2.3-7.1l-14.7-38c-.7-1.9-1.1-3.8-1.1-5.8 0-3.4 1.1-6.8 3.2-9.7h-29.6c6.7 4.7 11.8 11.2 14.7 18.8zm278.9-29.5c4.8 0 8.7-3.9 8.7-8.7s-3.9-8.7-8.7-8.7c-4.8 0-8.7 3.9-8.7 8.7s3.9 8.7 8.7 8.7zM751.9 129c4.6-16.3 20.4-28.1 37.1-28.1 16.6 0 31.3 11.8 35.9 28.1.7 2.3 1.1 4.8 1.4 7.2h-58.7V140.9c.7 16.2 10.7 29.2 24.1 30.3.6.1 1.2.1 1.8.1 11.3 0 21-8.6 24.8-20.7h7.1c-4.2 17-18.6 29.5-35.7 29.5-20.4 0-39.2-17.8-39.2-39.7 0-1.5.1-2.9.2-4.3 0-2.3.5-4.7 1.2-7.1zm16.8 0h40.2c-3-11.9-9.1-20.7-18.5-21.5-.5-.1-1-.1-1.6-.1-10.2 0-17 9-20.1 21.6zm63.8 46.8l-2.6 2.2h31.6l-3.2-2.2c-4.5-3.1-7.2-8.3-7.2-13.8v-36.4c13.5-12.8 29.8-8.3 29.8-8.3V100c-22.3 0-30.7 17.7-30.7 17.7l-1.5-17.1-18.2 8.4 3.5 3.9c2.8 3.1 4.3 7.1 4.3 11.2V163c.1 5-2 9.6-5.8 12.8zm-73.1 115l-15.9-22.9 15.7-19.5c4.1-5.1 8.8-9.7 13.9-13.7l2-1.6H748c4.7 4 5.4 10.9 1.8 15.8-3.5 4.7-7.1 9.4-10.6 14.1l-9.9-14.6c-3.2-4.8-2.5-11.2 1.7-15.1l.3-.3h-33.5l.5.4c6.3 4.4 11.7 9.9 16 16.2l16 23.3-15.7 20c-4.2 5.4-9.1 10.2-14.5 14.4l-.9.7h27l-.1-.1c-5.1-3.9-6.1-11.1-2.3-16.2 3.5-4.7 7-9.5 10.5-14.2l10.8 15.6c3.2 4.6 2.7 10.8-1.3 14.8l-.1.1h33.4l-.1-.1c-6.7-4.4-12.8-10.2-17.6-17.1zm212.5-128.3v-61.8l-21.4 8.4 3.4 3.3c3.3 3.2 5.1 7.5 5.1 12.1V163c0 4.9-2.2 9.6-5.9 12.8l-2.6 2.2h30.7l-2.8-2.2c-4.1-3.1-6.5-8.1-6.5-13.3zm-53.5 106.2V271.1c.7 16.2 10.7 29.2 24.1 30.3.6.1 1.2.1 1.8.1 11.3 0 21-8.6 24.8-20.7h7.1c-4.2 17-18.6 29.5-35.7 29.5-20.4 0-39.2-17.8-39.2-39.7 0-1.5.1-2.9.2-4.3.2-2.5.7-4.9 1.4-7.2 4.6-16.3 20.4-28.1 37.1-28.1 16.6 0 31.3 11.8 35.9 28.1.7 2.3 1.1 4.8 1.4 7.2h-58.7v1.4c-.2.4-.2.7-.2 1zm1.2-9.6h40.2c-3-11.9-9.1-20.7-18.5-21.5-.5-.1-1-.1-1.6-.1-10.1 0-17 9-20.1 21.6zM1085 103c4.8 4.4 6.5 11.2 4.4 17.3-4.2 12-14.9 42.6-15.9 46.1-.9-3.4-16.2-45.4-16.2-45.4-2.4-6.5-.4-13.7 5-18.1l-28.5-.1h-23V76l-13.1 11.6v15.3H985v7.9h12.7v52.1c0 8.1 4.1 16.5 17.9 16.5 6.3 0 13.3-2.3 19.1-6.9l-1.3-3.7c-16.4 3.8-22.6 1.1-22.6-9.9v-48h28.4l25.3 67.2h4.8s-10.1 22.2-26.3 22.2l6.2 11c14.9-4.3 24.7-26.5 33.3-49.4l17.3-46c1.4-3.7 3.6-7 6.5-9.7l3.5-3.2H1085zM878 289.3v-47.9h19.2v-8.1H878v-26.8L864.9 218v15.3h-12.7v8.1h12.7v52c0 8.1 4.1 16.5 17.9 16.5 6.3 0 13.3-2.3 19.1-6.9l-1.3-3.7c-16.4 3.7-22.6 1-22.6-10zm-354.1-29.4c0 26.1-20.9 49.6-47.6 49.6-18.2 0-27.8-9.5-27.8-29 0-26.1 20.9-49.6 47.6-49.6 18.2 0 27.8 9.5 27.8 29zm-15-7.5c0-10-3.1-15.6-12.9-15.5-18.7.1-32.4 27.2-32.4 51.2 0 10 3.1 15.6 12.9 15.5 18.7-.1 32.4-27.2 32.4-51.2zm494.3-4.8l-1.5-17.1-18.2 8.4 3.5 3.9c2.8 3.1 4.3 7.1 4.3 11.2v38.8c0 4.9-2.2 9.6-5.9 12.8l-2.6 2.2h31.6l-3.2-2.2c-4.5-3.1-7.2-8.3-7.2-13.8v-36.4c13.5-12.8 29.8-8.3 29.8-8.3v-17.3c-22.2.1-30.6 17.8-30.6 17.8zm-459-23.6c-.6 3-1.1 6-1.7 9.1h-14.3v7.3l-.1.3h13L529 304.6c-2.2 11.7-4.9 21.8-18 36.6l2.8 2.3c16.1-9.5 24.6-19.7 27.5-34.7l13.1-68 22.6-.2V233h-21.1c4.2-21.6 5.2-38.8 16.8-38.8 3.8 0 10.7 2.2 16 6.1l5.2-9.6c-2.4-2.4-9.3-4.3-13.7-4.3-18-.1-31.8 15.3-36 37.6zm61.6-48.2l-2.6 2.2h30.3l-2.6-2.2c-3.9-3.2-6.2-8-6.2-13v-36.9c0-14.7-5.3-25.2-22.5-25.2-9 0-17.8 4-24 11.6-.6-4-1.5-11.6-1.5-11.6l-19.6 8.4 3.7 3.7c3.1 3.1 4.9 7.4 4.9 11.8V163c0 4.9-2.2 9.6-5.9 12.8L557 178h30.7l-2.8-2.1c-4.2-3.2-6.6-8.1-6.6-13.4v-40.1c2.1-4.2 9.4-11.3 18-11.3 12.3 0 15.5 6.1 15.5 17.1v34.6c.1 5.1-2.2 9.9-6 13zm185.4 92.9V271.1c.7 16.2 10.7 29.2 24.1 30.3.6.1 1.2.1 1.8.1 11.3 0 21-8.6 24.8-20.7h7.1c-4.2 17-18.6 29.5-35.7 29.5-20.4 0-39.2-17.8-39.2-39.7 0-1.5.1-2.9.2-4.3.2-2.5.7-4.9 1.4-7.2 4.6-16.3 20.4-28.1 37.1-28.1 16.6 0 31.3 11.8 35.9 28.1.7 2.3 1.1 4.8 1.4 7.2h-58.7v1.4c-.2.4-.2.7-.2 1zm1.2-9.6h40.2c-3-11.9-9.1-20.7-18.5-21.5-.5-.1-1-.1-1.6-.1-10.1 0-17 9-20.1 21.6zm-137.2 42h-16.7l.2-48.6h13.8c5.1 0 10.1.6 15 1.7l14.2 3.2V242l-15 3.1c-4.6 1-9.3 1.4-13.9 1.4h-14.4v-41.3h18.5c6.1 0 12.1 1.4 17.6 4.1l16.8 8.2-1.7-18.7h-77l3.8 2.7c4.5 3.1 7.2 8.3 7.2 13.8l-.1 76.4c0 5.5-2.7 10.6-7.2 13.7l-3.8 2.7H692l1.3-19.5-17.1 7.9c-6.5 3.1-13.7 4.6-21 4.6z" class="st2"/></g></svg>